<svg width="371" height="151" viewBox="0 0 371 151" fill="none" xmlns="http://www.w3.org/2000/svg">
<g opacity="0.16">
<path opacity="0.16" d="M316.3 70.21C316.125 70.2196 315.95 70.2196 315.775 70.21C295.193 67.4231 285.508 60.5825 276.147 53.9952C267.15 47.641 258.649 41.6315 239.937 39.0979C221.225 36.5643 211.44 40.1113 201.078 43.8407C190.302 47.6309 179.151 51.6846 158.559 48.9078C137.967 46.131 128.293 39.2803 118.922 32.6931C109.925 26.349 101.423 20.2685 82.7117 17.7653C81.7212 17.6001 80.8335 17.0555 80.2359 16.2466C79.6383 15.4376 79.3776 14.4276 79.5088 13.4296C79.6399 12.4316 80.1527 11.5237 80.9389 10.8976C81.7251 10.2714 82.7232 9.9759 83.7226 10.0735C104.305 12.8604 113.989 19.701 123.36 26.2882C132.357 32.6525 140.859 38.652 159.57 41.1855C178.282 43.7191 188.068 40.1721 198.419 36.4427C209.256 32.5816 220.376 28.5583 240.968 31.3452C261.56 34.1321 271.244 40.9626 280.605 47.56C289.602 53.9243 298.104 59.9237 316.816 62.4573C317.796 62.5807 318.692 63.0751 319.32 63.8391C319.949 64.6032 320.262 65.5792 320.196 66.5673C320.13 67.5554 319.69 68.4809 318.966 69.1543C318.242 69.8278 317.288 70.1982 316.3 70.1897V70.21Z" fill="#D6D7D8"/>
<path opacity="0.16" d="M342.462 109.825H342.058C315.35 107.392 302.35 99.7714 289.774 92.3937C277.492 85.1883 265.897 78.3882 241.15 76.1789C216.403 73.9697 203.878 78.5402 190.605 83.4249C176.998 88.4312 162.937 93.5592 136.219 91.1776C109.501 88.7961 96.5207 81.0738 83.9046 73.6961C71.6222 66.5008 60.0272 59.6906 35.2804 57.4813C34.1114 57.3698 33.0346 56.7973 32.2867 55.8898C31.5388 54.9822 31.1811 53.8141 31.2924 52.6422C31.4037 51.4703 31.9747 50.3908 32.88 49.641C33.7852 48.8913 34.9505 48.5327 36.1194 48.6443C62.8274 51.0461 75.8174 58.6771 88.4031 66.0549C100.686 73.2603 112.281 80.0604 137.027 82.2696C161.774 84.4789 174.299 79.8982 187.572 75.0236C201.169 70.0173 215.231 64.8894 241.949 67.2608C268.667 69.6322 281.657 77.314 294.232 84.6917C306.515 91.8971 318.11 98.6972 342.857 100.906C343.984 101.015 345.027 101.553 345.77 102.41C346.513 103.268 346.899 104.378 346.849 105.513C346.798 106.647 346.314 107.719 345.498 108.506C344.682 109.294 343.595 109.737 342.462 109.744V109.825Z" fill="#D6D7D8"/>
</g>
<path d="M147.672 135.424C147.672 135.92 124.694 136.326 96.3484 136.326C68.0028 136.326 45.0352 135.92 45.0352 135.424C45.0352 134.927 68.0129 134.522 96.3484 134.522C124.684 134.522 147.672 134.927 147.672 135.424Z" fill="#010101"/>
<path d="M178.332 135.424C178.332 135.92 155.354 136.326 127.009 136.326C98.6633 136.326 75.6855 135.92 75.6855 135.424C75.6855 134.927 98.6633 134.522 127.009 134.522C155.354 134.522 178.332 134.927 178.332 135.424Z" fill="#010101"/>
<path d="M202.291 135.424C202.291 135.92 179.313 136.326 150.978 136.326C122.642 136.326 99.6543 135.92 99.6543 135.424C99.6543 134.927 122.632 134.522 150.978 134.522C179.323 134.522 202.291 134.927 202.291 135.424Z" fill="#010101"/>
<path d="M169.063 135.14H175.694V116.756H169.063V135.14Z" fill="#010101"/>
<path d="M169.063 135.14C172.441 135.14 175.179 131.025 175.179 125.948C175.179 120.872 172.441 116.756 169.063 116.756C165.685 116.756 162.947 120.872 162.947 125.948C162.947 131.025 165.685 135.14 169.063 135.14Z" fill="#010101"/>
<path d="M146.884 135.14H153.516V116.756H146.884V135.14Z" fill="#010101"/>
<path d="M146.884 135.14C150.261 135.14 152.999 131.025 152.999 125.948C152.999 120.872 150.261 116.756 146.884 116.756C143.506 116.756 140.768 120.872 140.768 125.948C140.768 131.025 143.506 135.14 146.884 135.14Z" fill="#010101"/>
<path d="M153.515 135.14C156.893 135.14 159.631 131.025 159.631 125.948C159.631 120.872 156.893 116.756 153.515 116.756C150.138 116.756 147.399 120.872 147.399 125.948C147.399 131.025 150.138 135.14 153.515 135.14Z" fill="#010101"/>
<path d="M153.515 132.971C156.094 132.971 158.185 129.827 158.185 125.948C158.185 122.07 156.094 118.925 153.515 118.925C150.936 118.925 148.845 122.07 148.845 125.948C148.845 129.827 150.936 132.971 153.515 132.971Z" fill="#606768"/>
<path d="M167.931 129.688H183.63V115.662H167.931V129.688Z" fill="#010101"/>
<path d="M93.6396 129.688H109.339V115.662H93.6396V129.688Z" fill="#010101"/>
<path d="M58.4701 135.14H65.1016V116.756H58.4701V135.14Z" fill="#010101"/>
<path d="M58.4704 135.14C61.8482 135.14 64.5864 131.025 64.5864 125.948C64.5864 120.872 61.8482 116.756 58.4704 116.756C55.0927 116.756 52.3545 120.872 52.3545 125.948C52.3545 131.025 55.0927 135.14 58.4704 135.14Z" fill="#010101"/>
<path d="M65.1023 135.14C68.48 135.14 71.2182 131.025 71.2182 125.948C71.2182 120.872 68.48 116.756 65.1023 116.756C61.7245 116.756 58.9863 120.872 58.9863 125.948C58.9863 131.025 61.7245 135.14 65.1023 135.14Z" fill="#010101"/>
<path d="M65.102 132.971C67.6814 132.971 69.7723 129.827 69.7723 125.948C69.7723 122.07 67.6814 118.925 65.102 118.925C62.5226 118.925 60.4316 122.07 60.4316 125.948C60.4316 129.827 62.5226 132.971 65.102 132.971Z" fill="#606768"/>
<path d="M169.154 135.14H175.785V116.756H169.154V135.14Z" fill="#010101"/>
<path d="M173.299 135.14C176.676 135.14 179.414 131.025 179.414 125.948C179.414 120.872 176.676 116.756 173.299 116.756C169.921 116.756 167.183 120.872 167.183 125.948C167.183 131.025 169.921 135.14 173.299 135.14Z" fill="#010101"/>
<path d="M174.804 135.14C178.182 135.14 180.92 131.025 180.92 125.948C180.92 120.872 178.182 116.756 174.804 116.756C171.427 116.756 168.688 120.872 168.688 125.948C168.688 131.025 171.427 135.14 174.804 135.14Z" fill="#606768"/>
<path d="M175.786 132.971C178.365 132.971 180.456 129.827 180.456 125.948C180.456 122.07 178.365 118.925 175.786 118.925C173.206 118.925 171.115 122.07 171.115 125.948C171.115 129.827 173.206 132.971 175.786 132.971Z" fill="#C1C1C5"/>
<path d="M174.137 127.782C174.813 127.782 175.36 126.961 175.36 125.948C175.36 124.935 174.813 124.114 174.137 124.114C173.462 124.114 172.914 124.935 172.914 125.948C172.914 126.961 173.462 127.782 174.137 127.782Z" fill="#606768"/>
<path d="M94.8529 135.14H101.484V116.756H94.8529V135.14Z" fill="#010101"/>
<path d="M94.863 135.14C98.2407 135.14 100.979 131.025 100.979 125.948C100.979 120.872 98.2407 116.756 94.863 116.756C91.4853 116.756 88.7471 120.872 88.7471 125.948C88.7471 131.025 91.4853 135.14 94.863 135.14Z" fill="#010101"/>
<path d="M101.484 135.14C104.862 135.14 107.6 131.025 107.6 125.948C107.6 120.872 104.862 116.756 101.484 116.756C98.1064 116.756 95.3682 120.872 95.3682 125.948C95.3682 131.025 98.1064 135.14 101.484 135.14Z" fill="#606768"/>
<path d="M101.484 132.971C104.063 132.971 106.154 129.827 106.154 125.948C106.154 122.07 104.063 118.925 101.484 118.925C98.9045 118.925 96.8135 122.07 96.8135 125.948C96.8135 129.827 98.9045 132.971 101.484 132.971Z" fill="#C1C1C5"/>
<path d="M99.8365 127.782C100.512 127.782 101.06 126.961 101.06 125.948C101.06 124.935 100.512 124.114 99.8365 124.114C99.1609 124.114 98.6133 124.935 98.6133 125.948C98.6133 126.961 99.1609 127.782 99.8365 127.782Z" fill="#1F3656"/>
<path d="M51.8088 129.718H94.8326V126.09C94.8326 120.557 97.7744 115.956 101.454 115.956C105.134 115.956 108.156 120.425 108.156 125.968V129.718H169.124V126.09C169.124 120.557 172.065 115.956 175.745 115.956C176.526 115.977 177.292 116.17 177.991 116.52C178.69 116.87 179.303 117.369 179.789 117.983L180.041 118.287L180.284 118.601C180.365 118.702 180.436 118.814 180.516 118.925L180.739 119.28L180.84 119.462C180.911 119.574 180.981 119.706 181.042 119.827L181.234 120.212L181.325 120.415C181.416 120.618 181.497 120.82 181.578 121.023C181.8 121.6 181.979 122.193 182.114 122.796C182.224 123.271 182.308 123.752 182.366 124.236C182.431 124.825 182.465 125.416 182.467 126.009V129.718H197.712C198.207 129.718 198.601 129.12 198.601 128.38V71.6287C198.601 70.8889 198.207 70.291 197.712 70.291H67.5889C67.2827 70.2913 66.9786 70.3427 66.6892 70.443L56.8633 73.7975C56.4765 73.9335 56.1292 74.1633 55.8524 74.4663C55.6668 74.6709 55.5041 74.8951 55.3671 75.1352C55.0789 75.6372 54.8804 76.186 54.7808 76.7567C54.7808 76.8985 54.7808 77.0303 54.7101 77.1722L54.6191 77.9525L49.7364 118.935L49.049 124.712C48.7356 127.306 50.0599 129.718 51.8088 129.718Z" fill="#D6D7D8"/>
<path d="M51.8087 129.718H94.8325V126.09C94.8325 120.557 97.7743 115.956 101.454 115.956C105.134 115.956 108.156 120.425 108.156 125.968V129.718H169.124V126.09C169.124 120.557 172.065 115.956 175.745 115.956C176.526 115.977 177.292 116.17 177.991 116.52C178.689 116.87 179.303 117.369 179.789 117.983L180.041 118.287L180.284 118.601C180.365 118.702 180.435 118.814 180.516 118.925L180.739 119.28L180.84 119.462C180.911 119.574 180.981 119.706 181.042 119.827L181.234 120.212L181.325 120.415C181.416 120.618 181.507 120.82 181.578 121.023C181.8 121.6 181.979 122.193 182.114 122.796C182.224 123.271 182.308 123.752 182.366 124.236C182.431 124.825 182.465 125.416 182.467 126.009V129.718H197.712C198.207 129.718 198.601 129.12 198.601 128.38V114.983H111.199C110.83 114.963 110.471 114.862 110.146 114.687C109.821 114.512 109.538 114.267 109.319 113.97L100.221 103.268C99.6968 102.596 99.409 101.769 99.4018 100.917L98.4819 76.8479C98.4583 76.1972 98.1838 75.5812 97.7162 75.1294C97.2486 74.6776 96.6243 74.4254 95.9749 74.4258H55.8523C55.6667 74.6303 55.504 74.8546 55.367 75.0946C55.0164 75.72 54.7931 76.4089 54.7099 77.1215L54.619 77.9018L49.6352 119.736L49.0489 124.712C49.0389 124.874 49.0389 125.036 49.0489 125.198C48.9074 127.6 50.171 129.718 51.8087 129.718Z" fill="#D6D7D8"/>
<path d="M198.581 124.732H197.307C197.217 124.732 197.128 124.714 197.044 124.68C196.961 124.645 196.885 124.594 196.821 124.53C196.757 124.466 196.707 124.39 196.672 124.307C196.638 124.223 196.62 124.134 196.62 124.043V120.435C196.62 120.345 196.638 120.255 196.672 120.172C196.707 120.088 196.757 120.012 196.821 119.948C196.885 119.884 196.961 119.833 197.044 119.799C197.128 119.764 197.217 119.746 197.307 119.746H198.581V124.732Z" fill="#606768"/>
<path d="M104.457 104.231H195.67C195.759 104.231 195.843 104.195 195.906 104.133C195.969 104.07 196.004 103.985 196.004 103.896C196.004 103.807 195.969 103.722 195.906 103.66C195.843 103.597 195.759 103.562 195.67 103.562H104.457C104.368 103.562 104.283 103.597 104.221 103.66C104.158 103.722 104.123 103.807 104.123 103.896C104.123 103.985 104.158 104.07 104.221 104.133C104.283 104.195 104.368 104.231 104.457 104.231Z" fill="#B4B4C0"/>
<path d="M106.66 106.46H195.67C195.758 106.46 195.843 106.425 195.906 106.362C195.968 106.299 196.004 106.214 196.004 106.126C196.004 106.037 195.968 105.952 195.906 105.889C195.843 105.826 195.758 105.791 195.67 105.791H106.711C106.666 105.79 106.622 105.797 106.58 105.814C106.538 105.83 106.5 105.854 106.468 105.885C106.436 105.917 106.411 105.954 106.394 105.995C106.376 106.036 106.367 106.081 106.367 106.126C106.369 106.207 106.399 106.285 106.453 106.347C106.506 106.408 106.58 106.448 106.66 106.46Z" fill="#B4B4C0"/>
<path d="M108.854 108.69H195.67C195.759 108.69 195.843 108.654 195.906 108.592C195.969 108.529 196.004 108.444 196.004 108.355C196.004 108.266 195.969 108.181 195.906 108.119C195.843 108.056 195.759 108.021 195.67 108.021H108.854C108.766 108.021 108.681 108.056 108.618 108.119C108.556 108.181 108.521 108.266 108.521 108.355C108.521 108.444 108.556 108.529 108.618 108.592C108.681 108.654 108.766 108.69 108.854 108.69Z" fill="#B4B4C0"/>
<path d="M111.047 110.919H195.67C195.758 110.919 195.843 110.884 195.906 110.821C195.968 110.758 196.003 110.673 196.003 110.585C196.003 110.496 195.968 110.411 195.906 110.348C195.843 110.285 195.758 110.25 195.67 110.25H111.047C110.959 110.25 110.874 110.285 110.812 110.348C110.749 110.411 110.714 110.496 110.714 110.585C110.714 110.673 110.749 110.758 110.812 110.821C110.874 110.884 110.959 110.919 111.047 110.919Z" fill="#C1C1C5"/>
<path d="M49.0085 125.198C48.9985 125.036 48.9985 124.874 49.0085 124.712L49.5948 119.736H92.6591C93.1444 119.736 93.4678 120.516 93.2454 121.175L92.1233 124.519C92.0556 124.714 91.9302 124.883 91.7641 125.004C91.5979 125.126 91.3988 125.193 91.1933 125.198H49.0085Z" fill="#D84F55"/>
<path d="M54.7705 125.198H86.1084L86.8666 119.736H55.4074L54.8109 124.712C54.7907 124.874 54.7806 125.036 54.7705 125.198Z" fill="#010101"/>
<path d="M103.354 99.204H186.572C186.728 99.1958 186.88 99.149 187.014 99.0677C187.148 98.9863 187.26 98.873 187.34 98.7378C187.432 98.6006 187.504 98.4503 187.552 98.2919L190.737 88.7455L193.638 80.0605L195.104 75.6723C195.286 75.115 195.023 74.4664 194.618 74.4664H111.381C111.138 74.4912 110.909 74.593 110.727 74.757C110.545 74.9209 110.42 75.1386 110.37 75.3784L105.821 89.0191L104.123 94.1572L103.334 96.5083L102.839 98.0082C102.677 98.5554 102.94 99.204 103.354 99.204ZM189.999 99.204H198.581V74.4664H198.318C198.036 74.4668 197.762 74.556 197.533 74.7215C197.304 74.887 197.134 75.1204 197.045 75.3886L194.74 82.3204L191.838 91.0156L189.503 98.0082C189.321 98.5554 189.594 99.204 190.049 99.204H189.999ZM49.7363 118.935H92.7501C93.5083 118.935 94.2058 118.287 94.5495 117.263L95.3885 114.77L96.2983 112.054L97.3092 108.923L98.1786 106.308C98.4998 105.328 98.6402 104.298 98.5931 103.268L98.1786 92.6573L97.8956 85.3201L97.754 81.0739L97.6631 78.7126C97.6396 78.191 97.4163 77.6986 97.0397 77.338C96.663 76.9774 96.1621 76.7764 95.6413 76.777H54.7807C54.7807 76.9189 54.7807 77.0506 54.7099 77.1925L54.619 77.9728L53.8709 84.2459L52.7387 93.8025L50.545 112.389L49.7363 118.935ZM99.1996 78.8342L99.422 84.479L99.5939 88.7759L99.8769 96.1131L99.978 98.6669C99.978 99.2446 100.524 99.4067 100.696 98.8899L100.908 98.2413L102.253 94.1876L103.031 91.8364L104.749 86.7085L108.419 75.7331C108.652 75.044 108.247 74.2738 107.752 74.4461L100.079 77.1215C99.7762 77.2835 99.5297 77.5342 99.3726 77.8402C99.2155 78.1462 99.1551 78.493 99.1996 78.8342Z" fill="#A2A3AD"/>
<path d="M217.848 11.5935H171.347C166.83 11.5935 163.169 15.2641 163.169 19.7921V131.127C163.169 135.655 166.83 139.325 171.347 139.325H217.848C222.365 139.325 226.027 135.655 226.027 131.127V19.7921C226.027 15.2641 222.365 11.5935 217.848 11.5935Z" fill="#1A335E"/>
<path d="M217.202 14.9075H171.994C168.723 14.9075 166.07 17.5663 166.07 20.8461V130.509C166.07 133.788 168.723 136.447 171.994 136.447H217.202C220.473 136.447 223.125 133.788 223.125 130.509V20.8461C223.125 17.5663 220.473 14.9075 217.202 14.9075Z" fill="#D84E55"/>
<path d="M220.467 60.9675H169.336C169.001 60.9675 168.729 61.2398 168.729 61.5756V61.7377C168.729 62.0735 169.001 62.3458 169.336 62.3458H220.467C220.802 62.3458 221.074 62.0735 221.074 61.7377V61.5756C221.074 61.2398 220.802 60.9675 220.467 60.9675Z" fill="#1A335E"/>
<path d="M219.072 68.4467C219.05 66.6503 218.338 64.9317 217.084 63.6483C215.83 62.3648 214.131 61.6152 212.34 61.5554H171.297C171.277 61.5621 171.259 61.575 171.247 61.5923C171.234 61.6096 171.228 61.6303 171.228 61.6517C171.228 61.673 171.234 61.6938 171.247 61.7111C171.259 61.7284 171.277 61.7413 171.297 61.748C172.699 62.2487 173.925 63.1497 174.823 64.3399C175.721 65.5301 176.253 66.9576 176.352 68.4467V120.456L177.898 122.097L179.425 120.456L180.961 122.097L182.488 120.466L184.004 122.097L185.531 120.466L187.057 122.097L188.573 120.466L190.1 122.097L191.616 120.466L193.143 122.097L194.669 120.466L196.185 122.097L197.712 120.466L199.238 122.097L200.755 120.466L202.281 122.097L203.797 120.466L205.324 122.097L206.85 120.466L208.367 122.097L209.893 120.466L211.42 122.097L212.936 120.466L214.462 122.097L215.979 120.466L217.505 122.097L219.042 120.456V77.2128L219.072 68.4467Z" fill="url(#paint0_linear_1948_7593)"/>
<path d="M215.079 64.3423H179.718C179.483 64.3423 179.293 64.5328 179.293 64.7679V64.8693C179.293 65.1043 179.483 65.2949 179.718 65.2949H215.079C215.313 65.2949 215.503 65.1043 215.503 64.8693V64.7679C215.503 64.5328 215.313 64.3423 215.079 64.3423Z" fill="white"/>
<path d="M207.922 31.9026C207.682 31.3341 207.309 30.8323 206.834 30.4404C206.358 30.0485 205.795 29.7783 205.192 29.6528C195.599 28.7407 183.326 30.8892 180.819 33.2099C179.728 34.2234 179.525 36.5948 180.213 40.4863C180.537 42.2497 180.952 43.9952 181.456 45.7156L181.628 46.2628L184.661 45.9183C184.776 46.7897 185.22 47.5839 185.9 48.1384C186.58 48.6929 187.447 48.9656 188.321 48.9009C189.196 48.8361 190.012 48.4388 190.604 47.7901C191.196 47.1414 191.518 46.2905 191.505 45.4115C191.51 45.3272 191.51 45.2426 191.505 45.1582L198.743 44.3272V44.4083C198.717 44.8771 198.788 45.3463 198.949 45.7871C199.111 46.2278 199.36 46.631 199.682 46.9719C200.004 47.3128 200.392 47.5843 200.823 47.7698C201.253 47.9554 201.716 48.0511 202.185 48.0511C202.653 48.0511 203.117 47.9554 203.547 47.7698C203.977 47.5843 204.365 47.3128 204.687 46.9719C205.009 46.631 205.259 46.2278 205.42 45.7871C205.582 45.3463 205.652 44.8771 205.627 44.4083C205.629 44.128 205.595 43.8487 205.526 43.5773L208.609 43.2124L208.771 42.878C210.034 40.3242 209.62 34.9834 207.922 31.9026ZM188.027 47.4992C187.613 47.4992 187.208 47.3759 186.863 47.1449C186.519 46.914 186.251 46.5858 186.093 46.2018C185.935 45.8179 185.894 45.3956 185.976 44.9884C186.057 44.5812 186.257 44.2074 186.551 43.9145C186.845 43.6215 187.218 43.4225 187.625 43.3427C188.032 43.2629 188.453 43.3059 188.835 43.4662C189.217 43.6266 189.543 43.897 189.772 44.2433C190.001 44.5896 190.122 44.9962 190.12 45.4115C190.12 45.6866 190.065 45.9589 189.96 46.2128C189.855 46.4668 189.701 46.6973 189.506 46.8913C189.312 47.0853 189.081 47.2389 188.827 47.3432C188.573 47.4475 188.301 47.5005 188.027 47.4992ZM202.18 46.4858C201.765 46.4878 201.36 46.3665 201.014 46.1372C200.669 45.9079 200.399 45.581 200.239 45.1978C200.079 44.8147 200.036 44.3926 200.116 43.985C200.196 43.5774 200.394 43.2027 200.686 42.9083C200.979 42.6139 201.351 42.4131 201.758 42.3313C202.164 42.2495 202.585 42.2905 202.968 42.4489C203.351 42.6074 203.678 42.8763 203.909 43.2215C204.139 43.5667 204.262 43.9727 204.262 44.388C204.265 44.6643 204.213 44.9385 204.11 45.1947C204.006 45.4509 203.854 45.6841 203.66 45.8809C203.466 46.0777 203.236 46.2342 202.982 46.3415C202.728 46.4488 202.455 46.5047 202.18 46.506V46.4858ZM207.689 41.9355L204.889 42.2497C204.679 41.9675 204.418 41.7269 204.121 41.5403C203.549 41.1482 202.873 40.9365 202.18 40.9322C201.67 40.9321 201.168 41.0457 200.708 41.2649C200.248 41.484 199.842 41.8031 199.521 42.199C199.312 42.4171 199.129 42.6585 198.975 42.9185L191.12 43.8002C191.04 43.6583 190.959 43.5266 190.868 43.3948V43.3442C190.585 42.9575 190.224 42.6342 189.809 42.3952C189.395 42.1562 188.935 42.0066 188.459 41.956C187.983 41.9055 187.502 41.955 187.046 42.1016C186.591 42.2481 186.171 42.4884 185.813 42.8071C185.282 43.2632 184.889 43.8603 184.681 44.5299L182.659 44.763C181.537 40.8613 180.587 35.3077 181.8 34.193C183.488 32.6323 192.081 30.7777 200.491 30.7777C202.058 30.7777 203.615 30.8385 205.121 30.9804C205.688 31.0513 206.284 31.5986 206.81 32.5411C208.124 35.0949 208.569 39.6654 207.699 41.9558L207.689 41.9355Z" fill="white"/>
<path d="M184.833 36.8278C184.735 36.7583 184.625 36.7068 184.509 36.6758C184.357 36.6237 184.196 36.5997 184.034 36.6048C183.85 36.5971 183.667 36.6317 183.498 36.7062C183.361 36.7609 183.234 36.8399 183.124 36.9393V39.7363H181.962V35.5914L183.135 35.5103V35.9157L183.509 35.6927C183.637 35.618 183.772 35.5568 183.913 35.5103C184.048 35.4724 184.187 35.4519 184.327 35.4495C184.435 35.4377 184.543 35.4377 184.651 35.4495C184.715 35.4413 184.779 35.4413 184.843 35.4495L184.833 36.8278Z" fill="white"/>
<path d="M188.149 37.2838C188.118 37.0128 187.993 36.7616 187.795 36.5744C187.615 36.4133 187.379 36.3296 187.138 36.3413C187.012 36.3308 186.885 36.3481 186.767 36.3918C186.648 36.4356 186.54 36.5048 186.451 36.5946C186.287 36.789 186.188 37.03 186.168 37.2838H188.149ZM189.241 37.8411H186.208C186.241 38.1262 186.382 38.3875 186.603 38.5708C186.815 38.7221 187.07 38.8004 187.33 38.7937C187.587 38.7872 187.841 38.7498 188.089 38.6823C188.322 38.6367 188.545 38.5473 188.746 38.4188V39.4322C188.534 39.5592 188.301 39.6451 188.058 39.6856C187.819 39.7388 187.575 39.7693 187.33 39.7768C187.02 39.7949 186.71 39.7515 186.417 39.6488C186.123 39.5462 185.853 39.3865 185.622 39.1789C185.414 38.9676 185.251 38.7153 185.145 38.438C185.039 38.1606 184.991 37.8642 185.005 37.5675C184.994 37.2672 185.044 36.9677 185.152 36.6872C185.259 36.4068 185.423 36.1511 185.632 35.9359C185.839 35.7295 186.085 35.5674 186.356 35.4594C186.627 35.3514 186.917 35.2998 187.209 35.3076C187.493 35.2964 187.776 35.3509 188.035 35.4669C188.294 35.5829 188.524 35.7573 188.705 35.9764C189.104 36.5119 189.295 37.1749 189.241 37.8411Z" fill="white"/>
<path d="M192.577 38.51V36.6859C192.494 36.5877 192.385 36.5141 192.263 36.473C192.111 36.419 191.95 36.3916 191.788 36.392C191.655 36.3807 191.521 36.4004 191.396 36.4497C191.272 36.4989 191.16 36.5762 191.071 36.6757C190.895 36.9381 190.813 37.2525 190.838 37.5675C190.811 37.8984 190.9 38.2283 191.091 38.4999C191.168 38.6028 191.269 38.6852 191.385 38.7399C191.502 38.7947 191.63 38.8201 191.758 38.814C191.924 38.8182 192.09 38.7871 192.243 38.7228C192.367 38.6746 192.481 38.6023 192.577 38.51ZM193.739 39.7869H192.85L192.597 39.4018L191.97 39.7363C191.9 39.7719 191.825 39.7959 191.748 39.8072H191.495C191.234 39.8241 190.973 39.7776 190.734 39.6718C190.494 39.5659 190.284 39.4038 190.12 39.1991C189.795 38.7533 189.627 38.211 189.645 37.6587C189.626 37.3688 189.667 37.0781 189.764 36.8045C189.861 36.5309 190.014 36.2801 190.211 36.0677C190.409 35.8711 190.644 35.7175 190.903 35.6163C191.162 35.5152 191.44 35.4687 191.718 35.4799C191.875 35.4631 192.035 35.4631 192.193 35.4799C192.327 35.5074 192.457 35.5552 192.577 35.6218V33.8179H193.739V39.7869Z" fill="white"/>
<path d="M197.691 37.8614C197.702 37.7389 197.686 37.6156 197.644 37.5C197.602 37.3844 197.536 37.2795 197.449 37.1926C197.262 37.0465 197.029 36.9712 196.792 36.9797H195.983V38.7532H196.903C197.013 38.7603 197.124 38.7432 197.227 38.7029C197.33 38.6626 197.423 38.6003 197.499 38.5201C197.638 38.3296 197.706 38.0967 197.691 37.8614ZM197.479 35.6015C197.488 35.4949 197.474 35.3877 197.438 35.2871C197.402 35.1866 197.344 35.0951 197.269 35.019C197.194 34.9429 197.104 34.884 197.004 34.8463C196.904 34.8087 196.797 34.7932 196.691 34.8009H195.983V36.392H196.761C196.861 36.3989 196.961 36.3834 197.053 36.3465C197.146 36.3097 197.229 36.2525 197.297 36.1791C197.426 36.015 197.49 35.8098 197.479 35.6015ZM198.996 38.0236C199.006 38.2547 198.968 38.4856 198.883 38.7006C198.797 38.9156 198.667 39.1098 198.5 39.2701C198.156 39.5854 197.702 39.7528 197.237 39.7363H194.699V33.8179H197.176C197.593 33.7988 198.002 33.9402 198.318 34.2131C198.568 34.4705 198.723 34.8061 198.756 35.1639C198.789 35.5217 198.699 35.88 198.5 36.1791C198.403 36.2973 198.284 36.3942 198.148 36.464C198.012 36.5337 197.864 36.5747 197.712 36.5845C198.053 36.644 198.369 36.8025 198.621 37.0406C198.748 37.1695 198.847 37.3235 198.912 37.4927C198.976 37.6619 199.005 37.8427 198.996 38.0236Z" fill="white"/>
<path d="M203.605 39.7362H202.432V39.27L201.937 39.5437C201.805 39.6249 201.662 39.6864 201.512 39.7261C201.357 39.7675 201.198 39.7879 201.037 39.7869C200.852 39.8037 200.664 39.7788 200.49 39.7139C200.315 39.649 200.156 39.5459 200.026 39.4119C199.782 39.1331 199.655 38.7696 199.673 38.3985V35.5913H200.845V38.135C200.844 38.2861 200.902 38.4317 201.007 38.5404C201.075 38.6019 201.155 38.6489 201.242 38.6785C201.329 38.7082 201.421 38.7198 201.512 38.7127C201.699 38.7137 201.883 38.6684 202.048 38.5809C202.17 38.5101 202.285 38.4287 202.392 38.3377V35.5913H203.565L203.605 39.7362Z" fill="white"/>
<path d="M207.659 38.3175C207.665 38.5223 207.626 38.7259 207.544 38.9135C207.462 39.1011 207.339 39.2679 207.184 39.4019C206.846 39.6818 206.419 39.8295 205.981 39.8174C205.713 39.8155 205.446 39.7918 205.182 39.7465C204.892 39.7112 204.611 39.6218 204.354 39.483V38.4696C204.559 38.586 204.776 38.681 205 38.7533C205.272 38.8393 205.555 38.8804 205.84 38.8749C206.027 38.8796 206.212 38.8451 206.385 38.7736C206.453 38.7441 206.51 38.6941 206.548 38.6305C206.587 38.5668 206.604 38.4928 206.598 38.4189C206.595 38.3622 206.578 38.3071 206.548 38.2591C206.518 38.2111 206.476 38.1718 206.426 38.1453C206.233 38.0541 206.023 38.0058 205.809 38.0034C205.408 38.0078 205.019 37.8716 204.707 37.6183C204.6 37.5056 204.516 37.3719 204.462 37.2254C204.408 37.0789 204.385 36.9229 204.394 36.767C204.386 36.5712 204.426 36.3763 204.51 36.1996C204.595 36.0229 204.722 35.8697 204.879 35.7536C205.214 35.4847 205.633 35.3446 206.062 35.3583C206.282 35.3598 206.502 35.3802 206.719 35.4192C206.922 35.4408 207.122 35.485 207.315 35.5509V36.5643C207.121 36.4742 206.918 36.4062 206.709 36.3616C206.492 36.3199 206.272 36.2995 206.052 36.3008C205.902 36.293 205.752 36.3244 205.617 36.392C205.572 36.4096 205.532 36.44 205.503 36.4795C205.475 36.5191 205.458 36.5661 205.455 36.615C205.451 36.6838 205.471 36.7519 205.512 36.8075C205.552 36.863 205.611 36.9025 205.678 36.919C205.832 36.9698 205.991 37.0005 206.153 37.0102C206.561 37.0102 206.958 37.1417 207.285 37.3852C207.41 37.4966 207.508 37.6344 207.573 37.7887C207.637 37.943 207.667 38.1098 207.659 38.277" fill="white"/>
<path d="M283.234 99.2445C280.336 98.6769 277.357 98.6769 274.459 99.2445C273.125 99.7513 273.044 101.778 273.044 101.778H284.659C284.659 101.778 284.568 99.7513 283.234 99.2445Z" fill="#2A1B38"/>
<path d="M287.479 137.177C281.732 137.603 275.961 137.603 270.213 137.177C269.022 137.044 267.915 136.498 267.083 135.634C266.251 134.77 265.745 133.642 265.654 132.444C265.36 123.156 265.586 113.858 266.331 104.595C266.449 103.433 266.964 102.346 267.79 101.521C268.615 100.695 269.7 100.181 270.86 100.065C276.178 99.7005 281.514 99.7005 286.832 100.065C287.993 100.181 289.077 100.695 289.903 101.521C290.728 102.346 291.243 103.433 291.361 104.595C292.111 113.858 292.337 123.156 292.038 132.444C291.951 133.643 291.447 134.773 290.614 135.638C289.781 136.503 288.671 137.047 287.479 137.177Z" fill="#D6D7D8"/>
<path d="M270.851 138.636C271.771 137.738 271.825 136.298 270.971 135.42C270.118 134.542 268.681 134.559 267.761 135.457C266.841 136.355 266.787 137.795 267.641 138.673C268.494 139.551 269.931 139.535 270.851 138.636Z" fill="#2A1B38"/>
<path d="M270.152 137.928C270.656 137.436 270.686 136.647 270.218 136.165C269.751 135.684 268.963 135.693 268.459 136.185C267.955 136.678 267.926 137.466 268.393 137.948C268.861 138.429 269.648 138.42 270.152 137.928Z" fill="#FFFBF5"/>
<path d="M289.94 138.652C290.859 137.754 290.913 136.314 290.06 135.436C289.207 134.558 287.77 134.574 286.85 135.473C285.93 136.371 285.876 137.811 286.729 138.689C287.583 139.567 289.02 139.55 289.94 138.652Z" fill="#2A1B38"/>
<path d="M289.242 137.933C289.746 137.441 289.775 136.652 289.308 136.171C288.84 135.69 288.053 135.699 287.549 136.191C287.045 136.683 287.016 137.472 287.483 137.953C287.951 138.434 288.738 138.426 289.242 137.933Z" fill="#FFFBF5"/>
<path d="M264.189 37.3851C264.961 37.1723 265.66 36.7517 266.21 36.169C266.488 35.879 266.689 35.5241 266.795 35.1365C266.901 34.7489 266.908 34.3409 266.817 33.9496C266.829 33.5336 266.897 33.1212 267.019 32.7234C267.291 31.7255 267.191 30.6625 266.736 29.7338C265.523 27.2509 266.544 26.3489 264.28 25.6294C263.599 25.411 262.989 25.0159 262.511 24.4842C261.813 23.7444 261.136 23.0553 260.135 23.1263C259.913 23.1516 259.689 23.1516 259.468 23.1263C258.275 22.9438 256.89 22.3459 255.97 22.9337C255.366 23.354 254.675 23.6312 253.948 23.7444C252.877 23.8559 252.038 23.9978 251.734 25.4571C251.589 26.0716 251.309 26.6461 250.916 27.1394C249.601 28.842 249.723 29.3689 250.076 30.7269C250.213 31.3009 250.244 31.8951 250.167 32.4801C249.884 35.0542 252.685 35.338 253.049 36.6859C253.918 39.2295 257.456 38.0134 260.014 38.6012C260.569 38.7194 261.143 38.7219 261.699 38.6086C262.256 38.4953 262.783 38.2686 263.248 37.9425C263.536 37.7167 263.853 37.5294 264.189 37.3851Z" fill="#2A1B38"/>
<path d="M262.915 42.9082C263.539 42.6651 264.077 42.2419 264.462 41.6921C264.683 41.372 264.839 41.011 264.921 40.6301C265.002 40.2492 265.008 39.8558 264.937 39.4727C264.942 39.063 264.993 38.655 265.089 38.2566C265.311 37.2431 265.233 36.1866 264.866 35.2164C263.926 32.7233 264.714 31.8315 262.956 31.1019C262.396 30.862 261.916 30.4685 261.571 29.9668C261.035 29.2169 260.499 28.5278 259.721 28.5987C259.546 28.619 259.37 28.619 259.195 28.5987C258.275 28.4062 257.173 27.8082 256.476 28.396C256.026 28.811 255.469 29.0917 254.868 29.2068C254.029 29.3182 253.372 29.4601 253.13 30.9195C253.028 31.5162 252.812 32.0875 252.493 32.6017C252.096 33.0988 251.829 33.687 251.716 34.3134C251.603 34.9398 251.648 35.5845 251.846 36.1893C251.955 36.767 251.979 37.3578 251.916 37.9425C251.694 40.5166 253.878 40.8003 254.161 42.1583C254.838 44.6919 257.608 43.4758 259.599 44.0635C260.039 44.1804 260.502 44.1822 260.942 44.0686C261.383 43.955 261.787 43.73 262.116 43.415C262.357 43.2084 262.626 43.0377 262.915 42.9082Z" fill="#2A1B38"/>
<path d="M258.85 42.2294L260.144 32.5208L257.728 32.1965L256.414 41.9761L258.85 42.2294Z" fill="#CF6A51"/>
<path d="M259.66 34.0813C259.341 35.9509 258.339 37.6345 256.85 38.8038L257.123 36.777C258.205 36.1364 259.085 35.2019 259.66 34.0813Z" fill="#9E3C33"/>
<path d="M255.07 36.2603C255.251 36.5917 255.557 36.8375 255.918 36.9439C256.28 37.0503 256.669 37.0085 257.001 36.8278C258.689 35.9867 260.145 33.8585 260.822 31.0716C261.099 29.6503 261.204 28.2008 261.135 26.7544C259.882 25.3457 257.405 25.1633 255.535 25.6599C254.271 29.3893 254.059 34.1422 255.07 36.2603Z" fill="#CF6A51"/>
<path d="M255.626 33.2807C255.67 33.4563 255.756 33.6188 255.875 33.7546C255.995 33.8903 256.145 33.9954 256.313 34.0611C257.041 34.2334 257.607 33.2301 257.587 32.8855L255.626 33.2807Z" fill="#9E3C33"/>
<path d="M255.758 33.2503C255.776 33.2939 255.805 33.3319 255.842 33.3604C255.879 33.3889 255.924 33.4069 255.97 33.4125C256.193 33.4125 257.052 33.3314 257.163 33.3213C257.274 33.3111 257.497 33.3213 257.547 33.1591C257.583 33.0723 257.604 32.9796 257.608 32.8855L255.758 33.2503Z" fill="#FFFBF5"/>
<path d="M243.253 59.0218C243.407 56.658 243.745 54.3099 244.263 51.9987C244.83 49.1004 249.429 51.6542 249.429 51.6542C249.429 51.6542 247.711 63.268 245.143 64.1598C243.475 64.7476 243.192 60.3088 243.253 59.0218Z" fill="#9E3C33"/>
<path d="M238.229 49.8806C238.681 50.2614 239.088 50.6933 239.442 51.1677C239.596 51.6281 239.717 52.0988 239.806 52.5763L242.191 51.8973L241.686 50.7724C241.686 50.7724 241.797 49.759 241.827 49.2118C241.858 48.6645 240.139 47.945 239.755 47.9349C239.371 47.9247 238.229 49.8806 238.229 49.8806Z" fill="#CF6A51"/>
<path d="M246.387 58.9914C245.376 57.2483 243.03 53.5696 242.191 51.8975L239.806 52.5765C239.806 52.5765 242.222 62.2648 243.121 63.5214C243.255 63.7228 243.431 63.893 243.636 64.0206C243.842 64.1481 244.072 64.23 244.311 64.2608C244.551 64.2915 244.794 64.2704 245.025 64.1988C245.256 64.1272 245.468 64.0068 245.649 63.8457C246.407 63.187 247.125 60.2177 246.387 58.9914Z" fill="#CF6A51"/>
<path d="M239.179 49.2017C239.377 49.4565 239.601 49.6908 239.846 49.9009C240.086 50.1204 240.384 50.2648 240.705 50.3164C240.805 50.3372 240.909 50.3379 241.009 50.3185C241.11 50.2992 241.205 50.2602 241.291 50.2037C241.376 50.1472 241.45 50.0744 241.507 49.9894C241.564 49.9044 241.604 49.8089 241.625 49.7084C241.665 49.5083 241.686 49.3045 241.686 49.1003C240.713 48.5689 239.65 48.2251 238.552 48.0869C238.729 48.4757 238.938 48.8486 239.179 49.2017Z" fill="#9E3C33"/>
<path d="M240.22 49.8401H243.455C243.587 49.8401 243.637 49.7388 243.567 49.607L240.14 43.1515C240.104 43.0869 240.053 43.0318 239.991 42.9912C239.93 42.9506 239.859 42.9256 239.786 42.9185H236.551C236.419 42.9185 236.379 43.0198 236.44 43.1515L239.857 49.6577C239.899 49.7138 239.954 49.7593 240.018 49.7909C240.081 49.8225 240.15 49.8394 240.22 49.8401Z" fill="#2A1B38"/>
<path d="M237.349 48.0463C237.349 48.0463 236.985 45.7154 237.349 45.4316C238.093 45.0338 238.867 44.695 239.664 44.4182C239.714 44.5693 239.714 44.7322 239.665 44.8834C239.616 45.0346 239.52 45.1663 239.391 45.2594C239.098 45.4904 238.79 45.7036 238.471 45.8978C238.412 45.9316 238.364 45.9824 238.333 46.0438C238.302 46.1052 238.291 46.1743 238.299 46.2424L238.441 47.347L237.349 48.0463Z" fill="#CF6A51"/>
<path d="M243.273 47.6308V47.57C243.273 47.57 240.301 47.4484 239.836 47.3774C239.303 47.3963 238.789 47.5765 238.36 47.8943L238.037 48.2084C238.532 47.859 239.082 47.5952 239.664 47.4281C240.059 47.4281 241.787 47.5598 242.141 47.5598C242.313 47.56 242.478 47.4937 242.602 47.3748C242.727 47.2559 242.8 47.0934 242.808 46.9214C241.698 46.668 240.569 46.5086 239.432 46.4451C238.926 46.5565 237.046 47.2862 237.087 47.8233C237.147 48.5935 238.391 50.5089 238.926 50.3467C239.462 50.1846 240.18 49.2218 240.594 49.1813C241.009 49.1408 242.313 48.9888 242.535 48.9178C242.641 48.8788 242.728 48.803 242.782 48.7043C242.836 48.6056 242.853 48.4906 242.828 48.3807C242.828 48.3807 240.301 48.3199 240.089 48.3807L238.472 48.9178V49.0394C239.06 48.8012 239.665 48.6048 240.281 48.4516C240.827 48.3604 242.545 48.3199 242.778 48.249C242.914 48.2096 243.035 48.1291 243.123 48.0184C243.212 47.9078 243.264 47.7724 243.273 47.6308Z" fill="#CF6A51"/>
<path d="M245.648 70.5343C246.124 68.6189 246.831 62.8019 247.256 60.2177C248.014 55.6167 248.651 47.1141 249.278 43.4556C249.368 42.9614 249.612 42.5085 249.975 42.1625C250.339 41.8164 250.802 41.595 251.299 41.5301C256.229 40.9384 261.224 41.192 266.069 42.2801C267.605 42.7158 267.433 44.3069 267.16 45.8473C267.069 46.3844 262.783 59.9238 262.753 61.6466C262.692 64.9605 264.057 66.7137 264.866 71.3045L245.648 70.5343Z" fill="#FFB64C"/>
<path d="M260.145 41.5503L260.287 38.9864C260.294 38.8491 260.273 38.7118 260.225 38.583C260.177 38.4541 260.104 38.3363 260.009 38.2368C259.915 38.1372 259.801 38.058 259.675 38.004C259.549 37.9499 259.413 37.9221 259.276 37.9223L256.243 37.7703L255.495 41.4287L260.145 41.5503Z" fill="#FFB64C"/>
<path d="M259.417 24.2309C260.271 24.4248 261.044 24.8767 261.634 25.5255C262.223 26.1743 262.6 26.9888 262.713 27.859C262.894 29.8047 261.348 32.0241 260.549 33.7976C260.63 32.5004 261.004 30.6763 260.701 30.0885C260.398 29.5007 253.149 25.4065 253.149 25.4065C253.149 25.4065 256.849 23.5215 259.417 24.2309Z" fill="#2A1B38"/>
<path d="M260.701 30.0886C261.024 29.511 261.479 29.5008 261.712 29.6224C261.785 29.6831 261.845 29.7588 261.887 29.8444C261.928 29.9301 261.952 30.0237 261.954 30.119C261.973 30.3455 261.939 30.5733 261.854 30.7843C261.77 30.9953 261.638 31.1838 261.469 31.3351C261.326 31.4741 261.145 31.5674 260.949 31.6035C260.753 31.6395 260.55 31.6167 260.367 31.5378C260.344 31.0332 260.459 30.5319 260.701 30.0886Z" fill="#CF6A51"/>
<path d="M264.795 71.3044C266.581 75.4625 267.47 79.9522 267.403 84.4789C267.333 90.2351 266.11 97.4 265.493 101.869C264.805 106.784 261.136 125.543 259.074 133.924L253.089 132.292C253.392 125.522 255.01 107.97 255.424 101.079C255.222 94.6638 254.737 91.1979 254.656 83.3844C252.867 90.0223 251.735 93.5895 250.067 99.8626C256.021 105.041 263.724 116.169 269.173 122.513L264.775 126.181C257.982 120.506 247.954 112.753 241.393 105.051C240.064 103.357 239.428 101.219 239.614 99.0722C239.998 89.7487 243.243 77.4052 245.598 70.5544L264.795 71.3044Z" fill="#1A335E"/>
<path d="M267.808 122.979L264.775 126.161C265.038 129.667 264.492 133.66 263.006 138.788C262.984 138.891 262.999 138.999 263.047 139.092C263.095 139.186 263.174 139.26 263.271 139.302C263.367 139.344 263.475 139.351 263.576 139.322C263.677 139.293 263.765 139.23 263.825 139.143L273.742 125.492L269.9 122.776C269.585 122.554 269.2 122.453 268.817 122.49C268.433 122.527 268.075 122.701 267.808 122.979Z" fill="#2A2F36"/>
<path d="M248.903 139.325V139.042C248.901 138.793 248.964 138.549 249.085 138.332C251.107 136.599 252.866 134.167 253.129 132.252L257.941 133.164C258.35 133.243 258.723 133.45 259.007 133.757C259.291 134.063 259.469 134.451 259.518 134.866L260.134 138.606V139.305L248.903 139.325Z" fill="#2A2F36"/>
<path d="M258.719 134.583C257.928 135.827 257.508 137.272 257.506 138.748" stroke="#2A1B38" stroke-width="0.38" stroke-linecap="round" stroke-linejoin="round"/>
<path d="M252.148 46.4958L251.471 41.5503C250.218 41.5728 249.005 41.9959 248.008 42.7579C247.012 43.5198 246.284 44.5809 245.931 45.7864C245.436 47.2052 243.727 54.1978 243.727 54.1978L242.615 52.5763L239.017 55.2923C239.017 55.2923 241.19 61.3728 242.15 63.0754C244.172 66.8453 248.822 63.2781 249.661 59.9541C250.43 57.0658 252.148 46.4958 252.148 46.4958Z" fill="#FFB64C"/>
<path d="M271.103 55.3632C271.103 55.3632 270.85 65.1326 268.727 67.3621C266.837 64.9603 265.583 59.0825 265.583 59.0825L265.199 52.6979C265.199 52.6979 267.464 52.2216 271.103 55.3632Z" fill="#9E3C33"/>
<path d="M260.387 54.7249C261.115 55.6471 265.159 58.6569 266.816 60.3798C268.717 62.4066 269.596 63.3491 269.414 65.6901C269.263 67.7169 267.393 68.7304 265.957 67.2001C264.522 65.6698 257.961 56.2957 257.961 56.2957C258.705 55.6781 259.52 55.1509 260.387 54.7249Z" fill="#CF6A51"/>
<path d="M257.598 49.1511C257.8 49.2322 257.901 49.445 258.052 49.7389C258.204 50.0328 258.891 52.09 259.175 53.0528C259.273 53.3526 259.428 53.6311 259.629 53.8737C259.892 54.2081 260.388 54.7249 260.388 54.7249L257.961 56.2958L257.042 55.0999C256.567 54.8431 256.146 54.4993 255.798 54.0865C255.12 52.8823 254.632 51.5797 254.353 50.2254C254.403 50.0835 256.031 48.5836 257.598 49.1511Z" fill="#CF6A51"/>
<path d="M254.443 50.2455C254.588 51.3487 254.93 52.4165 255.454 53.3972C255.674 53.7489 255.976 54.0412 256.334 54.2485C256.428 54.3101 256.536 54.3494 256.648 54.3634C256.76 54.3775 256.874 54.3659 256.981 54.3296C257.084 54.2636 257.172 54.176 257.238 54.0728C257.304 53.9696 257.348 53.8532 257.365 53.7317C257.49 53.1671 257.486 52.5817 257.355 52.0187C257.224 51.4556 256.968 50.9293 256.607 50.4786C256.212 50.0428 254.666 49.1915 254.443 50.2455Z" fill="#9E3C33"/>
<path d="M257.001 49.3232C256.261 48.7868 255.456 48.3474 254.605 48.0159C253.922 48.4159 253.327 48.9502 252.856 49.5867C252.773 50.1443 252.719 50.7058 252.694 51.269C253.119 51.269 253.382 51.1372 253.584 50.2049L254.706 49.3232L256.465 50.4075L257.001 49.3232Z" fill="#CF6A51"/>
<path d="M257.78 49.6577C257.284 49.1086 256.724 48.6219 256.112 48.2085C255.373 48.3974 254.684 48.743 254.09 49.2219C253.977 49.8146 253.899 50.4136 253.857 51.0157C253.857 51.0157 254.333 51.2184 254.666 50.5292C254.783 50.2547 254.884 49.9739 254.969 49.6881L255.556 49.5868L256.769 50.7421L257.78 49.6577Z" fill="#CF6A51"/>
<path d="M257.991 50.6103C257.991 50.6103 256.637 49.3334 256.344 49.3232C255.843 49.3495 255.355 49.4917 254.918 49.7387C254.746 49.9009 254.918 51.3298 254.918 51.3298C255.052 51.3043 255.179 51.2492 255.289 51.1686C255.399 51.088 255.49 50.9838 255.555 50.8636C255.617 50.7219 255.658 50.5716 255.676 50.4177H256.162L257.172 51.4312L257.991 50.6103Z" fill="#CF6A51"/>
<path d="M257.365 49.3944C256.572 48.8833 255.733 48.449 254.858 48.0972C253.59 48.2655 252.336 48.5298 251.107 48.8876C251.107 48.8876 251.198 49.4248 251.967 49.3944C252.442 49.3944 253.746 49.0397 253.938 49.1005C254.13 49.1613 255.444 49.9517 255.444 49.9517L256.455 50.6814L257.365 49.3944Z" fill="#CF6A51"/>
<path d="M271.103 49.232C270.991 45.381 269.677 43.344 266.22 42.3508L264.35 44.6412L263.693 57.1063L260.145 61.16C260.145 61.16 263.339 66.7338 264.542 67.5648C265.745 68.3958 268.383 69.8045 269.93 65.163C270.667 61.9474 271.06 58.6622 271.103 55.3632C271.143 54.4815 271.204 52.4648 271.103 49.232Z" fill="#FFB64C"/>
<path d="M198.439 103.734C205.465 103.734 211.166 97.7445 211.166 90.3668C211.166 82.9891 205.465 77.02 198.439 77.02C191.413 77.02 185.712 82.9992 185.712 90.3769C185.712 97.7547 191.413 103.734 198.439 103.734Z" fill="#55BA80"/>
<path d="M196.175 95.6064C195.95 95.6043 195.728 95.5575 195.522 95.4688C195.315 95.3801 195.129 95.2512 194.972 95.0895L191.939 91.8871C191.704 91.6663 191.531 91.3866 191.438 91.0768C191.346 90.7669 191.338 90.438 191.414 90.1237C191.483 89.8132 191.636 89.5275 191.855 89.2972C192.074 89.0669 192.351 88.9007 192.657 88.8164C192.961 88.7424 193.279 88.7554 193.576 88.8539C193.873 88.9525 194.136 89.1326 194.335 89.3738L196.357 91.4007L203.656 85.1782C203.827 85.0312 204.026 84.9207 204.242 84.8536C204.457 84.7864 204.684 84.764 204.908 84.7877C205.132 84.8115 205.349 84.8808 205.546 84.9915C205.743 85.1022 205.915 85.252 206.052 85.4316C206.334 85.805 206.465 86.2718 206.418 86.738C206.371 87.2043 206.15 87.6355 205.799 87.9449L197.307 95.1605C197.002 95.4502 196.596 95.61 196.175 95.6064Z" fill="white"/>
<path d="M105.437 22.9744C101.951 22.9744 98.6086 24.3624 96.144 26.8331C93.6795 29.3038 92.2949 32.6548 92.2949 36.1489C92.2949 43.4252 105.437 58.8495 105.437 58.8495C105.437 58.8495 118.578 43.4252 118.578 36.1489C118.578 32.6548 117.194 29.3038 114.729 26.8331C112.265 24.3624 108.922 22.9744 105.437 22.9744ZM105.437 43.4759C103.989 43.4779 102.573 43.0493 101.368 42.2443C100.163 41.4393 99.2231 40.2941 98.6676 38.9536C98.1121 37.6131 97.9657 36.1375 98.247 34.7135C98.5282 33.2896 99.2245 31.9813 100.248 30.9542C101.271 29.927 102.575 29.2272 103.995 28.9433C105.415 28.6593 106.887 28.8041 108.225 29.3591C109.563 29.9141 110.707 30.8545 111.511 32.0614C112.316 33.2682 112.745 34.6871 112.745 36.1387C112.747 37.1018 112.559 38.0556 112.192 38.9458C111.825 39.8359 111.287 40.6448 110.608 41.3263C109.929 42.0077 109.123 42.5484 108.236 42.9172C107.349 43.2861 106.397 43.4759 105.437 43.4759Z" fill="#D6D7D8"/>
<defs>
<linearGradient id="paint0_linear_1948_7593" x1="195.134" y1="54.806" x2="195.134" y2="171.076" gradientUnits="userSpaceOnUse">
<stop stop-color="#FFF7FF"/>
<stop offset="0.09" stop-color="#F9EEF2"/>
<stop offset="0.21" stop-color="#F6E9EA"/>
<stop offset="0.44" stop-color="#F5E8E8"/>
<stop offset="0.61" stop-color="#F3E7E9"/>
<stop offset="0.68" stop-color="#EBE1EB"/>
<stop offset="0.77" stop-color="#E3D7E2"/>
<stop offset="0.92" stop-color="#CCBCCA"/>
<stop offset="1" stop-color="#BDAABA"/>
</linearGradient>
</defs>
</svg>
