<svg width="369" height="149" viewBox="0 0 369 149" fill="none" xmlns="http://www.w3.org/2000/svg">
<path d="M360.343 123.67C320.014 121.78 310.543 86.5701 267.982 86.5701C224.044 86.5701 223.642 108.65 179.714 108.65C135.786 108.65 136.188 95.9201 92.2395 95.9201C50.4229 95.9201 48.0601 118.92 10.0742 123.2C9.90329 123.2 9.80275 123.3 9.82286 123.38C9.84296 123.46 9.98373 123.54 10.1547 123.54H357.387L360.343 123.67Z" fill="#D6D7D8"/>
<path d="M325.263 33.51H322.86V115.56H325.263V33.51Z" fill="url(#paint0_linear_1948_7298)"/>
<path d="M338.082 22.72H118.502C115.437 22.72 112.952 25.1914 112.952 28.24V40.15C112.952 43.1986 115.437 45.67 118.502 45.67H338.082C341.148 45.67 343.632 43.1986 343.632 40.15V28.24C343.632 25.1914 341.148 22.72 338.082 22.72Z" fill="#D6D7D8"/>
<path d="M269.802 33.51H267.399V115.56H269.802V33.51Z" fill="url(#paint1_linear_1948_7298)"/>
<path d="M94.8337 33.51H92.4307V115.56H94.8337V33.51Z" fill="url(#paint2_linear_1948_7298)"/>
<path d="M107.643 122.72C99.9014 122.51 86.4685 122.37 71.1757 122.37C47.1856 122.37 27.7402 122.71 27.7402 123.13C27.7402 123.55 47.1856 123.88 71.1757 123.88C86.4685 123.88 99.9014 123.75 107.643 123.54V122.72Z" fill="#010101"/>
<path d="M107.644 122.39H97.1268C73.1368 122.39 53.6914 122.73 53.6914 123.15C53.6914 123.57 73.1368 123.9 97.1268 123.9C100.756 123.9 104.276 123.9 107.644 123.9V122.39Z" fill="#010101"/>
<path d="M107.643 122.39C88.3587 122.47 73.9707 122.77 73.9707 123.13C73.9707 123.49 88.3587 123.79 107.643 123.86V122.39Z" fill="#010101"/>
<path d="M68.883 118.31H82.165V106.54H68.883V118.31Z" fill="#010101"/>
<path d="M39.1122 122.89H44.7227V107.45H39.1122V122.89Z" fill="#010101"/>
<path d="M39.1224 122.89C41.9822 122.89 44.3005 119.434 44.3005 115.17C44.3005 110.906 41.9822 107.45 39.1224 107.45C36.2626 107.45 33.9443 110.906 33.9443 115.17C33.9443 119.434 36.2626 122.89 39.1224 122.89Z" fill="#010101"/>
<path d="M44.722 122.89C47.5818 122.89 49.9001 119.434 49.9001 115.17C49.9001 110.906 47.5818 107.45 44.722 107.45C41.8622 107.45 39.5439 110.906 39.5439 115.17C39.5439 119.434 41.8622 122.89 44.722 122.89Z" fill="#010101"/>
<path d="M44.7219 121.06C46.9042 121.06 48.6733 118.423 48.6733 115.17C48.6733 111.917 46.9042 109.28 44.7219 109.28C42.5396 109.28 40.7705 111.917 40.7705 115.17C40.7705 118.423 42.5396 121.06 44.7219 121.06Z" fill="#606768"/>
<path d="M69.9189 122.89H75.5293V107.45H69.9189V122.89Z" fill="#010101"/>
<path d="M69.9193 122.89C72.779 122.89 75.0973 119.434 75.0973 115.17C75.0973 110.906 72.779 107.45 69.9193 107.45C67.0595 107.45 64.7412 110.906 64.7412 115.17C64.7412 119.434 67.0595 122.89 69.9193 122.89Z" fill="#010101"/>
<path d="M75.5296 122.89C78.3894 122.89 80.7077 119.434 80.7077 115.17C80.7077 110.906 78.3894 107.45 75.5296 107.45C72.6699 107.45 70.3516 110.906 70.3516 115.17C70.3516 119.434 72.6699 122.89 75.5296 122.89Z" fill="#606768"/>
<path d="M75.5295 121.06C77.7118 121.06 79.481 118.423 79.481 115.17C79.481 111.917 77.7118 109.28 75.5295 109.28C73.3472 109.28 71.5781 111.917 71.5781 115.17C71.5781 118.423 73.3472 121.06 75.5295 121.06Z" fill="#C1C1C5"/>
<path d="M74.1313 116.71C74.7033 116.71 75.1669 116.02 75.1669 115.17C75.1669 114.319 74.7033 113.63 74.1313 113.63C73.5594 113.63 73.0957 114.319 73.0957 115.17C73.0957 116.02 73.5594 116.71 74.1313 116.71Z" fill="#1F3656"/>
<path d="M107.643 118.31V68.4299H46.8336C46.5737 68.4342 46.316 68.478 46.0695 68.5599L37.7544 71.3799C37.4272 71.498 37.1338 71.6937 36.8998 71.9499C36.7434 72.1184 36.6052 72.3028 36.4875 72.4999C36.2473 72.9259 36.0808 73.389 35.9949 73.8699C35.9949 73.9799 35.9949 74.0999 35.9345 74.2199L35.8642 74.8699L31.7217 109.28L31.1687 114.13C30.9073 116.31 32.0334 118.31 33.5114 118.31H69.8886V115.31C69.8886 110.67 72.3821 106.84 75.499 106.81C78.6159 106.78 81.1697 110.57 81.1697 115.22V118.36L107.643 118.31Z" fill="url(#paint3_linear_1948_7298)"/>
<path d="M107.644 118.31V106H83.7442C83.4347 105.989 83.1316 105.91 82.8567 105.769C82.5819 105.627 82.3424 105.426 82.1556 105.18L74.4538 96.18C74.0061 95.6082 73.7621 94.9047 73.7601 94.18L72.9859 74C72.9575 73.4597 72.7215 72.9508 72.3267 72.5786C71.9319 72.2064 71.4084 71.9993 70.8644 72H36.9003C36.7439 72.1685 36.6058 72.3528 36.488 72.55C36.1893 73.0805 36.0012 73.6655 35.9351 74.27L35.8647 74.92L31.6418 110L31.1391 114.17C31.1294 114.306 31.1294 114.444 31.1391 114.58C31.0486 116.58 32.1445 118.35 33.5119 118.35H69.8891V115.35C69.8891 110.71 72.3826 106.88 75.4995 106.85C78.6164 106.82 81.1702 110.61 81.1702 115.26V118.4L107.644 118.31Z" fill="#D6D7D8"/>
<path d="M107.643 96.3701H78.0426C77.9669 96.3701 77.8943 96.3992 77.8399 96.4515C77.7855 96.5037 77.7536 96.5749 77.751 96.6501C77.751 96.6877 77.7585 96.725 77.7733 96.7596C77.7881 96.7943 77.8097 96.8256 77.837 96.8517C77.8642 96.8779 77.8964 96.8983 77.9317 96.9117C77.9671 96.9252 78.0048 96.9315 78.0426 96.9301H107.643V96.3701Z" fill="#B4B4C0"/>
<path d="M107.643 98.2401H79.9031C79.861 98.2322 79.8176 98.2337 79.7761 98.2444C79.7347 98.255 79.696 98.2747 79.6631 98.3019C79.6301 98.3291 79.6035 98.3632 79.5853 98.4018C79.5671 98.4404 79.5576 98.4825 79.5576 98.5251C79.5576 98.5677 79.5671 98.6098 79.5853 98.6484C79.6035 98.687 79.6301 98.7211 79.6631 98.7483C79.696 98.7755 79.7347 98.7952 79.7761 98.8059C79.8176 98.8165 79.861 98.818 79.9031 98.8101H107.643V98.2401Z" fill="#B4B4C0"/>
<path d="M107.644 100.12H81.7633C81.7255 100.119 81.6878 100.125 81.6524 100.138C81.6171 100.152 81.5849 100.172 81.5577 100.198C81.5304 100.225 81.5088 100.256 81.494 100.291C81.4793 100.325 81.4717 100.362 81.4717 100.4C81.4743 100.475 81.5062 100.546 81.5606 100.599C81.615 100.651 81.6876 100.68 81.7633 100.68H107.644V100.12Z" fill="#C1C1C5"/>
<path d="M107.644 102H83.6233C83.5487 102 83.477 102.029 83.4243 102.082C83.3715 102.135 83.3418 102.206 83.3418 102.28C83.3418 102.354 83.3715 102.425 83.4243 102.478C83.477 102.53 83.5487 102.56 83.6233 102.56H107.644V102Z" fill="#C1C1C5"/>
<path d="M31.1088 114.54C31.0992 114.403 31.0992 114.266 31.1088 114.13L31.6115 109.96H68.049C68.4612 109.96 68.7327 110.61 68.5517 111.16L67.6066 114C67.5489 114.164 67.4418 114.307 67.2997 114.409C67.1576 114.511 66.9875 114.567 66.8123 114.57L31.1088 114.54Z" fill="#D84F55"/>
<path d="M35.9854 114.54H62.5292L63.1627 109.96H36.5283L36.0256 114.13C36.0055 114.27 35.9954 114.41 35.9854 114.54Z" fill="#010101"/>
<path d="M107.644 72H83.895C83.6971 72.0306 83.5129 72.1193 83.366 72.2547C83.2191 72.3901 83.1162 72.5661 83.0705 72.76L79.2196 84.16L77.7718 88.48L77.1082 90.48L76.6859 91.74C76.5351 92.2 76.7563 92.74 77.0981 92.74H107.644V72Z" fill="url(#paint4_linear_1948_7298)"/>
<path d="M72.5031 81.0801L72.3925 77.4701L72.312 75.4701C72.2964 75.035 72.1116 74.623 71.7965 74.3208C71.4814 74.0186 71.0606 73.8498 70.6229 73.8501H35.9952L35.9349 74.2001L35.8645 74.8501L35.1908 80.1401L34.1854 88.1401L32.3052 103.76L31.6416 109.26H68.1294C68.4989 109.214 68.8447 109.054 69.1187 108.803C69.3926 108.552 69.581 108.223 69.6576 107.86L70.3615 105.77L71.1256 103.48L72.0104 100.86L72.7544 98.6601C73.0201 97.8438 73.1392 96.9874 73.1063 96.1301L72.7544 87.2301L72.5031 81.0801Z" fill="#A2A3AD"/>
<path d="M78.2845 82.2601L81.4416 73.0501C81.6326 72.4701 81.2908 71.8201 80.8786 71.9701L74.3632 74.1701C74.111 74.3073 73.9067 74.5176 73.7774 74.773C73.6481 75.0284 73.6 75.3169 73.6393 75.6001L73.8304 80.3401L73.9208 84.0001L74.1622 90.1601L74.2426 92.3001C74.2426 92.7901 74.7051 92.9301 74.8559 92.4901L75.0369 91.9401L76.1731 88.5801L76.8367 86.5801L78.2845 82.2601Z" fill="#B4B4C0"/>
<path d="M163.526 122.67C155.483 122.45 141.477 122.31 125.561 122.31C100.585 122.31 80.3154 122.66 80.3154 123.1C80.3154 123.54 100.555 123.88 125.561 123.88C141.477 123.88 155.463 123.74 163.526 123.52V122.67Z" fill="#010101"/>
<path d="M163.527 122.33H152.577C127.602 122.33 107.332 122.68 107.332 123.12C107.332 123.56 127.582 123.9 152.577 123.9H163.527V122.33Z" fill="#010101"/>
<path d="M163.527 122.33C143.418 122.41 128.477 122.72 128.477 123.1C128.477 123.48 143.448 123.78 163.527 123.86V122.33Z" fill="#010101"/>
<path d="M123.168 118.09H137.003V105.83H123.168V118.09Z" fill="#010101"/>
<path d="M92.1798 122.85H98.0215V106.78H92.1798V122.85Z" fill="#010101"/>
<path d="M92.19 122.85C95.1664 122.85 97.5792 119.25 97.5792 114.81C97.5792 110.37 95.1664 106.77 92.19 106.77C89.2136 106.77 86.8008 110.37 86.8008 114.81C86.8008 119.25 89.2136 122.85 92.19 122.85Z" fill="#010101"/>
<path d="M98.021 122.85C100.997 122.85 103.41 119.25 103.41 114.81C103.41 110.37 100.997 106.77 98.021 106.77C95.0447 106.77 92.6318 110.37 92.6318 114.81C92.6318 119.25 95.0447 122.85 98.021 122.85Z" fill="#010101"/>
<path d="M98.0215 120.95C100.293 120.95 102.134 118.201 102.134 114.81C102.134 111.419 100.293 108.67 98.0215 108.67C95.7503 108.67 93.9092 111.419 93.9092 114.81C93.9092 118.201 95.7503 120.95 98.0215 120.95Z" fill="#606768"/>
<path d="M124.253 122.85H130.095V106.78H124.253V122.85Z" fill="#010101"/>
<path d="M124.253 122.85C127.23 122.85 129.643 119.25 129.643 114.81C129.643 110.37 127.23 106.77 124.253 106.77C121.277 106.77 118.864 110.37 118.864 114.81C118.864 119.25 121.277 122.85 124.253 122.85Z" fill="#010101"/>
<path d="M130.095 122.85C133.072 122.85 135.484 119.25 135.484 114.81C135.484 110.37 133.072 106.77 130.095 106.77C127.119 106.77 124.706 110.37 124.706 114.81C124.706 119.25 127.119 122.85 130.095 122.85Z" fill="#606768"/>
<path d="M130.095 120.95C132.366 120.95 134.207 118.201 134.207 114.81C134.207 111.419 132.366 108.67 130.095 108.67C127.824 108.67 125.982 111.419 125.982 114.81C125.982 118.201 127.824 120.95 130.095 120.95Z" fill="#C1C1C5"/>
<path d="M128.637 116.42C129.232 116.42 129.713 115.699 129.713 114.81C129.713 113.921 129.232 113.2 128.637 113.2C128.043 113.2 127.562 113.921 127.562 114.81C127.562 115.699 128.043 116.42 128.637 116.42Z" fill="#1F3656"/>
<path d="M163.526 118.08V66.1499H100.183C99.9085 66.1517 99.6367 66.1991 99.3783 66.2899L90.7213 69.2199C90.3819 69.3408 90.0779 69.5435 89.8365 69.8099C89.6744 69.9869 89.5328 70.1815 89.4143 70.3899C89.1596 70.83 88.9828 71.3103 88.8914 71.8099L88.8311 72.1699L88.7507 72.8499L84.4574 108.68L83.8441 113.68C83.5726 115.95 84.7389 118.03 86.2873 118.03H124.193V114.86C124.193 110.03 126.787 106.03 130.034 106.01C133.282 105.99 135.936 109.92 135.936 114.76V118.03L163.526 118.08Z" fill="url(#paint5_linear_1948_7298)"/>
<path d="M163.526 118.08V105.23H138.651C138.328 105.218 138.011 105.134 137.724 104.986C137.437 104.837 137.187 104.627 136.992 104.37L128.949 95.0199C128.505 94.4447 128.255 93.7447 128.235 93.0199L127.42 72.0199C127.4 71.4521 127.159 70.9144 126.748 70.5192C126.338 70.124 125.79 69.9021 125.218 69.8999H89.8769C89.7148 70.0769 89.5731 70.2715 89.4546 70.4799C89.1414 71.028 88.943 71.6335 88.8714 72.2599L88.791 72.9399L84.3972 109.47L83.8744 113.82C83.8744 113.96 83.8744 114.11 83.8744 114.25C83.7839 116.34 84.8798 118.17 86.3478 118.17H124.253V115C124.253 110.17 126.847 106.17 130.095 106.15C133.342 106.13 135.997 110.06 135.997 114.9V118.17L163.526 118.08Z" fill="#D6D7D8"/>
<path d="M163.526 95.24H132.719C132.642 95.24 132.568 95.2705 132.513 95.3249C132.458 95.3793 132.428 95.4531 132.428 95.53C132.428 95.6069 132.458 95.6807 132.513 95.7351C132.568 95.7894 132.642 95.82 132.719 95.82H163.536L163.526 95.24Z" fill="#B4B4C0"/>
<path d="M163.527 97.1899H134.64C134.563 97.1899 134.489 97.2205 134.434 97.2749C134.379 97.3293 134.349 97.403 134.349 97.4799C134.349 97.5569 134.379 97.6306 134.434 97.685C134.489 97.7394 134.563 97.7699 134.64 97.7699H163.527V97.1899Z" fill="#B4B4C0"/>
<path d="M163.527 99.1399H136.581C136.503 99.1399 136.429 99.1704 136.374 99.2248C136.32 99.2792 136.289 99.353 136.289 99.4299C136.289 99.5068 136.32 99.5806 136.374 99.635C136.429 99.6893 136.503 99.7199 136.581 99.7199H163.527V99.1399Z" fill="#C1C1C5"/>
<path d="M163.527 101.09H138.521C138.444 101.09 138.37 101.121 138.315 101.175C138.26 101.229 138.229 101.303 138.229 101.38C138.229 101.457 138.26 101.531 138.315 101.585C138.37 101.64 138.444 101.67 138.521 101.67H163.527V101.09Z" fill="#C1C1C5"/>
<path d="M83.8447 114.16C83.8447 114.02 83.8447 113.87 83.8447 113.73L84.3676 109.38H122.273C122.705 109.38 122.987 110.06 122.796 110.64L121.79 113.56C121.734 113.733 121.623 113.884 121.475 113.992C121.327 114.1 121.149 114.158 120.966 114.16H83.8447Z" fill="#D84F55"/>
<path d="M88.9316 114.16H116.561L117.225 109.38H89.4846L88.9618 113.73C88.9418 113.872 88.9317 114.016 88.9316 114.16Z" fill="#010101"/>
<path d="M163.527 69.8101H138.813C138.441 69.8101 138.109 70.1201 137.938 70.6101L133.916 82.5301L132.428 87.0001L131.714 89.0801L131.272 90.3901C131.111 90.8701 131.342 91.3901 131.704 91.3901H163.496L163.527 69.8101Z" fill="url(#paint6_linear_1948_7298)"/>
<path d="M126.948 79.3201L126.797 75.5601L126.687 73.5001C126.666 73.0481 126.473 72.6211 126.145 72.3068C125.818 71.9924 125.382 71.8147 124.927 71.8101H88.9323L88.8719 72.1801L88.7915 72.8501L88.138 78.3401L87.1325 86.6901L85.1216 102.96L84.458 108.68H122.363C122.748 108.63 123.107 108.463 123.392 108.202C123.676 107.94 123.872 107.597 123.952 107.22L124.676 105L125.47 102.62L126.395 99.8901L127.17 97.6101C127.443 96.7577 127.566 95.8643 127.531 94.9701L127.159 85.7001L126.948 79.3201Z" fill="#A2A3AD"/>
<path d="M132.971 80.5499L136.199 70.9999C136.4 70.3999 136.048 69.7199 135.605 69.8699L128.829 72.1699C128.567 72.3141 128.355 72.5334 128.22 72.7992C128.086 73.065 128.035 73.365 128.075 73.6599L128.266 78.5999L128.416 82.3499L128.668 88.7699L128.758 90.9999C128.758 91.5099 129.241 91.6499 129.392 91.1999L129.583 90.6299L130.759 87.1299L131.453 85.1299L132.971 80.5499Z" fill="#B4B4C0"/>
<path d="M223.139 122.62C214.754 122.39 200.195 122.25 183.635 122.25C157.644 122.25 136.58 122.61 136.58 123.06C136.58 123.51 157.644 123.88 183.635 123.88C200.195 123.88 214.804 123.73 223.139 123.51V122.62Z" fill="#010101"/>
<path d="M223.139 122.27C219.49 122.27 215.669 122.27 211.748 122.27C185.757 122.27 164.683 122.63 164.683 123.08C164.683 123.53 185.797 123.9 211.748 123.9H223.139V122.27Z" fill="#010101"/>
<path d="M223.14 122.27C202.247 122.35 186.662 122.68 186.662 123.06C186.662 123.44 202.247 123.78 223.14 123.86V122.27Z" fill="#010101"/>
<path d="M181.142 117.85H195.54V105.1H181.142V117.85Z" fill="#010101"/>
<path d="M148.908 122.81H154.98V106.09H148.908V122.81Z" fill="#010101"/>
<path d="M148.897 122.81C151.995 122.81 154.507 119.067 154.507 114.45C154.507 109.833 151.995 106.09 148.897 106.09C145.798 106.09 143.286 109.833 143.286 114.45C143.286 119.067 145.798 122.81 148.897 122.81Z" fill="#010101"/>
<path d="M154.98 122.81C158.078 122.81 160.59 119.067 160.59 114.45C160.59 109.833 158.078 106.09 154.98 106.09C151.881 106.09 149.369 109.833 149.369 114.45C149.369 119.067 151.881 122.81 154.98 122.81Z" fill="#010101"/>
<path d="M154.98 120.83C157.346 120.83 159.264 117.974 159.264 114.45C159.264 110.926 157.346 108.07 154.98 108.07C152.615 108.07 150.697 110.926 150.697 114.45C150.697 117.974 152.615 120.83 154.98 120.83Z" fill="#606768"/>
<path d="M182.268 122.81H188.341V106.09H182.268V122.81Z" fill="#010101"/>
<path d="M182.268 122.81C185.366 122.81 187.878 119.067 187.878 114.45C187.878 109.833 185.366 106.09 182.268 106.09C179.169 106.09 176.657 109.833 176.657 114.45C176.657 119.067 179.169 122.81 182.268 122.81Z" fill="#010101"/>
<path d="M188.341 122.81C191.439 122.81 193.951 119.067 193.951 114.45C193.951 109.833 191.439 106.09 188.341 106.09C185.242 106.09 182.73 109.833 182.73 114.45C182.73 119.067 185.242 122.81 188.341 122.81Z" fill="#606768"/>
<path d="M188.341 120.83C190.706 120.83 192.624 117.974 192.624 114.45C192.624 110.926 190.706 108.07 188.341 108.07C185.975 108.07 184.058 110.926 184.058 114.45C184.058 117.974 185.975 120.83 188.341 120.83Z" fill="#C1C1C5"/>
<path d="M186.832 116.12C187.454 116.12 187.958 115.372 187.958 114.45C187.958 113.528 187.454 112.78 186.832 112.78C186.21 112.78 185.706 113.528 185.706 114.45C185.706 115.372 186.21 116.12 186.832 116.12Z" fill="#1F3656"/>
<path d="M223.14 117.85V63.8501H157.262C156.979 63.8528 156.697 63.9 156.428 63.9901L147.379 66.9901C147.029 67.1218 146.715 67.3343 146.464 67.6101C146.286 67.7888 146.134 67.9906 146.011 68.2101C145.753 68.6718 145.57 69.1713 145.469 69.6901C145.469 69.8101 145.469 69.9401 145.418 70.0701L145.328 70.7701L140.854 108.05L140.22 113.31C139.929 115.67 141.145 117.84 142.754 117.84H182.198V114.54C182.198 109.54 184.902 105.35 188.23 105.32C191.558 105.29 194.374 109.39 194.374 114.44V117.84L223.14 117.85Z" fill="url(#paint7_linear_1948_7298)"/>
<path d="M223.139 117.85V104.47H197.249C196.912 104.457 196.583 104.371 196.284 104.217C195.985 104.063 195.724 103.846 195.519 103.58L187.184 93.8501C186.701 93.2398 186.436 92.4869 186.43 91.7101L185.596 69.8201C185.572 69.2285 185.319 68.6689 184.89 68.2587C184.461 67.8485 183.888 67.6197 183.293 67.6201H146.504C146.326 67.7988 146.174 68.0006 146.051 68.2201C145.727 68.7931 145.525 69.4262 145.458 70.0801L145.368 70.7801L140.803 108.78L140.26 113.3C140.26 113.45 140.26 113.6 140.26 113.74C140.169 115.92 141.326 117.83 142.834 117.83H182.278V114.53C182.278 109.53 184.982 105.34 188.31 105.31C191.638 105.28 194.454 109.38 194.454 114.43V117.83L223.139 117.85Z" fill="#D6D7D8"/>
<path d="M223.139 94.08H191.035C190.995 94.0786 190.955 94.0854 190.918 94.1C190.881 94.1146 190.847 94.1366 190.819 94.1648C190.791 94.1929 190.768 94.2265 190.754 94.2636C190.739 94.3006 190.732 94.3402 190.734 94.38C190.732 94.4202 190.739 94.4603 190.754 94.4979C190.768 94.5354 190.79 94.5697 190.818 94.5986C190.846 94.6276 190.88 94.6506 190.917 94.6663C190.955 94.682 190.995 94.69 191.035 94.69H223.109L223.139 94.08Z" fill="#B4B4C0"/>
<path d="M223.139 96.1001H193.046C192.963 96.1001 192.884 96.1328 192.826 96.1909C192.767 96.249 192.734 96.3279 192.734 96.4101C192.734 96.4504 192.742 96.4902 192.758 96.5273C192.774 96.5643 192.797 96.5979 192.826 96.6258C192.855 96.6538 192.89 96.6757 192.928 96.6902C192.965 96.7047 193.006 96.7114 193.046 96.7101H223.099L223.139 96.1001Z" fill="#B4B4C0"/>
<path d="M223.139 98.1299H195.057C194.974 98.1299 194.895 98.1625 194.836 98.2207C194.778 98.2788 194.745 98.3577 194.745 98.4399C194.745 98.4801 194.753 98.52 194.769 98.557C194.785 98.5941 194.808 98.6276 194.837 98.6556C194.866 98.6836 194.901 98.7055 194.938 98.72C194.976 98.7345 195.016 98.7412 195.057 98.7399H223.099L223.139 98.1299Z" fill="#B4B4C0"/>
<path d="M223.14 100.16H197.068C197.028 100.16 196.988 100.168 196.951 100.184C196.913 100.199 196.88 100.222 196.851 100.251C196.823 100.28 196.801 100.314 196.787 100.352C196.772 100.39 196.765 100.43 196.767 100.47C196.765 100.51 196.772 100.549 196.787 100.586C196.802 100.623 196.824 100.657 196.852 100.685C196.88 100.713 196.914 100.735 196.951 100.75C196.989 100.764 197.028 100.771 197.068 100.77H223.1L223.14 100.16Z" fill="#C1C1C5"/>
<path d="M140.22 113.76C140.22 113.62 140.22 113.47 140.22 113.32L140.763 108.8H180.206C180.649 108.8 180.95 109.5 180.739 110.1L179.734 113.15C179.67 113.328 179.553 113.481 179.398 113.59C179.243 113.7 179.059 113.759 178.869 113.76H140.22Z" fill="#D84F55"/>
<path d="M145.509 113.76H174.265L174.958 108.76H146.092L145.549 113.28C145.529 113.47 145.519 113.62 145.509 113.76Z" fill="#010101"/>
<path d="M223.139 67.6201H197.41C197.038 67.6201 196.686 67.9401 196.515 68.4501L192.342 80.8501L190.774 85.5301L190.03 87.6701L189.598 89.0001C189.437 89.5001 189.678 90.0901 190.05 90.0901H223.139V67.6201Z" fill="url(#paint8_linear_1948_7298)"/>
<path d="M185.073 77.52L184.922 73.6L184.832 71.46C184.814 70.9868 184.612 70.5392 184.269 70.211C183.926 69.8828 183.468 69.6996 182.992 69.7H145.519C145.488 69.8247 145.468 69.9518 145.459 70.08L145.368 70.78L144.684 76.49L143.679 85.18L141.668 102.11L140.954 108.11H180.388C180.789 108.06 181.165 107.887 181.462 107.614C181.76 107.342 181.964 106.984 182.047 106.59L182.811 104.33L183.645 101.85L184.601 99.01L185.405 96.63C185.693 95.7461 185.819 94.8181 185.777 93.89L185.395 84.24L185.073 77.52Z" fill="#A2A3AD"/>
<path d="M191.337 78.79L194.705 68.79C194.906 68.17 194.544 67.46 194.082 67.62L187.013 70C186.74 70.149 186.519 70.377 186.379 70.6538C186.239 70.9306 186.187 71.2431 186.229 71.55L186.43 76.69L186.581 80.6L186.843 87.27L186.933 89.6C186.933 90.13 187.436 90.27 187.597 89.8L187.798 89.21L189.024 85.6L189.738 83.46L191.337 78.79Z" fill="#B4B4C0"/>
<path d="M286.513 22.72H66.9329C63.8677 22.72 61.3828 25.1914 61.3828 28.24V40.15C61.3828 43.1986 63.8677 45.67 66.9329 45.67H286.513C289.578 45.67 292.063 43.1986 292.063 40.15V28.24C292.063 25.1914 289.578 22.72 286.513 22.72Z" fill="#B4B4C0"/>
<path d="M294.024 123.22C294.024 123.71 271.331 124.11 243.339 124.11C215.348 124.11 192.645 123.71 192.645 123.22C192.645 122.73 215.338 122.34 243.339 122.34C271.341 122.34 294.024 122.74 294.024 123.22Z" fill="#010101"/>
<path d="M324.308 123.22C324.308 123.71 301.615 124.11 273.613 124.11C245.612 124.11 222.929 123.71 222.929 123.22C222.929 122.73 245.622 122.34 273.613 122.34C301.605 122.34 324.308 122.74 324.308 123.22Z" fill="#010101"/>
<path d="M347.976 123.22C347.976 123.71 325.283 124.11 297.291 124.11C269.3 124.11 246.597 123.71 246.597 123.22C246.597 122.73 269.29 122.34 297.291 122.34C325.293 122.34 347.976 122.74 347.976 123.22Z" fill="#010101"/>
<path d="M315.158 122.95H321.703V104.94H315.158V122.95Z" fill="#010101"/>
<path d="M315.158 122.95C318.495 122.95 321.201 118.916 321.201 113.94C321.201 108.964 318.495 104.93 315.158 104.93C311.821 104.93 309.115 108.964 309.115 113.94C309.115 118.916 311.821 122.95 315.158 122.95Z" fill="#010101"/>
<path d="M293.249 122.95H299.795V104.94H293.249V122.95Z" fill="#010101"/>
<path d="M293.25 122.95C296.587 122.95 299.293 118.916 299.293 113.94C299.293 108.964 296.587 104.93 293.25 104.93C289.912 104.93 287.207 108.964 287.207 113.94C287.207 118.916 289.912 122.95 293.25 122.95Z" fill="#010101"/>
<path d="M299.795 122.95C303.132 122.95 305.837 118.916 305.837 113.94C305.837 108.964 303.132 104.93 299.795 104.93C296.457 104.93 293.752 108.964 293.752 113.94C293.752 118.916 296.457 122.95 299.795 122.95Z" fill="#010101"/>
<path d="M299.795 120.82C302.344 120.82 304.41 117.74 304.41 113.94C304.41 110.14 302.344 107.06 299.795 107.06C297.246 107.06 295.18 110.14 295.18 113.94C295.18 117.74 297.246 120.82 299.795 120.82Z" fill="#606768"/>
<path d="M314.042 117.61H329.546V103.87H314.042V117.61Z" fill="#010101"/>
<path d="M240.664 117.61H256.168V103.87H240.664V117.61Z" fill="#010101"/>
<path d="M205.916 122.95H212.462V104.94H205.916V122.95Z" fill="#010101"/>
<path d="M205.927 122.95C209.264 122.95 211.969 118.916 211.969 113.94C211.969 108.964 209.264 104.93 205.927 104.93C202.589 104.93 199.884 108.964 199.884 113.94C199.884 118.916 202.589 122.95 205.927 122.95Z" fill="#010101"/>
<path d="M212.471 122.95C215.809 122.95 218.514 118.916 218.514 113.94C218.514 108.964 215.809 104.93 212.471 104.93C209.134 104.93 206.429 108.964 206.429 113.94C206.429 118.916 209.134 122.95 212.471 122.95Z" fill="#010101"/>
<path d="M212.471 120.82C215.02 120.82 217.086 117.74 217.086 113.94C217.086 110.14 215.02 107.06 212.471 107.06C209.923 107.06 207.856 110.14 207.856 113.94C207.856 117.74 209.923 120.82 212.471 120.82Z" fill="#606768"/>
<path d="M315.248 122.95H321.794V104.94H315.248V122.95Z" fill="#010101"/>
<path d="M319.341 122.95C322.678 122.95 325.383 118.916 325.383 113.94C325.383 108.964 322.678 104.93 319.341 104.93C316.003 104.93 313.298 108.964 313.298 113.94C313.298 118.916 316.003 122.95 319.341 122.95Z" fill="#010101"/>
<path d="M320.829 122.95C324.166 122.95 326.872 118.916 326.872 113.94C326.872 108.964 324.166 104.93 320.829 104.93C317.492 104.93 314.786 108.964 314.786 113.94C314.786 118.916 317.492 122.95 320.829 122.95Z" fill="#606768"/>
<path d="M321.794 120.82C324.343 120.82 326.409 117.74 326.409 113.94C326.409 110.14 324.343 107.06 321.794 107.06C319.245 107.06 317.179 110.14 317.179 113.94C317.179 117.74 319.245 120.82 321.794 120.82Z" fill="#C1C1C5"/>
<path d="M320.166 115.74C320.832 115.74 321.372 114.934 321.372 113.94C321.372 112.946 320.832 112.14 320.166 112.14C319.499 112.14 318.959 112.946 318.959 113.94C318.959 114.934 319.499 115.74 320.166 115.74Z" fill="#606768"/>
<path d="M241.871 122.95H248.416V104.94H241.871V122.95Z" fill="#010101"/>
<path d="M241.861 122.95C245.198 122.95 247.904 118.916 247.904 113.94C247.904 108.964 245.198 104.93 241.861 104.93C238.524 104.93 235.818 108.964 235.818 113.94C235.818 118.916 238.524 122.95 241.861 122.95Z" fill="#010101"/>
<path d="M248.417 122.95C251.754 122.95 254.46 118.916 254.46 113.94C254.46 108.964 251.754 104.93 248.417 104.93C245.079 104.93 242.374 108.964 242.374 113.94C242.374 118.916 245.079 122.95 248.417 122.95Z" fill="#606768"/>
<path d="M248.417 120.82C250.966 120.82 253.032 117.74 253.032 113.94C253.032 110.14 250.966 107.06 248.417 107.06C245.868 107.06 243.802 110.14 243.802 113.94C243.802 117.74 245.868 120.82 248.417 120.82Z" fill="#C1C1C5"/>
<path d="M246.788 115.74C247.454 115.74 247.994 114.934 247.994 113.94C247.994 112.946 247.454 112.14 246.788 112.14C246.121 112.14 245.581 112.946 245.581 113.94C245.581 114.934 246.121 115.74 246.788 115.74Z" fill="#1F3656"/>
<path d="M199.34 117.6H241.83V114.05C241.83 108.63 244.746 104.15 248.376 104.12C252.006 104.09 254.992 108.51 254.992 113.94V117.6H315.218V114.05C315.218 108.63 318.124 104.15 321.754 104.12C322.522 104.147 323.275 104.34 323.961 104.685C324.647 105.03 325.249 105.52 325.725 106.12C325.814 106.212 325.898 106.309 325.976 106.41L326.218 106.72C326.298 106.82 326.369 106.93 326.449 107.04L326.66 107.38L326.771 107.56L326.972 107.92C327.032 108.05 327.103 108.17 327.163 108.3L327.253 108.5C327.334 108.69 327.424 108.89 327.505 109.1C327.718 109.664 327.893 110.242 328.028 110.83C328.128 111.29 328.209 111.76 328.269 112.24C328.338 112.817 328.372 113.398 328.369 113.98V117.64H343.451C343.944 117.64 344.336 117.05 344.336 116.33V60.7099C344.336 59.9799 343.944 59.3999 343.451 59.3999H214.925C214.621 59.4024 214.319 59.4496 214.03 59.5399L204.327 62.8299C203.943 62.9695 203.598 63.1994 203.322 63.4999C203.132 63.6939 202.97 63.9126 202.839 64.1499C202.551 64.641 202.353 65.1795 202.256 65.7399C202.256 65.8699 202.206 66.0099 202.185 66.1499L202.095 66.9099L197.269 107.06L196.585 112.73C196.304 115.27 197.611 117.6 199.34 117.6Z" fill="#D84F55"/>
<path d="M199.34 117.6H241.83V114.05C241.83 108.63 244.746 104.15 248.376 104.12C252.005 104.09 254.992 108.51 254.992 113.94V117.6H315.218V114.05C315.218 108.63 318.124 104.15 321.753 104.12C322.522 104.147 323.275 104.34 323.961 104.685C324.646 105.03 325.248 105.52 325.725 106.12C325.814 106.212 325.898 106.309 325.976 106.41L326.218 106.72C326.298 106.82 326.368 106.93 326.449 107.04L326.66 107.38L326.771 107.56L326.972 107.92C327.032 108.05 327.102 108.17 327.163 108.3L327.253 108.5C327.334 108.69 327.424 108.89 327.505 109.1C327.718 109.664 327.893 110.242 328.027 110.83C328.134 111.295 328.214 111.766 328.269 112.24C328.341 112.817 328.378 113.398 328.379 113.98V117.64H343.461C343.954 117.64 344.346 117.05 344.346 116.33V103.23H258.008C257.642 103.213 257.285 103.115 256.963 102.941C256.641 102.768 256.362 102.525 256.148 102.23L247.159 91.74C246.642 91.0824 246.356 90.2746 246.345 89.44L245.44 65.86C244.8 65.8579 244.186 65.6103 243.725 65.1688C243.264 64.7273 242.992 64.1259 242.966 63.49H203.342C203.152 63.684 202.99 63.9027 202.859 64.14C202.503 64.7539 202.28 65.4352 202.205 66.14L202.115 66.9L197.198 107.84L196.605 112.72C196.605 112.88 196.605 113.04 196.605 113.19C196.474 115.55 197.721 117.6 199.34 117.6Z" fill="#D84F55"/>
<path d="M344.316 112.75H343.06C342.878 112.75 342.704 112.678 342.576 112.551C342.448 112.423 342.376 112.25 342.376 112.07V108.54C342.376 108.36 342.448 108.187 342.576 108.059C342.704 107.932 342.878 107.86 343.06 107.86H344.316V112.75Z" fill="#606768"/>
<path d="M251.362 92.65H341.46C341.546 92.65 341.628 92.6163 341.688 92.5563C341.748 92.4963 341.782 92.4149 341.782 92.33C341.784 92.2871 341.776 92.2445 341.761 92.2045C341.745 92.1645 341.722 92.128 341.692 92.0972C341.662 92.0665 341.626 92.042 341.586 92.0253C341.546 92.0086 341.504 92 341.46 92H251.362C251.319 92 251.275 92.0085 251.235 92.0251C251.195 92.0417 251.158 92.066 251.127 92.0967C251.097 92.1273 251.072 92.1637 251.056 92.2037C251.039 92.2437 251.03 92.2867 251.03 92.33C251.03 92.3729 251.039 92.4153 251.056 92.4548C251.072 92.4943 251.097 92.53 251.128 92.5599C251.159 92.5897 251.196 92.6131 251.236 92.6286C251.276 92.6441 251.319 92.6513 251.362 92.65Z" fill="#BD2833"/>
<path d="M253.514 94.8399H341.441C341.484 94.8399 341.527 94.8314 341.566 94.8147C341.606 94.7979 341.642 94.7735 341.672 94.7427C341.702 94.7119 341.726 94.6754 341.741 94.6355C341.757 94.5955 341.764 94.5528 341.763 94.5099C341.764 94.4671 341.757 94.4244 341.741 94.3844C341.726 94.3444 341.702 94.308 341.672 94.2772C341.642 94.2464 341.606 94.2219 341.566 94.2052C341.527 94.1885 341.484 94.1799 341.441 94.1799H253.514C253.426 94.1799 253.342 94.2147 253.28 94.2766C253.218 94.3385 253.183 94.4224 253.183 94.5099C253.183 94.5975 253.218 94.6814 253.28 94.7433C253.342 94.8052 253.426 94.8399 253.514 94.8399Z" fill="#BD2833"/>
<path d="M255.686 97.0001H341.441C341.484 97.0001 341.527 96.9915 341.567 96.9748C341.606 96.9581 341.642 96.9336 341.672 96.9029C341.702 96.8721 341.726 96.8356 341.741 96.7956C341.757 96.7556 341.764 96.7129 341.763 96.6701C341.764 96.6272 341.757 96.5845 341.741 96.5446C341.726 96.5046 341.702 96.4681 341.672 96.4373C341.642 96.4065 341.606 96.3821 341.567 96.3654C341.527 96.3487 341.484 96.3401 341.441 96.3401H255.686C255.598 96.3401 255.514 96.3749 255.452 96.4367C255.389 96.4986 255.354 96.5826 255.354 96.6701C255.354 96.7576 255.389 96.8415 255.452 96.9034C255.514 96.9653 255.598 97.0001 255.686 97.0001Z" fill="#BD2833"/>
<path d="M257.857 99.21H341.44C341.483 99.2101 341.526 99.2015 341.566 99.1848C341.605 99.1681 341.641 99.1436 341.671 99.1128C341.701 99.082 341.725 99.0456 341.74 99.0056C341.756 98.9656 341.763 98.9229 341.762 98.88C341.763 98.8372 341.756 98.7945 341.74 98.7545C341.725 98.7145 341.701 98.6781 341.671 98.6473C341.641 98.6165 341.605 98.592 341.566 98.5753C341.526 98.5586 341.483 98.55 341.44 98.55H257.857C257.769 98.55 257.685 98.5848 257.623 98.6467C257.56 98.7086 257.525 98.7925 257.525 98.88C257.525 98.9676 257.56 99.0515 257.623 99.1134C257.685 99.1753 257.769 99.21 257.857 99.21Z" fill="#BD2833"/>
<path d="M196.575 113.2C196.575 113.05 196.575 112.89 196.575 112.73L197.168 107.85H239.659C240.141 107.85 240.453 108.62 240.232 109.26L239.136 112.54C239.067 112.73 238.941 112.895 238.776 113.013C238.611 113.131 238.414 113.196 238.211 113.2H196.575Z" fill="white"/>
<path d="M202.267 113.2H233.265L234.009 107.85H202.89L202.307 112.73C202.287 112.89 202.277 113.05 202.267 113.2Z" fill="#010101"/>
<path d="M250.246 87.73H332.452C332.603 87.7167 332.75 87.6693 332.881 87.5914C333.011 87.5134 333.123 87.407 333.206 87.28C333.298 87.1447 333.369 86.9964 333.417 86.84L336.564 77.49L339.419 69L340.867 64.7C341.048 64.16 340.787 63.53 340.385 63.53H258.179C257.767 63.53 257.395 63.87 257.174 64.42L252.679 77.78L250.99 82.78L250.216 85.08L249.723 86.55C249.582 87.1 249.844 87.73 250.246 87.73ZM335.83 87.73H344.316V63.5H344.055C343.775 63.4982 343.502 63.5843 343.274 63.7459C343.047 63.9075 342.877 64.1364 342.788 64.4L340.515 71.18L337.65 79.7L335.347 86.56C335.166 87.1 335.428 87.73 335.82 87.73H335.83ZM197.289 107.06H239.779C240.533 107.06 241.217 106.43 241.559 105.43L242.383 102.99L243.278 100.32L244.284 97.26L245.148 94.7C245.461 93.7318 245.597 92.7159 245.551 91.7L245.138 81.31L244.857 74.12L244.686 69.9L244.595 67.59C244.567 67.0789 244.343 66.598 243.969 66.2464C243.595 65.8948 243.099 65.6992 242.585 65.7H202.276C202.276 65.83 202.226 65.97 202.206 66.11L202.115 66.87L201.381 73.01L200.255 82.37L198.073 100.65L197.289 107.06ZM246.154 67.77L246.335 73.3L246.506 77.51L246.787 84.7L246.888 87.2C246.888 87.78 247.421 87.93 247.602 87.42L247.813 86.78L249.13 82.86L249.904 80.56L251.603 75.56L255.223 64.81C255.454 64.14 255.052 63.38 254.57 63.55L246.968 66.12C246.682 66.2827 246.452 66.5268 246.307 66.8209C246.162 67.115 246.108 67.4456 246.154 67.77Z" fill="#2A2F36"/>
<g opacity="0.5">
<path opacity="0.5" d="M186.564 27.5934C186.95 27.9088 187.252 28.3126 187.446 28.7701C188.823 31.2501 189.155 35.5401 188.149 37.6001L188.019 37.8701L185.515 38.1601C185.576 38.3782 185.607 38.6037 185.606 38.8301C185.606 39.5674 185.311 40.2745 184.787 40.7958C184.263 41.3172 183.552 41.6101 182.81 41.6101C182.069 41.6101 181.358 41.3172 180.834 40.7958C180.31 40.2745 180.015 39.5674 180.015 38.8301V38.7601L174.154 39.4301V39.6301C174.177 40.3444 173.922 41.0401 173.441 41.5717C172.961 42.1033 172.293 42.4296 171.576 42.4826C170.86 42.5355 170.15 42.3109 169.596 41.8557C169.042 41.4005 168.686 40.75 168.603 40.0401L166.12 40.3101L165.989 39.8801C165.583 38.4944 165.248 37.0893 164.984 35.6701C164.471 32.5501 164.592 30.6301 165.477 29.8201C167.508 27.9601 177.451 26.2301 185.234 26.9601C185.722 27.0607 186.179 27.2781 186.564 27.5934Z" fill="white"/>
<g style="mix-blend-mode:lighten">
<path d="M168.734 32.7301C168.656 32.6726 168.567 32.6317 168.473 32.6101C168.35 32.5675 168.22 32.5472 168.091 32.5501C167.939 32.5477 167.789 32.5749 167.648 32.6301C167.538 32.6705 167.438 32.7355 167.357 32.8201V35.0701H166.401V31.7401L167.357 31.6701V32.0001L167.658 31.8201C167.758 31.7563 167.867 31.7058 167.98 31.6701C168.091 31.6395 168.206 31.6227 168.322 31.6201C168.409 31.6087 168.496 31.6087 168.583 31.6201H168.734V32.7301Z" fill="white"/>
</g>
<g style="mix-blend-mode:lighten">
<path d="M171.429 33.1001C171.397 32.8835 171.295 32.6833 171.137 32.5301C170.991 32.4004 170.8 32.3322 170.604 32.3401C170.503 32.3337 170.402 32.3482 170.307 32.3826C170.212 32.417 170.125 32.4706 170.052 32.5401C169.913 32.6955 169.832 32.8928 169.82 33.1001H171.429ZM172.314 33.5501H169.83C169.859 33.7774 169.974 33.9852 170.152 34.1301C170.321 34.2533 170.526 34.3167 170.735 34.3101C170.946 34.3069 171.156 34.2766 171.359 34.2201C171.562 34.1856 171.757 34.1108 171.932 34.0001V34.8401C171.764 34.9475 171.576 35.019 171.379 35.0501C171.184 35.0925 170.985 35.116 170.785 35.1201C170.534 35.1351 170.282 35.1005 170.043 35.0181C169.805 34.9357 169.586 34.8072 169.398 34.6401C169.229 34.4714 169.097 34.2697 169.01 34.0476C168.924 33.8256 168.885 33.588 168.895 33.3501C168.886 33.107 168.927 32.8645 169.015 32.6376C169.103 32.4106 169.237 32.2039 169.408 32.0301C169.576 31.8659 169.776 31.7371 169.995 31.6512C170.215 31.5653 170.449 31.5241 170.685 31.5301C170.916 31.5215 171.146 31.5656 171.356 31.6593C171.567 31.7529 171.754 31.8935 171.902 32.0701C172.211 32.4993 172.357 33.0238 172.314 33.5501Z" fill="white"/>
</g>
<g style="mix-blend-mode:lighten">
<path d="M175.019 34.0001V32.5801C174.951 32.4977 174.86 32.4383 174.757 32.4101C174.636 32.3622 174.506 32.3385 174.375 32.3401C174.268 32.3312 174.159 32.3463 174.059 32.3844C173.958 32.4225 173.867 32.4825 173.792 32.5601C173.647 32.771 173.579 33.0253 173.601 33.2801C173.583 33.5484 173.653 33.8154 173.802 34.0401C173.87 34.1202 173.954 34.1842 174.05 34.2274C174.146 34.2707 174.25 34.2921 174.355 34.2901C174.487 34.2907 174.617 34.2635 174.737 34.2101C174.841 34.1726 174.937 34.1148 175.019 34.0401V34.0001ZM175.954 35.0401H175.23L175.029 34.7301L174.526 35.0001C174.466 35.0141 174.405 35.0141 174.345 35.0001C174.275 35.0091 174.204 35.0091 174.134 35.0001C173.922 35.0148 173.709 34.9779 173.515 34.8925C173.32 34.8071 173.15 34.6758 173.018 34.5101C172.756 34.1504 172.621 33.7141 172.636 33.2701C172.622 33.0375 172.655 32.8047 172.733 32.585C172.811 32.3652 172.931 32.163 173.088 31.9901C173.25 31.8332 173.442 31.7107 173.653 31.6299C173.864 31.5491 174.089 31.5117 174.315 31.5201C174.442 31.5089 174.57 31.5089 174.697 31.5201C174.809 31.5451 174.918 31.5855 175.019 31.6401V30.3101H175.954V35.0401Z" fill="white"/>
</g>
<g style="mix-blend-mode:lighten">
<path d="M179.16 33.5601C179.171 33.4585 179.16 33.3558 179.127 33.259C179.094 33.1623 179.04 33.0739 178.969 33.0001C178.817 32.8833 178.628 32.8232 178.436 32.8301H177.783V34.2601H178.527C178.616 34.2654 178.706 34.2512 178.789 34.2183C178.873 34.1855 178.948 34.1349 179.009 34.0701C179.126 33.9189 179.184 33.7304 179.17 33.5401L179.16 33.5601ZM178.969 31.7401C178.975 31.5704 178.913 31.4053 178.798 31.2801C178.737 31.2184 178.663 31.1704 178.582 31.1393C178.5 31.1083 178.413 31.0949 178.326 31.1001H177.753V32.3801H178.386C178.466 32.384 178.546 32.3708 178.621 32.3415C178.695 32.3122 178.763 32.2674 178.818 32.2101C178.926 32.0777 178.98 31.91 178.969 31.7401ZM180.196 33.6901C180.205 33.8757 180.174 34.0612 180.105 34.2338C180.035 34.4064 179.929 34.562 179.794 34.6901C179.519 34.9396 179.16 35.0755 178.788 35.0701H176.777V30.3101H178.788C179.126 30.2955 179.457 30.41 179.713 30.6301C179.835 30.7394 179.93 30.8742 179.993 31.0246C180.055 31.1751 180.083 31.3374 180.075 31.5001C180.087 31.7536 180.013 32.0037 179.864 32.2101C179.698 32.3957 179.469 32.5134 179.221 32.5401C179.498 32.5767 179.756 32.7032 179.955 32.9001C180.053 33.0054 180.127 33.1304 180.172 33.2668C180.217 33.4031 180.232 33.5474 180.216 33.6901H180.196Z" fill="white"/>
</g>
<g style="mix-blend-mode:lighten">
<path d="M183.997 35.0702H182.991V34.6902L182.589 34.9202C182.482 34.9813 182.367 35.0284 182.247 35.0602C182.117 35.0761 181.985 35.0761 181.855 35.0602C181.71 35.0694 181.565 35.0474 181.43 34.9956C181.295 34.9438 181.172 34.8635 181.071 34.7602C180.876 34.5358 180.776 34.246 180.789 33.9502V31.7402H181.734V33.7402C181.737 33.8593 181.783 33.9734 181.865 34.0602C181.92 34.1111 181.985 34.1499 182.056 34.174C182.127 34.1981 182.203 34.2071 182.277 34.2002C182.428 34.2053 182.577 34.1708 182.71 34.1002C182.81 34.0423 182.904 33.9753 182.991 33.9002V31.7002H183.997V35.0702Z" fill="white"/>
</g>
<g style="mix-blend-mode:lighten">
<path d="M187.244 33.9201C187.249 34.0865 187.216 34.2519 187.148 34.4041C187.08 34.5563 186.979 34.6916 186.852 34.8001C186.569 35.029 186.211 35.1464 185.846 35.1301C185.628 35.1257 185.41 35.1091 185.193 35.0801C184.962 35.0466 184.737 34.9756 184.529 34.8701V34.0001C184.694 34.0949 184.869 34.1688 185.052 34.2201C185.269 34.2913 185.497 34.3251 185.726 34.3201C185.881 34.3252 186.035 34.298 186.178 34.2401C186.233 34.2172 186.278 34.1778 186.309 34.1275C186.34 34.0773 186.354 34.0187 186.349 33.9601C186.347 33.913 186.332 33.8674 186.306 33.8285C186.279 33.7895 186.242 33.7589 186.198 33.7401C186.045 33.6643 185.877 33.6233 185.706 33.6201C185.38 33.6235 185.064 33.5139 184.811 33.3101C184.723 33.2206 184.656 33.1138 184.612 32.9967C184.569 32.8795 184.551 32.7546 184.559 32.6301C184.56 32.4774 184.595 32.3268 184.663 32.1898C184.731 32.0529 184.83 31.9332 184.952 31.8401C185.236 31.614 185.594 31.5 185.957 31.5201C186.139 31.5228 186.321 31.5395 186.5 31.5701C186.663 31.5898 186.825 31.6232 186.983 31.6701V32.5301C186.824 32.4603 186.659 32.4067 186.49 32.3701C186.313 32.3494 186.134 32.3494 185.957 32.3701C185.832 32.3628 185.708 32.3869 185.595 32.4401C185.56 32.4564 185.531 32.4817 185.51 32.5134C185.488 32.5452 185.476 32.582 185.474 32.6201C185.472 32.6759 185.489 32.7308 185.522 32.7761C185.554 32.8214 185.601 32.8545 185.655 32.8701C185.779 32.9096 185.908 32.9331 186.037 32.9401C186.366 32.9435 186.686 33.0483 186.952 33.2401C187.053 33.3288 187.133 33.4382 187.187 33.5609C187.241 33.6835 187.267 33.8163 187.264 33.9501" fill="white"/>
</g>
</g>
<defs>
<linearGradient id="paint0_linear_1948_7298" x1="324.057" y1="32.48" x2="324.057" y2="89.58" gradientUnits="userSpaceOnUse">
<stop offset="0.05" stop-color="#B4B4C0"/>
<stop offset="0.59" stop-color="#B4B4C0" stop-opacity="0"/>
</linearGradient>
<linearGradient id="paint1_linear_1948_7298" x1="268.596" y1="32.48" x2="268.596" y2="89.58" gradientUnits="userSpaceOnUse">
<stop offset="0.05" stop-color="#B4B4C0"/>
<stop offset="0.59" stop-color="#B4B4C0" stop-opacity="0"/>
</linearGradient>
<linearGradient id="paint2_linear_1948_7298" x1="93.6372" y1="32.48" x2="93.6372" y2="89.58" gradientUnits="userSpaceOnUse">
<stop offset="0.05" stop-color="#B4B4C0"/>
<stop offset="0.59" stop-color="#B4B4C0" stop-opacity="0"/>
</linearGradient>
<linearGradient id="paint3_linear_1948_7298" x1="37.0908" y1="93.4499" x2="106.487" y2="93.3185" gradientUnits="userSpaceOnUse">
<stop offset="0.47" stop-color="#D6D7D8"/>
<stop offset="1" stop-color="#D6D7D8" stop-opacity="0"/>
</linearGradient>
<linearGradient id="paint4_linear_1948_7298" x1="76.6356" y1="82.33" x2="107.644" y2="82.33" gradientUnits="userSpaceOnUse">
<stop offset="0.05" stop-color="#B4B4C0"/>
<stop offset="0.59" stop-color="#B4B4C0" stop-opacity="0"/>
</linearGradient>
<linearGradient id="paint5_linear_1948_7298" x1="90.0678" y1="92.1999" x2="162.319" y2="92.0584" gradientUnits="userSpaceOnUse">
<stop offset="0.47" stop-color="#D6D7D8"/>
<stop offset="1" stop-color="#D6D7D8" stop-opacity="0"/>
</linearGradient>
<linearGradient id="paint6_linear_1948_7298" x1="131.252" y1="80.6201" x2="163.527" y2="80.6201" gradientUnits="userSpaceOnUse">
<stop offset="0.05" stop-color="#B4B4C0"/>
<stop offset="0.59" stop-color="#B4B4C0" stop-opacity="0"/>
</linearGradient>
<linearGradient id="paint7_linear_1948_7298" x1="146.705" y1="90.9101" x2="221.883" y2="90.7686" gradientUnits="userSpaceOnUse">
<stop offset="0.47" stop-color="#D6D7D8"/>
<stop offset="1" stop-color="#D6D7D8" stop-opacity="0"/>
</linearGradient>
<linearGradient id="paint8_linear_1948_7298" x1="189.547" y1="78.8701" x2="223.139" y2="78.8701" gradientUnits="userSpaceOnUse">
<stop offset="0.05" stop-color="#B4B4C0"/>
<stop offset="0.59" stop-color="#B4B4C0" stop-opacity="0"/>
</linearGradient>
</defs>
</svg>
