<svg width="293" height="167" viewBox="0 0 293 167" fill="none" xmlns="http://www.w3.org/2000/svg">
<g clip-path="url(#clip0_1878_7133)">
<path d="M41.9335 74.0783L50.6429 101.575L54.0299 112.453C54.0926 112.453 54.1553 112.435 54.218 112.426C54.2987 114.739 54.3972 116.989 54.4868 118.275C55.2485 128.527 57.3899 150.898 58.967 167H71.0633L72.9808 137.235L77.8103 167H89.2615C88.7239 150.889 87.5233 124.723 85.1667 113.864C84.9158 112.712 84.3961 110.863 83.8137 108.863C83.8137 108.845 83.8316 108.827 83.8227 108.809C83.8227 108.782 83.8047 108.764 83.7779 108.746C83.6076 108.184 83.4374 107.603 83.2671 107.032C83.294 107.032 83.3209 107.023 83.3478 107.014L82.9356 103.942C82.9356 103.942 82.9894 103.897 82.9804 103.861C82.9804 103.835 82.9446 103.835 82.9267 103.826C82.9715 103.585 83.3119 101.727 83.2403 101.066C82.6758 95.7079 81.4661 86.5185 80.3192 78.1863C84.8979 79.6599 93.6162 75.5697 90.4443 69.5327C89.4676 67.6752 87.138 65.6926 84.656 63.9601L84.3872 63.3349C84.2348 63.2456 84.0825 63.1653 83.9302 63.076L83.8316 63.3975C80.149 60.9416 76.4036 59.1108 76.3588 59.1019C74.3965 58.1463 72.1296 57.6284 69.7461 57.2979H69.7103C69.0562 57.1997 68.3842 57.1283 67.7032 57.0657C67.6584 57.0657 67.6136 57.0568 67.5688 57.0479C66.0635 56.905 64.5313 56.8068 62.9991 56.6907C62.5959 56.6639 62.1837 56.6282 61.7805 56.6014L60.9024 52.0736C61.4937 51.6092 62.0224 50.9573 62.4435 50.0553C63.474 47.8673 62.4794 45.3757 61.9059 41.5267C62.6855 40.7944 63.3216 39.9282 63.0349 39.1423C62.8199 38.5529 62.5869 38.3385 62.3718 38.3207C62.8915 37.1329 62.5152 36.0166 61.4041 35.838C61.1174 35.7933 60.8576 35.8201 60.6336 35.8826C60.7232 35.454 60.544 34.9628 59.8003 34.5073C58.8863 33.9447 57.9903 34.3466 57.4616 34.9717C57.1301 34.6056 56.6463 34.3645 56.0011 34.4716C54.9169 34.6592 54.3345 35.2397 54.1195 35.9362C53.7163 35.6326 53.2234 35.5433 52.7217 35.8737C51.6644 36.5524 51.2343 37.1418 51.1626 37.6241C50.3203 37.6866 49.5229 38.1331 49.3795 39.0083C49.3347 39.2941 49.3795 39.5531 49.4781 39.7942C48.9942 40.0085 48.6089 40.6069 48.4118 41.5356C48.2595 42.2769 48.7344 43.4289 49.4333 44.6434C49.272 44.7238 49.1107 44.8399 48.9763 45.0185C47.5964 46.7242 50.8042 49.1265 51.9242 48.4746C52.0228 48.6622 52.1841 48.939 52.3991 49.2784L53.2055 56.9229C53.2593 57.4676 52.9905 57.9856 52.5335 58.2714C49.487 59.5484 41.7902 62.9777 41.7902 62.9777C41.7902 62.9777 28.6545 65.0228 24.6044 66.1391C24.9091 64.2905 25.7961 60.7183 26.5398 57.8784C26.6026 57.6462 26.4323 57.1461 26.495 56.9139C27.0147 54.9314 27.4986 53.7436 27.4986 53.7436C27.4627 53.7436 27.4179 53.7347 27.3821 53.7257L28.4036 50.6269C28.4036 50.6269 30.8228 49.7963 31.3067 49.4123C31.459 49.2962 33.1704 48.1085 33.7528 47.5726C34.846 46.5903 37.0233 45.9205 36.5215 45.5008C35.8047 44.9114 32.9733 45.7151 31.6203 46.1438C31.8891 45.5722 32.2475 44.9024 32.6776 44.2148C34.0933 41.9643 35.9481 38.2671 35.4194 38.0349C34.5503 37.6598 31.7009 42.009 30.9483 43.1878L30.7511 43.4646C30.7511 43.4646 30.7511 43.4646 30.7511 43.4825C30.7422 43.4825 30.6884 43.4646 30.6167 43.4378C31.2529 42.4019 34.0575 36.2845 33.2869 35.8916C32.4805 35.4897 29.7924 40.1782 28.986 42.0179L28.9322 42.1161C29.2817 40.9998 30.9483 35.5701 30.0612 35.4361C29.3265 35.32 27.2835 40.7051 27.0506 42.0625H27.0326C27.1222 41.3749 27.7674 36.5435 27.1402 36.5256C26.4682 36.5078 24.9987 41.7678 24.9987 41.7678C24.9987 41.7678 23.8428 44.7238 23.4306 45.8491C23.2604 46.3134 22.7317 48.2335 22.7317 48.2335L21.083 51.4038C21.0114 51.3592 20.9486 51.3145 20.877 51.2699C20.877 51.2699 20.4827 52.2522 19.6225 53.8597C19.506 54.074 18.8967 54.1901 18.7713 54.4313C15.913 59.8431 11.0028 70.4168 13.8611 74.4445C17.9918 80.2582 34.3711 74.9446 41.9246 74.0694L41.9335 74.0783Z" fill="url(#paint0_linear_1878_7133)"/>
<path d="M115.892 167H130.049L137.701 138.976L138.274 167H152.073L156.831 118.436C157.521 117.605 159.232 115.65 160.585 114.757C165.827 111.327 174.635 105.353 176.965 97.0921C177.484 95.2435 177.484 92.993 177.18 90.6175C177.664 90.2246 178.067 89.8138 178.362 89.3941C178.336 88.9297 178.255 88.3938 178.12 87.7955C178.147 87.7687 178.156 87.733 178.138 87.6973C178.138 87.6883 178.112 87.6973 178.103 87.6973C176.759 81.6513 170.639 69.7113 167.673 64.7816C167.673 64.7816 167.655 64.7549 167.655 64.7459C167.485 64.4601 167.323 64.2012 167.171 63.96C167.171 63.9511 167.153 63.9333 167.144 63.9154C166.759 63.3081 166.454 62.8795 166.266 62.683C162.87 59.2805 157.369 56.1102 151.473 52.9845C151.473 52.922 151.473 52.8862 151.473 52.8862L152.091 46.4206C152.378 46.0991 153.336 45.0185 154.367 43.5896C154.663 43.411 154.94 43.1699 155.173 42.8573C155.514 42.4108 155.702 41.9107 155.756 41.4374C156.813 39.5977 157.602 37.5705 157.279 35.9273C156.867 33.8286 154.716 33.2035 154.716 33.2035C154.716 33.2035 153.426 27.8541 149.555 27.1486C148.032 26.8718 147.306 27.2558 147.1 27.9077C146.822 27.8273 146.545 27.7648 146.276 27.7648C144.824 27.738 144.287 28.7114 144.43 29.7295C143.794 29.6759 143.22 29.7652 142.844 30.1224C140.487 32.3283 143.48 34.159 143.865 34.3823C143.848 34.418 143.812 34.4448 143.794 34.4805C143.283 35.5968 142.969 36.9632 142.468 38.5082C141.41 41.7857 141.509 44.6702 143.176 46.3045L141.966 51.9039C136.357 53.6632 132.396 55.0653 128.75 56.4049C128.75 56.4049 127.952 60.4504 127.065 64.9424C127.119 64.9067 127.173 64.8888 127.217 64.8531C127.603 64.5495 127.791 64.1476 127.8 64.1476L128.597 64.5137C128.463 64.8084 128.158 65.2282 127.791 65.5139C127.558 65.7015 127.244 65.889 126.859 65.9873C125.82 71.2741 124.735 76.7753 124.735 76.7753L124.09 108.889L124.673 108.952L115.901 167.009L115.892 167ZM167.628 100.789L167.771 99.9052L168.641 94.538L168.784 93.6718L169.098 91.7517C169.098 91.7517 169.115 91.7338 169.133 91.7338C169.931 93.2699 170.916 94.9667 172.081 96.601C172.314 96.6188 172.619 96.601 172.941 96.5831L173.838 98.0388C173.838 98.0388 173.802 98.1013 173.82 98.137H173.829L166.84 105.639L167.628 100.789ZM132.128 60.495C132.746 60.8165 133.328 60.8165 133.839 60.495C134.251 60.236 134.484 59.8609 134.493 59.852L135.246 60.2985C135.075 60.5754 134.735 60.9594 134.341 61.2095C133.785 61.5667 132.88 61.8703 131.715 61.263L132.128 60.4861V60.495ZM130.712 65.7193C131.348 66.014 131.921 65.9873 132.423 65.639C132.826 65.3621 133.042 64.9692 133.042 64.9692L133.821 65.38C133.669 65.6658 133.337 66.0676 132.961 66.3355C132.423 66.7196 131.536 67.0589 130.344 66.5142L130.712 65.7193ZM130.219 72.8369C130.909 72.9441 131.456 72.7655 131.841 72.3011C132.154 71.926 132.253 71.4884 132.253 71.4884L133.113 71.676C133.042 71.9975 132.835 72.4619 132.549 72.828C132.137 73.346 131.375 73.9175 130.085 73.7121L130.219 72.8459V72.8369Z" fill="url(#paint1_linear_1878_7133)"/>
<path d="M192.403 108.318C192.35 110.041 192.323 112.39 192.323 114.167C192.511 114.23 192.717 114.274 192.914 114.328C192.735 116.007 192.69 117.15 192.547 118.231C192.045 122.08 191.176 124.937 191.176 125.598C191.176 126.947 192.376 130.108 193.577 132.019C193.685 132.243 193.801 132.484 193.918 132.769C193.927 132.787 193.944 132.805 193.971 132.805C193.98 132.805 193.998 132.805 194.007 132.805C194.043 132.787 194.052 132.752 194.043 132.716L194.025 132.68C194.231 132.948 194.428 133.162 194.616 133.314C194.724 133.448 194.831 133.564 194.957 133.671C194.984 133.743 195.02 133.796 195.047 133.859C195.064 133.948 195.082 134.038 195.091 134.127C195.091 134.154 195.118 134.18 195.154 134.18C195.154 134.18 195.163 134.18 195.172 134.18C195.199 134.18 195.208 134.145 195.217 134.118C195.333 134.261 195.468 134.35 195.629 134.332C196.382 134.279 196.561 133.028 196.417 131.546C196.328 130.698 196.274 129.671 196.391 128.679C196.552 127.349 196.65 126.25 196.731 125.384C196.749 125.161 196.892 124.732 197.054 124.268C197.072 124.732 197.072 125.196 197.036 125.536C196.91 126.982 197.672 127.965 199.025 127.992C198.926 126.991 198.469 125.857 198.514 124.553C198.559 123.348 198.926 121.937 198.765 121.285C198.577 120.579 198.057 118.918 197.618 118.177C197.591 117.579 197.717 116.194 197.86 114.828C198.048 114.81 198.227 114.792 198.398 114.766C198.559 113.105 198.711 111.122 198.819 109.55C198.882 109.55 198.953 109.568 199.016 109.568L198.864 113.703C199.365 113.73 199.876 113.765 200.387 113.792C199.043 131.457 198.165 150.023 197.887 166.964H210.046C210.951 158.73 212.089 150.282 213.46 141.816C213.46 141.816 213.46 141.834 213.478 141.834C213.478 141.834 213.496 141.816 213.514 141.807C213.128 150.318 212.528 158.766 211.739 166.964H224.123C227.232 150.434 230.072 132.394 232.285 115.185C233.262 115.069 234.194 114.828 235.072 114.408L239.113 77.6594C240.43 78.1149 241.944 78.6239 243.548 79.1419C243.763 79.2133 243.969 79.2758 244.185 79.3473C245.869 79.8831 247.634 80.419 249.337 80.8923C249.417 80.9191 249.498 80.9369 249.579 80.9637C249.659 80.9816 249.731 81.0084 249.812 81.0262C249.874 81.0441 249.937 81.0619 249.991 81.0798C252.15 81.6692 254.184 82.1425 255.815 82.3837C255.878 82.3926 255.94 82.4015 256.003 82.4104C256.111 82.4283 256.218 82.4372 256.317 82.4551C256.37 82.4551 256.424 82.473 256.469 82.473C257.589 82.598 258.467 82.5891 258.996 82.3926C261.352 81.5085 261.388 72.6673 261.2 67.6126C261.478 67.568 261.747 67.5144 261.997 67.4519C261.603 65.4872 261.012 64.103 261.012 64.103C261.012 64.103 260.886 63.9422 260.582 63.6207C260.51 62.6473 260.429 61.6739 260.331 60.7183C260.304 60.7362 260.259 60.7362 260.232 60.7451C259.999 58.2356 259.731 55.9226 259.489 54.1276C260.42 52.5916 261.541 49.5463 261.603 49.4212C261.675 49.2516 262.159 46.2777 262.159 46.2777C262.159 46.2777 262.92 40.5979 262.508 40.6694C262.239 40.714 261.944 41.1606 261.675 41.7768C261.89 39.812 261.989 37.7848 261.747 37.3294C261.433 37.4187 261.101 37.9009 260.806 38.5618C260.797 38.5529 260.806 38.535 260.788 38.5261C260.77 38.5261 260.77 38.5439 260.761 38.5439C260.895 37.2311 260.904 36.2041 260.671 36.222C260.179 36.2577 259.757 37.0079 259.399 38.017C259.399 38.017 259.399 37.9992 259.39 37.9992C259.354 37.9992 259.318 38.017 259.309 38.0527C259.309 38.0885 259.265 38.2403 259.211 38.4635C259.345 37.5616 259.39 36.9096 259.229 36.9454C257.822 37.2669 256.361 44.1255 256.361 44.1255C256.361 44.1255 254.982 46.7421 254.381 47.2333C253.799 47.7066 252.876 44.8399 252.876 44.8399C252.876 44.8399 252.948 43.8843 252.625 43.0717C252.186 41.9822 251.012 41.741 251.012 41.741C251.012 41.741 251.398 44.2505 251.496 45.2507C251.55 45.7687 251.666 47.403 251.81 48.0995C251.98 48.9122 252.491 50.8412 252.903 51.6181C253.154 52.0915 253.736 52.7791 254.095 53.1721C254.13 55.3689 254.095 57.4944 253.996 59.5663C253.942 60.1646 253.88 60.7719 253.826 61.3702C253.673 61.3792 253.593 61.3881 253.593 61.3881L252.401 64.5138C252.562 64.8888 252.768 65.2282 253.028 65.5318L252.553 69.0594L240.968 60.8076C240.09 60.0753 238.979 59.3877 237.742 58.709C237.518 58.575 237.285 58.45 237.052 58.3339C235.565 57.5658 233.88 56.7978 232.106 56.0209C231.873 55.9137 231.631 55.8065 231.389 55.7083C231.165 55.6101 230.932 55.5029 230.699 55.4047C230.672 55.2975 230.646 55.1993 230.619 55.0921C230.61 55.0564 230.565 55.0385 230.529 55.0475C229.929 53.1988 229.158 52.2344 227.402 50.2161L227.348 51.252C227.411 49.8321 227.483 48.0817 227.536 46.6617C228.038 46.0098 228.486 45.2329 228.845 44.313C229.006 44.3309 229.194 44.313 229.445 44.2148C231.264 43.5182 231.739 40.3657 231.013 39.9014C230.646 39.6692 230.323 39.7138 230.054 39.8656C230.153 39.5888 230.242 39.3209 230.332 39.044C231.81 38.3653 231.353 35.445 230.861 33.9001C230.189 31.7925 227.662 29.7295 224.965 29.676C224.275 29.667 223.63 30.0064 223.173 30.4976C223.164 30.5065 223.155 30.5154 223.146 30.5333C222.599 29.5152 221.318 30.1314 220.529 30.6315C219.75 31.1227 218.89 31.7032 217.985 31.5156C218.227 31.5692 218.487 31.9354 218.594 32.1318C217.51 32.9981 215.225 35.6326 216.56 37.2758C216.632 37.3651 216.721 37.4008 216.82 37.4098C216.847 37.758 216.892 38.0974 216.927 38.4457C216.712 38.3117 216.453 38.2492 216.112 38.3832C215.306 38.6868 215.126 41.8661 216.766 42.9199C216.981 43.0627 217.16 43.1163 217.331 43.1342C217.501 44.1433 217.779 45.0364 218.155 45.7955L217.492 49.8142C215.359 51.4306 213.836 52.8684 212.86 54.5741C212.86 54.5741 212.788 54.5652 212.761 54.6009C212.734 54.6456 212.716 54.6902 212.698 54.7349C210.799 55.3689 208.818 56.0655 207.008 56.7621C206.874 56.8068 206.749 56.8603 206.623 56.9139C206.552 56.9407 206.489 56.9675 206.417 56.9943L206.372 57.0122C203.854 58.0034 201.758 58.9679 200.907 59.7002C200.853 59.7181 200.647 59.9503 200.342 60.3343C200.342 60.3343 200.297 60.3879 200.279 60.4057C200.208 60.495 200.136 60.5933 200.064 60.7004C200.002 60.7898 199.939 60.8791 199.867 60.9773C199.787 61.0934 199.697 61.2273 199.616 61.3613C199.563 61.4417 199.518 61.5131 199.464 61.5935C198.917 62.4598 198.281 63.585 197.654 64.9871C194.616 71.7832 192.143 89.5727 192.143 89.5727L191.713 103.674L190.719 103.308L190.925 107.746C191.418 107.943 191.928 108.103 192.43 108.273L192.403 108.318ZM218.361 124.134L216.901 122.883C216.91 122.83 216.927 122.767 216.936 122.714L218.361 124.134ZM217.384 50.3589L216.874 53.4489H216.838L217.384 50.3589ZM215.583 121.356L215.745 121.517V121.606L215.539 121.713L215.315 121.526L215.574 121.356H215.583ZM213.98 122.41C213.98 122.464 213.98 122.526 213.98 122.589L212.295 123.517L213.98 122.419V122.41Z" fill="url(#paint2_linear_1878_7133)"/>
<path d="M65.7052 70.8545C65.4543 72.8102 65.4543 74.6678 65.8844 76.1949C67.8108 83.0178 75.0776 87.9474 79.4054 90.7784C80.5254 91.5107 81.9322 93.1271 82.5056 93.8147L89.1273 161.49L89.7276 161.427C89.5842 162.901 89.1989 163.91 88.8853 164.812C88.8853 164.812 88.8943 164.803 88.9033 164.794C88.6882 165.276 88.4552 165.687 88.2402 166.027C88.1864 165.964 87.6219 165.223 86.9678 164.517C86.036 163.508 85.3908 163.053 85.0504 163.16C84.8891 163.205 84.7905 163.374 84.7726 163.651C84.7188 164.357 85.2027 164.982 86.1793 165.473C85.2475 165.205 84.2708 165.017 83.9124 165.241C83.8228 165.294 83.769 165.384 83.7601 165.482C83.7422 165.652 83.8049 165.803 83.9303 165.928C84.6561 166.625 87.4696 166.348 88.0789 166.277C88.07 166.295 88.052 166.321 88.0431 166.33C88.0431 166.33 87.846 166.58 87.5234 166.991H98.3115L98.0517 165.634L97.1198 160.659L97.2632 160.642L98.2936 110.765L111.313 158.445L111.456 158.4L112.092 162.874L115.936 163.374C118.069 164.33 122.226 166.152 124.332 166.839C124.511 166.893 124.655 166.938 124.816 166.991H129.206C129.081 166.58 128.669 166.036 128.077 165.428C127.576 164.91 125.13 162.874 123.149 161.24C123.158 161.24 123.167 161.24 123.185 161.231C123.212 161.231 123.23 161.195 123.221 161.16C123.212 161.124 123.185 161.115 123.149 161.124C123.113 161.133 123.087 161.151 123.051 161.16C122.334 160.57 121.689 160.034 121.232 159.659C121.492 159.623 121.787 159.579 122.092 159.516C122.961 159.329 123.92 159.007 124.296 158.445C124.475 158.177 124.502 157.873 124.386 157.543C124.35 157.444 124.278 157.382 124.18 157.355C123.803 157.257 122.97 157.73 122.182 158.275C122.459 157.971 122.692 157.641 122.8 157.293C122.907 156.935 122.881 156.596 122.71 156.275C122.576 156.024 122.415 155.899 122.226 155.926C122.217 155.926 122.2 155.926 122.191 155.926C121.528 156.069 120.793 158.061 120.47 159.034C120.094 158.686 119.789 158.355 119.529 158.034C119.377 157.837 119.234 157.65 119.117 157.462L119.099 157.435C118.983 157.248 118.884 157.069 118.795 156.891C118.786 156.864 118.768 156.837 118.759 156.819C118.669 156.641 118.598 156.471 118.535 156.292C118.526 156.266 118.517 156.23 118.499 156.203L119.61 155.855L119.341 154.069C119.341 154.069 119.35 154.06 119.341 154.051C119.341 154.051 119.341 154.051 119.332 154.051L109.046 85.9916L109.521 85.947L109.261 72.9621L130.542 69.5595L124.762 46.7868C122.262 45.8848 98.428 40.0622 94.7633 38.9191L93.7687 34.302C95.1396 32.9535 95.2202 30.5691 94.3511 27.8631C93.9389 26.595 93.6791 25.4608 93.2579 24.541C93.24 24.5053 93.2221 24.4874 93.2042 24.4606C93.5267 24.282 95.9998 22.7638 94.0464 20.942C93.7328 20.6473 93.2579 20.5759 92.7382 20.6205C92.8547 19.781 92.4157 18.9773 91.215 18.9952C91 18.9952 90.767 19.0487 90.534 19.1202C90.3638 18.5754 89.7634 18.2629 88.509 18.495C85.3102 19.0755 84.2529 23.4961 84.2529 23.4961C84.2529 23.4961 82.4698 24.0141 82.1383 25.7466C81.8784 27.104 82.5236 28.774 83.4017 30.2922C83.4375 30.6762 83.5988 31.087 83.8766 31.4621C84.0737 31.7211 84.2977 31.9176 84.5396 32.0694C85.3908 33.2482 86.1793 34.1413 86.4213 34.4002L86.932 39.7317C86.932 39.7317 86.932 39.7675 86.932 39.8121C82.0666 42.393 77.5237 45.0186 74.7192 47.8228C74.5669 47.9835 74.316 48.3407 73.9934 48.8408C73.9934 48.8408 73.9755 48.8676 73.9755 48.8765C73.85 49.073 73.7156 49.2873 73.5723 49.5285L73.5544 49.5553C71.0992 53.6276 66.0546 63.4868 64.9436 68.47C64.9346 68.47 64.9167 68.47 64.9167 68.47C64.8988 68.4968 64.8988 68.5325 64.9256 68.5504C64.8181 69.0416 64.7464 69.4881 64.7285 69.8721C64.9704 70.2204 65.302 70.5598 65.7052 70.8813V70.8545ZM84.0199 165.857C83.9124 165.759 83.8676 165.643 83.8766 165.5C83.8766 165.428 83.9124 165.384 83.9751 165.339C84.0199 165.312 84.0737 165.294 84.1364 165.276C84.9428 165.107 87.2367 165.919 87.9535 166.187C87.1739 166.268 84.6561 166.473 84.011 165.857H84.0199ZM84.8891 163.669C84.907 163.446 84.9697 163.312 85.0862 163.276H85.1041C85.7045 163.142 87.3621 165.089 88.0789 166C87.4159 165.857 84.7726 165.205 84.8891 163.669ZM124.153 157.471C124.216 157.489 124.26 157.525 124.278 157.587C124.386 157.882 124.359 158.15 124.198 158.382C123.696 159.132 122.047 159.445 121.097 159.561C121.035 159.507 120.981 159.463 120.927 159.418C120.927 159.418 120.936 159.418 120.927 159.409C120.927 159.391 120.9 159.391 120.882 159.382C121.877 158.588 123.606 157.319 124.144 157.462L124.153 157.471ZM122.208 156.042H122.235C122.37 156.024 122.495 156.123 122.612 156.328C122.764 156.614 122.8 156.935 122.692 157.257C122.432 158.114 121.357 158.891 120.748 159.275C120.649 159.195 120.587 159.141 120.56 159.123C120.927 158.007 121.644 156.167 122.208 156.042ZM75.8571 74.6321C76.126 74.6499 76.3768 74.6588 76.565 74.641C77.5237 73.2925 78.3391 71.8904 79.0022 70.6223C79.0111 70.6223 79.0201 70.6401 79.0291 70.6401L79.2889 72.2298L79.4054 72.9442L80.1222 77.3737L80.2387 78.106L80.8928 82.1069L75.1224 75.9181H75.1314C75.1314 75.9181 75.1403 75.8466 75.1134 75.8287L75.8571 74.6231V74.6321Z" fill="url(#paint3_linear_1878_7133)"/>
<path d="M215.932 61.6293C215.493 59.9504 213.988 57.9321 212.303 56.0835L212.205 55.5298C212.097 55.4316 211.99 55.3333 211.882 55.244L211.739 55.4851C209.23 52.8328 206.551 50.6716 206.515 50.6627C205.108 49.5285 203.388 48.698 201.524 47.9925H201.497C200.986 47.7871 200.458 47.6085 199.929 47.4299C199.893 47.4209 199.858 47.4031 199.831 47.3941C198.648 47.0012 197.429 46.635 196.22 46.2689C195.897 46.1707 195.575 46.0724 195.252 45.9742L195.386 42.1609C195.942 41.893 196.497 41.4643 196.999 40.8213C198.236 39.2495 197.886 37.0616 198.137 33.8555C198.899 33.409 199.571 32.8285 199.49 32.1409C199.427 31.6229 199.284 31.4086 199.105 31.3639C199.741 30.5066 199.642 29.5421 198.782 29.1849C198.558 29.0956 198.343 29.0688 198.155 29.0866C198.307 28.7562 198.254 28.3365 197.743 27.8274C197.116 27.2112 196.318 27.3631 195.781 27.7739C195.583 27.4166 195.234 27.1398 194.696 27.1041C193.782 27.0505 193.218 27.4166 192.913 27.9346C192.645 27.6131 192.268 27.4524 191.793 27.622C190.817 27.9793 190.36 28.3722 190.216 28.7473C189.526 28.6491 188.801 28.8545 188.523 29.5332C188.433 29.7564 188.424 29.9708 188.46 30.1851C188.03 30.2655 187.609 30.6763 187.286 31.3907C187.026 31.9623 187.197 32.9803 187.537 34.0788C187.394 34.1145 187.241 34.177 187.098 34.2931C185.673 35.4184 187.806 37.9278 188.836 37.6153C188.881 37.7849 188.962 38.0439 189.069 38.3476L188.308 44.6435C188.254 45.099 187.94 45.4562 187.519 45.608C184.831 46.0814 178.003 47.4209 178.003 47.4209H177.941V74.3553H177.546L178.012 80.0976L178.729 89.4656C178.783 89.4656 178.837 89.4746 178.891 89.4835C178.532 91.3589 178.192 93.1896 178.03 94.2434C175.916 108.139 170.692 149.443 170.692 149.443L171.068 149.487L170.943 150.291L170.916 150.452C170.351 150.47 169.635 150.693 169.411 151.693L169.115 153.453C169.115 153.453 169.07 153.506 168.989 153.586C167.968 153.703 166.785 153.944 166.588 154.399C166.516 154.56 166.561 154.739 166.723 154.926C166.812 155.033 166.955 155.078 167.126 155.087C167.287 155.087 167.475 155.06 167.672 155.015C166.427 156.4 164.563 158.552 162.896 160.829C162.44 161.463 162.009 162.062 161.741 162.446C161.436 162.883 161.57 163.508 162.054 163.74C162.664 164.035 163.595 163.883 164.402 163.624L176.874 158.543C177.233 158.391 177.484 158.061 177.52 157.668L177.636 156.373C177.636 156.373 177.681 156.337 177.681 156.31C177.681 156.292 177.654 156.292 177.645 156.283L177.959 152.881C177.977 152.676 177.842 152.479 177.636 152.434L177.546 152.417L178.084 150.255L178.254 150.273L189.401 112.899L186.982 150.273L187.501 150.3L187.358 152.497C187.376 152.935 187.367 153.283 187.376 153.64L187.358 152.497C187.188 152.39 186.91 152.577 186.785 152.81L186.345 158.632L191.605 161.463C199.705 166.804 202.124 165.08 200.243 162.624L195.879 157.364C196.094 157.489 196.282 157.561 196.417 157.569C196.471 157.569 196.524 157.569 196.56 157.543C196.668 157.48 196.695 157.337 196.65 157.114C196.515 156.462 195.315 155.917 194.401 155.596L194.105 155.239L194.266 153.569C194.284 153.515 194.284 153.39 194.266 153.229C194.23 152.988 194.15 152.765 194.024 152.568L194.302 150.702L194.813 150.729C194.813 150.729 203.361 110.024 203.513 96.3332C203.522 95.3597 203.451 93.779 203.343 92.0644C203.343 92.0555 203.361 92.0376 203.361 92.0287C203.361 92.0019 203.352 91.984 203.334 91.9662C203.307 91.4839 203.271 90.9838 203.236 90.4926C203.253 90.4926 203.28 90.4926 203.298 90.4926L203.531 87.9474C203.531 87.9474 203.585 87.9207 203.585 87.8939C203.585 87.876 203.567 87.8671 203.549 87.8581C203.63 87.6706 204.248 86.2417 204.311 85.697C204.848 81.2764 205.565 73.6676 206.183 66.7554C209.597 68.7737 217.366 67.0858 215.923 61.6472L215.932 61.6293ZM167.78 154.872C167.314 155.015 166.938 155.051 166.776 154.872C166.642 154.721 166.597 154.587 166.651 154.462C166.785 154.149 167.493 153.899 168.703 153.738C168.748 153.738 168.792 153.729 168.846 153.72C168.622 153.962 168.255 154.354 167.78 154.872ZM196.542 157.123C196.569 157.239 196.578 157.391 196.497 157.436C196.363 157.516 196.049 157.355 195.655 157.096L194.535 155.748C195.395 156.069 196.435 156.56 196.542 157.123Z" fill="url(#paint4_linear_1878_7133)"/>
<path d="M105.139 60.3523C104.852 67.2912 104.583 74.9268 104.538 79.3831C104.538 79.9368 104.959 81.4371 105.013 81.6247C104.995 81.6247 104.977 81.6336 104.968 81.6604C104.968 81.6872 104.986 81.714 105.013 81.7229L104.915 84.277C104.915 84.277 104.959 84.277 104.977 84.277C104.879 84.7593 104.78 85.2504 104.691 85.7237C104.673 85.7327 104.664 85.7595 104.655 85.7773C104.655 85.7952 104.655 85.8041 104.664 85.822C104.332 87.5098 104.054 89.0727 103.938 90.0372C102.316 103.629 105.488 145.103 105.488 145.103L105.999 145.138L106.035 147.023C105.891 147.201 105.775 147.416 105.712 147.648C105.667 147.8 105.658 147.925 105.658 147.978L105.605 149.657L105.264 149.979C104.314 150.184 103.051 150.559 102.836 151.193C102.764 151.407 102.773 151.55 102.872 151.631C102.908 151.657 102.952 151.675 103.015 151.675C103.15 151.684 103.347 151.64 103.58 151.541L98.5708 156.194C96.3845 158.391 98.5708 160.418 107.289 156.158L112.871 154.033L113.194 148.21C113.095 147.969 112.844 147.746 112.665 147.826L112.495 148.96C112.549 148.603 112.594 148.264 112.665 147.826L112.809 145.629L113.328 145.665L115.783 108.3L121.975 146.799H122.154L122.405 149.023H122.315C122.109 149.059 121.948 149.228 121.939 149.434L121.805 152.854C121.805 152.854 121.769 152.854 121.76 152.872C121.76 152.899 121.76 152.926 121.796 152.935L121.742 154.238C121.724 154.631 121.93 154.997 122.271 155.185L133.982 161.838C134.743 162.195 135.648 162.472 136.293 162.258C136.804 162.088 137.019 161.49 136.777 161.017C136.562 160.597 136.213 159.945 135.836 159.266C134.483 156.793 132.915 154.426 131.858 152.89C132.055 152.97 132.234 153.024 132.387 153.033C132.557 153.051 132.709 153.015 132.808 152.926C132.996 152.765 133.068 152.595 133.014 152.426C132.871 151.943 131.733 151.559 130.738 151.309C130.666 151.211 130.631 151.157 130.631 151.157L130.568 149.371C130.469 148.353 129.788 148.041 129.233 147.951V147.782L129.206 146.969H129.582C129.582 146.969 129.779 105.344 129.484 91.2964C129.466 90.2337 129.367 88.3761 129.251 86.4739C129.304 86.4739 129.358 86.4739 129.412 86.4739L131.338 77.2755L132.548 71.6404L132.163 71.5868L135.666 44.8757H135.604C135.604 44.8757 129.009 42.652 126.401 41.8394C125.998 41.634 125.738 41.2321 125.738 40.7766L125.801 34.436C125.953 34.1413 126.061 33.9002 126.124 33.7394C127.1 34.1859 129.537 31.9623 128.274 30.6673C128.149 30.5334 128.005 30.453 127.871 30.3994C128.355 29.3546 128.65 28.3633 128.471 27.7649C128.238 27.0148 127.871 26.5504 127.459 26.4164C127.521 26.211 127.539 25.9967 127.477 25.7645C127.288 25.059 126.59 24.7554 125.9 24.7643C125.801 24.3713 125.407 23.9248 124.475 23.4426C124.027 23.2104 123.642 23.3265 123.328 23.6033C123.095 23.0496 122.575 22.612 121.67 22.5495C121.133 22.5138 120.756 22.746 120.514 23.0675C120.031 22.5942 119.26 22.3352 118.561 22.871C117.988 23.3086 117.88 23.7194 117.988 24.0677C117.799 24.032 117.584 24.0231 117.351 24.0856C116.447 24.3267 116.223 25.2644 116.751 26.2021C116.572 26.2289 116.393 26.4254 116.267 26.9255C116.097 27.5952 116.688 28.265 117.387 28.8009C117.217 32.0158 116.59 34.1324 117.611 35.8559C118.024 36.5615 118.516 37.0526 119.036 37.392L118.669 41.1874C118.337 41.25 118.006 41.3035 117.674 41.3571C116.42 41.5715 115.174 41.7679 113.947 42.009C113.947 42.009 113.875 42.0269 113.839 42.0269C113.293 42.1341 112.746 42.2502 112.208 42.3752H112.181C110.237 42.8396 108.427 43.4379 106.886 44.3846C106.85 44.3935 103.911 46.1885 101.08 48.4926L100.972 48.2336C100.856 48.314 100.739 48.3943 100.614 48.4836L100.444 49.0195C98.535 50.6359 96.7788 52.4488 96.1247 54.0473C93.9921 59.2627 101.474 61.9329 105.121 60.3701L105.139 60.3523ZM130.855 151.416C130.899 151.425 130.944 151.434 130.989 151.452C132.163 151.765 132.835 152.104 132.933 152.434C132.969 152.568 132.915 152.693 132.763 152.827C132.575 152.988 132.199 152.908 131.769 152.702C131.365 152.122 131.052 151.684 130.864 151.416H130.855ZM105.121 150.113L103.83 151.309C103.409 151.515 103.069 151.631 102.952 151.532C102.881 151.479 102.908 151.327 102.952 151.211C103.141 150.666 104.225 150.309 105.121 150.113Z" fill="url(#paint5_linear_1878_7133)"/>
<path d="M81.6008 29.7474C81.7352 28.3185 82.0757 26.9075 82.5954 25.5679C81.9323 25.3536 81.2155 25.6304 80.8661 26.2288C80.418 26.8628 79.988 28.3364 79.4503 28.765C78.2407 27.9256 77.3268 26.7289 76.834 25.3357C76.0455 23.1745 75.0598 21.0937 73.895 19.1022C72.8287 19.4059 73.223 20.2632 73.4828 21.0491C73.7427 21.835 74.7104 24.6302 75.0061 25.6572C74.7193 25.7108 74.567 25.4518 74.3968 25.1571C73.5993 23.7372 72.4882 20.8526 71.5116 19.0129C70.6066 19.1022 70.5797 19.7452 70.7768 20.5401C71.422 22.603 72.1657 24.6391 73.0258 26.6217C72.8287 26.6664 72.6226 26.5949 72.5062 26.4252C71.646 25.4429 70.3019 22.603 69.3163 20.9598C68.4292 21.1027 68.4382 21.6921 68.6801 22.5226C69.3521 24.5052 70.3019 26.3806 71.5116 28.0952C71.3682 28.1667 71.2428 28.3632 70.7051 27.8988C69.0833 26.4967 68.4561 25.9251 67.1121 24.8713C66.6999 25.2107 66.6372 25.8269 66.9777 26.2377C67.0046 26.2734 67.0314 26.3002 67.0673 26.327C68.026 27.5415 70.0062 29.4795 70.956 30.5868C71.6281 32.9266 72.981 35.0074 74.8537 36.5792C75.687 37.9188 76.6637 39.812 77.3895 41.232L82.6312 37.5705C81.8965 36.2934 80.651 34.7484 79.9163 33.4803C80.7765 32.3908 81.3499 31.1048 81.6008 29.7384V29.7474Z" fill="#E9B395"/>
<path d="M123.344 51.8711C123.985 51.3751 123.922 50.2245 123.203 49.3011C122.484 48.3777 121.381 48.0312 120.74 48.5272C120.099 49.0232 120.162 50.1738 120.881 51.0972C121.6 52.0206 122.703 52.3671 123.344 51.8711Z" fill="#E9B395"/>
<path d="M135.681 49.2275C136.147 48.1549 135.921 47.0247 135.176 46.7032C134.431 46.3817 133.45 46.9906 132.984 48.0632C132.518 49.1358 132.743 50.266 133.488 50.5875C134.233 50.909 135.214 50.3001 135.681 49.2275Z" fill="#E9B395"/>
<path d="M130.68 48.6222L125.638 49.0742L127.599 70.8037L132.641 70.3516L130.68 48.6222Z" fill="#E9B395"/>
<path d="M126.733 59.3609C127.773 60.504 129.852 60.3433 131.877 61.156L132.262 65.1568C130.757 65.1568 129.493 65.0139 128.248 63.7547C126.742 62.2097 126.742 59.3431 126.742 59.3609H126.733Z" fill="#C76157"/>
<path d="M122.271 42.8665C123.257 39.8837 131.16 39.5979 132.764 41.5448C134.385 44.8044 135.129 54.3689 133.669 58.3877C131.814 63.5137 127.62 63.5941 125.228 59.1557C122.997 55.0477 121.59 45.3581 122.271 42.8754V42.8665Z" fill="#E9B395"/>
<path d="M122.71 44.3398C122.71 44.3398 128.848 44.2773 132.262 43.4468C132.916 44.1255 133.884 46.9207 134.081 47.6887C134.547 45.5543 134.699 39.2762 134.699 39.2762C134.699 39.2762 128.821 36.472 125.497 37.9456C123.481 38.8476 122.459 39.7317 122.173 41.107C118.006 41.2499 119.404 47.653 122.603 49.5284C123.015 47.8316 123.051 46.0634 122.71 44.3487V44.3398Z" fill="#162B4E"/>
<path d="M127.818 47.9388L125.354 48.2424C125.354 48.2424 127.146 46.5992 127.818 47.9388Z" fill="black"/>
<path d="M127.423 49.0283C127.468 49.2516 127.324 49.4749 127.1 49.5195C126.876 49.5195 126.688 49.3409 126.67 49.1176C126.625 48.8944 126.769 48.6711 126.993 48.6265C127.217 48.6265 127.414 48.7961 127.423 49.0194V49.0283Z" fill="#321D39"/>
<path d="M129.914 47.671L132.378 47.3495C132.378 47.3495 130.228 46.1974 129.914 47.671Z" fill="black"/>
<path d="M130.667 48.6177C130.667 48.841 130.864 49.0196 131.088 49.0106C131.33 48.9481 131.474 48.6981 131.411 48.4569C131.357 48.2515 131.169 48.1087 130.963 48.1176C130.739 48.1712 130.605 48.3944 130.658 48.6177H130.667Z" fill="#321D39"/>
<path d="M122.325 48.1353C122.486 49.7249 124.296 54.3509 124.529 55.9137C125.183 54.0026 126.913 52.6541 128.938 52.4844C131.088 52.154 133.221 53.19 134.296 55.0743C134.296 53.5025 134.135 48.689 134.009 47.0994C134.744 50.2072 136.142 58.5572 135.55 59.5485C132.307 64.7549 125.864 63.2099 123.669 61.3524C122.719 60.4862 121.895 51.2342 122.334 48.1353H122.325Z" fill="#162B4E"/>
<path d="M130.236 54.11C130.111 54.7172 129.627 55.1905 129.018 55.3066C128.158 55.4763 127.315 54.9226 127.145 54.0564C127.127 53.9849 127.118 53.9135 127.118 53.842L130.236 54.11Z" fill="#FFFBF5"/>
<path d="M130.049 54.0831C130.022 54.2439 129.905 54.3689 129.753 54.4046C129.126 54.485 128.498 54.5118 127.871 54.4761C127.602 54.4761 127.36 54.4136 127.244 54.2082C127.172 54.0831 127.119 53.9403 127.101 53.7974L130.04 54.0742L130.049 54.0831Z" fill="#FFFBF5"/>
<path d="M124.439 50.484C125.972 50.3769 127.038 50.2518 128.552 50.0196C128.588 49.2427 128.498 48.4657 128.283 47.7156C126.751 47.8227 125.694 47.9478 124.171 48.18C124.144 48.9569 124.233 49.7339 124.439 50.484Z" fill="#162B4E"/>
<path d="M130.03 49.832C131.563 49.7159 132.136 49.6088 133.659 49.3766C133.695 48.5996 133.606 47.8227 133.39 47.0725C132.172 47.1618 130.962 47.3047 129.762 47.519C129.726 48.296 129.815 49.0819 130.03 49.832Z" fill="#162B4E"/>
<path d="M107.379 129.546C107.379 122.607 108.759 78.7223 111.68 71.8637C125.595 68.4255 142.53 66.7376 147.306 66.3179C148.802 72.6317 149.636 79.0885 149.788 85.572C149.913 95.8242 149.725 118.168 150.854 126.384L107.37 129.537L107.379 129.546Z" fill="#D84E55"/>
<path d="M131.106 167C131.375 163.606 131.608 160.525 131.805 157.9C132.665 159.811 133.874 162.981 135.317 167H160.209C159.985 165.768 159.761 164.571 159.546 163.437C158.166 156.069 156.508 148.46 154.635 140.852C153.453 136.002 152.18 131.162 150.836 126.402L126.357 128.17L107.352 129.546C106.519 141.539 106.51 154.31 106.922 167H131.097H131.106Z" fill="#464B51"/>
<path d="M127.288 65.9338L128.202 68.5058L127.96 70.3723L124.977 69.1845L127.288 65.9338Z" fill="#D84E55"/>
<path d="M130.56 67.9788L132.307 65.4783L134.583 67.7555L130.748 71.8725L130.56 67.9788Z" fill="#D84E55"/>
<path d="M118.651 70.4438C102.997 60.1916 83.1144 34.4182 83.1144 34.4182L74.6738 40.4195C81.6897 52.5828 97.6031 74.1946 111.026 88.0547L118.651 70.4438Z" fill="#D84E55"/>
<path d="M169.724 27.1219C168.918 25.7288 167.932 24.4517 166.785 23.3265C167.287 22.7996 168.093 22.7192 168.685 23.13C169.339 23.4783 170.262 24.675 171.113 24.9518C171.74 23.3354 171.937 21.585 171.668 19.8704C171.31 17.3073 171.158 14.7264 171.238 12.1366C172.323 12.342 172.287 12.4402 172.502 13.7887C172.717 15.1372 173.129 17.5931 173.443 19.1648C173.738 18.9059 173.729 18.7808 173.711 18.2986C173.64 15.9409 173.308 13.4404 173.317 10.9756C174.177 10.9131 174.428 10.9756 174.643 12.0294C175.109 14.1727 175.333 16.7715 175.638 19.0666C175.862 18.8166 175.934 19.0666 175.987 18.5219C176.211 16.4143 175.987 13.9584 176.14 11.7347C177.036 11.7347 177.26 11.9133 177.421 12.9314C177.779 15.2086 177.869 17.5127 177.69 19.8168C178.12 19.7453 178.147 19.665 178.299 19.147C178.747 17.5484 179.294 15.9856 179.921 14.4496C180.53 14.8336 180.799 14.9586 180.656 15.9142C180.333 17.8431 179.769 20.1651 179.455 22.1923C180.046 25.0054 179.948 27.9167 179.159 30.6762C179.401 32.5784 179.554 34.4896 179.598 36.4096C177.394 36.1863 175.19 35.9809 173.048 35.7666C173.048 33.9537 173.138 32.1051 173.138 30.3101C171.749 29.5331 170.575 28.4436 169.706 27.113L169.724 27.1219Z" fill="#E9B395"/>
<path d="M142.226 67.5412C167.529 57.7624 167.538 57.8606 170.755 33.2393C174.241 33.4 177.735 33.9716 181.194 34.4002C180.459 67.0769 171.597 68.7379 146.724 86.9382C145.29 80.4547 143.713 74.0158 142.226 67.5412Z" fill="#D84E55"/>
<path d="M75.5703 66.5321L78.2315 85.7773L83.7869 84.8128L80.9465 65.6123L75.5703 66.5321Z" fill="#E9B395"/>
<path d="M79.199 77.4185C78.4642 76.3558 78.0789 74.5518 77.7295 73.2837C78.6703 74.9894 80.3817 76.1414 82.3171 76.3647L82.801 79.1599C81.3853 79.2135 80.0323 78.5616 79.19 77.4185H79.199Z" fill="#C76157"/>
<path d="M83.6702 57.2713C83.6702 57.2713 86.7884 65.6392 88.0428 72.7121C88.446 74.9715 87.093 75.7485 84.844 76.3111C82.0036 77.0791 79.7725 77.4899 78.3478 74.9269C73.0703 66.6126 72.6133 59.754 74.9429 58.084C77.2726 56.414 83.6702 57.2713 83.6702 57.2713Z" fill="#E9B395"/>
<path d="M76.6635 73.1495C76.8517 71.6224 75.7854 69.4255 75.4897 66.7464C75.3911 65.9069 77.2638 65.3264 77.2638 65.3264L75.427 61.1648C75.427 61.1648 82.3084 58.7089 84.0736 58.5125C83.9213 57.414 83.7152 57.1997 83.3389 57.0479C81.0182 56.1012 76.8965 56.4049 73.9217 58.0213C71.6906 59.1644 70.678 61.7989 71.5741 64.1387C72.6493 66.791 76.6545 73.1495 76.6545 73.1495H76.6635Z" fill="#162B4E"/>
<path d="M74.7912 67.3896C74.1012 67.2467 73.3934 67.5682 73.0529 68.1844C72.8737 68.7024 72.9454 69.2828 73.25 69.7472C74.1102 71.2118 75.7858 72.0066 77.4703 71.7298C77.4703 71.7298 77.309 67.8718 74.7912 67.3896Z" fill="#E9B395"/>
<path d="M82.4425 64.2192L80.2383 65.1212C80.2383 65.1212 81.8422 62.6207 82.4425 64.2192Z" fill="black"/>
<path d="M84.0557 63.5762L85.785 63.219C85.785 63.219 83.6704 61.9062 84.0557 63.5762Z" fill="black"/>
<path d="M82.0131 66.1481C82.2506 66.1481 82.4432 65.9562 82.4432 65.7194C82.4432 65.4827 82.2506 65.2908 82.0131 65.2908C81.7756 65.2908 81.583 65.4827 81.583 65.7194C81.583 65.9562 81.7756 66.1481 82.0131 66.1481Z" fill="black"/>
<path d="M85.7584 64.5048C85.8301 64.7192 85.7136 64.9603 85.4986 65.0317H85.4807C85.2566 65.1121 85.0147 64.9871 84.943 64.7549C84.8714 64.5316 84.9968 64.2905 85.2208 64.2191C85.4358 64.1476 85.6778 64.2637 85.7495 64.4781V64.4959L85.7584 64.5048Z" fill="black"/>
<path d="M85.8385 70.1936C85.7757 70.8277 85.8385 72.1583 85.0679 72.4084C84.0912 72.7924 82.3709 71.0241 82.2812 70.2204L85.8385 70.1936Z" fill="#321D39"/>
<path d="M85.6324 70.1757C85.6145 70.3454 85.489 70.4972 85.3188 70.5418C84.6199 70.6758 83.912 70.774 83.2042 70.8365C82.9085 70.8365 82.6217 70.8544 82.4694 70.6936C82.3798 70.5597 82.3081 70.4079 82.2812 70.2471L85.6324 70.1667V70.1757Z" fill="#FFFBF5"/>
<path d="M104.431 139.78C104.333 138.101 103.311 131.091 102.478 121.669C101.743 113.462 101.286 103.236 100.426 95.7438C99.2523 85.4916 96.8688 82.4284 95.7219 79.7493C76.547 82.7767 66.4219 86.8222 63.7339 88.26C63.0977 88.5994 65.4453 110.292 66.3323 126.84C66.6639 133.011 66.0635 136.886 65.9022 141.673L104.431 139.78Z" fill="#F36D3F"/>
<path d="M105.999 167C105.811 156.65 105.336 147.201 104.44 139.744L65.9107 141.628C63.9395 147.532 61.7442 157.328 59.7461 167H105.999Z" fill="#162B4E"/>
<path d="M114.655 35.3113C114.655 35.3113 114.691 32.6768 114.216 32.2928C113.419 31.6676 107.604 30.9175 107.173 31.3015C106.833 31.8909 106.609 32.5517 106.528 33.2305L114.664 35.3202L114.655 35.3113Z" fill="#E9B395"/>
<path d="M113.893 35.7399C113.893 35.7399 113.544 33.6859 113.069 33.2841C112.594 32.8822 107.245 31.3015 106.528 31.8195C105.811 32.3374 105.829 34.5075 105.829 34.5075L113.893 35.7399Z" fill="#E9B395"/>
<path d="M112.307 36.6418C112.307 36.6418 112.899 34.6146 111.635 34.302C110.372 33.9894 105.22 33.793 105.211 34.8914C105.238 35.6594 105.453 36.4096 105.82 37.0883L112.298 36.6418H112.307Z" fill="#E9B395"/>
<path d="M110.569 35.856C110.471 35.856 105.301 36.1507 105.193 37.008C105.086 37.8653 105.686 39.3656 106.457 39.5085C106.967 39.6068 107.487 39.6514 108.016 39.6603L110.569 35.856Z" fill="#E9B395"/>
<path d="M116.913 48.3319C116.913 48.3319 115.542 43.5184 115.371 42.4378C115.201 41.3572 115.506 32.8732 114.207 32.3017C113.221 31.8641 108.4 32.7661 108.4 32.7661L108.015 39.6693C107.899 40.7053 107.961 41.7501 108.194 42.7682C108.795 44.1167 109.511 45.4116 110.345 46.6351L110.9 50.377L116.913 48.3408V48.3319Z" fill="#E9B395"/>
<path d="M108.016 39.6603C108.016 39.6603 106.412 38.4458 107.075 38.1957C107.46 38.0796 107.872 38.0796 108.257 38.1957L108.016 39.6603Z" fill="#DA947B"/>
<path d="M110.219 75.4447C107.594 77.0433 95.7307 79.7492 94.2344 79.9903L96.3938 100.12C105.318 94.4577 116.554 89.4477 120.631 85.554C122.656 83.6072 122.88 81.3031 122.835 78.8562C122.755 72.4352 121.545 62.8706 118.839 47.6531L109.153 49.716C110.193 68.8451 110.219 75.4537 110.219 75.4537V75.4447Z" fill="#F36D3F"/>
<path d="M82.8818 79.6152L82.0127 82.3747L82.5324 85.2057L86.6451 84.7503L82.8818 79.6152Z" fill="#D95754"/>
<path d="M79.5758 82.9465L77.4701 81.1157L76.377 83.902L78.9933 86.9205L79.5758 82.9465Z" fill="#D95754"/>
<path d="M67.5416 102.013L60.7498 127.983L60.4003 129.313L59.9702 130.957L59.9434 131.064H59.9254L49.209 124.562C49.209 124.562 51.0906 113.98 53.0888 105.049C53.1067 104.96 53.1246 104.88 53.1425 104.79C53.4293 103.522 53.716 102.299 54.0027 101.138C56.0725 92.6359 59.1459 89.8674 65.203 87.5544L67.5416 102.013Z" fill="#F36D3F"/>
<path d="M41.6553 100.673C42.7932 105.934 44.1193 119.499 46.7895 127.224C48.7249 132.841 56.8698 132.127 58.0256 129.733C59.6026 126.456 50.7947 108.666 47.1837 98.3069L41.6642 100.673H41.6553Z" fill="#E9B395"/>
<path d="M38.2599 89.5012C38.2599 89.5012 37.0592 87.1436 37.319 86.5988C37.7581 85.6611 42.6593 82.4461 43.197 82.6069C43.7346 82.7676 44.6306 84.0536 44.6306 84.0536L38.2599 89.5012Z" fill="#E9B395"/>
<path d="M39.1293 89.5459C39.1293 89.5459 38.5379 87.5544 38.7798 86.9828C39.0217 86.4113 43.1255 82.6426 43.9857 82.7498C44.8459 82.857 45.8046 84.8485 45.8046 84.8485L39.1293 89.5459Z" fill="#E9B395"/>
<path d="M40.9476 89.662C40.9476 89.662 39.5229 88.0992 40.5086 87.2597C41.4942 86.4203 46.037 83.9912 46.5388 84.9735C46.8434 85.679 46.9868 86.4381 46.9599 87.2061L40.9476 89.662Z" fill="#E9B395"/>
<path d="M42.1572 88.1975C42.2379 88.1707 47.0137 86.1435 47.4886 86.8668C47.9635 87.5902 48.0889 89.1977 47.4617 89.671C47.0406 89.9746 46.6015 90.2426 46.1356 90.4747L42.1572 88.1885V88.1975Z" fill="#E9B395"/>
<path d="M41.6553 100.673C41.6553 100.673 41.0818 97.2529 40.7682 96.2081C40.4546 95.1632 36.4046 87.6616 37.3185 86.5989C37.9995 85.7773 42.7395 84.4556 42.7395 84.4556L46.1354 90.4747C46.691 91.3588 47.1031 92.3233 47.3451 93.3414C47.4078 94.8149 47.3271 96.2974 47.1211 97.762L47.7035 99.5749L41.6463 100.673H41.6553Z" fill="#E9B395"/>
<path d="M46.1452 90.4836C46.1452 90.4836 47.0502 88.6886 46.3513 88.7868C45.957 88.8583 45.5896 89.0458 45.2939 89.3227L46.1452 90.4836Z" fill="#DA947B"/>
<path d="M51.7266 105.085V126.402C53.9218 125.813 55.8572 124.035 56.7801 122.187L57.9629 117.891C56.4217 113.078 53.8322 108.416 51.7266 105.085Z" fill="#C74E4F"/>
<path d="M60.4008 128.867C60.4008 129.01 60.4008 129.162 60.4008 129.313C60.3649 129.84 60.2216 130.394 59.9707 130.957C59.9617 130.992 59.9528 131.019 59.9259 131.055C58.6625 133.877 55.0605 136.681 51.5839 135.743C50.2399 135.377 48.9227 134.466 47.7579 132.778C46.0465 130.296 41.4678 104.37 41.4678 104.37L52.014 101.834C52.014 101.834 52.3993 102.968 52.9996 104.781C53.0265 104.871 53.0534 104.96 53.0892 105.049C55.3382 111.801 60.3201 126.982 60.4008 128.867Z" fill="#F36D3F"/>
<path d="M100.21 43.1431C100.345 41.7053 100.685 40.2943 101.214 38.9547C100.551 38.7404 99.8252 39.0172 99.4847 39.6245C99.0367 40.2586 98.6066 41.7321 98.069 42.1518C96.8593 41.3124 95.9454 40.1157 95.4526 38.7225C94.6641 36.5614 93.6785 34.4806 92.5136 32.498C91.4474 32.8016 91.8416 33.659 92.1014 34.4448C92.3613 35.2307 93.329 38.026 93.6247 39.053C93.338 39.0976 93.1856 38.8476 93.0244 38.5529C92.2179 37.1329 91.1069 34.2394 90.1302 32.4087C89.2252 32.498 89.1983 33.141 89.3955 33.9269C90.0406 35.9987 90.7933 38.026 91.6534 40.0175C91.4563 40.071 91.2413 39.9907 91.1248 39.821C90.2646 38.8297 88.9564 35.9987 87.9439 34.3555C87.0479 34.4984 87.0568 35.0878 87.3077 35.9184C87.9708 37.9009 88.9206 39.7853 90.1392 41.491C89.9868 41.5535 89.8703 41.7589 89.3238 41.2945C87.702 39.8924 87.0748 39.3209 85.7307 38.2582C85.3096 38.6154 85.2648 39.2405 85.6232 39.6513C85.6411 39.6781 85.668 39.696 85.6859 39.7228C86.6447 40.9373 88.6249 42.8752 89.5836 43.9737C90.2467 46.3135 91.5997 48.3943 93.4724 49.966C94.3057 51.3056 95.2823 53.1988 96.0081 54.6277L101.259 50.9662C100.524 49.6981 99.2696 48.1442 98.5439 46.8761C99.3951 45.7866 99.9685 44.5006 100.219 43.1431H100.21Z" fill="#E9B395"/>
<path d="M155.02 63.1831C154.286 64.103 154.232 65.255 154.877 65.7462C155.522 66.2373 156.624 65.898 157.341 64.9781C158.058 64.0583 158.13 62.9063 157.485 62.4062C156.839 61.9061 155.746 62.2633 155.02 63.1831Z" fill="#E9B395"/>
<path d="M144.931 61.8526C145.397 62.9243 145.164 64.0495 144.421 64.371C143.677 64.6925 142.7 64.0853 142.216 63.0136C141.733 61.9419 141.974 60.8167 142.727 60.4863C143.48 60.1559 144.456 60.781 144.931 61.8437V61.8526Z" fill="#E9B395"/>
<path d="M147.438 63.2799L145.371 84.9099L150.384 85.3857L152.451 63.7557L147.438 63.2799Z" fill="#E9B395"/>
<path d="M151.526 72.7566C150.487 73.8908 148.408 73.7389 146.383 74.5516L146.007 78.5525C147.512 78.5525 148.767 78.4096 150.021 77.1504C151.526 75.6054 151.535 72.7387 151.517 72.7655L151.526 72.7566Z" fill="#C76157"/>
<path d="M155.988 56.2441C155.003 53.2703 147.1 52.9756 145.505 54.9224C143.883 58.1731 143.408 67.6484 144.591 71.7653C146.123 77.1057 150.648 76.9718 153.031 72.5333C155.263 68.4164 156.705 58.7357 155.988 56.2441Z" fill="#E9B395"/>
<path d="M155.558 57.7267C155.558 57.7267 149.42 57.6732 146.007 56.8426C145.361 57.5213 144.331 60.2719 144.134 61.0399C143.668 58.9056 143.569 52.6632 143.569 52.6632C143.569 52.6632 149.492 49.859 152.78 51.3414C154.788 52.2434 155.818 53.1275 156.096 54.5028C160.262 54.6457 158.408 60.9149 155.728 63.0582C155.316 61.3168 155.262 59.5039 155.558 57.7357V57.7267Z" fill="#162B4E"/>
<path d="M147.88 67.9788C147.943 68.2825 148.552 70.0864 149.457 70.0954C150.783 70.0954 151.401 68.3807 151.428 67.6663L147.88 67.9788Z" fill="#C76157"/>
<path d="M148.095 67.9432C148.122 68.1129 148.256 68.2379 148.426 68.2737C149.134 68.3451 149.851 68.3719 150.568 68.3362C150.872 68.3362 151.159 68.2737 151.302 68.0683C151.383 67.9432 151.437 67.8004 151.455 67.6575L148.095 67.9343V67.9432Z" fill="#FFFBF5"/>
<path d="M125.998 142.941C125.998 135.994 127.378 92.1181 130.308 85.2595C144.214 81.8212 161.158 80.1334 165.934 79.7136C167.43 86.0275 168.255 92.4753 168.407 98.9588C168.532 109.211 168.344 131.564 169.473 139.771L125.989 142.924L125.998 142.941Z" fill="#5375B9"/>
<path d="M176.158 167C174.231 157.98 171.955 148.764 169.429 139.798L154.617 140.87L125.972 142.95C125.434 150.72 125.246 158.82 125.291 167H176.158Z" fill="#162B4E"/>
<path d="M145.917 79.2849L146.804 81.8926L146.58 83.7591L143.597 82.5624L145.917 79.2849Z" fill="#FFFBF5"/>
<path d="M149.17 81.3568L151.016 78.8652L153.193 81.1425L149.358 85.2595L149.17 81.3568Z" fill="#FFFBF5"/>
<path d="M137.288 83.8215C121.635 73.5693 101.761 47.7959 101.761 47.7959L93.3115 53.8061C100.327 65.9605 116.241 87.5812 129.663 101.441L137.288 83.8215Z" fill="#5375B9"/>
<path d="M197.86 40.6605C197.726 39.2227 197.385 37.8206 196.856 36.481C197.52 36.2667 198.245 36.5346 198.586 37.1419C199.034 37.7759 199.464 39.2584 200.001 39.6781C201.211 38.8386 202.125 37.642 202.618 36.2488C203.406 34.0876 204.392 31.9979 205.557 30.0153C206.614 30.319 206.229 31.1763 205.969 31.9622C205.709 32.7481 204.733 35.5522 204.446 36.5703C204.733 36.6239 204.885 36.3738 205.046 36.0791C205.853 34.6592 206.964 31.7657 207.94 29.926C208.836 30.0153 208.872 30.6583 208.675 31.4531C208.039 33.5161 207.286 35.5522 206.417 37.5348C206.614 37.5884 206.829 37.508 206.946 37.3383C207.806 36.356 209.114 33.525 210.127 31.8818C211.023 32.0247 211.005 32.6141 210.763 33.4446C210.1 35.4272 209.141 37.3026 207.931 39.0173C208.084 39.0887 208.2 39.2852 208.747 38.8297C210.368 37.4276 210.996 36.8561 212.34 35.7934C212.788 36.1416 212.842 36.6953 212.385 37.258C211.426 38.4725 209.446 40.4104 208.487 41.5178C207.824 43.8576 206.471 45.9384 204.598 47.5101C203.971 49.0998 203.263 50.6537 202.483 52.1719L197.161 48.4389C197.896 47.1619 198.81 45.6794 199.527 44.4023C198.666 43.3128 198.093 42.0268 197.851 40.6694L197.86 40.6605Z" fill="#E9B395"/>
<path d="M160.782 81.3478C176.436 71.0956 196.31 45.3223 196.31 45.3223L204.759 51.3325C197.743 63.4869 181.83 85.1076 168.398 98.9587L160.782 81.3478Z" fill="#5375B9"/>
<path d="M225.627 60.4594C228.826 58.7715 234.865 65.6569 227.831 75.4358C229.821 74.8553 231.971 75.4805 233.333 77.0433C234.435 78.5883 234.892 80.4905 234.605 82.3659C234.247 85.0629 233.154 87.6081 231.442 89.7246C229.659 91.9483 227.518 93.8505 225.107 95.3686C221.873 94.9043 218.755 93.8415 215.914 92.2162C213.244 90.6712 207.895 86.5185 206.721 83.9108C205.547 81.3031 205.287 76.9808 210.108 75.8555C208.101 73.0603 207.312 67.9699 207.581 64.6567C207.769 62.3973 208.316 57.1551 211.174 55.1815C212.07 54.5742 218.692 50.0732 225.618 60.4505L225.627 60.4594Z" fill="#162B4E"/>
<path d="M221.336 56.4585C223.782 58.7715 225.592 66.5589 222.715 70.2829C221.533 71.8189 218.307 73.7122 215.735 74.1944C216.183 67.961 217.277 60.629 221.336 56.4585Z" fill="#162B4E"/>
<path d="M213.644 69.3247L208.399 88.6433L212.698 89.8025L217.943 70.484L213.644 69.3247Z" fill="#E9B395"/>
<path d="M216.73 73.3818C215.664 76.6861 213.415 79.4814 210.413 81.2317L211.345 77.8024C213.128 77.3023 215.028 75.8109 216.73 73.3818Z" fill="#C76157"/>
<path d="M209.956 76.9628C210.878 78.4006 212.464 77.3647 213.163 77.0879C216.21 75.909 217.939 73.1852 219.471 68.8718C220.367 66.3623 220.269 65.7551 220.556 63.1563C218.575 60.8433 214.534 58.2713 211.228 58.8965C209.051 64.2637 207.85 73.6585 209.965 76.9628H209.956Z" fill="#E9B395"/>
<path d="M213.37 64.0763L215.673 64.8086C215.673 64.8086 214.311 62.6921 213.37 64.0763Z" fill="black"/>
<path d="M213.45 65.5052C213.37 65.7374 213.486 66.0053 213.719 66.0946C213.97 66.2107 214.266 66.0946 214.382 65.8534C214.499 65.6034 214.382 65.3087 214.14 65.1926C213.889 65.0765 213.594 65.1926 213.477 65.4337C213.468 65.4605 213.459 65.4873 213.45 65.5052Z" fill="black"/>
<path d="M211.309 63.7368L209.311 63.5135C209.311 63.5135 211.004 62.1918 211.309 63.7368Z" fill="black"/>
<path d="M210.467 64.9693C210.512 65.1747 210.386 65.389 210.171 65.4337C209.965 65.4783 209.75 65.3533 209.705 65.139C209.687 65.0586 209.696 64.9693 209.732 64.8978C209.732 64.6299 209.947 64.4335 210.153 64.4513C210.377 64.5138 210.521 64.7371 210.467 64.9693Z" fill="black"/>
<path d="M219.239 68.1842C219.194 63.7457 212.626 61.8435 211.891 56.8335C211.434 57.7891 209.311 62.9866 208.952 63.7636C209.14 61.8882 210.422 56.7353 210.995 55.7083C214.579 53.0827 229.39 54.0294 219.239 68.1842Z" fill="#162B4E"/>
<path d="M219.382 65.7017C220.036 64.7104 220.852 64.7372 221.21 64.9694C221.47 65.2016 221.613 65.5409 221.595 65.8892C221.613 66.7287 221.228 67.5235 220.565 68.0414C220 68.5148 219.203 68.5951 218.549 68.2647C218.585 67.3449 218.871 66.4607 219.382 65.7017Z" fill="#E9B395"/>
<path d="M210.843 71.1759C210.986 71.4795 211.479 72.3279 212.276 72.4172C213.638 72.5601 214.418 70.6222 214.292 69.9971L210.843 71.1759Z" fill="#321D39"/>
<path d="M211.049 71.0957C211.121 71.2564 211.291 71.3546 211.47 71.3368C212.187 71.2207 212.904 71.0689 213.611 70.8813C213.916 70.8099 214.194 70.7384 214.266 70.4973C214.301 70.3276 214.301 70.158 214.266 69.9883L211.058 71.0867L211.049 71.0957Z" fill="#FFFBF5"/>
<path d="M211.864 56.8425C211.954 60.3165 215.305 63.7011 218.477 65.3265" stroke="#321D39" stroke-width="0.53" stroke-linecap="round" stroke-linejoin="round"/>
<path d="M183.711 167H205.431C205.431 165.276 205.44 163.553 205.44 161.847C205.798 163.562 206.183 165.276 206.587 167H231.926C229.615 154.087 227.222 143.486 224.928 138.351C213.764 136.726 200.825 136.127 186.991 136.038C184.312 144.629 183.227 155.926 183.631 165.437C183.648 165.955 183.684 166.473 183.702 166.991L183.711 167Z" fill="#162B4E"/>
<path d="M186.964 136.038C190.288 123.866 192.367 101.281 192.645 97.119C192.958 92.2787 195.019 86.2238 197.895 84.8038C201.381 83.0803 219.194 84.2144 226.398 86.8043C227.679 87.2597 229.534 90.0103 229.337 91.1981C227.769 102.183 223.065 108.595 222.124 119.668C222.016 120.972 223.36 134.127 224.875 138.324C210.511 137.512 197.053 136.717 186.964 136.038Z" fill="#FFCB66"/>
<path d="M204.849 84.009C206.685 95.6454 218.074 86.7239 219.212 85.1432C214.463 84.4109 209.66 84.0269 204.849 84.009Z" fill="#E9B395"/>
<path d="M228.298 101.638L240.681 112.703L244.579 102.638L237.41 94.9668L228.298 101.638Z" fill="#DA947B"/>
<path d="M251.271 81.2229C249.013 86.483 241.272 95.342 239.068 103.79C236.586 113.31 243.655 115.016 245.098 112.453C247.383 108.389 252.32 94.6186 255.76 83.1697L251.271 81.2318V81.2229Z" fill="#E9B395"/>
<path d="M255.492 72.6584C255.725 71.2831 255.143 66.925 255.008 66.4874C254.471 64.6924 253.396 65.2371 253.396 65.2371C253.396 65.2371 253.082 69.6309 252.992 70.649C252.813 71.8368 252.571 73.0156 252.258 74.1765C251.935 75.3464 251.971 76.5789 252.356 77.7309C253.154 77.0879 253.87 76.3556 254.48 75.534C255.026 74.6677 255.367 73.6854 255.483 72.6673L255.492 72.6584Z" fill="#E9B395"/>
<path d="M261.755 71.2653C261.289 70.2115 260.644 69.256 259.847 68.4254C259.022 67.577 258.072 66.6483 256.908 66.5054C254.901 67.1305 253.798 69.5507 253.109 71.6315C252.625 73.0961 251.971 74.6589 252.159 79.2134L251.263 81.3389L255.752 83.3125C257.033 80.3208 257.221 79.919 257.454 79.3563C258.341 77.2041 259.56 75.7573 260.778 73.7658C261.253 73.0336 261.89 71.569 261.755 71.2742V71.2653Z" fill="#E9B395"/>
<path d="M221.667 85.5988C225.207 86.0274 228.558 87.4385 231.335 89.6621C233.907 91.6447 236.317 93.8148 238.575 96.1457L231.963 107.184L220.27 97.3692L221.676 85.5898L221.667 85.5988Z" fill="#FFCB66"/>
<path d="M184.087 90.832L174.303 95.9313L177.591 106.746L189.356 100.361L184.087 90.832Z" fill="#DA947B"/>
<path d="M203.227 84.0449C199.508 84.0717 195.844 84.938 192.511 86.5812C186.812 89.3228 184.088 90.8321 184.088 90.8321L188.183 103.04L201.731 95.9671L203.236 84.0449H203.227Z" fill="#FFCB66"/>
<path d="M175.773 74.623C176.409 80.3028 180.02 89.269 180.916 98.78C181.857 108.559 173.273 108.211 172.628 105.371C171.616 100.825 170.881 87.2597 170.881 75.2303L175.773 74.623Z" fill="#E9B395"/>
<path d="M174.205 65.2104C174.384 63.8172 175.459 60.5219 176.338 59.352C177.377 57.9677 178.363 58.6911 178.363 58.6911C178.363 58.6911 177.386 63.0135 177.189 63.9869C177.01 65.1746 176.902 66.3803 176.875 67.5859C176.839 68.8004 176.454 69.9703 175.755 70.9616C175.173 70.1221 174.707 69.2112 174.348 68.2557C174.08 67.2644 174.035 66.2284 174.205 65.2193V65.2104Z" fill="#E9B395"/>
<path d="M168.604 62.0489C169.348 61.1648 170.244 60.4236 171.247 59.852C172.287 59.2805 173.452 58.6554 174.625 58.8608C176.364 60.0396 176.722 62.6741 176.767 64.8888C176.803 66.4427 176.982 68.1127 175.486 72.4262L175.727 74.7124L170.853 75.3107C170.504 72.0779 170.423 71.6492 170.369 71.033C170.145 68.7111 169.393 66.9786 168.801 64.7192C168.595 63.8708 168.398 62.3436 168.595 62.0489H168.604Z" fill="#E9B395"/>
<path d="M10.8594 103.004V102.629C15.232 102.656 18.7982 99.1463 18.825 94.7882C18.825 94.7525 18.825 94.7167 18.825 94.6899H19.2014C19.1745 99.048 22.6959 102.602 27.0685 102.629C27.1043 102.629 27.1401 102.629 27.167 102.629V103.004C22.7944 102.977 19.2282 106.487 19.2014 110.845C19.2014 110.881 19.2014 110.926 19.2014 110.961H18.825C18.8609 106.603 15.3485 103.04 10.9759 103.004C10.94 103.004 10.8952 103.004 10.8594 103.004Z" fill="white"/>
<path d="M243.423 133.341V132.966C247.795 132.993 251.362 129.483 251.388 125.125C251.388 125.089 251.388 125.054 251.388 125.027H251.765C251.738 129.385 255.259 132.939 259.632 132.966C259.668 132.966 259.704 132.966 259.73 132.966V133.341C255.358 133.314 251.792 136.824 251.765 141.182C251.765 141.218 251.765 141.262 251.765 141.298H251.388C251.424 136.94 247.912 133.377 243.539 133.341C243.503 133.341 243.459 133.341 243.423 133.341Z" fill="white"/>
<path d="M39.3525 62.2811V62.0936C41.5747 62.1115 43.3936 60.3432 43.4115 58.1285C43.4115 58.1017 43.4115 58.0749 43.4115 58.0481H43.5997C43.5818 60.2629 45.3649 62.0757 47.578 62.0936C47.6049 62.0936 47.6228 62.0936 47.6497 62.0936V62.2811C45.4276 62.2633 43.6087 64.0315 43.5907 66.2463C43.5907 66.2731 43.5907 66.2999 43.5907 66.3266H43.4026C43.4205 64.1119 41.6374 62.299 39.4242 62.2811C39.3973 62.2811 39.3794 62.2811 39.3525 62.2811Z" fill="white"/>
<path d="M237.616 33.659V33.409C240.501 33.4358 242.858 31.1317 242.894 28.2561C242.894 28.2204 242.894 28.1846 242.894 28.1489H243.145C243.118 31.0245 245.43 33.3733 248.315 33.409C248.351 33.409 248.377 33.409 248.413 33.409V33.659C245.528 33.6322 243.172 35.9363 243.136 38.8119C243.136 38.8476 243.136 38.8834 243.136 38.9191H242.885C242.912 36.0435 240.6 33.6948 237.715 33.659C237.679 33.659 237.652 33.659 237.616 33.659Z" fill="white"/>
<path d="M129.995 13.7262V13.4494C132.88 13.4762 135.237 11.1721 135.273 8.29648C135.273 8.26076 135.273 8.23396 135.273 8.19824H135.524C135.497 11.0739 137.817 13.4226 140.703 13.4494C140.738 13.4494 140.765 13.4494 140.801 13.4494V13.6994C137.916 13.6726 135.55 15.9856 135.524 18.8702C135.524 18.897 135.524 18.9327 135.524 18.9595H135.273C135.273 16.0839 132.943 13.7441 130.058 13.7351C130.04 13.7351 130.022 13.7351 129.995 13.7351V13.7262Z" fill="white"/>
<path d="M156.168 118.418L149.555 117.373C149.295 117.338 149.026 117.409 148.82 117.57L143.534 121.705C143.121 122.035 142.512 121.964 142.181 121.553C142.073 121.419 142.01 121.267 141.983 121.097L140.926 114.507C140.89 114.248 140.738 114.006 140.514 113.864L134.923 110.131C134.475 109.836 134.358 109.229 134.663 108.791C134.753 108.657 134.878 108.541 135.03 108.47L141.016 105.424C141.258 105.299 141.437 105.085 141.509 104.835L143.345 98.3871C143.489 97.878 144.017 97.5833 144.528 97.7262C144.689 97.7709 144.833 97.8602 144.949 97.9763L149.707 102.709C149.904 102.897 150.164 103.004 150.442 102.986L157.162 102.736C157.691 102.709 158.139 103.12 158.166 103.656C158.166 103.826 158.139 103.986 158.058 104.138L155.012 110.113C154.895 110.354 154.877 110.631 154.967 110.881L157.288 117.168C157.458 117.668 157.189 118.222 156.687 118.4C156.517 118.454 156.338 118.472 156.168 118.427V118.418Z" fill="#F8F3F4"/>
<path d="M210.216 111.524L205.808 110.836C205.629 110.81 205.449 110.854 205.306 110.97L201.811 113.712C201.525 113.926 201.122 113.873 200.907 113.587C200.844 113.507 200.799 113.408 200.781 113.31L200.082 108.916C200.055 108.738 199.957 108.586 199.813 108.488L196.14 106.023C195.844 105.826 195.763 105.433 195.96 105.139C196.023 105.049 196.104 104.969 196.202 104.924L200.163 102.915C200.324 102.835 200.441 102.692 200.485 102.522L201.704 98.2622C201.803 97.9229 202.152 97.7264 202.492 97.8246C202.6 97.8514 202.69 97.905 202.77 97.9854L205.915 101.12C206.041 101.245 206.211 101.308 206.39 101.299L210.834 101.138C211.184 101.129 211.48 101.397 211.498 101.754C211.498 101.861 211.48 101.968 211.426 102.067L209.41 106.023C209.338 106.184 209.338 106.371 209.41 106.532L210.942 110.693C211.076 111.015 210.924 111.39 210.593 111.524C210.467 111.578 210.333 111.586 210.207 111.56L210.216 111.524Z" fill="#F8F3F4"/>
<path d="M89.2611 113.408L85.5157 111.095C85.3634 110.997 85.1842 110.97 85.005 111.024L80.713 112.176C80.3725 112.265 80.0231 112.06 79.9335 111.711C79.9066 111.622 79.9066 111.533 79.9245 111.443L80.9997 107.148C81.0445 106.978 81.0177 106.791 80.9191 106.639L78.4909 102.924C78.3027 102.629 78.3833 102.236 78.679 102.04C78.7686 101.977 78.8762 101.95 78.9837 101.941L83.3921 101.638C83.5713 101.62 83.7326 101.54 83.8491 101.406L86.6447 97.9585C86.8597 97.6816 87.254 97.637 87.5318 97.8513C87.6214 97.9227 87.693 98.0121 87.7289 98.1192L89.3955 102.227C89.4582 102.388 89.5926 102.522 89.7539 102.584L93.9115 104.165C94.243 104.29 94.4043 104.656 94.2788 104.987C94.243 105.085 94.1713 105.174 94.0907 105.246L90.7306 108.023C90.5962 108.13 90.5066 108.3 90.5066 108.479L90.2826 112.908C90.2826 113.256 89.9869 113.542 89.6285 113.533C89.4941 113.533 89.3686 113.489 89.2611 113.408Z" fill="#F8F3F4"/>
</g>
<defs>
<linearGradient id="paint0_linear_1878_7133" x1="40.2601" y1="29.7972" x2="44.0219" y2="124.8" gradientUnits="userSpaceOnUse">
<stop stop-color="#E1E1E1"/>
<stop offset="0.09" stop-color="#D9D9D9"/>
<stop offset="0.31" stop-color="#CDCDCD"/>
<stop offset="0.52" stop-color="#DDDDDD"/>
<stop offset="0.67" stop-color="#B4B4B4"/>
</linearGradient>
<linearGradient id="paint1_linear_1878_7133" x1="137.692" y1="22.3755" x2="142.913" y2="122.408" gradientUnits="userSpaceOnUse">
<stop stop-color="#E1E1E1"/>
<stop offset="0.09" stop-color="#D9D9D9"/>
<stop offset="0.31" stop-color="#CDCDCD"/>
<stop offset="0.52" stop-color="#DDDDDD"/>
<stop offset="0.67" stop-color="#B4B4B4"/>
</linearGradient>
<linearGradient id="paint2_linear_1878_7133" x1="215.813" y1="25.0827" x2="220.182" y2="123.285" gradientUnits="userSpaceOnUse">
<stop stop-color="#E1E1E1"/>
<stop offset="0.09" stop-color="#D9D9D9"/>
<stop offset="0.31" stop-color="#CDCDCD"/>
<stop offset="0.52" stop-color="#DDDDDD"/>
<stop offset="0.67" stop-color="#B4B4B4"/>
</linearGradient>
<linearGradient id="paint3_linear_1878_7133" x1="87.6947" y1="13.4469" x2="93.2808" y2="119.638" gradientUnits="userSpaceOnUse">
<stop stop-color="#E1E1E1"/>
<stop offset="0.09" stop-color="#D9D9D9"/>
<stop offset="0.31" stop-color="#CDCDCD"/>
<stop offset="0.52" stop-color="#DDDDDD"/>
<stop offset="0.67" stop-color="#B4B4B4"/>
</linearGradient>
<linearGradient id="paint4_linear_1878_7133" x1="180.604" y1="22.4863" x2="186.407" y2="120.96" gradientUnits="userSpaceOnUse">
<stop stop-color="#E1E1E1"/>
<stop offset="0.09" stop-color="#D9D9D9"/>
<stop offset="0.31" stop-color="#CDCDCD"/>
<stop offset="0.52" stop-color="#DDDDDD"/>
<stop offset="0.67" stop-color="#B4B4B4"/>
</linearGradient>
<linearGradient id="paint5_linear_1878_7133" x1="110.101" y1="17.8693" x2="117.986" y2="117.432" gradientUnits="userSpaceOnUse">
<stop stop-color="#E1E1E1"/>
<stop offset="0.09" stop-color="#D9D9D9"/>
<stop offset="0.31" stop-color="#CDCDCD"/>
<stop offset="0.52" stop-color="#DDDDDD"/>
<stop offset="0.67" stop-color="#B4B4B4"/>
</linearGradient>
<clipPath id="clip0_1878_7133">
<rect width="293" height="167" fill="white"/>
</clipPath>
</defs>
</svg>
