<svg width="65" height="69" viewBox="0 0 65 69" fill="none" xmlns="http://www.w3.org/2000/svg">
<path opacity="0.4" d="M32.5008 68.119C50.2397 68.119 64.62 53.7388 64.62 35.9998C64.62 18.2609 50.2397 3.88062 32.5008 3.88062C14.7618 3.88062 0.381592 18.2609 0.381592 35.9998C0.381592 53.7388 14.7618 68.119 32.5008 68.119Z" fill="#C1C1C5"/>
<g style="mix-blend-mode:multiply" opacity="0.39">
<path d="M48.7799 48.7368L48.7295 48.9672L47.8367 48.7728L47.8871 48.5424L48.7799 48.7368ZM46.9799 48.3516L46.9295 48.5784L46.0367 48.3876L46.0871 48.1572L46.9799 48.3516ZM45.1799 47.9628L45.1295 48.1932L44.2367 47.9988L44.2835 47.7684L45.1799 47.9628ZM43.3799 47.5776L43.3295 47.808L42.4367 47.6136L42.4871 47.3832L43.3799 47.5776ZM41.5799 47.1888L41.5295 47.4192L40.6331 47.2248L40.6835 46.9944L41.5799 47.1888ZM39.7799 46.8036L39.7295 47.034L38.8367 46.8396L38.8871 46.6092L39.7799 46.8036ZM37.9799 46.4148L37.9331 46.6452L37.0367 46.4508L37.0871 46.224L37.9799 46.4148ZM36.1799 46.0296L36.1295 46.26L35.2367 46.0656L35.2871 45.8352L36.1799 46.0296ZM34.3799 45.6408L34.3295 45.8712L33.4367 45.6768L33.4871 45.45L34.3799 45.6408ZM32.5799 45.2556L32.5295 45.486L31.6367 45.2916L31.6835 45.0612L32.5799 45.2556ZM30.7799 44.8668L30.7295 45.0972L29.8367 44.9028L29.8871 44.676L30.7799 44.8668Z" fill="#7A5C28"/>
</g>
<path d="M26.6147 42.6707C26.6543 42.6707 26.6939 42.6707 26.7335 42.6707C27.1978 42.7755 27.6049 43.0528 27.8722 43.4466C28.1396 43.8403 28.2473 44.3209 28.1735 44.7911L28.5947 44.8811L28.5443 45.1115L28.1195 45.0215C27.9909 45.4802 27.6919 45.8724 27.2838 46.118C26.8756 46.3635 26.389 46.4439 25.9235 46.3427C25.8839 46.3427 25.8515 46.3175 25.8119 46.3067L23.9399 55.1195L49.2227 60.5915L51.1235 51.8039C50.6607 51.6992 50.2548 51.4229 49.9876 51.0308C49.7204 50.6386 49.6117 50.1598 49.6835 49.6907L49.1471 49.5755L49.1975 49.3451L49.7339 49.4603C49.8626 49.0005 50.1618 48.6071 50.5705 48.3603C50.9792 48.1134 51.4667 48.0318 51.9335 48.1319L62.9207 6.23152L37.6379 0.759521L26.6147 42.6707ZM48.2723 49.1507L48.2219 49.3811L47.3291 49.1867L47.3795 48.9599L48.2723 49.1507ZM46.4723 48.7655L46.4219 48.9959L45.5291 48.8015L45.5795 48.5711L46.4723 48.7655ZM44.6723 48.3767L44.6219 48.6071L43.7291 48.4163L43.7759 48.1859L44.6723 48.3767ZM42.8723 47.9915L42.8219 48.2219L41.9291 48.0275L41.9795 47.7971L42.8723 47.9915ZM41.0723 47.6027L41.0219 47.8331L40.1255 47.6423L40.1759 47.4119L41.0723 47.6027ZM39.2723 47.2175L39.2219 47.4479L38.3291 47.2535L38.3795 47.0231L39.2723 47.2175ZM37.4723 46.8323L37.4255 47.0591L36.5291 46.8683L36.5795 46.6379L37.4723 46.8323ZM35.6723 46.4435L35.6219 46.6739L34.7291 46.4795L34.7795 46.2491L35.6723 46.4435ZM33.8723 46.0583L33.8219 46.2851L32.9291 46.0943L32.9795 45.8639L33.8723 46.0583ZM32.0723 45.6695L32.0219 45.8999L31.2407 45.7199L31.2875 45.4895L32.0723 45.6695ZM30.2723 45.2843L30.2219 45.5111L29.3291 45.3203L29.3795 45.0899L30.2723 45.2843Z" fill="#B0AFB5"/>
<g style="mix-blend-mode:multiply" opacity="0.39">
<path d="M42.5844 50.5979L42.6024 50.8319L41.6916 50.9003L41.6736 50.6663L42.5844 50.5979ZM40.7592 50.7347V50.9687L39.8484 51.0371V50.8031L40.7592 50.7347ZM38.9376 50.8715V51.1055L38.0232 51.1739V50.9399L38.9376 50.8715ZM37.1124 51.0083V51.2423L36.2016 51.3107V51.0767L37.1124 51.0083ZM35.2908 51.1451V51.3791L34.38 51.4475L34.362 51.2135L35.2908 51.1451ZM33.4656 51.2819L33.4836 51.5159L32.5692 51.5843V51.3503L33.4656 51.2819ZM31.6404 51.4187V51.6527L30.7296 51.7211V51.4871L31.6404 51.4187ZM29.8188 51.5555V51.7931L28.908 51.8615V51.6239L29.8188 51.5555ZM27.9936 51.6923V51.9299L27.0828 51.9983V51.7643L27.9936 51.6923ZM26.1684 51.8327V52.0667L25.2576 52.1351V51.9011L26.1684 51.8327ZM24.3468 51.9695L24.3648 52.2035L23.4504 52.2719V52.0379L24.3468 51.9695Z" fill="#7A5C28"/>
</g>
<path d="M19.3787 50.2559C19.4167 50.2466 19.4551 50.2394 19.4939 50.2343C19.9708 50.199 20.4431 50.3475 20.814 50.6494C21.1849 50.9513 21.4261 51.3837 21.4883 51.8579L21.9203 51.8255V52.0595L21.4919 52.0919C21.5018 52.5686 21.3298 53.0312 21.0108 53.3857C20.6918 53.7401 20.2498 53.9597 19.7747 53.9999C19.7351 53.9999 19.6955 53.9999 19.6559 53.9999L20.3399 62.9567L46.1339 61.0163L45.4607 52.0523C44.9856 52.087 44.5151 51.9396 44.1447 51.6401C43.7743 51.3406 43.5318 50.9113 43.4663 50.4395L42.9191 50.4791V50.2451L43.4663 50.2055C43.4585 49.7277 43.6333 49.2649 43.9551 48.9117C44.2769 48.5584 44.7214 48.3413 45.1979 48.3047L41.7491 5.3999L15.9551 7.3475L19.3787 50.2559ZM41.9831 50.3135V50.5475L41.0687 50.6195V50.3819L41.9831 50.3135ZM40.1579 50.4503V50.6879L39.2471 50.7563V50.5223L40.1579 50.4503ZM38.3327 50.5907V50.8247L37.4219 50.8931V50.6591L38.3327 50.5907ZM36.5111 50.7275V50.9615L35.5967 51.0299L35.5787 50.7959L36.5111 50.7275ZM34.6859 50.8643L34.7039 51.0983L33.7931 51.1667L33.7751 50.9327L34.6859 50.8643ZM32.8607 51.0011V51.2351L31.9499 51.3035V51.0695L32.8607 51.0011ZM31.0391 51.1379V51.3719L30.1247 51.4403V51.2063L31.0391 51.1379ZM29.2139 51.2747V51.5087L28.3031 51.5771V51.3431L29.2139 51.2747ZM27.3887 51.4115V51.6455L26.4779 51.7139V51.4799L27.3887 51.4115ZM25.5671 51.5483V51.7823L24.6599 51.8399V51.6023L25.5671 51.5483ZM23.7419 51.6851V51.9227L22.8311 51.9911V51.7571L23.7419 51.6851Z" fill="#C1C1C5"/>
<path opacity="0.4" d="M40.1764 11.1484L33.6484 11.5637L33.858 14.8583L40.386 14.443L40.1764 11.1484Z" fill="white"/>
<path d="M40.3852 14.4404L33.8572 14.8557L34.0647 18.1179L40.5927 17.7026L40.3852 14.4404Z" fill="#B0AFB5"/>
<path d="M39.9682 7.91382L33.4402 8.3291L33.6459 11.5626L40.1739 11.1473L39.9682 7.91382Z" fill="#B0AFB5"/>
<path d="M54.4023 5.77537L51.8267 15.7849L58.4997 17.502L61.0753 7.49244L54.4023 5.77537Z" fill="#B0AFB5"/>
<path fill-rule="evenodd" clip-rule="evenodd" d="M61.0704 7.48801L60.5592 7.35481L57.9816 17.3664L58.4964 17.4996L61.0704 7.48801ZM60.0444 7.22521L59.5296 7.09201L56.9556 17.1036L57.4704 17.2332L60.0444 7.22521ZM59.0184 6.95881L58.5 6.84001L57.1968 11.9088L55.926 16.848L56.4372 16.9812L59.0184 6.95881ZM57.9924 6.69601L57.4776 6.56281L54.9 16.56L55.4112 16.6932L57.9924 6.69601ZM56.9628 6.43321L56.4516 6.30001L53.8776 16.3116L54.3888 16.4412L56.9628 6.43321ZM55.9368 6.16681L55.4256 6.03721L52.848 16.0452L53.3628 16.1784L55.9368 6.16681ZM54.9 5.90401L54.396 5.76001L51.822 15.7716L52.3368 15.9012L54.9 5.90401Z" fill="#929296"/>
<path d="M53.1147 10.7738L51.8264 15.7803L55.9334 16.8371L57.2217 11.8306L53.1147 10.7738Z" fill="#929296"/>
<path d="M55.4329 14.1948C55.4669 14.0504 55.4669 13.9 55.4329 13.7556C55.51 13.9212 55.5462 14.1029 55.5383 14.2854C55.5304 14.4679 55.4787 14.6458 55.3875 14.804C55.2963 14.9623 55.1683 15.0963 55.0144 15.1947C54.8605 15.2931 54.6851 15.3529 54.5032 15.3692C54.3213 15.3855 54.1381 15.3577 53.9691 15.2883C53.8002 15.2188 53.6505 15.1097 53.5326 14.9701C53.4148 14.8305 53.3322 14.6647 53.292 14.4865C53.2518 14.3083 53.2552 14.123 53.3017 13.9464C53.368 13.6945 53.5194 13.4732 53.7301 13.32C53.6368 13.4338 53.5692 13.5664 53.5321 13.7088C53.492 13.8361 53.4783 13.9702 53.4917 14.103C53.5051 14.2357 53.5455 14.3644 53.6102 14.481C53.675 14.5977 53.7629 14.7 53.8684 14.7816C53.974 14.8632 54.0951 14.9224 54.2244 14.9557C54.3536 14.989 54.4882 14.9956 54.6201 14.9752C54.752 14.9547 54.8783 14.9076 54.9914 14.8368C55.1045 14.7659 55.2019 14.6728 55.2778 14.563C55.3537 14.4533 55.4065 14.3292 55.4329 14.1984V14.1948ZM54.7849 12.7548L54.7273 12.24L54.6337 12.78L54.3529 12.3192L54.4933 12.8448L54.0469 12.5604L54.4069 12.9672L53.8813 12.9132L54.3673 13.122L53.8669 13.3092L54.3961 13.2768L54.0361 13.6692L54.5005 13.4028L54.3241 13.9212L54.6373 13.4712L54.6949 14.0148L54.7885 13.4748L55.0693 13.9356L54.9001 13.3992L55.3501 13.6836L54.9901 13.2768L55.5157 13.3308L55.0297 13.122L55.5301 12.9348L55.0009 12.9672L55.3789 12.5748L54.9109 12.8448L55.0873 12.3228L54.7849 12.7548Z" fill="#B0AFB5"/>
<path d="M46.9799 24.3756L46.7675 61.56C46.7618 62.329 46.4511 63.0642 45.9037 63.6042C45.3562 64.1442 44.6168 64.4448 43.8479 64.44L16.2899 64.296C15.7442 64.2947 15.2105 64.1359 14.7527 63.8388C14.3472 63.5838 14.0117 63.2317 13.7766 62.8143C13.5415 62.3969 13.4142 61.9274 13.4063 61.4484C13.4046 61.4245 13.4046 61.4004 13.4063 61.3764L13.6079 24.1776C13.6146 23.409 13.9256 22.6743 14.4728 22.1345C15.02 21.5947 15.7589 21.2938 16.5275 21.2976L44.0819 21.4416C44.4662 21.4392 44.8471 21.5136 45.2022 21.6607C45.5573 21.8077 45.8793 22.0243 46.1494 22.2977C46.4195 22.5711 46.6321 22.8959 46.7747 23.2527C46.9174 23.6096 46.9871 23.9914 46.9799 24.3756Z" fill="#D84F55"/>
<g opacity="0.23">
<path opacity="0.23" d="M14.9725 21.7512L14.7529 63.8712C14.3474 63.6162 14.0119 63.264 13.7768 62.8466C13.5417 62.4292 13.4144 61.9598 13.4065 61.4808L13.6045 24.21C13.6032 23.7174 13.7283 23.2327 13.9678 22.8022C14.2073 22.3717 14.5532 22.0098 14.9725 21.7512Z" fill="#1C305C"/>
</g>
<g opacity="0.23">
<g opacity="0.23">
<path opacity="0.23" d="M26.4996 51.325C27.2196 52.117 26.4024 52.2538 26.262 52.405C26.046 52.7611 25.8571 53.133 25.6968 53.5174C25.4628 53.9818 25.416 54.3058 25.5996 54.6298C25.7183 54.8509 25.8102 55.0854 25.8732 55.3282L26.46 56.0158C26.46 56.0158 25.812 55.6558 25.6284 55.4974C25.2578 55.1555 24.9835 54.7223 24.8328 54.241C24.7752 53.8234 24.1992 53.0782 24.156 52.6138C24.1128 52.1494 23.328 51.4942 23.004 51.2602C22.68 51.0262 23.2848 50.7058 23.2848 50.7058C23.2104 50.3376 23.2104 49.9581 23.2848 49.5898C23.4252 49.2658 24.0732 49.6402 24.9984 50.1082C25.9236 50.5762 25.7616 50.533 26.4996 51.325ZM23.1732 47.9158C23.1732 47.3614 22.7628 47.0806 23.4576 47.0842C24.1524 47.0878 24.8976 47.509 24.8976 46.951C24.8976 46.393 25.4232 46.303 25.7472 46.3066C26.0712 46.3102 26.676 46.1734 26.0748 45.6586C25.4736 45.1438 25.4052 44.773 24.9048 45.0466C24.4044 45.3202 23.4072 45.8278 24.1632 45.1366C24.9192 44.4454 25.2432 44.215 25.5276 44.3086C25.812 44.4022 26.1792 44.0782 25.7616 43.8442C25.344 43.6102 25.5312 43.4266 24.5088 43.5598C23.4864 43.693 23.346 43.693 23.346 43.693C23.346 43.693 22.3704 43.7326 22.3236 44.107C22.2768 44.4814 21.6036 45.6802 21.5208 46.3282C21.438 46.9762 21.978 48.0958 21.978 48.0958C22.3601 48.6085 22.6736 49.1688 22.9104 49.7626C22.986 50.0902 23.1732 48.4738 23.1732 47.9158ZM26.6616 44.8234C27.1286 44.4604 27.6753 44.2136 28.2564 44.1034C28.7208 44.0602 29.2788 43.6462 29.142 43.0882C29.0052 42.5302 28.962 42.2062 29.0556 42.0658C29.1492 41.9254 28.5948 41.7238 27.9 41.7598C27.586 41.7642 27.2738 41.809 26.9712 41.893C26.7372 42.1234 26.2728 42.3538 26.4096 42.6814C26.5241 43.0771 26.5128 43.4985 26.3772 43.8874C26.2584 44.359 26.46 45.0574 26.6616 44.8234ZM33.0084 50.0146C32.7744 50.0146 32.5908 49.8706 32.22 49.5142C31.8492 49.1578 32.4576 48.4774 31.2984 48.5098C30.1392 48.5422 30.6 48.3298 30.0456 47.8618C29.4912 47.3938 29.1636 47.9482 28.512 48.1318C27.8604 48.3154 28.0476 48.5458 27.8532 49.7986C27.6588 51.0514 28.2132 50.3602 28.6416 50.3602C29.07 50.3602 29.2896 50.4106 29.8908 50.8786C30.492 51.3466 30.0708 51.7606 30.1356 52.135C30.2004 52.5094 30.2004 53.6182 30.8052 53.935L31.7808 53.3338C32.526 52.8766 31.878 52.639 32.0652 52.2214C32.2524 51.8038 32.256 51.3862 33.0012 50.8138C33.7464 50.2414 33.2388 50.0146 33.0084 50.0146ZM36.7992 52.8046C36.7056 52.8802 36.2412 53.3266 35.9136 53.557C35.586 53.7874 35.9136 54.3454 36.2736 54.3022C36.7578 53.8351 37.21 53.336 37.6272 52.8082C37.7287 52.544 37.7287 52.2516 37.6272 51.9874C37.6272 51.9874 36.9 52.7254 36.7992 52.8046ZM38.43 46.9294C38.4084 46.465 37.9152 44.0026 37.0872 42.757C36.2592 41.5114 35.9712 42.5986 35.838 42.865C35.7048 43.1314 35.2728 42.9226 34.8552 42.8254C34.3039 42.6985 33.7295 42.7121 33.1848 42.865C32.256 43.045 32.4396 43.4158 32.2992 43.7398C32.1588 44.0638 32.1084 44.2042 31.4604 44.0134C30.8124 43.8226 31.1004 43.6894 30.6396 43.5454C30.1788 43.4014 29.8836 43.819 29.6028 44.377C29.322 44.935 29.88 44.5642 30.6828 44.7982C31.4856 45.0322 30.5388 45.2626 30.1212 45.3526C29.7036 45.4426 29.8872 45.9574 29.8872 45.9574C29.602 46.2169 29.3591 46.5194 29.1672 46.8538C28.9548 47.2894 29.0016 47.3902 29.3292 47.4874C29.6568 47.5846 29.7468 47.1634 30.186 46.933C30.6252 46.7026 30.9996 47.077 31.5108 47.2642C32.022 47.4514 32.2056 47.7322 31.9248 48.0094C31.644 48.2866 32.202 48.1966 32.436 48.247C32.67 48.2974 32.7528 49.2226 33.3576 49.5214C33.9624 49.8202 33.822 49.4134 34.0092 48.859C34.1964 48.3046 34.1496 48.6718 34.4232 49.6042C34.6968 50.5366 34.8408 49.651 35.91 49.2442C36.9792 48.8374 36.792 49.5718 37.4868 49.6222C38.1816 49.6726 37.7244 49.2046 38.2356 48.8374L38.5956 48.697C38.5956 48.697 38.4552 47.3938 38.43 46.9294Z" fill="#1C305C"/>
</g>
</g>
<path opacity="0.4" d="M30.1969 40.3811C31.8359 40.3869 33.4363 40.8789 34.7954 41.7949C36.1545 42.7109 37.2112 44.0097 37.8317 45.5267C38.4521 47.0437 38.6084 48.7108 38.2806 50.3167C37.9529 51.9226 37.156 53.3951 35.9907 54.5477C34.8255 55.7003 33.3444 56.4812 31.735 56.7914C30.1256 57.1016 28.4604 56.9272 26.9502 56.2903C25.44 55.6534 24.1528 54.5826 23.2517 53.2136C22.3505 51.8445 21.876 50.2389 21.8881 48.5999C21.9033 46.4089 22.7863 44.3133 24.3437 42.7721C25.9011 41.2309 28.0058 40.3698 30.1969 40.3775V40.3811ZM30.1969 39.3551C28.359 39.3452 26.5596 39.8805 25.026 40.8933C23.4924 41.9061 22.2936 43.351 21.5813 45.0452C20.869 46.7394 20.6751 48.6068 21.0241 50.4112C21.3731 52.2156 22.2494 53.8759 23.5421 55.1823C24.8349 56.4886 26.486 57.3822 28.2866 57.7501C30.0873 58.118 31.9566 57.9436 33.6581 57.2491C35.3597 56.5545 36.817 55.3709 37.8459 53.848C38.8747 52.3251 39.4288 50.5313 39.4381 48.6935C39.4467 46.2326 38.4798 43.8685 36.7491 42.1189C35.0184 40.3693 32.665 39.3768 30.2041 39.3587L30.1969 39.3551Z" fill="white"/>
<path opacity="0.5" d="M19.6776 32.425V33.4402H19.1052L19.1232 30.0742H20.3436C21.1068 30.0742 21.486 30.457 21.4812 31.2226C21.4812 31.9858 21.096 32.4286 20.3292 32.425H19.6776ZM20.34 31.8778C20.7252 31.8778 20.9052 31.633 20.9088 31.2226C20.9124 30.8122 20.7324 30.6286 20.3472 30.6286H19.6992V31.8778H20.34ZM22.5756 30.0778H23.688L24.462 33.4798H23.8896L23.706 32.8174H22.4856L22.32 33.4798H21.744L22.5756 30.0778ZM22.6224 32.2378H23.6088L23.2488 30.607H23.004L22.6224 32.2378ZM26.82 30.6934C26.82 30.6934 26.208 30.5998 25.9272 30.5998C25.6464 30.5998 25.4124 30.7114 25.4088 30.9598C25.4052 31.2082 25.5384 31.3198 26.0676 31.5106C26.6688 31.7374 26.9208 31.9102 26.9172 32.4934C26.9172 33.1918 26.5248 33.5122 25.8372 33.5086C25.4926 33.4879 25.1498 33.4434 24.8112 33.3754L24.8724 32.8606C24.8724 32.8606 25.488 32.947 25.8336 32.9506C26.1792 32.9542 26.334 32.8318 26.3376 32.5042C26.3376 32.2414 26.2224 32.1694 25.776 32.011C25.056 31.7374 24.8256 31.5682 24.8292 30.9634C24.8328 30.3586 25.2756 30.0274 25.9092 30.031C26.2206 30.0474 26.53 30.0896 26.8344 30.157L26.82 30.6934ZM29.4012 30.6934C29.4012 30.6934 28.7964 30.6142 28.5156 30.6106C28.2348 30.607 28.0008 30.7258 27.9972 30.9706C27.9936 31.2154 28.1268 31.3306 28.656 31.525C29.2572 31.7518 29.5092 31.921 29.5056 32.5078C29.5056 33.2062 29.1132 33.5266 28.4256 33.523C28.081 33.5023 27.7382 33.4578 27.3996 33.3898L27.4608 32.875C27.7795 32.9204 28.1003 32.9493 28.422 32.9614C28.7424 32.9614 28.9224 32.8426 28.926 32.5186C28.926 32.2558 28.8108 32.1802 28.3644 32.0254C27.6444 31.7518 27.414 31.5826 27.4176 30.9778C27.4212 30.373 27.864 30.0418 28.4976 30.0454C28.8102 30.062 29.1208 30.1041 29.4264 30.1714L29.4012 30.6934ZM30.6936 32.4718V33.487H30.1104V30.1246H31.3308C32.094 30.1246 32.472 30.5062 32.4684 31.273C32.4648 32.0398 32.0832 32.4754 31.32 32.4718H30.6936ZM31.3416 31.9246C31.7268 31.9246 31.9068 31.6798 31.9104 31.273C31.914 30.8662 31.734 30.679 31.3488 30.6754H30.7008V31.9318L31.3416 31.9246ZM32.868 31.8418C32.868 30.7114 33.1956 30.0814 34.236 30.0886C35.2764 30.0958 35.5896 30.7258 35.5824 31.8562C35.5752 32.9866 35.2584 33.5662 34.218 33.559C33.1776 33.5518 32.8572 32.9794 32.8608 31.8526L32.868 31.8418ZM34.9956 31.8418C34.9956 31.057 34.848 30.6286 34.2324 30.6286C33.6168 30.6286 33.462 31.0498 33.4584 31.8346C33.4548 32.6194 33.5988 32.9974 34.218 33.001C34.8372 33.0046 34.9812 32.6554 34.9884 31.8634L34.9956 31.8418ZM37.4148 32.3998H36.7308V33.5482H36.162V30.1858H37.4292C38.1996 30.1858 38.5668 30.5062 38.5632 31.2658C38.5848 31.4624 38.5448 31.6609 38.4487 31.8337C38.3526 32.0065 38.2052 32.1453 38.0268 32.2306L38.5488 33.5482H37.9224L37.4796 32.3998H37.4148ZM37.44 30.7294H36.72V31.8562H37.44C37.8324 31.8562 37.98 31.6258 37.98 31.2802C37.9947 31.2051 37.9911 31.1275 37.9695 31.054C37.948 30.9805 37.9091 30.9133 37.8563 30.8579C37.8034 30.8026 37.738 30.7607 37.6655 30.7358C37.5931 30.711 37.5158 30.7038 37.44 30.715V30.7294ZM38.7576 30.1894H41.1912V30.7402H40.266V33.5554H39.6936V30.7402H38.7576V30.1894Z" fill="white"/>
<path opacity="0.5" d="M25.9201 30.0491C25.2793 30.0491 24.8401 30.3479 24.8401 30.9815C24.8401 31.6151 25.0597 31.7555 25.7869 32.0291C26.2333 32.1875 26.3485 32.2595 26.3485 32.5223C26.3485 32.8463 26.1685 32.9687 25.8517 32.9687C25.4917 32.9687 24.8905 32.8787 24.8905 32.8787L24.8293 33.3935C25.1678 33.4614 25.5106 33.5059 25.8553 33.5267C26.5285 33.5267 26.9137 33.2063 26.9353 32.5115C26.9353 31.9283 26.6869 31.7555 26.0857 31.5287C25.5565 31.3307 25.4269 31.2659 25.4269 30.9779C25.4269 30.6899 25.6213 30.6179 25.9381 30.6179C26.2189 30.6179 26.8237 30.7007 26.8237 30.7007L26.8669 30.1823C26.5625 30.1148 26.253 30.0727 25.9417 30.0563L25.9201 30.0491ZM28.5013 30.0491C27.8605 30.0491 27.4213 30.3479 27.4213 30.9815C27.4213 31.6151 27.6409 31.7555 28.3681 32.0291C28.8145 32.1839 28.9297 32.2595 28.9297 32.5223C28.9297 32.8463 28.7497 32.9651 28.4329 32.9651C28.1112 32.9529 27.7904 32.924 27.4717 32.8787L27.4105 33.3935C27.749 33.4614 28.0918 33.5059 28.4365 33.5267C29.1097 33.5267 29.4949 33.2063 29.5165 32.5115C29.5165 31.9247 29.2681 31.7555 28.6669 31.5287C28.1377 31.3307 28.0081 31.2659 28.0081 30.9743C28.0081 30.6827 28.2025 30.6143 28.5193 30.6143C28.8001 30.6143 29.4049 30.6971 29.4049 30.6971L29.4517 30.1823C29.1461 30.1149 28.8354 30.0728 28.5229 30.0563L28.5013 30.0491ZM19.1413 30.0491L19.1233 33.4151H19.6921V32.4251H20.3401C21.0961 32.4251 21.4777 31.9823 21.4813 31.2227C21.4849 30.4631 21.1213 30.0779 20.3437 30.0743H19.1233L19.1413 30.0491ZM20.3509 31.8491H19.6813V30.5999H20.3401C20.7253 30.5999 20.9017 30.7907 20.9017 31.1939C20.9017 31.5971 20.7001 31.8779 20.3401 31.8779L20.3509 31.8491ZM22.5829 30.0491L21.7441 33.4511H22.3201L22.5001 32.7923H23.7205L23.8897 33.4799H24.4621L23.6881 30.0959L22.5829 30.0491ZM23.6161 32.2091H22.6117L23.0041 30.5819H23.2201L23.5801 32.2127L23.6161 32.2091ZM34.2325 30.0491C33.2029 30.0491 32.8861 30.6791 32.8789 31.8023C32.8717 32.9255 33.1885 33.5159 34.2289 33.5195C35.2585 33.5195 35.5717 32.9471 35.5789 31.8167C35.5861 30.6863 35.2729 30.0527 34.2325 30.0491ZM34.2325 32.9723C33.6133 32.9723 33.4693 32.5871 33.4729 31.8059C33.4765 31.0247 33.6277 30.5999 34.2397 30.5999C34.8589 30.5999 35.0065 31.0283 35.0029 31.8131C34.9993 32.5979 34.8517 32.9723 34.2361 32.9723H34.2325ZM30.1393 30.0923V33.4547H30.7081V32.4395H31.3705C32.1265 32.4395 32.5045 32.0003 32.5081 31.2407C32.5117 30.4811 32.1481 30.0959 31.3705 30.0923H30.1501H30.1393ZM31.3489 31.8923H30.7009V30.6827H31.3489C31.7341 30.6827 31.9105 30.8771 31.9105 31.2803C31.9105 31.6835 31.7269 31.9319 31.3453 31.9319L31.3489 31.8923ZM36.1801 30.1643V33.5267H36.7489V32.3783H37.4977L37.9513 33.5303H38.5777L38.0557 32.2127C38.2341 32.1273 38.3815 31.9886 38.4776 31.8157C38.5737 31.6429 38.6137 31.4445 38.5921 31.2479C38.5921 30.4811 38.2321 30.1679 37.4581 30.1679H36.1909L36.1801 30.1643ZM37.4545 31.8419H36.7345V30.7151H37.4545C37.5277 30.707 37.6018 30.7159 37.671 30.7411C37.7403 30.7663 37.8027 30.8071 37.8536 30.8604C37.9044 30.9137 37.9423 30.978 37.9643 31.0484C37.9862 31.1187 37.9916 31.1931 37.9801 31.2659C37.9801 31.6259 37.8325 31.8419 37.4437 31.8419H37.4545ZM38.7649 30.1751V30.7259H39.7009V33.5411H40.2733V30.7259H41.1985V30.1895H38.7685L38.7649 30.1751Z" fill="white"/>
</svg>
