<svg width="73" height="72" viewBox="0 0 73 72" fill="none" xmlns="http://www.w3.org/2000/svg">
<path opacity="0.4" d="M69.6201 36.0001C69.6244 43.7901 66.7939 51.3154 61.6569 57.1717C60.5487 58.43 59.3451 59.601 58.0569 60.6745C52.4427 65.3511 45.4019 67.9739 38.0962 68.1102C30.7906 68.2464 23.6569 65.8879 17.8722 61.4238C12.0875 56.9598 7.99763 50.6569 6.27742 43.5554C4.55721 36.4539 5.3095 28.9782 8.41014 22.3618C11.5108 15.7454 16.7745 10.3838 23.3326 7.16181C29.8907 3.93981 37.3514 3.04992 44.4834 4.63901C51.6153 6.2281 57.9925 10.2012 62.5623 15.9026C67.1322 21.6041 69.6218 28.6932 69.6201 36.0001Z" fill="#C1C1C5"/>
<path d="M64.8715 52.8192C63.9267 54.3586 62.8524 55.8147 61.6603 57.1716C60.552 58.4299 59.3484 59.601 58.0603 60.6744C56.7532 61.7646 55.3616 62.7493 53.8987 63.6192C52.5504 63.3068 51.2912 62.6909 50.2168 61.8186C49.1424 60.9462 48.2811 59.8403 47.6984 58.5849C47.1157 57.3295 46.827 55.9578 46.8543 54.5741C46.8816 53.1904 47.2241 51.8311 47.8557 50.5997C48.4874 49.3683 49.3916 48.2971 50.4995 47.4678C51.6075 46.6384 52.89 46.0726 54.2495 45.8135C55.609 45.5544 57.0097 45.6088 58.345 45.9725C59.6804 46.3362 60.9152 46.9997 61.9555 47.9124L62.0095 47.9592C62.0851 48.024 62.1535 48.0924 62.2291 48.1644C63.5616 49.4121 64.4831 51.0355 64.8715 52.8192Z" fill="#1C305C"/>
<path d="M55.9796 45.6587C53.7483 45.6615 51.5958 46.4839 49.9311 47.9696C48.2664 49.4553 47.2055 51.5009 46.95 53.7175C46.6945 55.9341 47.2623 58.1673 48.5454 59.9928C49.8285 61.8183 51.7375 63.1088 53.9096 63.6191C55.3726 62.7492 56.7642 61.7645 58.0712 60.6743C59.3594 59.6008 60.5629 58.4298 61.6712 57.1715C62.8634 55.8146 63.9376 54.3585 64.8824 52.8191C64.4971 51.0367 63.5793 49.4135 62.2508 48.1643C62.1752 48.0923 62.1068 48.0239 62.0312 47.9591L61.9772 47.9123C60.322 46.4582 58.1936 45.6571 55.9904 45.6587H55.9796Z" fill="#1C305C"/>
<path d="M37.5006 64.4184C32.8886 64.4174 28.346 63.2949 24.2645 61.1475C20.1829 59.0001 16.6848 55.8923 14.0718 52.092C15.1158 51.0804 16.149 50.166 17.0922 49.4172C22.5318 45.0972 23.8746 39.6972 24.9546 35.3772C25.6566 32.5548 26.2614 30.1176 27.8094 28.3392C29.0262 26.9388 30.3654 26.2584 31.9062 26.2584C32.7311 26.2632 33.5462 26.4385 34.3002 26.7732L36.5862 28.1124L38.4978 26.28C40.0818 24.8796 41.5038 24.1416 42.6054 24.1416C44.9526 24.1416 47.1234 27.882 48.2106 30.1104C50.2194 34.2396 51.5658 39.2364 52.455 42.5412C53.2218 45.3924 53.481 46.35 54.2082 47.2212C55.1118 48.3228 56.3142 48.9168 57.4806 49.4892L57.8046 49.6512C58.401 49.9223 58.966 50.2579 59.4894 50.652L59.6118 50.76L59.6442 50.7924C59.7611 50.8976 59.8561 51.0249 59.9234 51.167C59.9908 51.3092 60.0292 51.4633 60.0366 51.6204C60.1662 52.9092 59.6046 53.4744 59.2158 53.7048L38.6274 60.8832L51.3246 60.8256C47.0979 63.1814 42.3394 64.4182 37.5006 64.4184Z" fill="#1C305C"/>
<path d="M42.4218 27.9792C42.9474 28.4616 44.121 29.826 45.5863 33.282C47.0514 36.738 48.1602 40.842 48.8802 43.5024C49.7262 46.6452 50.1151 48.078 51.3463 49.5792C52.1254 50.5085 53.0611 51.2943 54.111 51.9012L34.311 60.516C29.9527 59.9622 25.8247 58.2421 22.3626 55.5372C21.1951 54.6352 20.1108 53.6304 19.1226 52.5348C19.2162 52.4592 19.3063 52.3836 19.3963 52.3152C25.8223 47.2068 27.3955 40.8816 28.5475 36.2628C29.1559 33.804 29.6275 31.8636 30.6031 30.7548C31.305 29.9484 31.683 29.9484 31.9062 29.9484C32.1708 29.9529 32.4326 30.0029 32.6803 30.096L37.0578 32.4828L40.9458 29.052C41.3922 28.6334 41.8878 28.2707 42.4218 27.972V27.9792ZM42.6199 20.4372C40.6866 20.4372 38.5086 21.3408 36.0642 23.5008C34.7737 22.871 33.3567 22.5435 31.9206 22.5432C29.8615 22.5432 27.327 23.2632 25.0302 25.902C20.0695 31.6152 22.6075 40.302 14.8063 46.5192C12.8905 48.0707 11.086 49.7548 9.40625 51.5592C11.697 55.6986 14.8739 59.2808 18.71 62.0497C22.546 64.8186 26.9465 66.7058 31.5966 67.5763C36.2468 68.4468 41.0319 68.2792 45.6098 67.0855C50.1877 65.8917 54.4453 63.7013 58.0782 60.6708C59.3664 59.5974 60.57 58.4263 61.6782 57.168C61.3765 57.1138 61.0704 57.0873 60.7638 57.0888C60.7638 57.0888 64.173 55.6056 63.741 51.2604C63.6399 50.0812 63.1126 48.9793 62.2578 48.1608C62.1822 48.0888 62.1138 48.0204 62.0382 47.9556L61.9842 47.9088C61.2151 47.2816 60.368 46.7565 59.4642 46.3464C58.4454 45.8388 57.5202 45.4248 57.0774 44.8812C56.0334 43.6068 52.3974 20.43 42.6127 20.4336L42.6199 20.4372Z" fill="#1C305C"/>
<path d="M42.2169 48.9995H34.6641V60.8003H42.2169V48.9995Z" fill="#F58873"/>
<path d="M42.2169 48.2688C42.2169 46.1832 40.5261 44.4924 38.4405 44.4924C36.3548 44.4924 34.6641 46.1832 34.6641 48.2688V52.5168C34.6641 54.6025 36.3548 56.2932 38.4405 56.2932C40.5261 56.2932 42.2169 54.6025 42.2169 52.5168V48.2688Z" fill="#D36960"/>
<path d="M38.4406 53.5968C43.9679 53.5968 48.4486 48.0072 48.4486 41.112C48.4486 34.2168 43.9679 28.6272 38.4406 28.6272C32.9134 28.6272 28.4326 34.2168 28.4326 41.112C28.4326 48.0072 32.9134 53.5968 38.4406 53.5968Z" fill="#F58873"/>
<path d="M36.5324 29.7792C36.5324 29.7792 36.6188 35.5392 31.7912 37.8288C27.1652 40.0392 23.7236 37.962 23.7236 37.962L39.2036 25.002C39.2036 25.002 49.0748 34.6932 49.0748 34.8732C49.0748 35.0532 49.3448 38.6424 49.3448 38.6424C49.3448 38.6424 39.4484 39.24 36.5324 29.7792Z" fill="#1C305C"/>
<path d="M39.2036 24.9949L23.7236 37.9549C24.8877 38.5643 26.1863 38.8713 27.5 38.8477C28.9912 38.8353 30.4604 38.4871 31.7984 37.8289C36.626 35.5213 36.5396 29.7793 36.5396 29.7793C39.1244 38.1637 47.1812 38.6425 48.9884 38.6425C49.2224 38.6425 49.3484 38.6425 49.3484 38.6425C49.3484 38.6425 49.0784 35.0425 49.0784 34.8733C49.0784 34.7041 39.2072 25.0021 39.2072 25.0021L39.2036 24.9949Z" fill="#1C305C"/>
<path d="M28.479 44.0207C30.0895 44.0207 31.395 42.7152 31.395 41.1047C31.395 39.4943 30.0895 38.1887 28.479 38.1887C26.8685 38.1887 25.563 39.4943 25.563 41.1047C25.563 42.7152 26.8685 44.0207 28.479 44.0207Z" fill="#F58873"/>
<path d="M48.4917 44.0207C50.1021 44.0207 51.4077 42.7152 51.4077 41.1047C51.4077 39.4943 50.1021 38.1887 48.4917 38.1887C46.8812 38.1887 45.5757 39.4943 45.5757 41.1047C45.5757 42.7152 46.8812 44.0207 48.4917 44.0207Z" fill="#F58873"/>
<path d="M53.9096 63.6192C48.3654 66.9112 41.959 68.4591 35.5233 68.0617C29.0876 67.6643 22.9203 65.34 17.8232 61.3908C18.8216 61.5878 19.7982 61.8821 20.7392 62.2692C25.4192 64.134 34.2248 62.1828 34.2248 62.1828L33.422 57.3912C33.4117 57.3314 33.4143 57.27 33.4299 57.2113C33.4454 57.1526 33.4735 57.098 33.5121 57.0512C33.5507 57.0043 33.599 56.9664 33.6537 56.9399C33.7084 56.9135 33.7681 56.8992 33.8288 56.898L34.664 56.88L42.224 56.6964L43.1492 56.6748C43.209 56.6741 43.2682 56.6859 43.3231 56.7094C43.378 56.7329 43.4274 56.7677 43.468 56.8114C43.5087 56.8552 43.5398 56.9069 43.5593 56.9634C43.5788 57.0198 43.5863 57.0797 43.5812 57.1392L43.1492 61.8192C43.1492 61.8192 45.2408 61.0344 49.064 60.6456C52.057 60.3549 55.0711 60.3549 58.064 60.6456C56.7603 61.7455 55.3711 62.7398 53.9096 63.6192Z" fill="#D84F55"/>
<path d="M38.4403 46.9799C37.6036 47.0335 36.7658 46.893 35.9923 46.5695C35.8555 46.4651 35.6323 46.5371 35.6323 46.6955C35.6323 48.0455 36.9139 49.1363 38.5123 49.1363C40.1107 49.1363 41.3923 48.0563 41.3923 46.6955C41.3923 46.5371 41.1727 46.4651 41.0323 46.5695C40.2077 46.8902 39.3237 47.0302 38.4403 46.9799Z" fill="white"/>
<path d="M36.3452 39.6827C36.2717 39.6236 36.1791 39.5935 36.0849 39.5981C35.9906 39.6028 35.9014 39.6418 35.834 39.7079C35.6682 39.9074 35.4616 40.069 35.2282 40.182C34.9947 40.295 34.7398 40.3568 34.4804 40.3631C34.0633 40.2971 33.6866 40.076 33.4256 39.7439C33.3648 39.6691 33.2779 39.6201 33.1824 39.6067C33.0869 39.5933 32.9899 39.6166 32.9108 39.6719C32.8675 39.7025 32.8308 39.7415 32.8029 39.7867C32.7751 39.8319 32.7567 39.8822 32.7488 39.9347C32.7415 39.987 32.745 40.0402 32.7593 40.091C32.7735 40.1418 32.7982 40.1891 32.8316 40.2299C33.221 40.7256 33.7902 41.0477 34.4156 41.1263H34.5668C34.9101 41.1064 35.246 41.0185 35.555 40.8677C35.864 40.7169 36.1399 40.5062 36.3668 40.2479C36.4075 40.2115 36.4403 40.1672 36.4633 40.1177C36.4862 40.0682 36.4987 40.0145 36.5 39.9599C36.4974 39.8578 36.4548 39.7608 36.3812 39.6899L36.3452 39.6827Z" fill="#1C305C"/>
<path d="M44.1284 39.7043C44.0576 39.634 43.9618 39.5945 43.862 39.5945C43.7622 39.5945 43.6664 39.634 43.5956 39.7043C43.4302 39.9051 43.2232 40.0677 42.9889 40.1808C42.7546 40.2939 42.4986 40.3549 42.2384 40.3595C41.8202 40.2964 41.4417 40.0762 41.18 39.7439C41.1192 39.6691 41.0323 39.6201 40.9368 39.6067C40.8413 39.5933 40.7443 39.6166 40.6652 39.6719C40.6216 39.7022 40.5846 39.7411 40.5568 39.7864C40.5289 39.8316 40.5107 39.8821 40.5032 39.9347C40.4959 39.987 40.4994 40.0402 40.5137 40.091C40.5279 40.1418 40.5526 40.1891 40.586 40.2299C40.7781 40.4762 41.0168 40.6822 41.2887 40.8361C41.5605 40.9899 41.86 41.0885 42.17 41.1263H42.3212C42.6646 41.107 43.0007 41.0194 43.3098 40.8685C43.6189 40.7177 43.8947 40.5067 44.1212 40.2479C44.1578 40.2123 44.1869 40.1698 44.2067 40.1228C44.2266 40.0758 44.2368 40.0253 44.2368 39.9743C44.2368 39.9233 44.2266 39.8728 44.2067 39.8258C44.1869 39.7788 44.1578 39.7363 44.1212 39.7007L44.1284 39.7043Z" fill="#1C305C"/>
<path d="M34.7974 59.5332L35.3878 63.6192" stroke="#1C305C" stroke-width="2" stroke-linecap="round" stroke-linejoin="round"/>
<path d="M36.7051 59.4685L37.0399 63.5437" stroke="#1C305C" stroke-width="2" stroke-linecap="round" stroke-linejoin="round"/>
<path d="M38.6167 59.4036L38.6887 63.4644" stroke="#1C305C" stroke-width="2" stroke-linecap="round" stroke-linejoin="round"/>
<path d="M40.5282 59.3423L40.3374 63.3887" stroke="#1C305C" stroke-width="2" stroke-linecap="round" stroke-linejoin="round"/>
<path d="M42.4363 59.2776L41.9863 63.3096" stroke="#1C305C" stroke-width="2" stroke-linecap="round" stroke-linejoin="round"/>
<path d="M59.4536 28.5228C59.1057 28.5299 58.7605 28.4611 58.442 28.3212C55.6229 27.015 53.3337 24.7863 51.9526 22.0031C50.5716 19.22 50.1812 16.049 50.846 13.014C50.9668 12.6904 51.194 12.4175 51.4904 12.24C54.0104 10.8432 56.2856 9.59761 58.6256 8.53561C58.7322 8.48802 58.8448 8.45532 58.9604 8.43841C59.07 8.42084 59.1806 8.41002 59.2916 8.40601H59.4536H59.54C59.6605 8.40725 59.7808 8.41687 59.9 8.43481C60.0426 8.45196 60.182 8.48954 60.314 8.54641C62.6828 9.59041 64.94 10.8324 67.46 12.24C67.7602 12.4189 67.9891 12.6962 68.108 13.0248C68.7725 16.0602 68.3816 19.2315 66.9998 22.0147C65.618 24.7979 63.3281 27.0264 60.5084 28.332C60.4159 28.3749 60.3194 28.4086 60.2204 28.4328C59.9694 28.4943 59.7119 28.5245 59.4536 28.5228Z" fill="#5ABF95"/>
<path d="M59.5398 9.13328C59.6315 9.1347 59.723 9.14312 59.8134 9.15848C59.8841 9.16419 59.9533 9.18121 60.0186 9.20888C62.5206 10.3465 65.0586 11.7541 67.0962 12.8845C67.2122 12.9649 67.3082 13.0708 67.377 13.1941C67.998 16.0619 67.6231 19.0558 66.3142 21.682C65.0054 24.3082 62.8407 26.41 60.177 27.6409C60.1249 27.6651 60.0707 27.6844 60.015 27.6985C59.8206 27.7463 59.6212 27.7705 59.421 27.7705C59.1841 27.7758 58.9487 27.7317 58.7298 27.6409C56.0657 26.4105 53.9006 24.3088 52.5917 21.6824C51.2827 19.0561 50.9082 16.062 51.5298 13.1941C51.5975 13.07 51.6937 12.9639 51.8106 12.8845C53.8482 11.7541 56.3862 10.3645 58.8882 9.20888C58.9371 9.18599 58.9894 9.17139 59.043 9.16568C59.097 9.16568 59.187 9.16568 59.2878 9.14408C59.3454 9.14765 59.4031 9.14765 59.4606 9.14408H59.5398V9.13328ZM59.5398 7.64288H59.3886C59.1969 7.64716 59.0057 7.66399 58.8162 7.69328C58.639 7.72209 58.4661 7.77288 58.3014 7.84448C55.8498 8.96048 53.4774 10.2673 51.1014 11.5741C50.6119 11.8595 50.2491 12.3201 50.0862 12.8629C49.3807 16.065 49.7911 19.412 51.2494 22.3488C52.7076 25.2855 55.126 27.6355 58.1034 29.0089C58.5199 29.1905 58.9703 29.2813 59.4246 29.2753C59.7525 29.2754 60.079 29.2343 60.3966 29.1529C60.5386 29.1173 60.6772 29.0691 60.8106 29.0089C63.7882 27.636 66.2066 25.2859 67.6644 22.3489C69.1221 19.4119 69.5313 16.0646 68.8242 12.8629C68.6674 12.3193 68.3079 11.8566 67.8198 11.5705C65.4618 10.2637 63.0894 8.95688 60.6198 7.84088C60.423 7.75396 60.2143 7.69693 60.0006 7.67168C59.848 7.64841 59.6941 7.63519 59.5398 7.63208V7.64288Z" fill="#1C305C"/>
<path d="M55.8682 18.2339L58.1398 20.8331L64.447 14.4575" stroke="white" stroke-width="4.79" stroke-linecap="round" stroke-linejoin="round"/>
<path d="M23.0757 51.6672V55.7244" stroke="white" stroke-width="2.86" stroke-linecap="round" stroke-linejoin="round"/>
<path d="M21.0454 53.6941H25.1026" stroke="white" stroke-width="2.86" stroke-linecap="round" stroke-linejoin="round"/>
<path d="M19.5151 19.332V23.3892" stroke="white" stroke-width="2.86" stroke-linecap="round" stroke-linejoin="round"/>
<path d="M17.4883 21.3589H21.5455" stroke="white" stroke-width="2.86" stroke-linecap="round" stroke-linejoin="round"/>
<path d="M62.769 37.1592V41.2164" stroke="white" stroke-width="2.86" stroke-linecap="round" stroke-linejoin="round"/>
<path d="M60.7422 39.186H64.7994" stroke="white" stroke-width="2.86" stroke-linecap="round" stroke-linejoin="round"/>
</svg>
