<svg width="1439" height="200" viewBox="0 0 1439 200" fill="none" xmlns="http://www.w3.org/2000/svg">
<g clip-path="url(#clip0_2221_6769)">
<path opacity="0.76" d="M430.76 61.4398C430.07 61.0498 426.13 59.9998 426.13 59.9998C426.13 59.9998 424.22 59.0098 423.5 58.9598C423.17 58.9298 421.05 59.1398 418.07 59.7798C414.76 60.4298 410.45 61.5098 406.11 63.2098L373.88 69.5098C372.25 69.1998 371.22 68.8398 371.22 68.8398C371.22 68.8398 370.44 68.8898 371.17 69.3298C371.38 69.4598 371.69 69.6598 372.02 69.8398L369.26 70.3798C369.26 70.3798 366.78 69.5598 365.31 68.7198C363.78 67.8198 353.04 62.0498 353.04 62.0498L348.54 62.9498L355.37 72.9798C355.37 72.9798 353.64 73.1098 353.22 73.6298C352.84 74.1998 353.12 74.7198 353.12 74.7198L351.06 75.4898L351.32 75.7798L353.62 75.3698C353.62 75.3698 354.39 76.0398 355.27 76.0598C356.15 76.0798 376.75 76.3698 378.33 76.1298C379.44 75.9998 383.48 75.2998 385.78 74.9398C387.39 74.7398 391.59 74.3898 391.98 74.2998L392.24 75.2098C392.24 75.2098 396.74 74.9298 399.92 74.0398C399.92 74.0398 400.07 73.6598 400.16 73.0598C400.49 73.1398 401.5 73.5698 401.5 73.5698L401.88 74.9198C401.88 74.9198 403.22 74.8698 404.95 74.6298C406.4 74.4798 408.08 74.1698 409.5 73.7498C409.5 73.7498 410.07 72.1998 409.61 70.3198C409.89 70.2898 410.12 70.1898 410.34 70.1598C413.6 69.4398 418.22 68.6098 421.53 67.8898H421.69L422 69.5398C422 69.5398 421.64 69.9498 421.72 70.2898C421.8 70.6798 422.16 70.9398 422.55 70.8598C422.94 70.7798 423.2 70.4198 423.12 70.0298C423.04 69.6398 422.73 69.3898 422.34 69.4598L422.23 68.7898L422.69 68.7198L422.49 67.8198L423.78 67.5898V67.4298C424.09 67.2798 424.42 67.1998 424.66 67.0498C426.16 66.3998 428.41 65.1598 429.88 64.1098C430.83 63.4698 431.48 62.9698 431.43 62.6898V62.4798C431.43 62.4798 431.5 61.9298 430.76 61.5298L430.71 61.4598L430.73 61.4398H430.76Z" fill="#E1E2E2"/>
<path d="M352.02 135.84C346.61 135.25 337.13 133.65 325.42 129.33C324.23 128.89 323.01 128.42 321.78 127.91C321.7 127.89 321.61 127.85 321.53 127.81C321.46 127.79 321.38 127.76 321.32 127.73C321.24 127.71 321.15 127.67 321.07 127.62C312.42 124.09 302.76 119.08 292.74 111.98C291.2 110.89 289.65 109.75 288.09 108.57C284.35 105.7 280.56 102.54 276.79 99.0398C273.49 91.2898 266.27 88.8698 258.36 88.8698C250.45 88.8698 246.92 84.6598 243.93 74.9398C242.57 70.6998 239.45 67.6398 235.92 65.6598C235.46 65.4098 235 65.1598 234.53 64.9598C234.08 64.7398 233.63 64.5498 233.19 64.3698C229.35 62.8298 225.44 62.4698 223.1 63.1598C220.98 63.7298 218.45 63.8498 215.89 63.2198C212.96 62.5098 209.97 60.8398 207.44 57.7598C207.43 57.7398 207.4 57.6998 207.39 57.6998C206.54 56.6598 205.74 55.4598 205.02 54.0898C200.41 45.0398 188.97 45.7798 188.97 45.7798C188.97 45.7798 186.6 39.3198 177.18 39.3198C169.68 39.4698 167.3 43.3098 166.67 44.7098C166.54 45.0198 166.49 45.2198 166.49 45.2198C163.86 45.0598 161.72 45.5798 159.98 46.4998C153.6 49.8598 152.46 58.4898 152.46 58.4898C149.71 57.6498 147.27 57.7498 145.28 58.2098C141.95 58.9498 139.92 60.6898 139.92 60.6898C138.83 55.8998 134.78 56.6498 134.78 56.6498C133.88 52.5098 132.14 49.5198 130.05 47.3498C124.29 41.3798 115.96 41.6898 115.96 41.6898C115.61 25.1098 102.68 21.0698 93.84 21.4198C84.96 21.7698 81.83 10.7298 67.45 8.30977C53.07 5.93977 43.66 13.8498 43.66 13.8498C26.29 10.6898 16.34 17.1498 16.34 17.1498C9.72003 14.6398 3.53003 14.8998 -0.969971 15.7698V169.85H288.78L333.68 147.69L335.12 146.98L337.12 146L356.52 136.43L356.98 136.2C356.98 136.2 355.2 136.2 352.02 135.85V135.84Z" fill="white"/>
<path d="M88.28 71.3698V66.5798H93.59V64.2298H97.08V59.9598H101.4V61.6798H104.46V63.9798H106.9V54.5198H116.44V50.8598H120.63V57.8398H129.16V46.0398H135.81V44.3198H140.13V71.8698H145.44V67.3198H151.59V64.5498H151.43V64.0798H152.35V59.5598L155.35 56.0198H158.35V64.5998H162.88V63.5698H163.33V63.0598L164.92 60.3398L166.51 63.0598V63.5698H166.96V64.5998H167.41V66.4498H167.89V66.1998C167.89 66.0698 168 65.9598 168.13 65.9598H170.43V63.6598H170.64V65.9598H170.81V64.4898H171.02V65.9598H173.05C173.18 65.9598 173.29 66.0698 173.29 66.1998V66.4498H173.73V71.8698H178.55V78.4498H183.7V67.6698H185.46V58.8498H186.01V58.5298C186.01 58.3698 186.14 58.2298 186.31 58.2298H191.89C192.05 58.2298 192.19 58.3598 192.19 58.5298V58.8498H192.74V74.2398H194.46V50.8598H195.44V50.5498L198.03 48.8898V46.0298H198.29V48.8898L200.88 50.5498V50.8598H201.86V62.7898H204.48V62.4198H204.73V62.0398H204.48V61.6598H204.73V61.2798H204.48V60.8998H204.73V60.5198H204.48V60.1398H204.73V59.7598H204.48V59.3798H204.73V58.9998H204.48V58.6198H204.73V58.2398H204.48V57.8598H204.73V57.4798H204.48V57.0998H204.73V56.7198H204.48V56.3398H204.73V55.9598H204.48V55.5798H205.54V55.1998H205.28V54.8198H207.86V51.9198H208.12V54.8198H208.33V52.9698H208.59V54.8198H211.45V55.1998H211.19V55.5798H212.25V55.9598H212V56.3398H212.25V56.7198H212V57.0998H212.25V57.4798H212V57.8598H212.25V58.2398H212V58.6198H212.25V58.9998H212V59.3798H212.25V59.6298H216.03V59.0398H215.83V58.4498H216.99V56.8598L220.77 52.3998H223.9V59.0898H225.12V58.6498H230.26V59.0898H230.83V68.7698H241.57L241.62 56.4098H242.63V55.2598L246.17 49.1798L249.71 55.2598V56.4098H250.72V66.0998L252.88 66.1198V64.6998H254.67V66.1198H257.6V82.8698H263.67V92.4598H269.33V103.52H74.55V71.3298H88.28V71.3698Z" fill="url(#paint0_linear_2221_6769)"/>
<path d="M458.81 128.52V123.73H453.5V121.38H450.01V117.11H445.69V118.83H442.63V121.13H440.19V111.67H430.65V108.01H426.46V114.99H417.93V103.19H411.28V101.47H406.96V129.02H401.65V124.47H395.5V121.7H395.66V121.23H394.74V116.71L391.74 113.17H388.74V121.75H384.21V120.72H383.76V120.21L382.17 117.49L380.58 120.21V120.72H380.13V121.75H379.68V123.6H379.2V123.35C379.2 123.22 379.09 123.11 378.96 123.11H376.66V120.81H376.45V123.11H376.28V121.64H376.07V123.11H374.04C373.91 123.11 373.8 123.22 373.8 123.35V123.6H373.36V129.02H368.54V135.6H363.39V124.82H361.63V116H361.08V115.68C361.08 115.52 360.95 115.38 360.78 115.38H355.2C355.04 115.38 354.9 115.51 354.9 115.68V116H354.35V131.39H352.63V108.01H351.65V107.7L349.06 106.04V103.18H348.8V106.04L346.21 107.7V108.01H345.23V119.94H342.61V119.57H342.36V119.19H342.61V118.81H342.36V118.43H342.61V118.05H342.36V117.67H342.61V117.29H342.36V116.91H342.61V116.53H342.36V116.15H342.61V115.77H342.36V115.39H342.61V115.01H342.36V114.63H342.61V114.25H342.36V113.87H342.61V113.49H342.36V113.11H342.61V112.73H341.55V112.35H341.81V111.97H339.23V109.07H338.97V111.97H338.76V110.12H338.5V111.97H335.64V112.35H335.9V112.73H334.84V113.11H335.09V113.49H334.84V113.87H335.09V114.25H334.84V114.63H335.09V115.01H334.84V115.39H335.09V115.77H334.84V116.15H335.09V116.53H334.84V116.78H331.06V116.19H331.26V115.6H330.1V114.01L326.32 109.55H323.19V116.24H321.97V115.8H316.83V116.24H316.26V125.92H305.52L305.47 113.56H304.46V112.41L300.92 106.33L297.38 112.41V113.56H296.37V123.25L294.21 123.27V121.85H292.42V123.27H289.49V140.02H283.42V149.61H277.76V160.67H472.53V128.48H458.8V128.52H458.81Z" fill="url(#paint1_linear_2221_6769)"/>
<path d="M1353.64 -0.930117V123.89H1106.44V73.2599C1106.44 73.2599 1113.45 72.7999 1116.1 66.7099C1116.41 65.9499 1116.78 65.2599 1117.19 64.6299C1120.04 60.1999 1125.07 58.7099 1130.8 58.7099C1132.61 58.7099 1134.12 58.4399 1135.41 57.8699C1136.39 57.4499 1137.24 56.8699 1138 56.1199C1139.88 54.2599 1141.22 51.3799 1142.52 47.4099C1144.89 39.5499 1154.98 36.5799 1159.3 37.9199C1163.48 39.0899 1169.85 37.9199 1173.71 30.6299C1177.57 23.3399 1186.63 23.9399 1186.63 23.9399C1186.63 23.9399 1188.68 18.5899 1196.12 18.7299C1203.7 18.8699 1204.72 23.4799 1204.72 23.4799C1208.8 23.1699 1211.46 24.9199 1213.18 27.0799C1215.64 30.1899 1216.16 34.1699 1216.16 34.1699C1219.35 33.1699 1222.1 33.8199 1223.92 34.5999C1224.65 34.9099 1225.24 35.2499 1225.63 35.4999C1225.88 35.6599 1226.05 35.7899 1226.15 35.8599C1226.22 35.9099 1226.25 35.9399 1226.25 35.9399L1226.28 35.7899C1226.34 35.5399 1226.4 35.2999 1226.48 35.0899C1226.87 33.9999 1227.52 33.3899 1228.17 33.0499C1229.27 32.4799 1230.39 32.6799 1230.39 32.6799C1230.95 29.9199 1231.98 27.7899 1233.25 26.1499C1237.79 20.2699 1245.4 20.6399 1245.4 20.6399C1245.69 7.29988 1256.1 3.85988 1263.21 4.31988C1266.81 4.45988 1269.24 2.37988 1272.17 -0.000117183H1323.88C1325.01 0.509883 1325.6 0.889883 1325.6 0.889883C1326.58 0.519883 1327.54 0.219883 1328.49 -0.000117183H1340.55C1343.52 0.689883 1345.35 1.62988 1345.35 1.62988C1346.24 0.919883 1347.15 0.379883 1348.03 -0.000117183C1349.56 -0.680117 1351.04 -0.940117 1352.37 -0.960117C1352.81 -0.970117 1353.23 -0.960117 1353.64 -0.930117Z" fill="white"/>
<path d="M933.38 135.7L929.85 124.63L926.32 135.7H933.38Z" fill="#E1E2E2"/>
<path d="M951.06 142.91L942.93 117.42L934.81 142.91H951.06Z" fill="#E1E2E2"/>
<path d="M911.54 140.67C978.32 139.87 985.87 82.39 1038.42 69.08C1081.14 58.26 1111.1 80.08 1129.52 76.14C1167.72 67.96 1173.54 35.51 1216.02 26.42C1236.15 22.11 1276.45 37.62 1299.7 32.65C1322.65 27.74 1322.8 65.56 1349.21 59.91C1358.14 101.62 1328.7 41.66 1337.63 83.38L993.67 156.99C990.26 141.05 918.95 175.3 911.54 140.69V140.67Z" fill="url(#paint2_linear_2221_6769)"/>
<path d="M1438.64 18.24V35.83L1428.48 41.04L1419.94 45.41H1287.05V44.91C1289.97 43.64 1293.03 42.05 1296.22 40.21C1297.17 39.66 1298.13 39.09 1299.11 38.49C1300.33 37.75 1301.57 36.98 1302.82 36.18C1303.83 35.54 1304.85 34.87 1305.87 34.19C1306.56 33.74 1307.24 33.28 1307.94 32.81H1307.95C1313.22 29.27 1318.72 25.35 1324.39 21.32C1327.36 19.21 1330.37 17.06 1333.42 14.92C1340.01 10.29 1346.79 5.68 1353.64 1.46C1354.44 0.96 1355.24 0.48 1356.04 0H1426.49C1426.9 0.56 1427.31 1.13 1427.71 1.71C1428.58 2.96 1429.43 4.22 1430.25 5.48C1433.16 9.95 1435.84 14.44 1438.64 18.24Z" fill="url(#paint3_linear_2221_6769)"/>
<path d="M960.32 197.78L1044.26 154.52C841.6 95.4498 484.98 128.37 374.3 139.62C226.69 138.22 233.49 103.02 123.38 60.6698C75.19 42.1498 33.41 46.2898 1.78003 56.8798V197.78H960.32Z" fill="#E1E2E2"/>
<g opacity="0.52">
<path opacity="0.52" d="M385.21 154.38C385.21 154.38 410.06 154.98 409.83 154.99C449.62 150.83 581.02 143.39 627.11 141.5C764.26 134.35 964.54 135.67 1079.98 169.9L1079.7 170.86C1059.76 167.86 1040.09 164.43 1020.36 161.7C1005.93 159.58 990.4 157.65 976.03 156.07C907.27 148.21 741.82 145.93 672.69 149C623.66 150.85 474.2 155.6 425.23 157.78C420.11 157.97 414.97 158.07 409.85 158.23C406.92 157.94 400.46 157.24 397.49 156.87L391.32 156.15C389.27 155.92 387.22 155.63 385.17 155.37L385.21 154.37V154.38Z" fill="url(#paint4_linear_2221_6769)"/>
</g>
<path opacity="0.5" d="M349.61 197.78V171.81C347.33 172.08 345.06 172.35 342.79 172.61V197.78H349.61Z" fill="#283039"/>
<path d="M1417.84 57.5499L1410.04 29.6799C1409.94 29.3199 1409.58 29.0999 1409.21 29.1699L1402.6 30.4999C1402.54 30.5099 1402.48 30.5299 1402.42 30.5599L1392.85 35.3499L1380.01 42.0699C1379.9 42.1299 1379.78 42.1499 1379.66 42.1499L1375.47 42.0499C1375.39 42.0499 1375.31 42.0499 1375.23 42.0799L1370.51 43.5999C1370.44 43.6199 1370.37 43.6299 1370.29 43.6299H1359.01C1358.93 43.6299 1358.85 43.6199 1358.77 43.5899L1349.38 40.2199C1348.99 40.0799 1348.56 40.2999 1348.45 40.6999L1344.33 55.5299C1344.24 55.8399 1344.38 56.1799 1344.66 56.3399L1369.57 70.5399C1369.73 70.6299 1369.92 70.6599 1370.1 70.6099L1417.31 58.4399C1417.7 58.3399 1417.93 57.9399 1417.82 57.5599H1417.84V57.5499Z" fill="url(#paint5_linear_2221_6769)"/>
<path d="M1438.64 47.5797V113.94H1411.33C1411.33 113.94 1411.24 113.94 1411.2 113.93L1409.21 113.53L1404.35 112.57L1402.19 112.21L1374.83 107.7L1361.45 105.5L1360.6 105.36C1360.47 105.34 1360.35 105.29 1360.25 105.2L1359.41 104.48L1358.19 103.44L1354.18 100.02L1352.95 98.9797L1335.94 84.4597L1306.04 58.9597L1299.6 53.4697C1299.49 53.3697 1299.41 53.2397 1299.37 53.0997L1299.11 52.0397L1297.77 46.5397L1293.76 30.1397C1293.7 29.8797 1293.78 29.6197 1293.97 29.4397L1308.21 16.2297C1308.21 16.2297 1308.32 16.1297 1308.39 16.0997L1310.63 15.0497L1311.48 14.6397L1312.38 14.2197C1312.55 14.1397 1312.68 13.9897 1312.75 13.8097L1312.89 13.4097C1312.98 13.1297 1313.24 12.9597 1313.51 12.9497C1313.68 12.9297 1313.86 12.9697 1314.01 13.0897L1333.42 28.4697L1336.46 30.8797L1349.03 40.1997L1354.14 43.9897C1354.23 44.0597 1354.31 44.1497 1354.36 44.2597C1354.67 44.9497 1356.02 47.7297 1358.43 49.6197C1360.93 51.5197 1363.77 53.8497 1364.47 54.4197C1364.58 54.5097 1364.71 54.5597 1364.85 54.5797L1369.2 55.0097C1369.3 55.0197 1369.39 55.0497 1369.48 55.0897L1376.36 58.9597L1382.88 62.6297C1383.11 62.7597 1383.4 62.7497 1383.62 62.5997L1389.16 58.9597L1390.5 58.0797C1390.57 58.0297 1390.63 57.9797 1390.68 57.9097L1393.16 54.5497C1393.22 54.4797 1393.28 54.4197 1393.35 54.3697L1406.94 45.5497C1407.12 45.4297 1407.24 45.2397 1407.26 45.0197L1407.92 38.0397V37.9897L1408.13 30.5597C1408.13 30.3297 1408.25 30.1197 1408.44 29.9897L1409.48 29.2997C1409.53 29.2697 1409.58 29.2397 1409.63 29.2297C1409.84 29.1497 1410.07 29.1697 1410.26 29.2997L1422.02 36.8797L1438.64 47.5797Z" fill="url(#paint6_linear_2221_6769)"/>
<path d="M1410.1 113.13L1360.7 135.03C1360.58 135.08 1360.44 135.1 1360.31 135.08L1201.1 112.66C1200.7 112.6 1200.43 112.23 1200.5 111.83C1200.82 110.02 1201.66 105.29 1202.21 102.9C1202.6 101.13 1203.33 100.71 1203.88 100.68C1204.27 100.66 1204.58 100.37 1204.58 99.9799C1204.6 99.0899 1204.8 97.7999 1205.77 97.4999C1206.23 97.3399 1206.55 97.2899 1206.77 97.2899C1207.08 97.2899 1207.36 97.1099 1207.45 96.8099C1207.68 96.0399 1208.15 94.8299 1208.94 94.4199C1209.17 94.2999 1209.32 94.0699 1209.33 93.8099C1209.35 93.1699 1209.53 92.1498 1210.49 92.5599C1210.49 92.5599 1210.85 90.3699 1212.44 90.6099C1212.44 90.6099 1212.82 89.5399 1213.89 89.3299C1214.27 89.2599 1214.55 88.9199 1214.47 88.5499C1214.34 87.9299 1214.37 87.1399 1215.26 86.8999C1215.57 86.8199 1215.79 86.5099 1215.78 86.1899C1215.76 85.5499 1216.04 84.6699 1217.75 84.7099C1218.1 84.7099 1218.42 84.4899 1218.48 84.1399C1218.63 83.2999 1219.13 81.9199 1220.79 81.8599C1221.08 81.8599 1221.34 81.6498 1221.42 81.3799C1221.74 80.3399 1222.76 78.0899 1225.43 78.1999C1225.81 78.2198 1226.14 77.9599 1226.19 77.5799C1226.24 77.2299 1226.51 76.8599 1227.36 76.6899C1227.75 76.6099 1228.01 76.2199 1227.91 75.8399C1227.7 75.0499 1227.72 73.8599 1229.41 73.3699C1229.71 73.2799 1229.91 73.0199 1229.92 72.7099C1229.96 71.8099 1230.34 70.1099 1232.59 70.0199C1232.96 70.0099 1233.26 69.7099 1233.28 69.3399C1233.34 68.1499 1233.76 65.8199 1236.06 65.5699C1236.32 65.5399 1236.53 65.3499 1236.62 65.0999C1236.88 64.3299 1237.56 62.8299 1238.88 62.5899C1239.12 62.5499 1239.3 62.3699 1239.38 62.1399C1239.69 61.2399 1240.61 59.1399 1242.43 58.8099C1242.66 58.7699 1242.86 58.6399 1242.95 58.4199C1243.4 57.3499 1244.92 54.1299 1247.1 53.2499C1247.35 53.1499 1247.54 52.9499 1247.58 52.6899C1247.76 51.4699 1248.43 48.0199 1250.23 47.2499C1250.46 47.1499 1250.62 46.9299 1250.64 46.6799C1250.72 45.7099 1251.14 43.5099 1253.31 43.5499C1253.72 43.5499 1254.02 43.1899 1253.99 42.7799C1253.94 41.8899 1254.29 40.5899 1256.66 40.1799C1256.96 40.1299 1257.18 39.8799 1257.22 39.5799C1257.37 38.3899 1258.03 35.5899 1260.8 35.3999C1260.98 35.3899 1261.15 35.3299 1261.27 35.1999C1261.64 34.8099 1262.61 33.9699 1263.96 33.9899C1264.18 33.9899 1264.38 33.9299 1264.53 33.7699C1264.93 33.3399 1265.79 32.4799 1266.59 32.2399C1266.85 32.1599 1267.04 31.9599 1267.11 31.6999C1267.25 31.1099 1267.89 30.1799 1270.47 30.0099C1270.71 29.9899 1270.92 29.8699 1271.05 29.6699C1271.53 28.8699 1273 26.9199 1275.51 27.9399C1275.84 28.0799 1276.22 27.9499 1276.4 27.6399C1276.73 27.0599 1277.49 26.3299 1279.24 26.6199C1279.55 26.6699 1279.86 26.5099 1280 26.2199C1280.23 25.7299 1280.8 25.0799 1282.25 25.1599C1282.58 25.1799 1282.91 24.9899 1283 24.6699C1283.16 24.0899 1283.74 23.3699 1285.79 23.9399C1286.08 24.0199 1286.38 23.8899 1286.54 23.6399C1286.89 23.1199 1287.68 22.3799 1289.22 22.6299C1289.46 22.6699 1289.71 22.5999 1289.86 22.4099C1290.26 21.9199 1291.24 21.0399 1293.03 21.2799C1293.27 21.3099 1293.51 21.2399 1293.67 21.0599C1294.13 20.5699 1295.24 19.6299 1296.97 19.8099C1297.35 19.8499 1297.72 19.6099 1297.77 19.2199C1297.87 18.4199 1298.46 17.2599 1300.95 17.1999C1301.07 17.1999 1301.18 17.1699 1301.29 17.1099C1301.79 16.8199 1303.58 15.8999 1306.31 15.8299C1306.52 15.8299 1306.71 15.7399 1306.84 15.5799C1307.27 15.0499 1308.51 13.8399 1311.07 13.6599C1311.37 13.6399 1311.61 13.4199 1311.69 13.1399C1311.76 12.8799 1312.01 12.5999 1312.77 12.5099C1313.06 12.4799 1313.36 12.6199 1313.49 12.8899C1313.68 13.2599 1313.88 13.7799 1313.61 13.9999C1313.3 14.1899 1311.56 15.1799 1311.09 15.4399C1311.01 15.4799 1310.95 15.5399 1310.89 15.6099L1309.24 17.6599C1309.11 17.8299 1309.05 18.0399 1309.1 18.2499L1309.15 18.5099C1309.26 19.0299 1308.78 19.4799 1308.27 19.3399C1307.91 19.2399 1307.54 19.4299 1307.42 19.7799C1307.11 20.6299 1306.66 22.2299 1306.98 23.6799C1307.45 25.3499 1307.54 27.0499 1307.55 27.6199C1307.55 27.7599 1307.52 27.8899 1307.44 28.0099C1307.19 28.3899 1306.55 29.1899 1305.5 29.1899C1304.77 29.1899 1304.27 29.3499 1303.98 29.4799C1303.78 29.5699 1303.64 29.7499 1303.59 29.9699C1303.35 31.0799 1302.56 34.8799 1302.86 36.4399C1303.22 38.2799 1304.37 44.9399 1304.37 44.9399C1304.37 44.9399 1305.17 48.7299 1309.31 49.7699C1313.34 50.6999 1339.68 63.6799 1339.68 63.6799L1350.38 69.6599C1350.38 69.6599 1353.15 71.1699 1349.23 73.4499L1340.02 78.6799C1339.95 78.7199 1339.87 78.7499 1339.78 78.7599C1339.08 78.8599 1335.75 79.5699 1341.05 82.8899C1346.75 86.3499 1378.49 102.97 1380.31 103.92C1380.37 103.95 1380.42 103.97 1380.48 103.98C1381.28 104.15 1386.93 105.3 1386.72 103.03C1386.5 100.59 1386.5 99.9299 1386.5 99.9299C1386.5 99.9299 1386.39 97.8699 1389.85 99.9299L1410.18 111.87C1410.68 112.16 1410.64 112.9 1410.11 113.14H1410.1V113.13Z" fill="url(#paint7_linear_2221_6769)"/>
<path d="M1392.96 62.7198L1396.75 59.3998L1395.71 58.5798L1403.23 52.3298C1403.75 51.8998 1404.53 52.3698 1404.38 53.0298L1403.7 56.2398C1403.67 56.3598 1403.62 56.4698 1403.54 56.5598L1400.75 59.6998C1400.46 60.0198 1400.53 60.5298 1400.89 60.7698L1400.96 60.8198C1401.41 61.1198 1401.38 61.7798 1400.91 62.0398L1395.12 65.2398C1395.06 65.2698 1394.99 65.2998 1394.93 65.3098L1391.29 66.0998C1390.58 66.2498 1390.12 65.3698 1390.65 64.8798L1392.97 62.7398V62.7198H1392.96Z" fill="url(#paint8_linear_2221_6769)"/>
<path d="M1149.22 105.6L1136.9 51.2898L1124.58 105.6H1149.22Z" fill="#DCDDDD"/>
<path d="M1001.69 176.18L989.37 121.87L977.05 176.18H1001.69Z" fill="#DCDDDD"/>
<path d="M1056.58 151.52L1044.26 97.2L1031.94 151.52H1056.58Z" fill="#DCDDDD"/>
<path d="M546.78 194.48L534.47 140.16L522.15 194.48H546.78Z" fill="#DCDDDD"/>
<path d="M1095.13 151.52L1074.75 61.6499L1054.38 151.52H1095.13Z" fill="#DCDDDD"/>
<path d="M505.47 197.78L485.46 109.58L465.46 197.78H505.47Z" fill="#DCDDDD"/>
<path d="M403.94 187.24L383.56 97.3699L363.18 187.24H403.94Z" fill="#DCDDDD"/>
<path d="M1438.64 197.78V136.82C1429.64 130.95 1418.84 124.13 1406.93 117.03C1405.58 116.22 1404.21 115.42 1402.83 114.6C1401.45 113.79 1400.05 112.97 1398.64 112.15C1396.22 110.75 1393.77 109.34 1391.29 107.93C1384.42 104.04 1377.32 100.15 1370.07 96.3599C1367.22 94.8699 1364.34 93.3999 1361.45 91.9499C1360.77 91.6099 1360.1 91.2699 1359.41 90.9299C1358.71 90.5799 1358.01 90.2299 1357.3 89.8899C1356.45 89.4699 1355.6 89.0499 1354.75 88.6299C1353.97 88.2599 1353.19 87.8799 1352.41 87.5099C1347.3 85.0599 1342.16 82.6999 1337.04 80.4799C1317.52 71.9699 1298.2 65.3499 1281.06 62.5599C1261.92 59.4799 1244.55 58.9199 1228.47 60.2799C1227.26 60.3899 1226.05 60.4999 1224.86 60.6299C1221.88 60.9299 1218.93 61.3099 1216.04 61.7499C1208.26 62.9299 1200.79 64.5599 1193.54 66.5699C1192.84 66.7599 1192.14 66.9499 1191.44 67.1599C1190.56 67.4099 1189.69 67.6599 1188.83 67.9299C1173.34 72.6099 1158.88 78.9799 1144.83 86.2599C1138.73 89.4299 1132.71 92.7599 1126.72 96.1899C1113.82 103.61 1101.03 111.52 1087.84 119.33C1083.57 121.85 1079.27 124.36 1074.91 126.84C1069.34 130 1063.67 133.11 1057.87 136.12C1056.45 136.86 1055.03 137.59 1053.59 138.32C1046.84 141.73 1039.91 145 1032.74 148.06C1031.83 148.44 1030.92 148.82 1030 149.2C1029.37 149.47 1028.74 149.72 1028.11 149.98C1024.26 151.55 1020.35 153.05 1016.35 154.48C1010.44 156.6 1004.37 158.56 998.09 160.33C994.23 161.42 990.29 162.44 986.27 163.38C985.8 163.49 983.51 163.98 979.64 164.79C959.01 169.12 837.89 182.72 738.46 197.78H1438.64Z" fill="url(#paint9_linear_2221_6769)"/>
<path d="M1148.07 188.42C1154.05 189.43 1159.34 191.79 1164 195.19C1165.1 195.99 1166.17 196.86 1167.2 197.78H1438.64V136.82C1429.64 130.95 1418.84 124.13 1406.93 117.03C1405.58 116.22 1404.21 115.42 1402.83 114.6C1401.45 113.79 1400.05 112.97 1398.64 112.15C1396.22 110.75 1393.77 109.34 1391.29 107.93C1384.42 104.04 1377.32 100.15 1370.07 96.3598C1367.22 94.8698 1364.34 93.3998 1361.45 91.9498C1360.77 91.6098 1360.1 91.2698 1359.41 90.9298C1358.71 90.5798 1358.01 90.2298 1357.3 89.8898C1356.45 89.4698 1355.6 89.0498 1354.75 88.6298C1353.97 88.2598 1353.19 87.8798 1352.41 87.5098C1347.3 85.0598 1342.16 82.6998 1337.04 80.4798C1317.52 71.9698 1298.2 65.3498 1281.06 62.5598C1274.14 61.5198 1267.59 60.7298 1261.14 60.2598C1267.04 64.3298 1274.38 71.5298 1269.41 79.8398C1268.76 80.9298 1267.9 82.0398 1266.79 83.1698C1264.25 85.7298 1260.82 87.9198 1256.88 89.8898C1247.22 94.7298 1234.46 98.2098 1224.06 102.35C1217.85 104.82 1212.47 107.52 1209.09 110.88C1207.44 112.51 1206.27 114.3 1205.7 116.3C1201.2 131.94 1183.15 148.97 1148.18 142.53C1113.31 135.97 1093.07 179.23 1148.07 188.42Z" fill="url(#paint10_linear_2221_6769)"/>
<g opacity="0.48">
<path opacity="0.48" d="M1066.51 131.51C1082.27 121.37 1101.43 117.79 1119.93 117.05C1138.57 116.73 1157.27 116.37 1175.64 113.5C1184.57 111.94 1194.07 110.16 1201.8 105.35C1205.63 102.87 1209.32 99.9897 1213.13 97.2597C1233.3 82.4297 1254.98 75.7698 1280.01 78.1598C1289.27 79.0298 1310.87 81.4097 1316.86 88.5197C1327.12 104.26 1276.03 108.13 1267.27 108.96C1260.71 109.67 1253.99 111.16 1248.05 113.87C1222.38 126.51 1249.78 135.9 1264.17 138.41C1279.93 141.39 1296.31 142.28 1312.39 142.79L1319.38 143.02L1319.46 145.02C1296.67 147.45 1253.65 149.97 1235.09 134.6C1223.52 123.77 1233.44 111.99 1245.02 107.15C1253.99 103.07 1263.87 101.85 1273.55 101.19C1282.68 100.31 1291.84 99.0997 1300.46 96.8097C1304.21 95.7097 1308.38 94.5998 1311.31 92.1598C1311.49 91.9798 1311.57 91.8397 1311.55 91.8897C1311.53 91.9197 1311.46 92.2497 1311.51 92.4997C1311.56 92.7397 1311.62 92.7597 1311.53 92.6497C1310.24 91.2397 1308.13 90.4197 1305.86 89.5297C1299.73 87.3197 1292.77 86.0197 1286.18 84.9497C1275.05 83.3297 1263.62 82.7697 1252.57 84.8497L1246.02 86.3097C1243.87 86.9397 1241.73 87.6097 1239.6 88.2797C1235.44 89.8697 1231.17 91.5997 1227.28 93.7597C1218.95 98.0697 1211.93 103.71 1203.89 108.77C1199.69 111.44 1194.9 112.84 1190.16 114.12C1167.2 119.59 1143.2 119.21 1119.98 119.26C1101.53 119.51 1083.14 123.25 1066.51 131.53V131.51Z" fill="white"/>
</g>
<path d="M1438.64 197.78V73.8799C1428.51 74.9499 1417.93 77.5099 1406.78 81.2499C1401.67 82.9599 1396.44 84.9199 1391.07 87.0999C1389.61 87.6899 1388.14 88.2999 1386.66 88.9299L1384.41 89.8899C1383.75 90.1699 1383.09 90.4599 1382.42 90.7499C1379.92 91.8399 1377.39 92.9799 1374.83 94.1499C1373.26 94.8699 1371.67 95.6099 1370.07 96.3599C1366.21 98.1699 1362.28 100.07 1358.29 102.04C1354.62 103.85 1350.89 105.72 1347.1 107.66C1341.16 110.67 1335.07 113.83 1328.81 117.1C1313.1 125.31 1296.35 134.22 1278.39 143.42C1244.87 160.57 1207.12 178.72 1164 195.19C1161.73 196.06 1159.43 196.92 1157.13 197.78H1438.64Z" fill="url(#paint11_linear_2221_6769)"/>
<path d="M1224.57 73.1498C1221.36 77.2898 1214.91 76.4998 1215.13 70.0498C1215.24 63.5998 1218.23 48.0798 1220.64 47.8598C1222.72 47.7198 1227.66 69.1198 1224.56 73.1498H1224.57Z" fill="#D8D9D9"/>
<path d="M1205.91 109.81C1203.14 113.49 1197.63 112.8 1197.74 107.18C1197.85 101.67 1200.51 88.1999 1202.46 88.0899C1204.3 87.9499 1208.58 106.36 1205.92 109.82H1205.91V109.81Z" fill="#C9C9CA"/>
<path d="M1189.02 102.83C1186.25 106.4 1180.85 105.71 1180.96 100.06C1181.07 94.55 1183.59 81.19 1185.68 80.97C1187.52 80.86 1191.77 99.27 1189.03 102.83H1189.02Z" fill="#D8D9D9"/>
<path d="M1269.51 109.93C1266.74 113.5 1261.34 112.81 1261.45 107.16C1261.56 101.65 1264.08 88.2898 1266.17 88.0698C1268.01 87.9598 1272.26 106.37 1269.52 109.93H1269.51Z" fill="#BDBDBF"/>
<path d="M1151.57 122.93C1149.76 125.26 1146.22 124.82 1146.29 121.12C1146.36 117.51 1148.01 108.76 1149.38 108.62C1150.58 108.55 1153.37 120.6 1151.57 122.93Z" fill="#D8D9D9"/>
<path d="M1194.07 79.2399C1191.88 82.1199 1187.4 81.6499 1187.51 77.1799C1187.62 72.5699 1189.7 61.7599 1191.43 61.6499C1192.91 61.5099 1196.26 76.4899 1194.06 79.2299H1194.07V79.2399Z" fill="#D8D9D9"/>
<path d="M1234.34 79.1298C1232.28 81.8998 1228.14 81.3198 1228.25 77.0698C1228.36 72.9298 1230.31 62.8098 1231.82 62.6998C1233.19 62.5598 1236.43 76.4998 1234.34 79.1298Z" fill="#D8D9D9"/>
<path d="M238.9 98.8099V89.1999L235.12 86.3499L232.05 89.1999V99.3199L238.9 98.8099Z" fill="#F2F2F2"/>
<path d="M232.05 89.2H221.6V104.62L232.05 98.53V89.2Z" fill="#C9C9CA"/>
<path d="M235.12 86.3499H224.14L221.6 89.1999H232.05L235.12 86.3499Z" fill="#D4D5D5"/>
<path d="M225.17 99.0699V76.3899H214.89V101.14L225.17 99.0699Z" fill="#F2F2F2"/>
<path d="M214.89 76.3898L210.98 71.5598V98.1698L214.89 101.14V76.3898Z" fill="#C9C9CA"/>
<path d="M221.61 71.5598H210.98L214.89 76.3898H225.17L221.61 71.5598Z" fill="#D4D5D5"/>
<path d="M305.71 128.1H280.19V63.9999L305.71 63.6399V128.1Z" fill="white"/>
<path d="M304.56 65.21H303.45V67.69H304.56V65.21Z" fill="#D4D5D5"/>
<path d="M301.94 65.21H300.83V67.69H301.94V65.21Z" fill="#D4D5D5"/>
<path d="M299.32 65.21H298.21V67.69H299.32V65.21Z" fill="#D4D5D5"/>
<path d="M296.7 65.21H295.59V67.69H296.7V65.21Z" fill="#D4D5D5"/>
<path d="M294.08 65.21H292.97V67.69H294.08V65.21Z" fill="#D4D5D5"/>
<path d="M291.46 65.21H290.35V67.69H291.46V65.21Z" fill="#D4D5D5"/>
<path d="M304.56 68.99H303.45V71.47H304.56V68.99Z" fill="#D4D5D5"/>
<path d="M301.94 68.99H300.83V71.47H301.94V68.99Z" fill="#D4D5D5"/>
<path d="M299.32 68.99H298.21V71.47H299.32V68.99Z" fill="#D4D5D5"/>
<path d="M296.7 68.99H295.59V71.47H296.7V68.99Z" fill="#D4D5D5"/>
<path d="M294.08 68.99H292.97V71.47H294.08V68.99Z" fill="#D4D5D5"/>
<path d="M291.46 68.99H290.35V71.47H291.46V68.99Z" fill="#D4D5D5"/>
<path d="M304.56 72.78H303.45V75.26H304.56V72.78Z" fill="#D4D5D5"/>
<path d="M301.94 72.78H300.83V75.26H301.94V72.78Z" fill="#D4D5D5"/>
<path d="M299.32 72.78H298.21V75.26H299.32V72.78Z" fill="#D4D5D5"/>
<path d="M296.7 72.78H295.59V75.26H296.7V72.78Z" fill="#D4D5D5"/>
<path d="M294.08 72.78H292.97V75.26H294.08V72.78Z" fill="#D4D5D5"/>
<path d="M291.46 72.78H290.35V75.26H291.46V72.78Z" fill="#D4D5D5"/>
<path d="M304.56 76.5601H303.45V79.0401H304.56V76.5601Z" fill="#D4D5D5"/>
<path d="M301.94 76.5601H300.83V79.0401H301.94V76.5601Z" fill="#D4D5D5"/>
<path d="M299.32 76.5601H298.21V79.0401H299.32V76.5601Z" fill="#D4D5D5"/>
<path d="M296.7 76.5601H295.59V79.0401H296.7V76.5601Z" fill="#D4D5D5"/>
<path d="M294.08 76.5601H292.97V79.0401H294.08V76.5601Z" fill="#D4D5D5"/>
<path d="M291.46 76.5601H290.35V79.0401H291.46V76.5601Z" fill="#D4D5D5"/>
<path d="M304.56 80.3398H303.45V82.8198H304.56V80.3398Z" fill="#D4D5D5"/>
<path d="M301.94 80.3398H300.83V82.8198H301.94V80.3398Z" fill="#D4D5D5"/>
<path d="M299.32 80.3398H298.21V82.8198H299.32V80.3398Z" fill="#D4D5D5"/>
<path d="M296.7 80.3398H295.59V82.8198H296.7V80.3398Z" fill="#D4D5D5"/>
<path d="M294.08 80.3398H292.97V82.8198H294.08V80.3398Z" fill="#D4D5D5"/>
<path d="M291.46 80.3398H290.35V82.8198H291.46V80.3398Z" fill="#D4D5D5"/>
<path d="M304.56 84.1199H303.45V86.5999H304.56V84.1199Z" fill="#D4D5D5"/>
<path d="M301.94 84.1199H300.83V86.5999H301.94V84.1199Z" fill="#D4D5D5"/>
<path d="M299.32 84.1199H298.21V86.5999H299.32V84.1199Z" fill="#D4D5D5"/>
<path d="M296.7 84.1199H295.59V86.5999H296.7V84.1199Z" fill="#D4D5D5"/>
<path d="M294.08 84.1199H292.97V86.5999H294.08V84.1199Z" fill="#D4D5D5"/>
<path d="M291.46 84.1199H290.35V86.5999H291.46V84.1199Z" fill="#D4D5D5"/>
<path d="M304.56 87.9099H303.45V90.3899H304.56V87.9099Z" fill="#D4D5D5"/>
<path d="M301.94 87.9099H300.83V90.3899H301.94V87.9099Z" fill="#D4D5D5"/>
<path d="M299.32 87.9099H298.21V90.3899H299.32V87.9099Z" fill="#D4D5D5"/>
<path d="M296.7 87.9099H295.59V90.3899H296.7V87.9099Z" fill="#D4D5D5"/>
<path d="M294.08 87.9099H292.97V90.3899H294.08V87.9099Z" fill="#D4D5D5"/>
<path d="M291.46 87.9099H290.35V90.3899H291.46V87.9099Z" fill="#D4D5D5"/>
<path d="M304.56 91.6899H303.45V94.1699H304.56V91.6899Z" fill="#D4D5D5"/>
<path d="M301.94 91.6899H300.83V94.1699H301.94V91.6899Z" fill="#D4D5D5"/>
<path d="M299.32 91.6899H298.21V94.1699H299.32V91.6899Z" fill="#D4D5D5"/>
<path d="M296.7 91.6899H295.59V94.1699H296.7V91.6899Z" fill="#D4D5D5"/>
<path d="M294.08 91.6899H292.97V94.1699H294.08V91.6899Z" fill="#D4D5D5"/>
<path d="M291.46 91.6899H290.35V94.1699H291.46V91.6899Z" fill="#D4D5D5"/>
<path d="M304.56 95.47H303.45V97.95H304.56V95.47Z" fill="#D4D5D5"/>
<path d="M301.94 95.47H300.83V97.95H301.94V95.47Z" fill="#D4D5D5"/>
<path d="M299.32 95.47H298.21V97.95H299.32V95.47Z" fill="#D4D5D5"/>
<path d="M296.7 95.47H295.59V97.95H296.7V95.47Z" fill="#D4D5D5"/>
<path d="M294.08 95.47H292.97V97.95H294.08V95.47Z" fill="#D4D5D5"/>
<path d="M291.46 95.47H290.35V97.95H291.46V95.47Z" fill="#D4D5D5"/>
<path d="M304.56 99.26H303.45V101.74H304.56V99.26Z" fill="#D4D5D5"/>
<path d="M301.94 99.26H300.83V101.74H301.94V99.26Z" fill="#D4D5D5"/>
<path d="M299.32 99.26H298.21V101.74H299.32V99.26Z" fill="#D4D5D5"/>
<path d="M296.7 99.26H295.59V101.74H296.7V99.26Z" fill="#D4D5D5"/>
<path d="M294.08 99.26H292.97V101.74H294.08V99.26Z" fill="#D4D5D5"/>
<path d="M291.46 99.26H290.35V101.74H291.46V99.26Z" fill="#D4D5D5"/>
<path d="M304.56 103.04H303.45V105.52H304.56V103.04Z" fill="#D4D5D5"/>
<path d="M301.94 103.04H300.83V105.52H301.94V103.04Z" fill="#D4D5D5"/>
<path d="M299.32 103.04H298.21V105.52H299.32V103.04Z" fill="#D4D5D5"/>
<path d="M296.7 103.04H295.59V105.52H296.7V103.04Z" fill="#D4D5D5"/>
<path d="M294.08 103.04H292.97V105.52H294.08V103.04Z" fill="#D4D5D5"/>
<path d="M291.46 103.04H290.35V105.52H291.46V103.04Z" fill="#D4D5D5"/>
<path d="M304.56 106.82H303.45V109.3H304.56V106.82Z" fill="#D4D5D5"/>
<path d="M301.94 106.82H300.83V109.3H301.94V106.82Z" fill="#D4D5D5"/>
<path d="M299.32 106.82H298.21V109.3H299.32V106.82Z" fill="#D4D5D5"/>
<path d="M296.7 106.82H295.59V109.3H296.7V106.82Z" fill="#D4D5D5"/>
<path d="M294.08 106.82H292.97V109.3H294.08V106.82Z" fill="#D4D5D5"/>
<path d="M291.46 106.82H290.35V109.3H291.46V106.82Z" fill="#D4D5D5"/>
<path d="M304.56 110.6H303.45V113.08H304.56V110.6Z" fill="#D4D5D5"/>
<path d="M301.94 110.6H300.83V113.08H301.94V110.6Z" fill="#D4D5D5"/>
<path d="M299.32 110.6H298.21V113.08H299.32V110.6Z" fill="#D4D5D5"/>
<path d="M296.7 110.6H295.59V113.08H296.7V110.6Z" fill="#D4D5D5"/>
<path d="M301.94 114.36H300.83V116.84H301.94V114.36Z" fill="#D4D5D5"/>
<path d="M299.32 114.36H298.21V116.84H299.32V114.36Z" fill="#D4D5D5"/>
<path d="M296.7 114.65H295.59V117.13H296.7V114.65Z" fill="#D4D5D5"/>
<path d="M294.08 110.6H292.97V113.08H294.08V110.6Z" fill="#D4D5D5"/>
<path d="M291.46 110.6H290.35V113.08H291.46V110.6Z" fill="#D4D5D5"/>
<path d="M317.13 102.7V124.21L313.38 128.69L306.34 129.76L302.54 126.98V102.7H317.13Z" fill="#C9C9CA"/>
<path d="M327.79 128V103.16L321.72 97.7898L317.13 102.52V127.4L327.79 128Z" fill="white"/>
<path d="M321.72 97.7898H309.02L302.54 102.7H317.13L321.72 97.7898Z" fill="#D4D5D5"/>
<path d="M289.14 63.8699V113.72L280.19 113L280.22 64.0499C283.19 63.9899 286.17 63.9299 289.14 63.8699Z" fill="#C9C9CA"/>
<path d="M281.83 116.61V84.95L275.84 88.86V116.03L281.83 116.61Z" fill="white"/>
<path d="M275.84 88.8599H261.33V115.11L275.84 116.03V88.8599Z" fill="#C9C9CA"/>
<path d="M275.84 88.86L281.83 84.95H268.59L261.33 88.86H275.84Z" fill="#D4D5D5"/>
<path d="M280.8 90.1899H277.64V94.4899H280.8V90.1899Z" fill="#D4D5D5"/>
<path d="M280.8 95.0898H277.64V99.3898H280.8V95.0898Z" fill="#D4D5D5"/>
<path d="M280.8 99.99H277.64V104.29H280.8V99.99Z" fill="#D4D5D5"/>
<path d="M280.8 104.88H277.64V109.18H280.8V104.88Z" fill="#D4D5D5"/>
<path d="M326.16 104.19H323.81V108.1H326.16V104.19Z" fill="#D4D5D5"/>
<path d="M321.69 104.19H319.34V108.1H321.69V104.19Z" fill="#D4D5D5"/>
<path d="M326.16 110.22H323.81V114.13H326.16V110.22Z" fill="#D4D5D5"/>
<path d="M321.69 110.22H319.34V114.13H321.69V110.22Z" fill="#D4D5D5"/>
<path d="M326.16 116.23H323.81V120.14H326.16V116.23Z" fill="#D4D5D5"/>
<path d="M321.69 116.23H319.34V120.14H321.69V116.23Z" fill="#D4D5D5"/>
<path d="M526.98 175.3C427.06 140.09 310.95 104.58 231.41 97.1999C108.89 85.8099 33.4 132.88 1.77002 158.75V175.29H526.98V175.3Z" fill="url(#paint12_linear_2221_6769)"/>
<path d="M220.12 104.9C258.55 114.22 284.34 120.97 284.34 146.4C284.34 171.83 267.55 183.46 338.87 196.57C340.56 196.88 342.25 197.29 343.94 197.78H578.49C461.94 153.58 318.9 105.31 231.4 97.1899H231.39C217.6 95.9299 201.25 100.43 220.12 104.9Z" fill="url(#paint13_linear_2221_6769)"/>
<path d="M174.23 115.38C177.11 119.17 182.87 118.37 182.62 112.61C182.51 106.74 179.85 92.8298 177.68 92.5898C175.7 92.4798 171.34 111.71 174.22 115.39H174.23V115.38Z" fill="#D8D9D9"/>
<path d="M158.46 123.77C160.87 126.98 165.81 126.29 165.7 121.36C165.59 116.29 163.29 104.22 161.45 104.11C159.72 104 155.94 120.57 158.46 123.78V123.77Z" fill="#E7E8E8"/>
<path d="M206.08 142.07C208.6 145.28 213.57 144.7 213.43 139.66C213.32 134.72 210.91 122.63 209.18 122.52C207.45 122.41 203.67 138.98 206.08 142.08V142.07Z" fill="#E7E8E8"/>
<path d="M197.36 115.6C199.42 118.12 203.45 117.66 203.34 113.65C203.23 109.65 201.28 99.8499 199.88 99.7399C198.51 99.5999 195.38 112.96 197.36 115.6Z" fill="#D8D9D9"/>
<path d="M132.46 119.52C134.3 122.04 138.11 121.58 137.97 117.79C137.86 113.87 136.13 104.79 134.76 104.68C133.5 104.57 130.62 117.22 132.46 119.52Z" fill="#E7E8E8"/>
<path d="M230.61 137.24C233.02 140.34 237.96 139.76 237.85 134.83C237.74 129.76 235.44 117.69 233.6 117.58C231.98 117.44 228.09 134.01 230.61 137.25V137.24Z" fill="#D8D9D9"/>
<path d="M416.11 144.76C418.52 147.86 423.46 147.28 423.35 142.35C423.24 137.28 420.94 125.21 419.1 125.1C417.48 124.96 413.59 141.53 416.11 144.77V144.76Z" fill="#D8D9D9"/>
<path d="M263.5 143C263.39 144.84 265.91 145.06 267.53 144.73C269.15 144.37 269.72 144.04 269.04 141.38C267.53 135.04 263.75 140.12 263.5 143Z" fill="#E7E8E8"/>
<path d="M158.75 152.92C158.64 154.76 161.16 154.98 162.78 154.65C164.4 154.29 164.97 153.96 164.29 151.3C162.78 144.96 159 150.04 158.75 152.92Z" fill="#E7E8E8"/>
<path d="M109.26 141.58C109.15 143.42 111.67 143.64 113.29 143.31C114.91 142.95 115.48 142.62 114.8 139.96C113.29 133.62 109.51 138.7 109.26 141.58Z" fill="#E7E8E8"/>
<path d="M247.17 131.84C247.28 134.03 250.16 133.9 252 133.35C253.84 132.77 254.41 132.31 253.37 129.32C250.74 122.16 247.06 128.5 247.17 131.84Z" fill="#E7E8E8"/>
<path d="M222.79 124.13C224.41 126.32 227.73 125.86 227.62 122.51C227.62 119.16 226 111.13 224.85 111.02C223.7 111.02 221.17 122.05 222.79 124.13Z" fill="#E7E8E8"/>
<path d="M1438.64 197.78V176.29C1420.26 180.64 1400.91 185.04 1381.25 189.25C1380.22 189.47 1379.18 189.69 1378.14 189.91C1365.28 192.65 1352.31 195.29 1339.4 197.78H1438.65H1438.64Z" fill="url(#paint14_linear_2221_6769)"/>
<path d="M1438.64 197.78V191.28C1428.77 193.5 1418.29 195.68 1407.2 197.78H1438.64Z" fill="url(#paint15_linear_2221_6769)"/>
<path d="M735.48 141.84C735.48 142.04 726.11 142.21 714.56 142.21C703.01 142.21 693.63 142.04 693.63 141.84C693.63 141.64 703 141.48 714.56 141.48C726.12 141.48 735.48 141.65 735.48 141.84Z" fill="#010101"/>
<path d="M747.99 141.84C747.99 142.04 738.62 142.21 727.06 142.21C715.5 142.21 706.14 142.04 706.14 141.84C706.14 141.64 715.51 141.48 727.06 141.48C738.61 141.48 747.99 141.65 747.99 141.84Z" fill="#010101"/>
<path d="M757.76 141.84C757.76 142.04 748.39 142.21 736.84 142.21C725.29 142.21 715.91 142.04 715.91 141.84C715.91 141.64 725.28 141.48 736.84 141.48C748.4 141.48 757.76 141.65 757.76 141.84Z" fill="#010101"/>
<path d="M744.21 141.73H746.91V134.29H744.21V141.73Z" fill="#010101"/>
<path d="M744.21 141.73C745.59 141.73 746.71 140.06 746.71 138.01C746.71 135.96 745.59 134.29 744.21 134.29C742.83 134.29 741.71 135.96 741.71 138.01C741.71 140.06 742.83 141.73 744.21 141.73Z" fill="#010101"/>
<path d="M735.16 141.73H737.86V134.29H735.16V141.73Z" fill="#010101"/>
<path d="M735.16 141.73C736.54 141.73 737.66 140.06 737.66 138.01C737.66 135.96 736.55 134.29 735.16 134.29C733.77 134.29 732.66 135.96 732.66 138.01C732.66 140.06 733.77 141.73 735.16 141.73Z" fill="#010101"/>
<path d="M737.87 141.73C739.25 141.73 740.37 140.06 740.37 138.01C740.37 135.96 739.25 134.29 737.87 134.29C736.49 134.29 735.37 135.96 735.37 138.01C735.37 140.06 736.49 141.73 737.87 141.73Z" fill="#010101"/>
<path d="M737.87 140.85C738.92 140.85 739.78 139.58 739.78 138.01C739.78 136.44 738.93 135.17 737.87 135.17C736.81 135.17 735.96 136.44 735.96 138.01C735.96 139.58 736.81 140.85 737.87 140.85Z" fill="#606768"/>
<path d="M743.75 139.53H750.15V133.86H743.75V139.53Z" fill="#010101"/>
<path d="M713.46 139.53H719.86V133.86H713.46V139.53Z" fill="#010101"/>
<path d="M699.12 141.73H701.82V134.29H699.12V141.73Z" fill="#010101"/>
<path d="M699.12 141.73C700.5 141.73 701.62 140.06 701.62 138.01C701.62 135.96 700.5 134.29 699.12 134.29C697.74 134.29 696.62 135.96 696.62 138.01C696.62 140.06 697.74 141.73 699.12 141.73Z" fill="#010101"/>
<path d="M701.82 141.73C703.2 141.73 704.32 140.06 704.32 138.01C704.32 135.96 703.21 134.29 701.82 134.29C700.43 134.29 699.32 135.96 699.32 138.01C699.32 140.06 700.43 141.73 701.82 141.73Z" fill="#010101"/>
<path d="M701.82 140.85C702.87 140.85 703.73 139.58 703.73 138.01C703.73 136.44 702.88 135.17 701.82 135.17C700.76 135.17 699.91 136.44 699.91 138.01C699.91 139.58 700.76 140.85 701.82 140.85Z" fill="#606768"/>
<path d="M744.25 141.73H746.95V134.29H744.25V141.73Z" fill="#010101"/>
<path d="M745.94 141.73C747.32 141.73 748.44 140.06 748.44 138.01C748.44 135.96 747.32 134.29 745.94 134.29C744.56 134.29 743.44 135.96 743.44 138.01C743.44 140.06 744.56 141.73 745.94 141.73Z" fill="#010101"/>
<path d="M746.55 141.73C747.93 141.73 749.05 140.06 749.05 138.01C749.05 135.96 747.93 134.29 746.55 134.29C745.17 134.29 744.05 135.96 744.05 138.01C744.05 140.06 745.17 141.73 746.55 141.73Z" fill="#606768"/>
<path d="M746.95 140.85C748 140.85 748.86 139.58 748.86 138.01C748.86 136.44 748.01 135.17 746.95 135.17C745.89 135.17 745.04 136.44 745.04 138.01C745.04 139.58 745.89 140.85 746.95 140.85Z" fill="#C1C1C5"/>
<path d="M746.28 138.76C746.56 138.76 746.77 138.43 746.77 138.02C746.77 137.61 746.54 137.28 746.28 137.28C746.02 137.28 745.79 137.61 745.79 138.02C745.79 138.43 746.02 138.76 746.28 138.76Z" fill="#606768"/>
<path d="M713.96 141.73H716.66V134.29H713.96V141.73Z" fill="#010101"/>
<path d="M713.96 141.73C715.34 141.73 716.46 140.06 716.46 138.01C716.46 135.96 715.34 134.29 713.96 134.29C712.58 134.29 711.46 135.96 711.46 138.01C711.46 140.06 712.58 141.73 713.96 141.73Z" fill="#010101"/>
<path d="M716.66 141.73C718.04 141.73 719.16 140.06 719.16 138.01C719.16 135.96 718.05 134.29 716.66 134.29C715.27 134.29 714.16 135.96 714.16 138.01C714.16 140.06 715.27 141.73 716.66 141.73Z" fill="#606768"/>
<path d="M716.66 140.85C717.71 140.85 718.57 139.58 718.57 138.01C718.57 136.44 717.72 135.17 716.66 135.17C715.6 135.17 714.75 136.44 714.75 138.01C714.75 139.58 715.6 140.85 716.66 140.85Z" fill="#C1C1C5"/>
<path d="M715.99 138.76C716.27 138.76 716.48 138.43 716.48 138.02C716.48 137.61 716.25 137.28 715.99 137.28C715.73 137.28 715.5 137.61 715.5 138.02C715.5 138.43 715.73 138.76 715.99 138.76Z" fill="#1F3656"/>
<path d="M696.4 139.52H713.94V138.06C713.94 135.82 715.14 133.97 716.64 133.96C718.14 133.95 719.37 135.77 719.37 138.01V139.52H744.23V138.06C744.23 135.82 745.43 133.97 746.93 133.96C747.25 133.97 747.56 134.05 747.84 134.19C748.12 134.33 748.37 134.53 748.57 134.78C748.61 134.82 748.64 134.86 748.67 134.9L748.77 135.03C748.77 135.03 748.84 135.12 748.86 135.16L748.95 135.3L748.99 135.37L749.07 135.52C749.09 135.57 749.12 135.62 749.15 135.68L749.19 135.76C749.23 135.84 749.26 135.92 749.29 136.01C749.38 136.24 749.45 136.48 749.51 136.72C749.55 136.91 749.58 137.11 749.61 137.3C749.64 137.54 749.65 137.78 749.65 138.02V139.53H755.88C756.08 139.53 756.24 139.29 756.24 138.99V116.03C756.24 115.73 756.08 115.49 755.88 115.49H702.82C702.7 115.49 702.57 115.51 702.45 115.55L698.44 116.91C698.28 116.97 698.14 117.06 698.03 117.19C697.95 117.27 697.88 117.36 697.83 117.46C697.71 117.66 697.63 117.88 697.59 118.11C697.59 118.16 697.57 118.22 697.56 118.28L697.52 118.59L695.53 135.16L695.25 137.5C695.13 138.55 695.67 139.51 696.38 139.51H696.39L696.4 139.52Z" fill="#D84F55"/>
<path d="M696.4 139.52H713.94V138.06C713.94 135.82 715.14 133.97 716.64 133.96C718.14 133.95 719.37 135.77 719.37 138.01V139.52H744.23V138.06C744.23 135.82 745.43 133.97 746.93 133.96C747.25 133.97 747.56 134.05 747.84 134.19C748.12 134.33 748.37 134.53 748.57 134.78C748.61 134.82 748.64 134.86 748.67 134.9L748.77 135.03C748.77 135.03 748.84 135.12 748.86 135.16L748.95 135.3L748.99 135.37L749.07 135.52C749.09 135.57 749.12 135.62 749.15 135.68L749.19 135.76C749.23 135.84 749.26 135.92 749.29 136.01C749.38 136.24 749.45 136.48 749.51 136.72C749.55 136.91 749.59 137.11 749.61 137.3C749.64 137.54 749.65 137.78 749.65 138.02V139.53H755.88C756.08 139.53 756.24 139.29 756.24 138.99V133.58H720.6C720.45 133.58 720.3 133.53 720.17 133.46C720.04 133.39 719.92 133.29 719.84 133.17L716.13 128.84C715.92 128.57 715.8 128.24 715.8 127.89L715.43 118.16C715.17 118.16 714.91 118.06 714.72 117.88C714.53 117.7 714.41 117.45 714.41 117.19H698.06C697.98 117.27 697.91 117.36 697.86 117.46C697.71 117.71 697.62 117.99 697.59 118.28L697.55 118.59L695.52 135.49L695.27 137.51V137.71C695.22 138.68 695.73 139.53 696.4 139.53V139.52Z" fill="#D84F55"/>
<path d="M756.25 137.52H755.73C755.66 137.52 755.58 137.49 755.53 137.44C755.48 137.39 755.45 137.32 755.45 137.24V135.78C755.45 135.71 755.48 135.63 755.53 135.58C755.58 135.53 755.65 135.5 755.73 135.5H756.25V137.52Z" fill="#606768"/>
<path d="M717.88 129.23H755.08C755.08 129.23 755.15 129.22 755.17 129.19C755.19 129.17 755.21 129.13 755.21 129.1C755.21 129.09 755.21 129.06 755.21 129.05C755.21 129.04 755.2 129.02 755.18 129.01C755.17 129 755.15 128.99 755.14 128.98C755.13 128.98 755.1 128.98 755.09 128.98H717.89C717.89 128.98 717.85 128.98 717.84 128.98C717.83 128.98 717.81 128.99 717.8 129.01C717.79 129.02 717.78 129.04 717.77 129.05C717.77 129.06 717.77 129.09 717.77 129.1C717.77 129.11 717.77 129.14 717.77 129.15C717.77 129.16 717.78 129.18 717.8 129.19C717.82 129.2 717.83 129.21 717.84 129.22C717.85 129.22 717.88 129.22 717.89 129.22L717.88 129.23Z" fill="#BD2833"/>
<path d="M718.77 130.13H755.07C755.07 130.13 755.11 130.13 755.12 130.13C755.13 130.13 755.15 130.12 755.16 130.1C755.17 130.09 755.18 130.07 755.19 130.06C755.19 130.05 755.19 130.02 755.19 130.01C755.19 130 755.19 129.97 755.19 129.96C755.19 129.95 755.18 129.93 755.16 129.92C755.15 129.91 755.13 129.9 755.12 129.89C755.11 129.89 755.08 129.89 755.07 129.89H718.77C718.77 129.89 718.7 129.9 718.68 129.93C718.65 129.96 718.64 129.99 718.64 130.02C718.64 130.05 718.65 130.09 718.68 130.11C718.71 130.14 718.74 130.15 718.77 130.15V130.13Z" fill="#BD2833"/>
<path d="M719.66 131.02H755.06C755.06 131.02 755.1 131.02 755.11 131.02C755.12 131.02 755.14 131.01 755.15 130.99C755.16 130.98 755.17 130.96 755.18 130.95C755.18 130.94 755.18 130.91 755.18 130.9C755.18 130.89 755.18 130.86 755.18 130.85C755.18 130.84 755.17 130.82 755.15 130.81C755.14 130.8 755.12 130.79 755.11 130.78C755.1 130.78 755.07 130.78 755.06 130.78H719.66C719.66 130.78 719.59 130.79 719.57 130.82C719.55 130.85 719.53 130.88 719.53 130.91C719.53 130.94 719.54 130.98 719.57 131C719.6 131.02 719.63 131.04 719.66 131.04V131.02Z" fill="#BD2833"/>
<path d="M720.56 131.93H755.07C755.07 131.93 755.11 131.93 755.12 131.93C755.13 131.93 755.15 131.92 755.16 131.9C755.17 131.89 755.18 131.87 755.19 131.86C755.19 131.85 755.19 131.82 755.19 131.81C755.19 131.8 755.19 131.77 755.19 131.76C755.19 131.75 755.18 131.73 755.16 131.72C755.15 131.71 755.13 131.7 755.12 131.69C755.11 131.69 755.08 131.69 755.07 131.69H720.56C720.56 131.69 720.49 131.7 720.47 131.73C720.45 131.76 720.43 131.79 720.43 131.82C720.43 131.85 720.44 131.89 720.47 131.91C720.5 131.94 720.53 131.95 720.56 131.95V131.93Z" fill="#BD2833"/>
<path d="M695.26 137.71V137.51L695.51 135.49H713.05C713.25 135.49 713.38 135.81 713.29 136.07L712.84 137.42C712.81 137.5 712.76 137.57 712.69 137.62C712.62 137.67 712.54 137.69 712.46 137.7H695.26V137.71Z" fill="white"/>
<path d="M697.61 137.71H710.41L710.72 135.5H697.87L697.63 137.52C697.63 137.59 697.62 137.65 697.62 137.72L697.61 137.71Z" fill="#010101"/>
<path d="M719.2 117.21L716.07 118.27C715.94 118.34 715.85 118.44 715.79 118.56C715.73 118.68 715.71 118.82 715.72 118.95L715.77 120.3L715.8 121.23L715.87 122.97L715.99 125.94V126.28L716.03 126.97C716.03 127.21 716.25 127.27 716.33 127.06L716.41 126.8L716.58 126.29L716.95 125.18L717.27 124.23L717.98 122.17L718.61 120.29L719.47 117.73C719.57 117.45 719.4 117.14 719.2 117.21ZM715.37 126.28L715.31 124.54L715.19 121.58L715.14 120.3L715.12 119.83L715.08 118.88C715.07 118.67 714.98 118.47 714.82 118.32C714.67 118.18 714.47 118.1 714.25 118.1H697.62C697.62 118.1 697.59 118.21 697.59 118.27V118.29L697.54 118.58L697.33 120.4L697.24 121.12L696.78 124.98L696.61 126.39L695.88 132.52L695.56 135.17H713.1C713.23 135.17 713.35 135.13 713.46 135.04C713.61 134.93 713.75 134.74 713.83 134.5L713.9 134.3L714.04 133.86L714.17 133.49L714.54 132.39L714.95 131.13L715.31 130.07C715.44 129.67 715.5 129.25 715.48 128.83L715.37 126.28ZM756.14 117.19C756.03 117.19 755.91 117.23 755.82 117.29C755.72 117.36 755.66 117.45 755.62 117.56L754.68 120.36L754.62 120.54L753.5 123.87L752.55 126.7C752.47 126.93 752.58 127.19 752.74 127.19H756.25V117.19H756.14ZM754.62 117.2H720.69C720.52 117.2 720.37 117.34 720.28 117.57L719.36 120.29L718.42 123.08L717.72 125.15L717.4 126.09L717.34 126.3L717.2 126.7C717.14 126.93 717.25 127.19 717.42 127.19H751.35C751.42 127.18 751.47 127.16 751.53 127.13C751.58 127.1 751.63 127.05 751.66 127C751.7 126.95 751.73 126.89 751.75 126.82L753.05 122.97L753.87 120.53L754.23 119.46L754.83 117.68C754.9 117.46 754.79 117.2 754.62 117.2Z" fill="#2A2F36"/>
<path d="M447.11 178.44C422.75 174.43 386.08 170.67 366.58 155.26C358.83 148.9 352.84 140.87 345.5 134.13C339.1 128.25 331.89 123.18 324.1 119.29C298.9 106.79 270.54 102.99 243.17 97.8301C261.61 100.93 280.12 103.81 298.2 108.69C316.24 113.54 334.06 121.26 347.68 134.37C354.55 140.66 360.35 148.16 367.62 153.95C371.2 156.87 375.3 159.01 379.44 161.02C401.02 169.85 424.47 172.5 447.47 175.79L447.11 178.44Z" fill="#F4F4F4"/>
<path d="M1438.64 200V-0.77H1431.69L1430.25 4.71L1429.99 5.68L1425.49 22.79L1421.98 36.09L1421.66 37.32L1420.94 40.06L1420.89 40.26L1419.74 44.64L1419.69 44.83L1418.89 47.88L1417.17 54.39L1416.24 57.95L1413.43 68.62L1411.62 75.45L1410.71 78.95L1410.64 79.22L1409.8 82.39L1408.75 86.36L1406.99 93.06L1406.48 95H1429.77L1424.62 95.61L1413.55 96.92L1405.72 97.85L1403.29 107.05L1402.14 111.43L1401.68 113.16L1400.81 116.48L1392.07 149.63L1385.68 125.32L1385.18 123.41L1383.66 117.61L1381.86 110.78L1375.5 110.03H1381.64L1381.1 107.96L1379.75 102.85L1379.1 100.4L1376.99 92.4L1371.22 70.49L1365.26 93.11L1364.77 94.98L1363.83 98.56L1362.17 104.85L1359.74 114.09L1354.63 133.51L1351.69 144.67H1365.89L1351.22 146.41L1339.62 190.41C1204.59 192.49 1069.56 188.12 934.54 182.47C918.96 181.82 807.36 181.15 791.78 180.47H791.77C777.9 179.87 764.05 179.26 750.18 178.65C725.04 177.54 699.89 176.42 674.75 175.34H674.73C614.59 172.74 456.44 170.31 396.28 168.51C299.06 165.58 201.84 164.33 104.63 166.61L99.9501 147.57L85.1101 144.28L99.6701 144.78L91.9901 110.04L90.3801 102.75L83.2601 70.56L82.4801 67.05L82.1001 65.38L81.6901 67.17L80.9201 70.56L74.5601 98.45L70.1101 117.97L65.9401 136.27L62.5101 121.18L50.7601 69.53L50.5201 68.46L42.4901 67.37H50.2401L45.6901 47.45L38.8001 17.31L37.0801 9.76L35.4101 17.11L29.9901 40.88L28.0201 49.51L23.5301 69.23L21.7501 61.38L19.4301 51.2L14.5901 29.93L14.3501 28.87L6.31012 27.78H14.0601L7.81012 0.44L7.53012 -0.77L7.42012 -1.25H-2.62988V200H1438.64ZM1388.81 161.97L1388.65 162.61L1383.15 161.97H1388.81ZM1387.79 165.88L1387.64 166.42L1383.15 165.88H1387.79ZM75.3601 173.47L74.4601 173.59L74.4301 173.47H75.3601ZM64.3801 143.06L64.0201 144.67L52.1301 143.06H64.3801ZM63.0801 148.77L62.7501 150.23L52.1301 148.77H63.0801Z" fill="#F4F4F4"/>
</g>
<defs>
<linearGradient id="paint0_linear_2221_6769" x1="171.94" y1="22.7598" x2="171.94" y2="109.82" gradientUnits="userSpaceOnUse">
<stop stop-color="#C9C9CA"/>
<stop offset="1" stop-color="white" stop-opacity="0.3"/>
</linearGradient>
<linearGradient id="paint1_linear_2221_6769" x1="375.15" y1="95.02" x2="375.15" y2="182.08" gradientUnits="userSpaceOnUse">
<stop stop-color="#C9C9CA"/>
<stop offset="0.81" stop-color="white" stop-opacity="0.3"/>
</linearGradient>
<linearGradient id="paint2_linear_2221_6769" x1="1157.54" y1="-56.61" x2="1071.92" y2="474.75" gradientUnits="userSpaceOnUse">
<stop stop-color="#F5F5F5"/>
<stop offset="0.22" stop-color="#E8E8E8"/>
<stop offset="0.36" stop-color="#E4E5E5"/>
<stop offset="0.51" stop-color="#D0D0D1"/>
<stop offset="0.69" stop-color="#B3B3B5"/>
<stop offset="0.87" stop-color="#8E8E91"/>
<stop offset="1" stop-color="#6D6E71"/>
</linearGradient>
<linearGradient id="paint3_linear_2221_6769" x1="1362.85" y1="30.47" x2="1362.85" y2="101.22" gradientUnits="userSpaceOnUse">
<stop stop-color="#F5F5F5"/>
<stop offset="0.17" stop-color="#F1F1F1"/>
<stop offset="0.34" stop-color="#E4E5E5"/>
<stop offset="0.51" stop-color="#D0D0D1"/>
<stop offset="0.69" stop-color="#B3B3B5"/>
<stop offset="0.87" stop-color="#8E8E91"/>
<stop offset="1" stop-color="#6D6E71"/>
</linearGradient>
<linearGradient id="paint4_linear_2221_6769" x1="341.74" y1="152.96" x2="1087.87" y2="154.86" gradientUnits="userSpaceOnUse">
<stop stop-color="#F5F5F5" stop-opacity="0"/>
<stop offset="0.27" stop-color="#FDFDFD"/>
<stop offset="0.67" stop-color="white"/>
<stop offset="1" stop-color="#F5F5F5" stop-opacity="0"/>
</linearGradient>
<linearGradient id="paint5_linear_2221_6769" x1="1426.46" y1="-44.6701" x2="1363.09" y2="92.7899" gradientUnits="userSpaceOnUse">
<stop stop-color="#F5F5F5"/>
<stop offset="0.17" stop-color="#F1F1F1"/>
<stop offset="0.34" stop-color="#E4E5E5"/>
<stop offset="0.51" stop-color="#D0D0D1"/>
<stop offset="0.69" stop-color="#B3B3B5"/>
<stop offset="0.87" stop-color="#8E8E91"/>
<stop offset="1" stop-color="#6D6E71"/>
</linearGradient>
<linearGradient id="paint6_linear_2221_6769" x1="1421.02" y1="-8.99026" x2="1262.8" y2="224.24" gradientUnits="userSpaceOnUse">
<stop stop-color="#F5F5F5"/>
<stop offset="0.17" stop-color="#F1F1F1"/>
<stop offset="0.34" stop-color="#E4E5E5"/>
<stop offset="0.51" stop-color="#D0D0D1"/>
<stop offset="0.69" stop-color="#B3B3B5"/>
<stop offset="0.87" stop-color="#8E8E91"/>
<stop offset="1" stop-color="#6D6E71"/>
</linearGradient>
<linearGradient id="paint7_linear_2221_6769" x1="1310.22" y1="-22.1401" x2="1302.88" y2="187.07" gradientUnits="userSpaceOnUse">
<stop stop-color="#F5F5F5"/>
<stop offset="0.48" stop-color="#D0D0D1"/>
<stop offset="0.66" stop-color="#B3B3B5"/>
<stop offset="0.77" stop-color="#8E8E91"/>
<stop offset="0.95" stop-color="#6D6E71"/>
</linearGradient>
<linearGradient id="paint8_linear_2221_6769" x1="1432.72" y1="-16.5902" x2="1377.8" y2="102.54" gradientUnits="userSpaceOnUse">
<stop stop-color="#F5F5F5"/>
<stop offset="0.17" stop-color="#F1F1F1"/>
<stop offset="0.34" stop-color="#E4E5E5"/>
<stop offset="0.51" stop-color="#D0D0D1"/>
<stop offset="0.69" stop-color="#B3B3B5"/>
<stop offset="0.87" stop-color="#8E8E91"/>
<stop offset="1" stop-color="#6D6E71"/>
</linearGradient>
<linearGradient id="paint9_linear_2221_6769" x1="375.15" y1="128.68" x2="1438.64" y2="128.68" gradientUnits="userSpaceOnUse">
<stop offset="0.17" stop-color="#F1F1F1"/>
<stop offset="0.34" stop-color="#E4E5E5"/>
</linearGradient>
<linearGradient id="paint10_linear_2221_6769" x1="1117.28" y1="-207.86" x2="1431.73" y2="503.23" gradientUnits="userSpaceOnUse">
<stop stop-color="#F5F5F5"/>
<stop offset="0.17" stop-color="#F1F1F1"/>
<stop offset="0.34" stop-color="#E4E5E5"/>
<stop offset="0.43" stop-color="#DEDEDF"/>
<stop offset="0.54" stop-color="#D0D0D1"/>
<stop offset="0.69" stop-color="#B3B3B5"/>
<stop offset="0.87" stop-color="#8E8E91"/>
<stop offset="1" stop-color="#6D6E71"/>
</linearGradient>
<linearGradient id="paint11_linear_2221_6769" x1="1570.73" y1="-340.73" x2="908.57" y2="966.14" gradientUnits="userSpaceOnUse">
<stop stop-color="#F5F5F5"/>
<stop offset="0.17" stop-color="#F1F1F1"/>
<stop offset="0.34" stop-color="#E4E5E5"/>
<stop offset="0.51" stop-color="#D0D0D1"/>
<stop offset="0.69" stop-color="#B3B3B5"/>
<stop offset="0.87" stop-color="#8E8E91"/>
<stop offset="1" stop-color="#6D6E71"/>
</linearGradient>
<linearGradient id="paint12_linear_2221_6769" x1="267.9" y1="93.8899" x2="254.15" y2="379.05" gradientUnits="userSpaceOnUse">
<stop stop-color="#F5F5F5"/>
<stop offset="0.17" stop-color="#F1F1F1"/>
<stop offset="0.34" stop-color="#E4E5E5"/>
<stop offset="0.51" stop-color="#D0D0D1"/>
<stop offset="0.69" stop-color="#B3B3B5"/>
<stop offset="0.87" stop-color="#8E8E91"/>
<stop offset="1" stop-color="#6D6E71"/>
</linearGradient>
<linearGradient id="paint13_linear_2221_6769" x1="490.9" y1="-57.5501" x2="133.09" y2="714" gradientUnits="userSpaceOnUse">
<stop stop-color="#F5F5F5"/>
<stop offset="0.17" stop-color="#F1F1F1"/>
<stop offset="0.34" stop-color="#E4E5E5"/>
<stop offset="0.51" stop-color="#D0D0D1"/>
<stop offset="0.69" stop-color="#B3B3B5"/>
<stop offset="0.87" stop-color="#8E8E91"/>
<stop offset="1" stop-color="#6D6E71"/>
</linearGradient>
<linearGradient id="paint14_linear_2221_6769" x1="1360.55" y1="282.55" x2="1165" y2="864.91" gradientUnits="userSpaceOnUse">
<stop stop-color="#F5F5F5"/>
<stop offset="0.17" stop-color="#F1F1F1"/>
<stop offset="0.34" stop-color="#E4E5E5"/>
<stop offset="0.51" stop-color="#D0D0D1"/>
<stop offset="0.69" stop-color="#B3B3B5"/>
<stop offset="0.87" stop-color="#8E8E91"/>
<stop offset="1" stop-color="#6D6E71"/>
</linearGradient>
<linearGradient id="paint15_linear_2221_6769" x1="1199.4" y1="228.13" x2="1558.48" y2="177.71" gradientUnits="userSpaceOnUse">
<stop stop-color="#F5F5F5"/>
<stop offset="0.17" stop-color="#F1F1F1"/>
<stop offset="0.34" stop-color="#E4E5E5"/>
<stop offset="0.51" stop-color="#D0D0D1"/>
<stop offset="0.69" stop-color="#B3B3B5"/>
<stop offset="0.87" stop-color="#8E8E91"/>
<stop offset="1" stop-color="#6D6E71"/>
</linearGradient>
<clipPath id="clip0_2221_6769">
<rect width="1440" height="200" fill="white" transform="translate(-1)"/>
</clipPath>
</defs>
</svg>
