<svg width="52" height="52" viewBox="0 0 52 52" fill="none" xmlns="http://www.w3.org/2000/svg">
<circle cx="26" cy="26" r="26" fill="#ABABAB"/>
<path d="M25.9999 13.2102C30.1653 13.2102 30.6587 13.2261 32.3036 13.3012C33.8246 13.3705 34.6506 13.6247 35.2003 13.8383C35.9285 14.1213 36.4482 14.4593 36.994 15.0052C37.54 15.5511 37.878 16.0708 38.161 16.799C38.3746 17.3487 38.6288 18.1747 38.6981 19.6956C38.7732 21.3406 38.7891 21.834 38.7891 25.9993C38.7891 30.1647 38.7732 30.6581 38.6981 32.3031C38.6288 33.8241 38.3746 34.6501 38.161 35.1998C37.878 35.9279 37.54 36.4476 36.9941 36.9935C36.4482 37.5394 35.9285 37.8774 35.2003 38.1604C34.6506 38.3741 33.8246 38.6282 32.3036 38.6975C30.6589 38.7726 30.1656 38.7885 25.9999 38.7885C21.8342 38.7885 21.3409 38.7726 19.6962 38.6975C18.1752 38.6282 17.3492 38.3741 16.7995 38.1604C16.0713 37.8774 15.5516 37.5394 15.0058 36.9935C14.4599 36.4476 14.1218 35.9279 13.8388 35.1998C13.6252 34.6501 13.371 33.8241 13.3017 32.3031C13.2266 30.6581 13.2107 30.1647 13.2107 25.9993C13.2107 21.834 13.2266 21.3406 13.3017 19.6956C13.371 18.1747 13.6252 17.3487 13.8388 16.799C14.1218 16.0708 14.4598 15.5511 15.0058 15.0053C15.5516 14.4593 16.0713 14.1213 16.7995 13.8383C17.3492 13.6247 18.1752 13.3705 19.6962 13.3012C21.3411 13.2261 21.8345 13.2102 25.9999 13.2102ZM25.9999 10.3994C21.7632 10.3994 21.2319 10.4174 19.568 10.4933C17.9076 10.569 16.7736 10.8328 15.7813 11.2184C14.7555 11.617 13.8855 12.1504 13.0182 13.0177C12.1509 13.885 11.6175 14.755 11.2189 15.7808C10.8332 16.7731 10.5695 17.9071 10.4938 19.5675C10.4179 21.2314 10.3999 21.7627 10.3999 25.9993C10.3999 30.236 10.4179 30.7673 10.4938 32.4312C10.5695 34.0916 10.8332 35.2256 11.2189 36.2179C11.6175 37.2438 12.1509 38.1137 13.0182 38.981C13.8855 39.8483 14.7555 40.3817 15.7813 40.7803C16.7736 41.166 17.9076 41.4297 19.568 41.5054C21.2319 41.5813 21.7632 41.5993 25.9999 41.5993C30.2366 41.5993 30.7679 41.5813 32.4318 41.5054C34.0922 41.4297 35.2262 41.166 36.2185 40.7803C37.2443 40.3817 38.1143 39.8483 38.9816 38.981C39.8489 38.1137 40.3823 37.2438 40.781 36.2179C41.1666 35.2256 41.4303 34.0916 41.506 32.4312C41.5819 30.7673 41.5999 30.236 41.5999 25.9993C41.5999 21.7627 41.5819 21.2314 41.506 19.5675C41.4303 17.9071 41.1666 16.7731 40.781 15.7808C40.3823 14.755 39.8489 13.885 38.9816 13.0177C38.1143 12.1504 37.2443 11.617 36.2185 11.2184C35.2262 10.8328 34.0922 10.569 32.4318 10.4933C30.7679 10.4174 30.2366 10.3994 25.9999 10.3994Z" fill="white"/>
<path d="M26.0072 17.9961C21.5829 17.9961 17.9963 21.5826 17.9963 26.0068C17.9963 30.4311 21.5829 34.0177 26.0072 34.0177C30.4314 34.0177 34.018 30.4311 34.018 26.0068C34.018 21.5826 30.4314 17.9961 26.0072 17.9961ZM26.0072 31.2069C23.1352 31.2069 20.8071 28.8788 20.8071 26.0068C20.8071 23.135 23.1352 20.8069 26.0072 20.8069C28.879 20.8069 31.2071 23.135 31.2071 26.0068C31.2071 28.8788 28.879 31.2069 26.0072 31.2069Z" fill="white"/>
<path d="M36.2057 17.6757C36.2057 18.7096 35.3675 19.5477 34.3336 19.5477C33.2998 19.5477 32.4617 18.7096 32.4617 17.6757C32.4617 16.6419 33.2998 15.8037 34.3336 15.8037C35.3675 15.8037 36.2057 16.6419 36.2057 17.6757Z" fill="white"/>
</svg>
