<svg width="24" height="25" viewBox="0 0 24 25" fill="none" xmlns="http://www.w3.org/2000/svg">
<path fill-rule="evenodd" clip-rule="evenodd" d="M17.0962 4.40381C15.8772 3.18482 14.2239 2.5 12.5 2.5C10.7761 2.5 9.12279 3.18482 7.90381 4.40381C6.68482 5.62279 6 7.27609 6 9C6 11.93 11.34 21.5 12.5 21.5C13.66 21.5 19 11.93 19 9C19 7.27609 18.3152 5.62279 17.0962 4.40381ZM12.5 7C12.8956 7 13.2822 7.1173 13.6111 7.33706C13.94 7.55682 14.1964 7.86918 14.3478 8.23463C14.4991 8.60009 14.5387 9.00222 14.4616 9.39018C14.3844 9.77814 14.1939 10.1345 13.9142 10.4142C13.6345 10.6939 13.2781 10.8844 12.8902 10.9616C12.5022 11.0387 12.1001 10.9991 11.7346 10.8478C11.3692 10.6964 11.0568 10.44 10.8371 10.1111C10.6173 9.78224 10.5 9.39556 10.5 9C10.5 8.46957 10.7107 7.96086 11.0858 7.58579C11.4609 7.21071 11.9696 7 12.5 7Z" fill="#3E3E52"/>
</svg>
