<svg width="370" height="151" viewBox="0 0 370 151" fill="none" xmlns="http://www.w3.org/2000/svg">
<path d="M314.358 14.6641H78.375V136.224H314.358V14.6641Z" fill="#E6E8E9"/>
<path d="M288.443 84.0467C294.002 68.4388 285.922 51.2557 270.395 45.6673C254.867 40.0788 237.773 48.2012 232.214 63.8091C226.654 79.4171 234.735 96.6002 250.262 102.189C265.789 107.777 282.883 99.6547 288.443 84.0467Z" fill="white"/>
<path d="M281.109 52.3738C281.018 52.5968 280.937 52.7995 280.867 52.9312C280.383 53.894 278.83 53.1339 277.328 52.7893C275.816 52.4448 274.646 52.2725 271.289 52.9312C267.932 53.5798 268.587 54.9378 268.083 56.1134C267.569 57.2889 267.398 57.7956 265.059 57.1065C262.71 56.4174 263.718 55.9208 262.095 55.404C260.471 54.877 259.362 56.4073 258.344 58.424C257.326 60.4407 259.342 59.103 262.195 59.9644C265.039 60.8156 261.681 61.6467 260.169 61.9709C258.657 62.3054 259.322 64.1599 259.322 64.1599C259.322 64.1599 257.467 65.8321 256.691 67.413C255.925 68.994 256.106 69.3689 257.276 69.7135C258.445 70.0581 258.788 68.5379 260.371 67.7069C261.954 66.8759 263.325 68.2238 265.159 68.9129C267.004 69.5919 267.67 70.6154 266.662 71.6187C265.643 72.622 267.66 72.2977 268.497 72.47C269.333 72.6423 269.656 76.017 271.834 77.1014C274.001 78.1857 273.507 76.7162 274.193 74.6894C274.868 72.6727 274.697 74.0205 275.685 77.4054C276.673 80.8003 277.197 77.5777 281.058 76.0778C284.93 74.5779 284.244 77.2736 286.755 77.456C289.275 77.6385 287.601 75.946 289.456 74.6083L290.192 74.3246C290.203 74.2435 290.203 74.1726 290.203 74.0915C290.253 65.5686 286.755 57.8564 281.109 52.3738V52.3738ZM287.38 86.06C287.38 86.06 284.678 88.7456 284.345 89.0192C284.012 89.303 282.319 90.9244 281.149 91.7554C280.07 92.5256 280.948 94.289 282.137 94.4613C284.325 92.1101 286.15 89.4043 287.491 86.435C287.43 86.2019 287.38 86.06 287.38 86.06ZM270.644 78.885C269.807 78.885 269.142 78.3783 267.801 77.0811C266.47 75.7839 268.658 73.3111 264.464 73.4328C260.27 73.5442 261.953 72.774 259.947 71.0715C257.951 69.3791 256.761 71.3958 254.412 72.0545C252.063 72.7234 252.729 73.5645 252.033 78.1148C251.337 82.665 253.364 80.1416 254.876 80.1517C256.378 80.1619 257.215 80.3342 259.393 82.0367C261.56 83.7291 260.048 85.2391 260.27 86.587C260.502 87.9348 260.512 91.9885 262.689 93.1742C262.689 93.1742 263.526 92.6777 266.218 91.0055C268.91 89.3334 266.571 88.4821 267.246 86.962C267.922 85.452 267.932 83.9318 270.634 81.8442C273.326 79.7667 271.481 78.8951 270.644 78.885V78.885ZM256.691 53.6913C256.197 51.6644 256.036 50.4889 256.378 49.9822C256.711 49.4754 254.705 48.7863 252.184 48.9485C249.664 49.1005 248.827 49.4349 248.827 49.4349C247.98 50.276 246.307 51.1071 246.801 52.2928C247.295 53.4683 247.103 54.9885 246.69 56.6707C246.266 58.353 247.002 60.8866 247.718 60.0556C248.444 59.2144 251.801 57.5423 253.485 57.3801C255.158 57.2281 257.185 55.7181 256.691 53.6913ZM245.571 63.0756C243.403 61.2109 243.151 59.8529 241.346 60.8562C239.542 61.8595 235.932 63.6938 238.665 61.1805C241.397 58.6672 242.576 57.8362 243.585 58.1706C244.583 58.5152 245.934 57.3396 244.431 56.4883C242.929 55.6371 243.595 54.9682 239.905 55.4546C238.12 55.6877 237.082 55.8093 236.487 55.8701C233.16 60.2887 231.023 65.6699 230.579 71.5275C230.69 71.7809 230.761 71.9329 230.761 71.9329C230.761 71.9329 233.553 75.7839 234.128 77.983C234.44 79.1687 235.116 73.301 235.126 71.2843C235.136 69.2575 233.634 68.2339 236.144 68.2542C238.665 68.2542 241.417 69.7946 241.306 67.7677C241.195 65.751 243.212 65.4267 244.381 65.4267C245.561 65.4267 247.738 64.9403 245.571 63.0756V63.0756ZM246.276 87.5295C246.78 87.0228 249.805 86.5363 247.133 83.6481C244.472 80.7699 245.137 80.9422 241.79 79.2397C238.443 77.5371 236.104 76.1791 235.6 77.3547C235.086 78.5303 235.58 81.3983 235.58 81.3983C235.58 81.3983 233.392 82.5637 234.561 83.415C235.731 84.2662 238.564 86.6377 238.725 88.3301C238.886 90.0124 240.963 92.7283 241.165 94.2383C241.367 95.7585 243.373 98.3022 244.038 98.8089C244.704 99.3156 247.043 100.684 247.043 100.684L244.875 98.14C244.875 98.14 244.552 96.7922 243.887 95.6064C243.222 94.4207 243.393 93.2452 244.24 91.5629C245.087 89.8806 245.772 88.0261 246.276 87.5295V87.5295Z" fill="#C1C1C5"/>
<path opacity="0.21" d="M214.257 14.6641L314.358 136.234V14.6641H214.257Z" fill="white"/>
<path d="M135.791 31.6089H90.5137V34.2134H135.791V31.6089Z" fill="white"/>
<path d="M114.216 37.1724H90.5137V39.7769H114.216V37.1724Z" fill="white"/>
<path d="M261.44 124.489H306.717V121.884H261.44V124.489Z" fill="white"/>
<path d="M306.717 127.448H283.015V130.052H306.717V127.448Z" fill="white"/>
<path d="M204.307 42.7762C200.365 42.7762 192.491 42.7661 192.491 42.7661C192.491 42.7661 174.808 97.0957 170.866 107.99C170.432 109.176 169.646 109.956 168.426 110.361H168.849C174.757 110.361 180.655 110.361 186.563 110.361C188.146 110.361 189.285 109.561 189.829 108.051C195.314 92.9204 209.751 46.1307 209.751 46.1307L204.327 42.7762H204.307Z" fill="white"/>
<path d="M125.104 136.305C125.447 135.363 125.78 134.44 126.113 133.518C131.607 118.357 140.197 94.2176 145.681 79.0567C146.125 77.8305 146.871 76.9488 148.161 76.6144C148.353 76.5637 148.565 76.5435 148.756 76.5435C154.805 76.5435 160.844 76.5435 166.893 76.5435C166.954 76.5435 167.014 76.5435 167.075 76.5536C167.075 76.6752 166.964 76.6549 166.903 76.6752C165.835 77.0502 165.129 77.7798 164.736 78.8541C159.251 93.9946 150.662 118.124 145.177 133.265C144.845 134.177 144.512 135.079 144.189 135.991C144.109 136.224 144.008 136.346 143.736 136.346C137.596 136.346 131.456 136.346 125.326 136.346C125.266 136.346 125.205 136.325 125.104 136.305V136.305Z" fill="white"/>
<path d="M166.379 109.652C165.038 109.601 163.919 108.811 163.456 107.544C162.236 104.22 161.036 100.886 159.826 97.5618C159.745 97.3389 159.745 97.1565 159.826 96.9335C161.923 91.1671 164.01 85.4008 166.097 79.6344C166.551 78.3777 167.367 77.5265 168.718 77.3136C170.271 77.0704 171.682 77.9217 172.227 79.4114C173.356 82.5024 174.455 85.6136 175.614 88.6944C175.876 89.3936 175.856 89.9713 175.604 90.6604C173.557 96.2241 171.551 101.808 169.535 107.382C169.011 108.821 167.771 109.713 166.389 109.662L166.379 109.652Z" fill="white"/>
<path d="M183.004 44.4385L204.881 31.5376L215.82 53.3566L183.004 44.4385Z" fill="white"/>
<path d="M46.6982 59.853V136.316C46.6982 141.16 50.61 145.092 55.429 145.092H109.487V59.853H46.6982Z" fill="#D84F55"/>
<path d="M109.488 60.5521V137.025H46.699V60.5521C46.699 55.7282 42.8276 51.8164 38.0488 51.7759H100.757C105.576 51.7759 109.488 55.6978 109.488 60.5521Z" fill="#D84F55"/>
<path d="M61.3574 83.6986L63.2225 85.5836L67.6384 80.9624" stroke="white" stroke-width="1.61" stroke-linecap="round" stroke-linejoin="round"/>
<path d="M101.947 64.6157H54.3809V67.656H101.947V64.6157Z" fill="white"/>
<path d="M101.957 74.1523H80.2305V77.1926H101.957V74.1523Z" fill="white"/>
<path d="M101.957 82.2295H80.2305V85.2698H101.957V82.2295Z" fill="white"/>
<path d="M101.957 90.2964H80.2305V93.3367H101.957V90.2964Z" fill="white"/>
<path d="M127.332 136.062V140.369C127.332 142.984 125.225 145.102 122.624 145.102H56.0645C60.6315 144.737 64.392 140.896 64.392 136.316C64.392 136.225 64.392 136.143 64.392 136.052H127.342L127.332 136.062Z" fill="#2A2F36"/>
<path d="M46.6987 60.5521V60.7852L29.3984 60.5521C29.3984 55.7282 33.2698 51.8164 38.0486 51.7759C42.8374 51.8164 46.6987 55.7282 46.6987 60.5521Z" fill="#2A2F36"/>
<path d="M64.7654 72.3281C58.4946 72.3281 53.4033 77.4459 53.4033 83.7494C53.4033 90.0529 58.4946 95.1707 64.7654 95.1707C71.0363 95.1707 76.1276 90.0529 76.1276 83.7494C76.1276 77.4459 71.0363 72.3281 64.7654 72.3281ZM64.7654 90.9346C60.8134 90.9346 57.6074 87.7119 57.6074 83.7393C57.6074 79.7666 60.8134 76.544 64.7654 76.544C68.7175 76.544 71.9235 79.7666 71.9235 83.7393C71.9235 87.7119 68.7175 90.9346 64.7654 90.9346Z" fill="white"/>
<path d="M71.6607 85.624C70.834 88.6845 68.0615 90.9343 64.7547 90.9343C60.8027 90.9343 57.5967 87.7116 57.5967 83.739C57.5967 80.0502 60.3591 77.0099 63.9179 76.5944V72.3481C58.0302 72.7738 53.3926 77.7091 53.3926 83.739C53.3926 89.7689 58.4839 95.1603 64.7547 95.1603C70.3904 95.1603 75.0683 91.0357 75.9656 85.6138H71.6607V85.624Z" fill="white"/>
<path d="M64.7651 90.9344C60.8534 90.9344 57.6777 87.7725 57.6172 83.8506H53.4131C53.4736 90.1034 58.5346 95.1604 64.7752 95.1604C70.4109 95.1604 75.0888 91.0358 75.9861 85.6139H71.6812C70.8545 88.6745 68.082 90.9243 64.7752 90.9243L64.7651 90.9344Z" fill="#69C39B"/>
<path d="M54.4922 109.835L55.3895 107.889C56.2464 108.436 57.4663 108.811 58.5955 108.811C59.7246 108.811 60.1783 108.507 60.1783 108.051C60.1783 106.572 54.6636 107.646 54.6636 104.18C54.6636 102.508 56.075 101.15 58.9584 101.15C60.2186 101.15 61.5192 101.434 62.4769 101.961L61.6301 103.927C60.7025 103.45 59.7851 103.207 58.9382 103.207C57.7889 103.207 57.3756 103.582 57.3756 104.048C57.3756 105.477 62.8802 104.413 62.8802 107.849C62.8802 109.48 61.4688 110.869 58.5854 110.869C56.9925 110.869 55.4096 110.453 54.4922 109.845V109.835ZM64.9671 101.332H67.7094V110.676H64.9671V101.332ZM79.7268 101.332V110.676H77.4685L73.1837 105.7V110.676H70.4919V101.332H72.7502L77.035 106.308V101.332H79.7268ZM81.9952 106.004C81.9952 103.156 84.2535 101.15 87.3284 101.15C89.1129 101.15 90.5546 101.778 91.5023 102.913L89.7581 104.433C89.1431 103.724 88.3971 103.339 87.4696 103.339C85.8767 103.339 84.7677 104.403 84.7677 106.004C84.7677 107.605 85.8767 108.669 87.4696 108.669C88.3971 108.669 89.1431 108.284 89.7581 107.575L91.5023 109.095C90.5647 110.23 89.123 110.858 87.3284 110.858C84.2535 110.858 81.9952 108.842 81.9952 106.004V106.004ZM101.342 108.629V110.676H93.5489V101.332H101.161V103.379H96.2709V104.95H100.586V106.926H96.2709V108.639H101.342V108.629ZM74.5952 121.317V123.415H67.044V121.763L70.6734 118.49C71.4497 117.8 71.5606 117.365 71.5606 116.98C71.5606 116.382 71.1472 116.017 70.3104 116.017C69.6047 116.017 68.9696 116.321 68.5764 116.929L66.5399 115.834C67.2758 114.659 68.647 113.889 70.5625 113.889C72.7906 113.889 74.3331 114.993 74.3331 116.736C74.3331 117.648 74.0709 118.469 72.6797 119.696L70.8549 121.327H74.5952V121.317ZM76.2183 118.743C76.2183 115.662 78.023 113.889 80.5031 113.889C82.9832 113.889 84.7677 115.662 84.7677 118.743C84.7677 121.824 82.963 123.597 80.5031 123.597C78.0431 123.597 76.2183 121.824 76.2183 118.743ZM82.0154 118.743C82.0154 116.777 81.3802 116.047 80.5031 116.047C79.626 116.047 78.9807 116.777 78.9807 118.743C78.9807 120.709 79.6159 121.439 80.5031 121.439C81.3903 121.439 82.0154 120.709 82.0154 118.743ZM90.5949 114.071V123.415H87.8527V116.118H86.048V114.071H90.5949ZM92.8835 118.743C92.8835 115.662 94.6881 113.889 97.1682 113.889C99.6483 113.889 101.433 115.662 101.433 118.743C101.433 121.824 99.6282 123.597 97.1682 123.597C94.7083 123.597 92.8835 121.824 92.8835 118.743ZM98.6805 118.743C98.6805 116.777 98.0453 116.047 97.1682 116.047C96.2911 116.047 95.6459 116.777 95.6459 118.743C95.6459 120.709 96.281 121.439 97.1682 121.439C98.0554 121.439 98.6805 120.709 98.6805 118.743Z" fill="url(#paint0_linear_1912_7094)"/>
<defs>
<linearGradient id="paint0_linear_1912_7094" x1="77.8919" y1="105.011" x2="78.0855" y2="131.005" gradientUnits="userSpaceOnUse">
<stop offset="0.52" stop-color="white"/>
<stop offset="0.59" stop-color="#FEFBFB"/>
<stop offset="0.65" stop-color="#FBEEEF"/>
<stop offset="0.72" stop-color="#F7DADC"/>
<stop offset="0.78" stop-color="#F0BEC0"/>
<stop offset="0.84" stop-color="#E89A9D"/>
<stop offset="0.91" stop-color="#DF6E73"/>
<stop offset="0.95" stop-color="#D84F55"/>
</linearGradient>
</defs>
</svg>
