<svg xmlns="http://www.w3.org/2000/svg" width="214" height="194" viewBox="0 0 214 194">
    <g fill="none" fill-rule="evenodd" transform="translate(0 16)">
        <path fill="#F1F2F6" fill-rule="nonzero" d="M192.981 127.586a89.194 89.194 0 0 1-1.349 15.486c0 .028-.01.055-.014.083a87.802 87.802 0 0 1-6.357 20.643H25.576l-.094-.21a88.205 88.205 0 0 1-7.626-36.002c0-48.641 39.203-88.073 87.562-88.073 48.36 0 87.563 39.432 87.563 88.073z"/>
        <path fill="#8BC349" fill-rule="nonzero" d="M54.616 133.022c-1.23 0-2.257 4.234-2.257 5.477a2.23 2.23 0 0 0 2.07 2.245l-.016 2.281h.286l.014-2.27a2.236 2.236 0 0 0 2.1-2.22c.004-1.252-.967-5.506-2.197-5.513zM89.877 126.647c-.856 0-1.567 2.938-1.573 3.804a1.55 1.55 0 0 0 1.44 1.561l-.012 1.587h.2l.01-1.584a1.553 1.553 0 0 0 1.46-1.543c.004-.861-.674-3.82-1.525-3.825zM130.708 128.414c-1.23 0-2.258 4.234-2.258 5.476a2.232 2.232 0 0 0 2.07 2.247l-.016 2.282h.286l.015-2.28a2.232 2.232 0 0 0 2.098-2.218c.005-1.245-.966-5.499-2.195-5.507z" opacity=".53"/>
        <path fill="#8BC349" fill-rule="nonzero" d="M74.983 130.37c-2.023-.014-3.71 6.963-3.718 9a3.677 3.677 0 0 0 3.406 3.698l-.023 3.617h.47l.022-3.616a3.675 3.675 0 0 0 3.453-3.653c.008-2.034-1.587-9.033-3.61-9.046zM40.555 128.926c-2.911-.018-5.339 10.017-5.357 12.956-.02 2.798 2.125 5.129 4.9 5.325l-.048 7.285-.01 1.754.674.007.012-2.026.046-7.018c2.777-.159 4.953-2.46 4.971-5.258.019-2.934-2.275-13.007-5.188-13.025z"/>
        <path fill="#F1F2F6" fill-rule="nonzero" d="M189.33 71.604c4.614.01 8.393-3.686 8.513-8.326.12-4.64-3.462-8.529-8.071-8.76-1.268-4.661-5.614-7.787-10.408-7.485-4.795.302-8.72 3.949-9.399 8.732a4.48 4.48 0 0 0-3.603 1.267 4.538 4.538 0 0 0-1.337 3.596c-2.658.677-4.405 3.23-4.085 5.968.32 2.739 2.61 4.814 5.35 4.851l23.04.157zM52.866 51.996c4.615.01 8.394-3.687 8.514-8.327.12-4.64-3.463-8.528-8.072-8.76-1.267-4.66-5.613-7.786-10.408-7.484-4.794.302-8.719 3.948-9.398 8.732a4.48 4.48 0 0 0-3.604 1.267 4.538 4.538 0 0 0-1.336 3.596c-2.658.676-4.406 3.23-4.085 5.969.32 2.738 2.61 4.814 5.352 4.85l23.037.157zM13.971 76.897c2.277.02 4.15-1.8 4.208-4.088.059-2.29-1.718-4.203-3.993-4.301a4.979 4.979 0 0 0-5.11-3.677A4.988 4.988 0 0 0 4.46 69.12a2.202 2.202 0 0 0-1.769.623 2.23 2.23 0 0 0-.657 1.766A2.697 2.697 0 0 0 .02 74.44a2.688 2.688 0 0 0 2.638 2.383l11.314.073z"/>
        <path fill="#FFF" fill-rule="nonzero" d="M141.752 82.557c3.056.01 5.56-2.435 5.64-5.508.079-3.072-2.296-5.645-5.347-5.794-.84-3.082-3.714-5.148-6.884-4.948-3.17.2-5.766 2.61-6.216 5.774a2.966 2.966 0 0 0-2.382.838 3.003 3.003 0 0 0-.886 2.378 3.633 3.633 0 0 0-2.709 3.95 3.621 3.621 0 0 0 3.547 3.21l15.237.1zM62.093 94.046c2.44.01 4.44-1.944 4.503-4.397.063-2.453-1.833-4.508-4.27-4.627a5.355 5.355 0 0 0-5.496-3.953 5.364 5.364 0 0 0-4.964 4.612 2.368 2.368 0 0 0-1.903.67 2.397 2.397 0 0 0-.706 1.898 2.9 2.9 0 0 0-2.17 3.153 2.89 2.89 0 0 0 2.834 2.564l12.172.08zM174.196 105.723a2.971 2.971 0 0 0 3.04-2.902 2.973 2.973 0 0 0-2.886-3.058 3.534 3.534 0 0 0-3.629-2.612 3.54 3.54 0 0 0-3.276 3.046 1.562 1.562 0 0 0-1.26.44 1.581 1.581 0 0 0-.467 1.255 1.913 1.913 0 0 0-1.433 2.082 1.907 1.907 0 0 0 1.874 1.69l8.037.06z"/>
        <path fill="#7C6381" fill-rule="nonzero" d="M102.962 68.406h4.908v92.07h-4.908z"/>
        <path fill="#1A345B" fill-rule="nonzero" d="M107.91 78v6.815a49.953 49.953 0 0 1-4.91 0V78h4.91z"/>
        <path fill="#FFF" fill-rule="nonzero" d="M192.185 143.206l-.563-.051c-27.49-2.414-54.965 8.25-82.447 20.643H38.158c51.157-1.756 102.314-33.061 153.472-20.726l.555.134z"/>
        <circle cx="105" cy="39" r="39" fill="#ED6C6D"/>
        <path fill="#FFF0E1" fill-rule="nonzero" d="M87.893 21.776a5.389 5.389 0 0 1 2.11 2.004 5.5 5.5 0 0 1 .762 2.873 5.604 5.604 0 0 1-.762 2.904 5.399 5.399 0 0 1-2.11 2.028 6.54 6.54 0 0 1-6.03 0 5.41 5.41 0 0 1-2.1-2.028A5.604 5.604 0 0 1 79 26.653a5.5 5.5 0 0 1 .762-2.873 5.4 5.4 0 0 1 2.1-2.004 6.606 6.606 0 0 1 6.03 0zm-4.28 2.339c-.41.263-.745.629-.971 1.062a3.1 3.1 0 0 0-.361 1.494 3.146 3.146 0 0 0 .36 1.504c.226.438.56.809.972 1.077.39.262.847.401 1.316.4.459 0 .907-.139 1.285-.4.398-.268.719-.636.93-1.069.23-.469.346-.986.338-1.509a3.279 3.279 0 0 0-.338-1.495 2.692 2.692 0 0 0-.93-1.061 2.297 2.297 0 0 0-1.293-.388c-.464 0-.918.133-1.308.385zm16.537-2.339a5.389 5.389 0 0 1 2.11 2.004 5.5 5.5 0 0 1 .762 2.873 5.604 5.604 0 0 1-.762 2.904 5.399 5.399 0 0 1-2.11 2.028 6.538 6.538 0 0 1-6.028 0 5.404 5.404 0 0 1-2.102-2.028 5.604 5.604 0 0 1-.762-2.904 5.5 5.5 0 0 1 .762-2.873 5.394 5.394 0 0 1 2.102-2.004 6.606 6.606 0 0 1 6.028 0zm-4.28 2.339c-.41.263-.745.629-.971 1.062a3.1 3.1 0 0 0-.361 1.494 3.146 3.146 0 0 0 .361 1.504c.225.438.56.809.97 1.077.39.261.848.4 1.317.4.459 0 .907-.139 1.285-.4.398-.268.719-.636.93-1.069.23-.469.346-.986.338-1.509a3.279 3.279 0 0 0-.338-1.495 2.692 2.692 0 0 0-.93-1.061 2.297 2.297 0 0 0-1.293-.388c-.464 0-.918.133-1.308.385zm16.488-1.858c.765.67 1.147 1.62 1.147 2.849 0 1.291-.382 2.293-1.147 3.005-.765.713-1.846 1.069-3.242 1.069l-1.694.016v2.912h-3.203V21.25h4.897c1.399 0 2.48.335 3.242 1.007zm-2.279 4.058c.266-.258.398-.63.398-1.116 0-.474-.132-.838-.398-1.09-.266-.253-.635-.381-1.117-.381h-1.54v2.978h1.54c.484 0 .858-.13 1.121-.391h-.004zm10.528-2.433c-.688-.236-1.252-.355-1.693-.355a1.151 1.151 0 0 0-.655.162.535.535 0 0 0-.239.473c0 .29.154.515.462.674.47.218.96.392 1.461.518.64.175 1.268.395 1.878.659.503.23.944.577 1.287 1.014.364.456.545 1.054.545 1.796.021.687-.187 1.36-.592 1.914-.413.534-.968.94-1.601 1.17a6.264 6.264 0 0 1-2.258.386 8.606 8.606 0 0 1-2.78-.472 7.72 7.72 0 0 1-2.41-1.293l1.196-2.447a7.173 7.173 0 0 0 1.992 1.202c.786.324 1.46.486 2.025.487.286.017.57-.053.816-.201a.652.652 0 0 0 .293-.573c0-.3-.16-.53-.477-.69a8.162 8.162 0 0 0-1.48-.503 13.373 13.373 0 0 1-1.859-.612 3.305 3.305 0 0 1-1.277-.983c-.36-.445-.54-1.027-.54-1.751a3.085 3.085 0 0 1 .556-1.835c.395-.543.937-.96 1.561-1.203a6.096 6.096 0 0 1 2.35-.418 8.634 8.634 0 0 1 2.417.349 7.964 7.964 0 0 1 2.094.92l-1.185 2.48a10.33 10.33 0 0 0-1.887-.868zm6.475 5.84c.275.273.423.65.41 1.038.016.395-.132.779-.41 1.058-.277.28-.659.429-1.051.411a1.394 1.394 0 0 1-1.044-.415 1.411 1.411 0 0 1-.404-1.054 1.393 1.393 0 0 1 .408-1.038c.278-.27.653-.415 1.04-.4.39-.016.77.129 1.051.4zm.486-8.442v2.82l-.539 4.14h-1.859l-.555-4.14v-2.82h2.953zm3.765 8.442c.274.274.421.65.408 1.038.017.395-.13.779-.409 1.058-.278.28-.66.429-1.052.411a1.405 1.405 0 0 1-1.04-.411 1.44 1.44 0 0 1-.407-1.06 1.399 1.399 0 0 1 .407-1.039c.278-.27.654-.414 1.04-.4.39-.015.77.13 1.053.403zm.485-8.442v2.82l-.54 4.14h-1.858l-.556-4.14v-2.82h2.954zM85.34 40.13v7H83.9l-3.39-4.5v4.5H79v-7h1.44l3.4 4.52v-4.52h1.5zm4.8-.11c.7 0 1.337.157 1.91.47a3.516 3.516 0 0 1 1.355 1.295c.33.55.495 1.162.495 1.835s-.165 1.287-.495 1.84a3.54 3.54 0 0 1-1.355 1.305 3.884 3.884 0 0 1-1.91.475c-.7 0-1.337-.158-1.91-.475a3.517 3.517 0 0 1-1.85-3.145c0-.673.165-1.285.495-1.835.33-.55.78-.982 1.35-1.295a3.909 3.909 0 0 1 1.915-.47zm.02 1.38a2.154 2.154 0 0 0-1.87 1.1c-.193.34-.29.713-.29 1.12a2.245 2.245 0 0 0 1.085 1.94c.33.2.688.3 1.075.3a2.01 2.01 0 0 0 1.065-.295c.323-.197.58-.467.77-.81.19-.343.285-.722.285-1.135 0-.407-.095-.78-.285-1.12a2.153 2.153 0 0 0-.77-.805 2.01 2.01 0 0 0-1.065-.295zm10.34-1.27c.773 0 1.383.157 1.83.47.447.313.67.74.67 1.28 0 .373-.108.698-.325.975a1.618 1.618 0 0 1-.885.565c.453.087.81.288 1.07.605s.39.705.39 1.165c0 .6-.237 1.073-.71 1.42s-1.117.52-1.93.52h-3.33v-7h3.22zm-.08 2.82c.3 0 .535-.068.705-.205.17-.137.255-.328.255-.575 0-.24-.085-.427-.255-.56-.17-.133-.405-.197-.705-.19h-1.56v1.53h1.56zm0 2.89c.373 0 .667-.075.88-.225a.722.722 0 0 0 .32-.625.691.691 0 0 0-.32-.6c-.213-.147-.507-.217-.88-.21h-1.56v1.66h1.56zm5.44-1.6c0 .5.142.895.425 1.185.283.29.662.435 1.135.435.46 0 .827-.143 1.1-.43.273-.287.41-.683.41-1.19v-4.11h1.58v4.11c0 .613-.125 1.145-.375 1.595-.25.45-.608.797-1.075 1.04-.467.243-1.017.365-1.65.365s-1.187-.122-1.66-.365a2.567 2.567 0 0 1-1.09-1.04c-.253-.45-.38-.982-.38-1.595v-4.11h1.58v4.11zm10.68-2.16a5.314 5.314 0 0 0-1.145-.525c-.403-.13-.748-.195-1.035-.195-.273 0-.49.05-.65.15-.16.1-.24.247-.24.44 0 .247.115.435.345.565.23.13.585.265 1.065.405s.875.28 1.185.42c.31.14.575.35.795.63.22.28.33.65.33 1.11 0 .447-.118.832-.355 1.155a2.189 2.189 0 0 1-.975.735c-.413.167-.883.25-1.41.25-.567 0-1.123-.1-1.67-.3a4.508 4.508 0 0 1-1.42-.82l.63-1.29c.353.32.76.577 1.22.77.46.193.88.29 1.26.29.327 0 .582-.06.765-.18a.584.584 0 0 0 .275-.52.586.586 0 0 0-.185-.445 1.417 1.417 0 0 0-.47-.285 9.106 9.106 0 0 0-.785-.25 8.939 8.939 0 0 1-1.175-.4 2.067 2.067 0 0 1-.785-.61c-.22-.273-.33-.637-.33-1.09 0-.42.113-.788.34-1.105.227-.317.543-.56.95-.73.407-.17.88-.255 1.42-.255.48 0 .953.07 1.42.21.467.14.88.327 1.24.56l-.61 1.31zm7.09-1.95v1.31h-3.75v1.52h3.37v1.31h-3.37v1.55h3.86v1.31h-5.44v-7h5.33zm5.96 1.95a5.314 5.314 0 0 0-1.145-.525c-.403-.13-.748-.195-1.035-.195-.273 0-.49.05-.65.15-.16.1-.24.247-.24.44 0 .247.115.435.345.565.23.13.585.265 1.065.405s.875.28 1.185.42c.31.14.575.35.795.63.22.28.33.65.33 1.11 0 .447-.118.832-.355 1.155a2.189 2.189 0 0 1-.975.735c-.413.167-.883.25-1.41.25-.567 0-1.123-.1-1.67-.3a4.508 4.508 0 0 1-1.42-.82l.63-1.29c.353.32.76.577 1.22.77.46.193.88.29 1.26.29.327 0 .582-.06.765-.18a.584.584 0 0 0 .275-.52.586.586 0 0 0-.185-.445 1.417 1.417 0 0 0-.47-.285 9.106 9.106 0 0 0-.785-.25 8.939 8.939 0 0 1-1.175-.4 2.067 2.067 0 0 1-.785-.61c-.22-.273-.33-.637-.33-1.09 0-.42.113-.788.34-1.105.227-.317.543-.56.95-.73.407-.17.88-.255 1.42-.255.48 0 .953.07 1.42.21.467.14.88.327 1.24.56l-.61 1.31zM91.65 52.13l-.01 1.31H88.2v1.72h3.16v1.32H88.2v2.65h-1.58v-7h5.03zm4.18-.11c.7 0 1.337.157 1.91.47a3.516 3.516 0 0 1 1.355 1.295c.33.55.495 1.162.495 1.835s-.165 1.287-.495 1.84a3.54 3.54 0 0 1-1.355 1.305 3.884 3.884 0 0 1-1.91.475c-.7 0-1.337-.158-1.91-.475a3.517 3.517 0 0 1-1.85-3.145c0-.673.165-1.285.495-1.835.33-.55.78-.982 1.35-1.295a3.909 3.909 0 0 1 1.915-.47zm.02 1.38a2.154 2.154 0 0 0-1.87 1.1c-.193.34-.29.713-.29 1.12a2.245 2.245 0 0 0 1.085 1.94c.33.2.688.3 1.075.3a2.01 2.01 0 0 0 1.065-.295c.323-.197.58-.467.77-.81.19-.343.285-.722.285-1.135 0-.407-.095-.78-.285-1.12a2.153 2.153 0 0 0-.77-.805 2.01 2.01 0 0 0-1.065-.295zm6.24 2.84c0 .5.142.895.425 1.185.283.29.662.435 1.135.435.46 0 .827-.143 1.1-.43.273-.287.41-.683.41-1.19v-4.11h1.58v4.11c0 .613-.125 1.145-.375 1.595-.25.45-.608.797-1.075 1.04-.467.243-1.017.365-1.65.365s-1.187-.122-1.66-.365a2.567 2.567 0 0 1-1.09-1.04c-.253-.45-.38-.982-.38-1.595v-4.11h1.58v4.11zm12.41-4.11v7h-1.44l-3.39-4.5v4.5h-1.51v-7h1.44l3.4 4.52v-4.52h1.5zm4.51 0c.713 0 1.35.148 1.91.445.56.297.995.71 1.305 1.24.31.53.465 1.135.465 1.815 0 .68-.158 1.285-.475 1.815-.317.53-.758.943-1.325 1.24-.567.297-1.213.445-1.94.445h-2.91v-7h2.97zm.04 5.67c.387 0 .735-.092 1.045-.275a1.91 1.91 0 0 0 .725-.765c.173-.327.26-.7.26-1.12 0-.42-.092-.797-.275-1.13a1.975 1.975 0 0 0-.75-.775 2.106 2.106 0 0 0-1.075-.275h-1.36v4.34h1.43z"/>
    </g>
</svg>
