<svg width="367" height="149" viewBox="0 0 367 149" fill="none" xmlns="http://www.w3.org/2000/svg">
<g opacity="0.62">
<path opacity="0.62" d="M287.2 141.39H252.58V9.30029L287.2 26.4603V141.39Z" fill="url(#paint0_linear_1948_7806)"/>
<path opacity="0.62" d="M236.63 141.39H198.11V13.8202L236.63 0.740234V141.39Z" fill="url(#paint1_linear_1948_7806)"/>
<path opacity="0.62" d="M261.01 43.4204H192.58V141.39H261.01V43.4204Z" fill="url(#paint2_linear_1948_7806)"/>
<path opacity="0.62" d="M154.74 43.4204H116.36V141.39H154.74V43.4204Z" fill="url(#paint3_linear_1948_7806)"/>
</g>
<path d="M279.47 131.03H222.64V134.19H279.47V131.03Z" fill="#671950"/>
<path d="M285.38 134.88H223.35V138.04H285.38V134.88Z" fill="#671950"/>
<path d="M291.3 138.74H223.03V141.9H291.3V138.74Z" fill="#671950"/>
<path d="M136.79 138.74H68.5195V141.9H136.79V138.74Z" fill="#671950"/>
<path d="M153.1 90.4602C157.309 90.4602 160.72 87.0486 160.72 82.8402C160.72 78.6318 157.309 75.2202 153.1 75.2202C148.892 75.2202 145.48 78.6318 145.48 82.8402C145.48 87.0486 148.892 90.4602 153.1 90.4602Z" fill="#F36D3F"/>
<path d="M169.23 112.28C169.233 110.261 170.037 108.325 171.465 106.898C172.894 105.471 174.831 104.67 176.85 104.67V82.8799H130V141.72H176.83V119.9C174.813 119.895 172.879 119.089 171.455 117.661C170.03 116.233 169.23 114.297 169.23 112.28Z" fill="#F36D3F"/>
<path d="M216 56.1598C216 58.1165 216.753 59.9981 218.103 61.4149C219.452 62.8316 221.295 63.6748 223.25 63.7698V141.7H176.85V33.6998L223.25 14.5298V48.5298C221.292 48.625 219.446 49.471 218.096 50.892C216.745 52.3129 215.995 54.1996 216 56.1598Z" fill="#671950"/>
<path d="M120.08 13.6802H102.57C101.841 13.6802 101.25 14.2712 101.25 15.0002V23.3002C101.25 24.0292 101.841 24.6202 102.57 24.6202H120.08C120.809 24.6202 121.4 24.0292 121.4 23.3002V15.0002C121.4 14.2712 120.809 13.6802 120.08 13.6802Z" fill="#EC3A40"/>
<path d="M126.08 6.6499H125.04V28.0099H126.08V6.6499Z" fill="#EC3A40"/>
<path d="M135.76 54.41C139.952 54.41 143.35 51.0118 143.35 46.82C143.35 42.6281 139.952 39.23 135.76 39.23C131.568 39.23 128.17 42.6281 128.17 46.82C128.17 51.0118 131.568 54.41 135.76 54.41Z" fill="#EC3A40"/>
<path d="M89.1104 18.6602V75.0002H104.85C104.85 71.7202 108.25 69.0702 112.43 69.0702C116.61 69.0702 120 71.7102 120 75.0002H135.74V18.6602H89.1104Z" fill="#EC3A40"/>
<path d="M100.29 141.25C98.8604 140.83 93.1904 137.87 93.1904 137.87L95.1904 132.55L100.11 133.95L98.7104 136.08C98.7104 136.08 101.21 138.59 101.63 139.08C102.05 139.57 103.9 139.44 104.23 140.36C104.56 141.28 104.11 142.38 100.29 141.25Z" fill="#1A335E"/>
<path d="M115.33 65.8398L109.14 65.6298L109.84 59.5498L116.14 59.7698L115.33 65.8398Z" fill="#F59091"/>
<path d="M115.09 63.5201H113.46C110.97 64.0501 110.25 63.0001 109.62 61.0901C109.42 60.5101 109.23 59.8301 109 59.0901L108.37 57.0901C108.37 56.9801 108.31 56.8901 108.29 56.7901C108.231 56.5411 108.201 56.2861 108.2 56.0301C108.206 55.2026 108.494 54.4018 109.018 53.7614C109.542 53.1209 110.27 52.6793 111.08 52.5101C111.383 52.442 111.69 52.4018 112 52.3901C112.941 52.3323 113.872 52.5985 114.64 53.1444C115.408 53.6903 115.966 54.4829 116.22 55.3901L117.07 60.3901C117.179 60.7264 117.212 61.0825 117.168 61.4331C117.123 61.7837 117.002 62.1203 116.813 62.419C116.625 62.7176 116.372 62.9711 116.074 63.1614C115.777 63.3517 115.441 63.4741 115.09 63.5201Z" fill="#F59091"/>
<path d="M116.22 55.4402C115.171 55.8669 114.095 56.2244 113 56.5102C112.31 56.6935 111.681 57.0539 111.174 57.5556C110.667 58.0573 110.3 58.6828 110.11 59.3702L109.65 61.0902H109.58C109.38 60.5102 109.19 59.8302 108.96 59.0902L108.33 57.0902C108.33 56.9802 108.27 56.8902 108.25 56.7902C107.4 53.6202 109.45 52.0902 112.05 52.0302C112.465 52.026 112.88 52.0561 113.29 52.1202C113.706 52.1275 114.117 52.2215 114.495 52.3961C114.873 52.5708 115.211 52.8223 115.486 53.1346C115.762 53.4469 115.969 53.8132 116.096 54.2102C116.222 54.6071 116.264 55.026 116.22 55.4402Z" fill="#1A335E"/>
<path d="M119.72 83.9999H104.23L103.23 68.3299C103.188 67.6769 103.383 67.0306 103.78 66.5104C104.177 65.9903 104.749 65.6313 105.39 65.4999L108.24 64.9099C108.423 64.8946 108.607 64.8946 108.79 64.9099H115.47C115.668 64.9103 115.866 64.9304 116.06 64.9699L118.55 65.5299C119.181 65.6713 119.741 66.0328 120.129 66.5496C120.518 67.0663 120.71 67.7046 120.67 68.3499L119.72 83.9999Z" fill="#1A335E"/>
<path d="M137.1 58.8401L131 69.1201C129.34 70.5601 125.2 70.7001 123.76 69.0301C122.61 67.7101 125.7 66.4501 127.02 65.3001L136.55 55.8101L137.1 58.8401Z" fill="#F59091"/>
<path d="M87.2695 58.84L93.9995 71.15C95.4795 72.71 99.4795 73.22 101 71.74C102.24 70.57 99.3595 69.06 98.1795 67.82L89.8895 57.71L87.2695 58.84Z" fill="#F59091"/>
<path d="M130.14 141.59C127.532 141.213 124.946 140.706 122.39 140.07V134.55H126.59L127.24 136.98C127.24 136.98 130.31 138.74 130.84 139.06C131.37 139.38 133.12 138.81 133.68 139.61C134.24 140.41 134.12 141.67 130.14 141.59Z" fill="#1A335E"/>
<path d="M95.5596 63.8301L91.5596 67.5901C91.5596 67.5901 93.4696 71.9701 95.1596 72.5901C96.8496 73.2101 104.78 72.5901 104.78 72.5901L108.26 65.0601L98.5996 66.0601L95.5596 63.8301Z" fill="#1A335E"/>
<path d="M129 62L133.73 66.44C132.47 67.8563 131.081 69.1519 129.58 70.31C128.01 71.31 119.38 71.76 119.38 71.76L115.67 65L125.77 64L129 62Z" fill="#1A335E"/>
<path d="M104.11 82.0698C104.11 82.0698 103.47 99.1698 100.3 110.99C96.7597 124.19 93.7197 133.07 93.7197 133.07L100.66 134.55C100.66 134.55 111.91 104.55 113.4 97.4598C114.321 92.5157 114.706 87.4866 114.55 82.4598L104.11 82.0698Z" fill="#339999"/>
<path d="M121.16 135.48H128.16C128.16 135.48 125.29 104.91 123.81 97.8501C122.33 90.7901 119.89 82.1001 119.89 82.1001L109.35 82.4801C109.35 82.4801 120.3 123.28 121.16 135.48Z" fill="#339999"/>
<path d="M113.08 98.7799L111.02 91.3599L112.43 101.06L113.08 98.7799Z" fill="#1A335E"/>
<path d="M116.14 57.1802L117.64 58.5202C117.674 58.5512 117.699 58.5902 117.715 58.6335C117.73 58.6769 117.734 58.7234 117.727 58.7689C117.721 58.8143 117.702 58.8574 117.675 58.8943C117.647 58.9311 117.611 58.9606 117.57 58.9802L116.35 59.5602L116.14 57.1802Z" fill="#F59091"/>
<path d="M115.67 63.32C114.075 63.5111 112.459 63.2331 111.02 62.52C112.309 63.5607 113.879 64.1943 115.53 64.34L115.67 63.32Z" fill="#250F0E"/>
<path d="M88.9998 54.6001C88.5991 54.7536 88.2342 54.9878 87.9278 55.2882C87.6215 55.5886 87.3801 55.9489 87.2188 56.3465C87.0575 56.7441 86.9797 57.1707 86.9902 57.5996C87.0007 58.0286 87.0993 58.4508 87.2798 58.8401C88.5198 59.4201 90.1698 58.0301 90.1698 58.0301C90.1698 58.0301 89.1698 56.9001 89.1698 56.3201C89.1698 55.7401 88.9998 54.6001 88.9998 54.6001Z" fill="#F59091"/>
<path d="M134.84 58.0999C135.205 57.078 135.512 56.0363 135.76 54.9799C135.81 54.0499 135.76 52.4199 135.76 52.4199C136.433 52.6514 136.998 53.1208 137.35 53.7399C137.78 54.6799 138.97 56.7399 136.92 59.0599C135.49 60.6499 134.84 58.0999 134.84 58.0999Z" fill="#F59091"/>
<path d="M124.91 20.9001C124.998 20.9001 125.07 20.8284 125.07 20.7401C125.07 20.6517 124.998 20.5801 124.91 20.5801C124.822 20.5801 124.75 20.6517 124.75 20.7401C124.75 20.8284 124.822 20.9001 124.91 20.9001Z" fill="#250F0E"/>
<path d="M120.15 35.05C120.012 34.7184 119.795 34.4257 119.518 34.1974C119.241 33.969 118.912 33.812 118.56 33.74C112.97 33.21 105.82 34.45 104.35 35.81C103.72 36.39 103.6 37.81 104 40.03C104.188 41.0426 104.432 42.0441 104.73 43.03L104.82 43.34L106.61 43.14C106.629 43.4026 106.7 43.6589 106.818 43.8943C106.936 44.1297 107.099 44.3395 107.298 44.5117C107.497 44.684 107.729 44.8153 107.978 44.8982C108.228 44.9811 108.492 45.014 108.755 44.995C109.018 44.9759 109.274 44.9054 109.509 44.7873C109.745 44.6692 109.954 44.5058 110.127 44.3067C110.299 44.1075 110.43 43.8763 110.513 43.6264C110.596 43.3764 110.629 43.1126 110.61 42.85C110.61 42.85 110.61 42.75 110.61 42.7L114.83 42.22C114.862 42.4826 114.946 42.7364 115.076 42.9667C115.206 43.197 115.38 43.3995 115.589 43.5624C115.797 43.7254 116.036 43.8457 116.291 43.9165C116.546 43.9873 116.812 44.0072 117.075 43.975C117.338 43.9428 117.591 43.8592 117.822 43.729C118.052 43.5988 118.254 43.4244 118.417 43.216C118.58 43.0075 118.701 42.769 118.771 42.514C118.842 42.259 118.862 41.9926 118.83 41.73L120.63 41.52L120.73 41.33C121.38 39.94 121.14 36.84 120.15 35.05ZM108.58 44.11C108.338 44.11 108.102 44.0382 107.901 43.9037C107.7 43.7692 107.544 43.578 107.452 43.3545C107.36 43.131 107.336 42.8852 107.384 42.6483C107.432 42.4113 107.549 42.194 107.721 42.0238C107.892 41.8536 108.111 41.7382 108.348 41.6922C108.585 41.6463 108.831 41.6719 109.054 41.7657C109.276 41.8596 109.466 42.0175 109.599 42.2195C109.732 42.4214 109.802 42.6583 109.8 42.9C109.797 43.2218 109.668 43.5296 109.439 43.7562C109.211 43.9828 108.902 44.11 108.58 44.11ZM116.81 43.53C116.567 43.5359 116.328 43.4692 116.123 43.3384C115.918 43.2076 115.757 43.0186 115.661 42.7957C115.564 42.5728 115.536 42.3261 115.581 42.0872C115.625 41.8483 115.74 41.6281 115.91 41.4549C116.08 41.2817 116.299 41.1632 116.537 41.1148C116.775 41.0664 117.022 41.0902 117.247 41.1831C117.471 41.2761 117.663 41.4339 117.797 41.6365C117.931 41.839 118.002 42.077 118 42.32C118 42.6375 117.875 42.9422 117.653 43.1686C117.43 43.3949 117.127 43.5247 116.81 43.53ZM120 40.89L118.37 41.07C118.245 40.9081 118.093 40.7693 117.92 40.66C117.507 40.3759 117.002 40.2573 116.506 40.3277C116.01 40.3981 115.558 40.6523 115.24 41.04C115.122 41.1713 115.015 41.3117 114.92 41.46L110.34 41.97C110.299 41.8899 110.252 41.813 110.2 41.74C110.014 41.4852 109.77 41.2781 109.488 41.1356C109.207 40.993 108.895 40.9192 108.58 40.92C108.089 40.921 107.616 41.1025 107.25 41.43C106.942 41.6958 106.713 42.042 106.59 42.43L105.38 42.56C104.73 40.3 104.17 37.07 104.88 36.42C105.88 35.51 110.88 34.42 115.78 34.42C116.69 34.42 117.6 34.42 118.48 34.54C118.81 34.54 119.16 34.9 119.48 35.45C120.286 37.1461 120.47 39.0718 120 40.89Z" fill="white"/>
<path d="M106.69 37.9099C106.635 37.87 106.575 37.8396 106.51 37.8199C106.417 37.8039 106.323 37.8039 106.23 37.8199C106.12 37.8166 106.011 37.8371 105.91 37.8799C105.828 37.9061 105.756 37.9546 105.7 38.0199V39.5999H105V37.1899H105.69V37.4299L105.91 37.2999C105.98 37.253 106.058 37.2192 106.14 37.1999C106.22 37.1877 106.3 37.1877 106.38 37.1999H106.57H106.68L106.69 37.9099Z" fill="white"/>
<path d="M108.63 38.1697C108.604 38.0146 108.531 37.8714 108.42 37.7597C108.315 37.6673 108.18 37.6173 108.04 37.6197C107.965 37.6142 107.89 37.6247 107.819 37.6505C107.748 37.6764 107.684 37.717 107.63 37.7697C107.537 37.8836 107.481 38.0232 107.47 38.1697H108.63ZM109.26 38.4997H107.48C107.502 38.6633 107.584 38.8128 107.71 38.9197C107.831 39.0098 107.979 39.0556 108.13 39.0497C108.282 39.0475 108.433 39.0273 108.58 38.9897C108.716 38.9634 108.846 38.9089 108.96 38.8297V39.4397C108.841 39.5218 108.704 39.5733 108.56 39.5897C108.419 39.6247 108.275 39.6448 108.13 39.6497C107.948 39.6607 107.767 39.6354 107.595 39.5753C107.423 39.5152 107.265 39.4215 107.13 39.2997C106.942 39.1176 106.814 38.8836 106.76 38.6277C106.707 38.3719 106.731 38.1058 106.83 37.8639C106.929 37.6219 107.098 37.4151 107.315 37.27C107.533 37.1249 107.789 37.0482 108.05 37.0497C108.217 37.043 108.383 37.0747 108.535 37.1423C108.688 37.2099 108.823 37.3117 108.93 37.4397C109.161 37.7435 109.277 38.1186 109.26 38.4997Z" fill="white"/>
<path d="M111.21 38.8597V37.7997C111.158 37.7416 111.093 37.6969 111.02 37.6697C110.93 37.6368 110.835 37.6199 110.74 37.6197C110.663 37.6153 110.586 37.6283 110.515 37.6577C110.444 37.6872 110.381 37.7323 110.33 37.7897C110.225 37.942 110.176 38.1254 110.19 38.3097C110.176 38.5016 110.229 38.6925 110.34 38.8497C110.386 38.9085 110.445 38.9555 110.513 38.9868C110.581 39.0181 110.655 39.0328 110.73 39.0297C110.821 39.0401 110.913 39.0298 111 38.9997C111.072 38.9702 111.14 38.9297 111.2 38.8797L111.21 38.8597ZM111.87 39.6197H111.35L111.21 39.3897L110.84 39.5897C110.797 39.5983 110.753 39.5983 110.71 39.5897H110.57C110.417 39.5972 110.265 39.5695 110.124 39.5088C109.984 39.4482 109.859 39.3561 109.76 39.2397C109.574 38.9766 109.476 38.6617 109.48 38.3397C109.464 38.0014 109.583 37.6706 109.81 37.4197C109.925 37.3042 110.062 37.2136 110.214 37.1534C110.365 37.0932 110.527 37.0647 110.69 37.0697C110.783 37.0582 110.877 37.0582 110.97 37.0697C111.051 37.0864 111.129 37.1168 111.2 37.1597V36.1597H111.87V39.6197Z" fill="white"/>
<path d="M114.19 38.5099C114.195 38.4379 114.184 38.3658 114.158 38.2985C114.132 38.2312 114.092 38.1702 114.04 38.1199C113.933 38.0347 113.797 37.992 113.66 37.9999H113.19V38.9999H113.72C113.785 39.0055 113.851 38.9957 113.912 38.9714C113.973 38.9471 114.027 38.9089 114.07 38.8599C114.155 38.7522 114.198 38.617 114.19 38.4799V38.5099ZM114.07 37.1599C114.075 37.0384 114.032 36.9197 113.95 36.8299C113.905 36.7844 113.85 36.7493 113.789 36.7269C113.729 36.7045 113.664 36.6953 113.6 36.6999H113.19V37.6199H113.65C113.707 37.6227 113.765 37.6134 113.818 37.5927C113.871 37.5721 113.92 37.5404 113.96 37.4999C114.031 37.4119 114.07 37.3027 114.07 37.1899V37.1599ZM115 38.5999C115.004 38.7349 114.98 38.8691 114.93 38.9946C114.88 39.12 114.805 39.2341 114.71 39.3299C114.508 39.5125 114.243 39.6093 113.97 39.5999H112.49V36.1599H113.94C114.181 36.1547 114.415 36.2363 114.6 36.3899C114.687 36.4693 114.756 36.5669 114.801 36.6758C114.846 36.7847 114.866 36.9022 114.86 37.0199C114.869 37.2019 114.816 37.3816 114.71 37.5299C114.594 37.6667 114.429 37.7528 114.25 37.7699C114.449 37.8013 114.634 37.8919 114.78 38.0299C114.925 38.1839 115.004 38.3885 115 38.5999Z" fill="white"/>
<path d="M117.63 39.5999H117V39.3299L116.71 39.4899C116.634 39.5317 116.553 39.5653 116.47 39.5899C116.374 39.6053 116.276 39.6053 116.18 39.5899C116.076 39.5952 115.973 39.5783 115.876 39.5403C115.779 39.5024 115.692 39.4443 115.62 39.3699C115.482 39.2052 115.41 38.9947 115.42 38.7799V37.1899H116.1V38.6699C116.099 38.7554 116.131 38.8378 116.19 38.8999C116.229 38.9359 116.274 38.9633 116.324 38.9805C116.374 38.9977 116.427 39.0043 116.48 38.9999C116.591 39.0052 116.701 38.9811 116.8 38.9299C116.871 38.8895 116.938 38.8426 117 38.7899V37.1899H117.68L117.63 39.5999Z" fill="white"/>
<path d="M119.999 38.7701C120.004 38.891 119.981 39.0114 119.933 39.1222C119.884 39.2331 119.811 39.3315 119.719 39.4101C119.525 39.5766 119.275 39.6625 119.019 39.6501C118.863 39.6579 118.706 39.6579 118.549 39.6501C118.381 39.6257 118.219 39.5715 118.069 39.4901V38.8801C118.19 38.9471 118.317 39.0007 118.449 39.0401C118.607 39.0913 118.773 39.115 118.939 39.1101C119.045 39.1285 119.153 39.1285 119.259 39.1101C119.299 39.0917 119.331 39.0617 119.353 39.0241C119.374 38.9865 119.383 38.9432 119.379 38.9001C119.377 38.8672 119.367 38.8354 119.349 38.8075C119.332 38.7796 119.308 38.7564 119.279 38.7401C119.166 38.688 119.044 38.6607 118.919 38.6601C118.687 38.6633 118.461 38.5855 118.279 38.4401C118.215 38.3746 118.164 38.2963 118.131 38.2102C118.099 38.1241 118.084 38.032 118.089 37.9401C118.089 37.83 118.115 37.7213 118.163 37.6225C118.212 37.5237 118.282 37.4373 118.369 37.3701C118.569 37.2145 118.816 37.1331 119.069 37.1401H119.449C119.568 37.1575 119.685 37.1843 119.799 37.2201V37.8401C119.683 37.7911 119.562 37.751 119.439 37.7201C119.313 37.7086 119.186 37.7086 119.059 37.7201C118.969 37.7161 118.879 37.7369 118.799 37.7801C118.774 37.7912 118.752 37.8093 118.736 37.8322C118.72 37.8552 118.711 37.8822 118.709 37.9101C118.708 37.9503 118.72 37.9899 118.743 38.0225C118.767 38.0551 118.801 38.0789 118.839 38.0901C118.932 38.1005 119.026 38.1005 119.119 38.0901C119.357 38.0901 119.589 38.1673 119.779 38.3101C119.852 38.3731 119.909 38.4517 119.948 38.5399C119.986 38.6282 120.003 38.724 119.999 38.8201" fill="white"/>
<path d="M205.36 90.91C205.676 90.91 205.989 90.8476 206.28 90.7264C206.572 90.6051 206.837 90.4274 207.06 90.2035C207.283 89.9796 207.46 89.7138 207.58 89.4215C207.7 89.1292 207.761 88.816 207.76 88.5V82.66C207.761 82.344 207.7 82.0308 207.58 81.7385C207.46 81.4462 207.283 81.1804 207.06 80.9565C206.837 80.7326 206.572 80.5549 206.28 80.4336C205.989 80.3124 205.676 80.25 205.36 80.25H199.5C199.184 80.25 198.871 80.3124 198.579 80.4336C198.287 80.5549 198.022 80.7326 197.799 80.9565C197.576 81.1804 197.399 81.4462 197.279 81.7385C197.159 82.0308 197.098 82.344 197.1 82.66V88.5C197.098 88.816 197.159 89.1292 197.279 89.4215C197.399 89.7138 197.576 89.9796 197.799 90.2035C198.022 90.4274 198.287 90.6051 198.579 90.7264C198.871 90.8476 199.184 90.91 199.5 90.91H205.36Z" fill="#CF3A27"/>
<path d="M203.7 85.91C203.48 86.67 203.84 87.42 204.62 87.11C204.282 87.8021 204.078 88.5521 204.02 89.32C204.02 89.32 204.02 89.89 204.44 90.03C204.44 90.03 205.02 90.18 204.9 89.65C204.806 89.3254 204.779 88.9854 204.82 88.65C204.965 87.9622 205.182 87.2917 205.47 86.65C205.47 86.65 206.38 84.78 206.88 83.91C206.88 83.91 207.11 83.46 206.65 83.46C206.583 83.4616 206.517 83.4787 206.458 83.5099C206.399 83.5411 206.348 83.5857 206.31 83.64L205.05 85.9C204.86 86.25 204.67 86.36 204.53 86.36C204.21 86.36 204.28 85.84 204.33 85.66C204.474 85.029 204.703 84.4202 205.01 83.85C205.23 83.36 204.77 83.31 204.77 83.31C204.49 83.24 204.27 83.71 204.27 83.71L203.77 84.71C203.442 85.2743 203.082 85.8186 202.69 86.34C202.69 86.34 202.63 86.43 202.57 86.39C202.51 86.35 202.57 86.27 202.57 86.27C202.649 85.5725 202.79 84.8832 202.99 84.21C202.994 84.1702 202.994 84.1299 202.99 84.09C202.997 84.0449 202.994 83.9987 202.982 83.9546C202.97 83.9105 202.948 83.8695 202.919 83.8345C202.889 83.7994 202.853 83.771 202.812 83.7513C202.77 83.7316 202.725 83.7209 202.68 83.72C202.46 83.72 202.35 83.81 202.15 84.05C201.716 84.6087 201.312 85.1895 200.94 85.79H200.86L201.45 83.79C201.45 83.79 201.52 83.54 201.32 83.45C201.27 83.4244 201.215 83.409 201.16 83.4047C201.104 83.4004 201.048 83.4073 200.995 83.425C200.941 83.4427 200.892 83.4709 200.85 83.5078C200.808 83.5447 200.774 83.5897 200.75 83.64L199.55 85.28C199.46 85.41 199.41 85.36 199.41 85.36V85.26L199.6 84.19C199.75 83.36 199.46 83.32 199.28 83.29C199.141 83.291 199.005 83.3327 198.89 83.41C198.51 83.59 198.23 84.34 198.23 84.34C198.23 84.34 198.14 84.61 198.32 84.71C198.378 84.7518 198.448 84.773 198.52 84.77C198.78 84.77 198.84 84.26 199.03 84.26C199.22 84.26 199.03 84.26 199.03 84.26L198.41 86.86C198.389 86.934 198.392 87.0127 198.419 87.0847C198.446 87.1567 198.495 87.2181 198.56 87.26C198.639 87.3077 198.734 87.3219 198.824 87.2994C198.914 87.2769 198.992 87.2196 199.04 87.14L199.25 86.79C199.527 86.2831 199.863 85.8099 200.25 85.38L200.08 87C200.069 87.0686 200.08 87.1388 200.113 87.2001C200.145 87.2614 200.197 87.3105 200.26 87.34C200.315 87.364 200.374 87.3763 200.435 87.3763C200.495 87.3763 200.554 87.364 200.61 87.34C200.735 87.2415 200.841 87.1192 200.92 86.98C201.04 86.78 201.64 86.07 202.01 85.42C202.01 85.37 202.06 85.42 202.06 85.42C201.981 85.9067 201.931 86.3975 201.91 86.89C201.91 87.35 202.24 87.39 202.25 87.39C202.36 87.3981 202.47 87.3774 202.57 87.3301C202.67 87.2828 202.756 87.2104 202.82 87.12L203.7 85.91Z" fill="white"/>
<path d="M185.66 86.9202H185V85.4202C185.007 85.2544 184.973 85.0894 184.9 84.9402C184.859 84.8881 184.805 84.8471 184.744 84.8209C184.683 84.7947 184.617 84.7841 184.55 84.7902C184.438 84.787 184.328 84.8147 184.23 84.8702C184.128 84.9324 184.043 85.0181 183.98 85.1202V86.9202H183.32V84.2002H183.69L183.94 84.5702C184.006 84.5114 184.076 84.4579 184.15 84.4102L184.35 84.3002L184.59 84.2202H184.83C184.917 84.2089 185.004 84.2089 185.09 84.2202C185.162 84.2379 185.23 84.2684 185.29 84.3102C185.347 84.3489 185.398 84.3961 185.44 84.4502C185.483 84.51 185.52 84.5736 185.55 84.6402L185.73 84.4802C185.798 84.4256 185.872 84.3786 185.95 84.3402C186.031 84.2914 186.119 84.2544 186.21 84.2302C186.313 84.2141 186.418 84.2141 186.52 84.2302C186.653 84.2266 186.784 84.2576 186.9 84.3202C187.005 84.3796 187.091 84.466 187.15 84.5702C187.224 84.6897 187.275 84.822 187.3 84.9602C187.316 85.1231 187.316 85.2873 187.3 85.4502V86.9502H186.64V85.4502C186.652 85.284 186.617 85.1179 186.54 84.9702C186.501 84.9182 186.449 84.8771 186.39 84.8508C186.33 84.8245 186.265 84.814 186.2 84.8202C186.088 84.817 185.978 84.8447 185.88 84.9002C185.775 84.9618 185.686 85.0475 185.62 85.1502L185.66 86.9202Z" fill="white"/>
<path d="M189.54 86.6199C189.441 86.7135 189.325 86.788 189.2 86.8399C189.046 86.8948 188.883 86.9219 188.72 86.9199C188.597 86.9221 188.475 86.9018 188.36 86.8599C188.258 86.8203 188.165 86.7589 188.09 86.6799C188.012 86.6031 187.951 86.5112 187.91 86.4099C187.87 86.3009 187.85 86.1858 187.85 86.0699C187.85 85.5599 188.24 85.2399 188.85 85.2399H189.51V85.0899C189.51 85.0436 189.497 84.9983 189.472 84.9592C189.447 84.9202 189.412 84.8892 189.37 84.8699C189.235 84.8098 189.087 84.7824 188.94 84.7899C188.771 84.7887 188.603 84.8089 188.44 84.8499C188.311 84.8717 188.186 84.9121 188.07 84.9699L188 84.3999L188.18 84.3299L188.42 84.2699H188.7C188.806 84.2596 188.913 84.2596 189.02 84.2699C189.174 84.2572 189.33 84.2754 189.478 84.3234C189.625 84.3715 189.762 84.4485 189.88 84.5499C189.981 84.6556 190.059 84.7814 190.109 84.9192C190.159 85.057 190.18 85.2037 190.17 85.3499V86.9899H189.7L189.54 86.6199ZM189.54 85.6799H188.94C188.815 85.6717 188.691 85.7071 188.59 85.7799C188.553 85.8124 188.524 85.8526 188.505 85.8975C188.486 85.9425 188.478 85.9911 188.48 86.0399C188.477 86.0839 188.484 86.128 188.5 86.1693C188.515 86.2106 188.539 86.2483 188.57 86.2799C188.655 86.3369 188.757 86.365 188.86 86.3599C188.933 86.3697 189.007 86.3697 189.08 86.3599L189.27 86.2799C189.382 86.2109 189.475 86.1145 189.54 85.9999V85.6799Z" fill="white"/>
<path d="M193.32 84.1599L192.23 85.5199L193.47 86.9199H192.63L191.49 85.5399V86.9199H190.82V83.1899H191.49V85.5399L192.5 84.1599H193.32Z" fill="white"/>
<path d="M194.92 86.3301H195.24L195.5 86.2501C195.574 86.225 195.644 86.1915 195.71 86.1501L195.8 86.0901L195.93 86.6701C195.791 86.7567 195.639 86.8208 195.48 86.8601C195.295 86.9154 195.103 86.9424 194.91 86.9401C194.699 86.9451 194.489 86.9112 194.29 86.8401C194.121 86.7866 193.967 86.6942 193.84 86.5701C193.716 86.4497 193.62 86.3027 193.56 86.1401C193.498 85.9635 193.468 85.7773 193.47 85.5901C193.466 85.4101 193.493 85.2308 193.55 85.0601C193.604 84.898 193.692 84.7492 193.807 84.6234C193.923 84.4975 194.063 84.3976 194.22 84.3301C194.399 84.2506 194.594 84.213 194.79 84.2201C194.982 84.2139 195.173 84.2479 195.35 84.3201C195.501 84.3804 195.635 84.4765 195.74 84.6001C195.855 84.7126 195.944 84.8492 196 85.0001C196.04 85.1535 196.061 85.3115 196.06 85.4701C196.065 85.52 196.065 85.5702 196.06 85.6201C196.06 85.6201 196.06 85.7201 196.06 85.7601H194.2C194.21 85.8479 194.237 85.9328 194.28 86.0101C194.315 86.0838 194.367 86.1487 194.43 86.2001C194.504 86.2519 194.585 86.2923 194.67 86.3201C194.77 86.3352 194.871 86.3352 194.97 86.3201L194.92 86.3301ZM194.84 84.7701C194.764 84.755 194.686 84.755 194.61 84.7701C194.541 84.7857 194.476 84.8164 194.42 84.8601C194.366 84.899 194.319 84.9462 194.28 85.0001C194.251 85.0611 194.227 85.1247 194.21 85.1901H195.39C195.401 85.1339 195.401 85.0763 195.39 85.0201C195.372 84.9613 195.338 84.9091 195.29 84.8701C195.241 84.8253 195.183 84.7913 195.12 84.7701C195.037 84.758 194.953 84.758 194.87 84.7701" fill="white"/>
<path d="M208.42 84.59L209.31 83.52H209.51V84.2H210.28V84.79H209.51V85.91C209.498 85.9729 209.498 86.0372 209.51 86.1C209.524 86.147 209.552 86.1888 209.59 86.22C209.622 86.2491 209.659 86.2727 209.7 86.29H209.83C209.909 86.301 209.99 86.301 210.07 86.29L210.25 86.23V86.82C210.177 86.856 210.099 86.8828 210.02 86.9C209.923 86.9115 209.826 86.9115 209.73 86.9C209.587 86.9026 209.446 86.8824 209.31 86.84C209.206 86.8073 209.11 86.7528 209.03 86.68C208.958 86.6025 208.903 86.5104 208.87 86.41C208.832 86.2973 208.815 86.1787 208.82 86.06V84.79H208.39L208.42 84.59Z" fill="white"/>
<path d="M211.41 84.7602C211.51 84.5979 211.638 84.4555 211.79 84.3402C211.933 84.2476 212.1 84.1989 212.27 84.2002H212.52C212.52 84.2002 212.52 84.3602 212.4 84.8302H212.25C212.133 84.831 212.018 84.8548 211.91 84.9002C211.812 84.9418 211.726 85.0071 211.66 85.0902C211.59 85.1791 211.539 85.2812 211.51 85.3902C211.468 85.5192 211.447 85.6545 211.45 85.7902V86.9202H210.79V84.2002H211.21L211.41 84.7602Z" fill="white"/>
<path d="M215.71 84.2002C215.889 84.1965 216.067 84.2341 216.23 84.3102C216.373 84.3831 216.496 84.4895 216.59 84.6202C216.685 84.7532 216.756 84.9022 216.8 85.0602C216.843 85.2302 216.867 85.4047 216.87 85.5802C216.868 85.7565 216.841 85.9317 216.79 86.1002C216.754 86.2549 216.682 86.3988 216.58 86.5202C216.49 86.6452 216.369 86.7451 216.23 86.8102C216.073 86.884 215.903 86.9216 215.73 86.9202C215.569 86.9242 215.41 86.897 215.26 86.8402C215.131 86.7849 215.015 86.7032 214.92 86.6002V88.0002H214.26V84.2002H214.65L214.91 84.5302C215.013 84.4247 215.135 84.3399 215.27 84.2802C215.413 84.2229 215.566 84.1956 215.72 84.2002H215.71ZM215.55 84.7902C215.474 84.7751 215.396 84.7751 215.32 84.7902C215.254 84.8112 215.193 84.8452 215.14 84.8902C215.089 84.9256 215.045 84.9696 215.01 85.0202C214.972 85.069 214.942 85.1229 214.92 85.1802V86.0002C214.944 86.0498 214.978 86.094 215.02 86.1302C215.059 86.1751 215.107 86.2124 215.16 86.2402C215.211 86.2768 215.269 86.3039 215.33 86.3202C215.399 86.3299 215.47 86.3299 215.54 86.3202C215.64 86.3228 215.739 86.3022 215.83 86.2602C215.911 86.229 215.984 86.1774 216.04 86.1102C216.094 86.0378 216.134 85.9566 216.16 85.8702C216.171 85.7705 216.171 85.6699 216.16 85.5702C216.161 85.4615 216.144 85.3534 216.11 85.2502C216.086 85.1618 216.049 85.0775 216 85.0002C215.941 84.9331 215.87 84.8786 215.79 84.8402C215.709 84.7992 215.62 84.7786 215.53 84.7802" fill="white"/>
<path d="M213.54 86.9201H212.87V84.2001H213.54V86.9201ZM213.2 83.0801C213.109 83.0827 213.023 83.1207 212.959 83.1861C212.896 83.2514 212.86 83.339 212.86 83.4301C212.86 83.5203 212.896 83.6067 212.96 83.6705C213.024 83.7343 213.11 83.7701 213.2 83.7701C213.291 83.7701 213.379 83.7346 213.444 83.6711C213.51 83.6076 213.548 83.5212 213.55 83.4301C213.55 83.3373 213.513 83.2482 213.448 83.1826C213.382 83.1169 213.293 83.0801 213.2 83.0801Z" fill="white"/>
<path fill-rule="evenodd" clip-rule="evenodd" d="M151 107.83C151.131 107.843 151.255 107.894 151.357 107.977C151.459 108.059 151.535 108.17 151.576 108.294C151.617 108.419 151.621 108.553 151.587 108.68C151.554 108.807 151.484 108.922 151.387 109.01C151.289 109.098 151.169 109.156 151.039 109.177C150.909 109.198 150.776 109.181 150.656 109.129C150.536 109.076 150.434 108.989 150.361 108.879C150.289 108.769 150.251 108.641 150.25 108.51C150.26 108.321 150.345 108.143 150.485 108.016C150.626 107.888 150.811 107.822 151 107.83ZM150.37 109.83H151.65V114.09H150.37V109.83Z" fill="white"/>
<path fill-rule="evenodd" clip-rule="evenodd" d="M143.34 112.26C143.19 113.66 141.34 113.58 141.57 111.73C141.65 111.15 142.04 110.61 142.72 110.8C143.4 110.99 143.41 111.57 143.34 112.26ZM143.34 113.52C143.48 115.16 142.15 115.41 141.02 114.99C140.884 114.918 140.744 114.855 140.6 114.8V115.87C140.72 116.03 141.41 116.12 141.66 116.13C142.189 116.228 142.735 116.164 143.227 115.944C143.718 115.724 144.131 115.36 144.41 114.9C144.671 114.129 144.76 113.309 144.67 112.5V109.84H143.34V110.34C143.232 110.188 143.096 110.058 142.938 109.958C142.78 109.859 142.604 109.792 142.42 109.76C141.995 109.701 141.562 109.785 141.19 110C140.868 110.221 140.607 110.521 140.432 110.871C140.257 111.221 140.174 111.609 140.19 112C140.149 112.394 140.221 112.792 140.398 113.146C140.575 113.5 140.85 113.796 141.19 114C141.589 114.179 142.038 114.214 142.46 114.1C142.81 113.982 143.111 113.754 143.32 113.45L143.34 113.52Z" fill="white"/>
<path fill-rule="evenodd" clip-rule="evenodd" d="M162.61 112.23C162.58 112.506 162.469 112.767 162.29 112.98C162.181 113.076 162.051 113.146 161.911 113.182C161.77 113.219 161.622 113.221 161.48 113.19C160.81 113.03 160.81 112.27 160.84 111.73C160.835 111.588 160.863 111.447 160.921 111.318C160.979 111.188 161.066 111.074 161.175 110.983C161.284 110.892 161.412 110.828 161.55 110.794C161.688 110.761 161.832 110.759 161.97 110.79C162.54 110.92 162.71 111.58 162.61 112.23ZM159.53 114.13H160.86V113.63C160.965 113.783 161.1 113.913 161.256 114.013C161.413 114.112 161.587 114.179 161.77 114.21C162.192 114.286 162.628 114.212 163 114C163.321 113.777 163.581 113.477 163.756 113.128C163.931 112.778 164.015 112.39 164 112C164.045 111.606 163.974 111.207 163.797 110.852C163.619 110.497 163.343 110.201 163 110C162.71 109.874 162.391 109.828 162.077 109.865C161.763 109.902 161.464 110.021 161.21 110.21C161.06 110.34 160.88 110.58 160.85 110.6C160.85 110.19 160.85 108.08 160.85 107.9H159.55C159.55 108.07 159.55 110.64 159.55 111.05V114.24L159.53 114.13Z" fill="white"/>
<path fill-rule="evenodd" clip-rule="evenodd" d="M155.48 112.23C155.3 113.5 154.09 113.42 153.79 112.7C153.693 112.376 153.666 112.035 153.71 111.7C153.707 111.559 153.736 111.419 153.795 111.29C153.854 111.162 153.94 111.048 154.049 110.958C154.158 110.868 154.285 110.803 154.422 110.769C154.559 110.734 154.702 110.732 154.84 110.76C155.41 110.89 155.57 111.54 155.48 112.2V112.23ZM152.4 114.13H153.73V113.63C153.84 113.71 153.81 113.79 154.1 114C154.91 114.57 156.81 114.25 156.86 111.93C156.912 111.535 156.844 111.134 156.666 110.777C156.488 110.421 156.207 110.126 155.86 109.93C155.529 109.773 155.156 109.727 154.796 109.797C154.437 109.867 154.109 110.05 153.86 110.32C153.808 110.396 153.748 110.467 153.68 110.53V107.83H152.4V114.17V114.13Z" fill="white"/>
<path fill-rule="evenodd" clip-rule="evenodd" d="M166.6 113.21C165.86 113.21 165.6 112.74 165.6 111.99C165.6 111.24 165.9 110.77 166.6 110.77C167.3 110.77 167.52 111.39 167.52 112.05C167.52 112.71 167.26 113.21 166.6 113.21ZM164.26 112.32C164.384 112.898 164.724 113.407 165.211 113.744C165.697 114.081 166.293 114.22 166.878 114.134C167.463 114.047 167.994 113.741 168.362 113.278C168.73 112.815 168.908 112.229 168.86 111.64C168.6 108.92 163.92 109.03 164.26 112.32Z" fill="white"/>
<path fill-rule="evenodd" clip-rule="evenodd" d="M146.52 112.26C146.35 110.62 147.64 110.58 148.12 110.97C148.6 111.36 148.68 112.97 147.74 113.19C147.589 113.224 147.432 113.226 147.28 113.195C147.129 113.164 146.985 113.101 146.86 113.01C146.655 112.812 146.534 112.544 146.52 112.26ZM147.21 109.76C146.904 109.779 146.606 109.861 146.332 110C146.059 110.139 145.817 110.332 145.621 110.567C145.426 110.803 145.28 111.076 145.193 111.37C145.107 111.664 145.081 111.972 145.118 112.276C145.155 112.58 145.253 112.874 145.407 113.138C145.562 113.403 145.768 113.634 146.015 113.816C146.261 113.998 146.542 114.127 146.841 114.197C147.139 114.266 147.448 114.274 147.75 114.22C148.056 114.201 148.354 114.119 148.627 113.981C148.9 113.842 149.142 113.649 149.338 113.413C149.534 113.178 149.68 112.904 149.766 112.611C149.853 112.317 149.879 112.008 149.842 111.704C149.805 111.4 149.706 111.107 149.552 110.842C149.398 110.577 149.191 110.347 148.945 110.165C148.698 109.983 148.417 109.853 148.119 109.783C147.821 109.714 147.511 109.706 147.21 109.76Z" fill="white"/>
<path d="M162 116.16C162 116.119 162.008 116.079 162.023 116.041C162.039 116.004 162.061 115.969 162.09 115.94C162.114 115.911 162.145 115.888 162.18 115.872C162.214 115.857 162.252 115.849 162.29 115.85C162.328 115.85 162.365 115.859 162.4 115.874C162.434 115.89 162.465 115.912 162.49 115.94C162.541 116.002 162.569 116.08 162.57 116.16C162.571 116.244 162.543 116.325 162.49 116.39C162.465 116.418 162.434 116.441 162.4 116.456C162.365 116.472 162.328 116.48 162.29 116.48C162.252 116.481 162.214 116.474 162.18 116.458C162.145 116.443 162.114 116.419 162.09 116.39C162.061 116.36 162.037 116.324 162.022 116.284C162.007 116.245 161.999 116.203 162 116.16ZM164.14 115.99V116.37C163.978 116.438 163.805 116.475 163.63 116.48C163.462 116.473 163.299 116.419 163.16 116.323C163.022 116.228 162.913 116.095 162.847 115.94C162.781 115.785 162.76 115.614 162.787 115.448C162.815 115.281 162.888 115.126 163 115C163.079 114.918 163.173 114.853 163.278 114.81C163.384 114.767 163.497 114.747 163.61 114.75C163.785 114.755 163.958 114.792 164.12 114.86V115.25C164.004 115.183 163.874 115.145 163.74 115.14C163.677 115.135 163.614 115.144 163.555 115.166C163.496 115.189 163.443 115.224 163.4 115.27C163.355 115.318 163.32 115.375 163.298 115.437C163.275 115.499 163.266 115.565 163.27 115.63C163.265 115.761 163.308 115.889 163.39 115.99C163.433 116.034 163.484 116.068 163.541 116.091C163.598 116.113 163.659 116.123 163.72 116.12C163.866 116.112 164.009 116.075 164.14 116.01V115.99ZM165.14 114.73C165.362 114.729 165.576 114.811 165.74 114.96C165.822 115.046 165.886 115.148 165.928 115.26C165.969 115.372 165.987 115.491 165.98 115.61C165.988 115.729 165.97 115.847 165.926 115.958C165.883 116.069 165.816 116.168 165.73 116.25C165.57 116.399 165.359 116.481 165.14 116.48C165.026 116.485 164.912 116.465 164.805 116.424C164.699 116.383 164.602 116.32 164.52 116.24C164.44 116.155 164.377 116.054 164.336 115.944C164.295 115.834 164.276 115.717 164.28 115.6C164.276 115.486 164.295 115.372 164.337 115.265C164.379 115.158 164.442 115.061 164.522 114.979C164.603 114.898 164.699 114.834 164.805 114.791C164.912 114.748 165.026 114.727 165.14 114.73ZM165.14 116.17C165.36 116.17 165.48 115.97 165.48 115.59C165.48 115.21 165.36 115.05 165.14 115.05C165.088 115.047 165.036 115.058 164.99 115.083C164.944 115.108 164.906 115.145 164.88 115.19C164.813 115.316 164.782 115.458 164.79 115.6C164.79 115.98 164.91 116.17 165.14 116.17ZM166.68 114.77V115C166.744 114.924 166.824 114.863 166.914 114.82C167.003 114.777 167.101 114.753 167.2 114.75C167.318 114.745 167.435 114.776 167.533 114.841C167.632 114.906 167.708 115 167.75 115.11C167.813 115.008 167.899 114.922 168.002 114.859C168.104 114.797 168.22 114.759 168.34 114.75C168.419 114.748 168.497 114.763 168.57 114.794C168.643 114.825 168.707 114.871 168.76 114.93C168.874 115.052 168.935 115.214 168.93 115.38V116.46H168.45V115.46C168.457 115.362 168.432 115.264 168.38 115.18C168.359 115.147 168.329 115.121 168.294 115.103C168.259 115.085 168.219 115.078 168.18 115.08C168.04 115.08 167.91 115.18 167.8 115.37V116.44H167.33V115.44C167.336 115.392 167.331 115.343 167.318 115.297C167.304 115.251 167.281 115.208 167.25 115.17C167.226 115.137 167.195 115.111 167.158 115.093C167.121 115.076 167.081 115.068 167.04 115.07C166.967 115.08 166.897 115.105 166.834 115.145C166.772 115.185 166.719 115.238 166.68 115.3V116.43H166.21V114.76L166.68 114.77Z" fill="white"/>
<path fill-rule="evenodd" clip-rule="evenodd" d="M158.12 107.83C158.251 107.843 158.375 107.894 158.477 107.977C158.579 108.059 158.655 108.17 158.696 108.294C158.737 108.419 158.741 108.553 158.707 108.68C158.674 108.807 158.604 108.922 158.507 109.01C158.41 109.098 158.289 109.156 158.159 109.177C158.029 109.198 157.896 109.181 157.776 109.129C157.656 109.076 157.554 108.989 157.482 108.879C157.41 108.769 157.371 108.641 157.37 108.51C157.38 108.321 157.465 108.143 157.605 108.016C157.746 107.888 157.931 107.822 158.12 107.83ZM157.49 109.83H158.77V114.09H157.49V109.83Z" fill="white"/>
<path d="M176.52 119.92C180.729 119.92 184.14 116.509 184.14 112.3C184.14 108.092 180.729 104.68 176.52 104.68C172.312 104.68 168.9 108.092 168.9 112.3C168.9 116.509 172.312 119.92 176.52 119.92Z" fill="#F36D3F"/>
<defs>
<linearGradient id="paint0_linear_1948_7806" x1="269.59" y1="1.40029" x2="270.14" y2="150.96" gradientUnits="userSpaceOnUse">
<stop stop-color="#DAD9D9"/>
<stop offset="0.19" stop-color="#E9E9E9"/>
<stop offset="0.46" stop-color="#F9F9F9"/>
<stop offset="0.67" stop-color="white"/>
</linearGradient>
<linearGradient id="paint1_linear_1948_7806" x1="217.11" y1="1.59023" x2="217.66" y2="151.16" gradientUnits="userSpaceOnUse">
<stop stop-color="#DAD9D9"/>
<stop offset="0.19" stop-color="#E9E9E9"/>
<stop offset="0.46" stop-color="#F9F9F9"/>
<stop offset="0.67" stop-color="white"/>
</linearGradient>
<linearGradient id="paint2_linear_1948_7806" x1="226.52" y1="17.4004" x2="227.07" y2="167.13" gradientUnits="userSpaceOnUse">
<stop offset="0.08" stop-color="#DAD9D9"/>
<stop offset="0.24" stop-color="#E9E9E9"/>
<stop offset="0.49" stop-color="#F9F9F9"/>
<stop offset="0.67" stop-color="white"/>
</linearGradient>
<linearGradient id="paint3_linear_1948_7806" x1="135.28" y1="17.4804" x2="135.83" y2="167.05" gradientUnits="userSpaceOnUse">
<stop offset="0.08" stop-color="#DAD9D9"/>
<stop offset="0.24" stop-color="#E9E9E9"/>
<stop offset="0.49" stop-color="#F9F9F9"/>
<stop offset="0.67" stop-color="white"/>
</linearGradient>
</defs>
</svg>
