<svg width="16" height="21" viewBox="0 0 16 21" fill="none" xmlns="http://www.w3.org/2000/svg">
<path d="M11.2072 0.791543L15.2072 4.78731C15.5678 5.14758 15.5959 5.71473 15.2911 6.10719L15.208 6.20144L11.208 10.2067C10.8177 10.5975 10.1846 10.5979 9.79379 10.2076C9.43307 9.84736 9.40497 9.28014 9.70974 8.88765L9.79286 8.79339L12.0834 6.50002L1.49976 6.50003C0.98692 6.50003 0.564249 6.11399 0.506484 5.61666L0.499756 5.50003C0.499756 4.9872 0.885796 4.56453 1.38313 4.50676L1.49976 4.50003L12.0904 4.50002L9.7937 2.2065C9.43303 1.84621 9.405 1.27899 9.70981 0.886542L9.79295 0.792291C10.1532 0.431616 10.7205 0.403587 11.1129 0.708404L11.2072 0.791543L15.2072 4.78731L11.2072 0.791543ZM15.4905 15.3834L15.4972 15.5C15.4972 16.0129 15.1112 16.4355 14.6138 16.4933L14.4972 16.5L3.91343 16.5L6.20721 18.7926C6.56786 19.1529 6.59586 19.7201 6.29102 20.1126L6.20787 20.2068C5.84756 20.5675 5.28034 20.5955 4.88791 20.2906L4.79366 20.2075L0.793659 16.2112C0.433005 15.8509 0.405009 15.2837 0.709849 14.8913L0.792994 14.797L4.79299 10.7933C5.18333 10.4026 5.8165 10.4023 6.20721 10.7926C6.56786 11.1529 6.59586 11.7201 6.29102 12.1126L6.20787 12.2068L3.91743 14.5L14.4972 14.5C15.0101 14.5 15.4327 14.8861 15.4905 15.3834L15.4972 15.5L15.4905 15.3834Z" fill="#3E3E52"/>
</svg>
