<svg width="234" height="125" viewBox="0 0 234 125" fill="none" xmlns="http://www.w3.org/2000/svg">
<path d="M183.134 71.4205C183.737 67.9134 184.835 64.4681 186.721 61.131L175.899 55.8626L175.605 54.3794C175.605 54.3794 175.389 54.6575 175.048 55.1365L170.936 51.6294C170.936 51.6294 169.684 56.1562 169.514 56.7741C169.436 57.0522 170.117 59.6941 171.137 62.7223C170.395 64.9625 169.978 67.3881 170.395 69.6901C170.766 71.714 174.229 75.3601 178.805 79.4079L179.346 78.8827C181.402 76.8742 182.655 74.2323 183.134 71.405V71.4205Z" fill="#252736"/>
<path d="M196.182 52.1082C196.182 51.0576 195.996 49.7908 195.749 48.2922C195.625 47.5506 195.532 46.7317 195.347 45.882C195.131 45.0477 194.899 44.1516 194.667 43.2092C193.615 39.4704 191.93 34.9745 188.9 30.4478C185.916 25.9364 181.727 21.317 176.161 17.5936C170.611 13.9011 163.685 11.1511 156.079 10.255C148.503 9.40527 140.217 10.4713 132.564 13.8548C128.73 15.5233 125.143 17.8563 121.804 20.5599C118.511 23.3254 115.62 26.6162 113.146 30.2315C112.559 31.1121 112.002 32.0236 111.492 32.9661C111.214 29.9379 110.425 26.9252 109.08 24.1752C108.014 21.9504 106.56 19.8338 104.798 18.0416C103.036 16.2495 101.041 14.7818 98.815 13.623C94.347 11.2901 89.3999 10.6567 84.9319 10.9039C80.3712 11.1202 75.4859 12.5416 71.4508 15.3071C69.441 16.6975 67.6786 18.2734 66.1172 20.1274C64.5557 21.9659 63.2725 24.0207 62.2985 26.1527C60.3506 30.3551 59.5776 34.7428 59.3612 38.9296C59.3612 39.0223 59.3612 39.115 59.3457 39.2077H59.5158L64.3702 39.424C64.5402 35.6389 65.2359 31.7919 66.8592 28.2693C68.4671 24.7314 71.0643 21.6723 74.2646 19.4785C77.4957 17.2846 81.3607 16.1259 85.2102 15.9405C89.0288 15.7242 93.0175 16.2804 96.5114 18.1034C99.9899 19.8802 102.881 22.8156 104.551 26.369C106.251 29.8761 106.87 33.8776 106.437 37.7091C106.05 41.5561 104.721 45.2486 102.974 48.5857C101.227 51.9537 99.1242 55.09 96.867 58.0873L96.9598 57.9482C96.0631 59.3387 95.1973 60.2193 94.3161 61.3008L91.6261 64.3444L86.1842 70.3389L75.1612 82.1888C73.0896 84.3981 70.9871 86.5919 68.9 88.8013C67.323 90.4853 65.7307 92.1538 64.1383 93.8224H112.049V88.8013H75.826C76.8309 87.7352 77.8204 86.6847 78.8252 85.6186L89.8791 73.7378L95.3674 67.697L98.1193 64.5916C98.5676 64.0972 99.0623 63.4792 99.5416 62.9076L99.8972 62.475C100.021 62.3359 100.114 62.2278 100.346 61.8879C100.747 61.3317 101.119 60.7601 101.474 60.173L100.887 61.1154C102.556 58.8906 104.149 56.5732 105.633 54.1167C105.617 54.5184 105.586 54.9355 105.571 55.3372C105.664 59.7713 106.251 64.2208 107.519 68.4849C108.864 72.7181 110.735 76.7659 113.146 80.4121C115.62 84.0273 118.511 87.3026 121.804 90.0836C125.143 92.7718 128.715 95.1202 132.564 96.7887C140.217 100.172 148.503 101.238 156.079 100.389C163.685 99.4924 170.611 96.7424 176.161 93.0499C181.727 89.3265 185.916 84.7071 188.9 80.1958C191.93 75.6845 193.6 71.1732 194.667 67.4343C194.914 66.4919 195.131 65.5958 195.347 64.7615C195.532 63.9118 195.625 63.1084 195.749 62.3514C195.996 60.8528 196.166 59.5859 196.182 58.5353C196.29 56.4496 196.336 55.3372 196.336 55.3372C196.336 55.3372 196.29 54.2248 196.182 52.1391V52.1082ZM191.095 58.1336C191.095 59.0606 190.925 60.1884 190.709 61.5171C190.601 62.1814 190.523 62.8921 190.353 63.6492C190.168 64.3907 189.951 65.1941 189.75 66.0284C188.807 69.3346 187.339 73.3361 184.649 77.353C182.005 81.37 178.279 85.4641 173.347 88.7704C168.416 92.0457 162.278 94.4713 155.522 95.2901C148.782 96.0472 141.438 95.0893 134.651 92.092C131.235 90.6243 128.065 88.5386 125.097 86.1439C122.175 83.6874 119.609 80.7674 117.413 77.5539C115.264 74.3094 113.626 70.7097 112.42 66.9708C111.291 63.1857 110.781 59.246 110.688 55.3063C110.781 51.3512 111.291 47.4115 112.42 43.6418C113.626 39.8875 115.264 36.3032 117.413 33.0588C119.624 29.8607 122.175 26.9407 125.097 24.4687C128.065 22.0895 131.235 20.0038 134.651 18.5206C141.438 15.5233 148.797 14.5655 155.522 15.3225C162.278 16.1259 168.4 18.5669 173.347 21.8423C178.279 25.1485 182.005 29.2581 184.649 33.2596C187.339 37.2611 188.823 41.2625 189.75 44.5842C189.967 45.4185 190.168 46.2219 190.353 46.9635C190.523 47.7205 190.601 48.4312 190.709 49.0955C190.925 50.4242 191.095 51.552 191.095 52.479C191.188 54.333 191.235 55.3218 191.235 55.3218L191.095 58.1645V58.1336Z" fill="url(#paint0_linear_2112_7044)"/>
<path d="M188.885 49.3735C188.776 48.7401 188.715 48.0603 188.545 47.3341C188.359 46.6235 188.174 45.8664 187.957 45.063C187.06 41.9113 185.654 38.0952 183.087 34.2637C180.567 30.4322 177.011 26.5234 172.296 23.3562C167.581 20.2354 161.737 17.9179 155.29 17.1454C148.859 16.4193 141.84 17.3308 135.362 20.189C132.116 21.5949 129.086 23.588 126.256 25.8591C123.474 28.2074 121.031 31.0038 118.913 34.0474C116.857 37.1528 115.295 40.5826 114.151 44.1515C113.069 47.7513 112.59 51.521 112.497 55.2907C112.59 59.0605 113.069 62.8302 114.151 66.43C115.295 69.9988 116.872 73.4287 118.913 76.5341C121.016 79.5931 123.458 82.3741 126.256 84.7224C129.086 86.9935 132.116 88.9865 135.362 90.3924C141.84 93.2506 148.843 94.1622 155.29 93.436C161.737 92.6635 167.581 90.3461 172.296 87.2253C177.011 84.0735 180.552 80.1493 183.087 76.3178C185.669 72.5017 187.06 68.6702 187.957 65.5184C188.158 64.715 188.359 63.958 188.545 63.2473C188.699 62.5366 188.776 61.8414 188.885 61.208C189.101 59.9411 189.256 58.8596 189.256 57.979C189.349 56.2177 189.395 55.2753 189.395 55.2753L189.256 52.5716C189.256 51.691 189.101 50.6095 188.885 49.3426V49.3735ZM184.169 57.6545C184.169 58.427 184.03 59.354 183.845 60.4509C183.752 60.9917 183.69 61.5942 183.566 62.2122C183.412 62.8302 183.242 63.4791 183.056 64.1743C182.268 66.9089 181.077 70.2151 178.836 73.5368C176.64 76.8585 173.564 80.2574 169.467 82.992C165.37 85.6957 160.315 87.7042 154.734 88.3685C149.137 88.9865 143.061 88.1986 137.449 85.7266C134.636 84.5216 132.008 82.7757 129.549 80.8136C127.138 78.7743 125.02 76.3487 123.18 73.7068C121.402 71.0185 120.057 68.0367 119.052 64.9468C118.124 61.826 117.707 58.5661 117.614 55.2907C117.707 52.0154 118.124 48.7555 119.052 45.6347C120.057 42.5447 121.402 39.5784 123.18 36.8747C125.02 34.2328 127.138 31.8072 129.549 29.7678C132.023 27.8057 134.636 26.0599 137.449 24.8548C143.046 22.3829 149.137 21.5949 154.734 22.2129C160.33 22.8927 165.37 24.8857 169.467 27.5894C173.548 30.324 176.64 33.7384 178.836 37.0446C181.077 40.3663 182.268 43.6726 183.056 46.4072C183.242 47.1024 183.412 47.7513 183.566 48.3693C183.706 48.9873 183.752 49.5898 183.845 50.1305C184.03 51.2275 184.169 52.1544 184.169 52.9269C184.247 54.4564 184.293 55.2753 184.293 55.2753C184.293 55.2753 184.247 56.0941 184.169 57.6236V57.6545Z" fill="url(#paint1_linear_2112_7044)"/>
<path d="M62.4222 95.5992H61.6028V93.7762H61.6492C63.2415 92.1076 64.8185 90.4236 66.4108 88.755C68.8844 86.1286 71.3735 83.533 73.8471 80.9066L84.8546 69.0721L90.281 63.0931L92.9401 60.0804C93.775 59.0916 94.7489 57.9792 95.3364 57.114L95.4292 56.975C97.6399 54.0396 99.6961 50.9805 101.366 47.7361C103.051 44.5071 104.288 41.0773 104.643 37.5084C105.045 33.9549 104.473 30.3397 102.927 27.1416C101.428 23.9435 98.8304 21.3325 95.692 19.7103C92.5536 18.0727 88.9205 17.5474 85.3338 17.7482C81.7626 17.9182 78.2532 18.9842 75.3158 20.9772C72.3938 22.9857 69.9975 25.7821 68.5288 29.0265C67.0292 32.2709 66.3645 35.8707 66.1944 39.5014L71.2189 39.7177C71.358 36.5659 71.93 33.6151 73.0895 31.1431C73.6616 29.9071 74.3572 28.7793 75.2075 27.7905C76.0424 26.7863 77.0782 25.8748 78.1295 25.1486C80.2629 23.7118 82.752 22.9239 85.6121 22.7848C88.5495 22.6149 91.2395 23.0629 93.3885 24.1907C94.4707 24.7469 95.5065 25.504 96.3413 26.3691C97.1762 27.2343 97.8718 28.2077 98.4129 29.3355C99.5415 31.6838 99.9589 34.2485 99.6652 36.9985C99.1705 42.4677 95.5838 48.4159 91.4405 53.9623L90.8376 54.8893V54.8429C90.8839 54.7966 90.7603 54.9356 90.6675 55.0592L90.3738 55.3991C89.9718 55.8626 89.6317 56.3107 89.1833 56.805L86.5706 59.7559L81.1751 65.6732L70.1985 77.4767C67.2457 80.6285 64.2619 83.7802 61.2936 86.932L55.5889 92.911V100.62H112.095V95.5992H62.4685H62.4222Z" fill="url(#paint2_linear_2112_7044)"/>
<path d="M170.394 69.7054C170.905 51.5675 217.114 69.3038 233.023 61.4553L226.097 51.3512L228.524 38.9142C213.543 45.4185 165.772 30.3242 165.726 46.2683L170.394 69.7054Z" fill="#CF2C1F"/>
<path d="M180.644 48.6165L178.433 44.0433L175.929 43.9043L179.314 50.9494L179.067 55.2753L181.293 55.3989L181.525 51.0575L185.885 44.445L183.365 44.306L180.644 48.6165Z" fill="white"/>
<path d="M185.483 55.6306L192.208 56.0014L192.317 54.0238L187.787 53.7766L187.926 51.212L192.208 51.4437L192.317 49.4971L188.034 49.2653L188.189 46.5616L192.719 46.8088L192.827 44.8312L186.086 44.4604L185.483 55.6306Z" fill="white"/>
<path d="M197.047 45.063L192.641 56.0323L194.929 56.1559L196.475 52.139L199.056 52.278L200.185 56.434L202.535 56.5576L199.335 45.1866L197.062 45.063H197.047ZM198.562 50.3622L197.186 50.285L197.742 48.8791C197.82 48.6628 197.897 48.4465 197.974 48.2147C198.021 48.4465 198.083 48.6782 198.16 48.9254L198.562 50.3622Z" fill="white"/>
<path d="M210.791 54.1321C210.636 53.236 210.327 52.5407 209.863 52.0618C210.806 51.4438 211.424 50.4396 211.471 49.3272C211.579 47.3651 210.002 45.6811 207.946 45.5729L204.143 45.3721L203.524 56.6349L205.72 56.7585L205.952 52.618L206.895 52.6643C207.992 52.7725 208.425 53.236 208.642 54.611C208.796 55.5689 208.935 56.2178 209.044 56.6658L209.105 56.9439L211.394 57.0675L211.27 56.5577C211.131 56.0324 210.992 55.2753 210.791 54.163V54.1321ZM209.368 49.219C209.322 50.0533 208.549 50.7022 207.652 50.6559L206.06 50.5632L206.23 47.5196L207.822 47.6123C208.719 47.6586 209.415 48.3848 209.368 49.219Z" fill="white"/>
<path d="M217.084 50.934C216.991 50.8877 216.898 50.8568 216.836 50.8259C216.759 50.7795 216.666 50.7332 216.589 50.7023L216.419 50.625C216.341 50.5941 216.264 50.5478 216.171 50.5169C214.641 49.8525 214.394 49.4354 214.424 48.8174C214.455 48.2921 214.904 47.705 216.079 47.7668C216.542 47.7977 217.006 47.8904 217.393 48.0604C217.903 48.323 218.197 48.8174 218.166 49.3273C218.166 49.3891 218.15 49.4354 218.135 49.5281L218.104 49.9761L218.552 50.007C218.939 50.0225 219.341 50.0688 219.727 50.1152L220.098 50.1615L220.16 49.7907C220.176 49.6826 220.191 49.559 220.191 49.4509C220.284 47.6278 218.769 46.0519 216.805 45.9438L215.228 45.8511L215.306 45.9283C213.559 46.1446 212.337 47.257 212.26 48.8483C212.183 50.3315 213.11 51.4593 215.12 52.2627C215.228 52.309 215.337 52.3708 215.429 52.4017C215.615 52.4944 215.816 52.6026 216.032 52.6953C217.563 53.3596 217.81 53.7768 217.779 54.3948C217.748 54.92 217.3 55.5071 216.125 55.4453C215.661 55.4144 215.197 55.3217 214.811 55.1518C214.301 54.8891 214.007 54.3948 214.038 53.8849C214.038 53.8231 214.053 53.7613 214.069 53.6995L214.1 53.2515L213.636 53.2206C213.249 53.2051 212.848 53.1588 212.461 53.1124L212.09 53.0661L212.028 53.4369C212.013 53.545 211.997 53.6686 211.997 53.7768C211.904 55.5998 213.42 57.1757 215.383 57.2838L216.96 57.3765L216.883 57.2993C218.63 57.083 219.851 55.9706 219.928 54.3793C220.005 52.8961 219.078 51.7683 217.068 50.9649L217.084 50.934Z" fill="white"/>
<path d="M153.203 43.3945H148.395V67.218H153.203V43.3945Z" fill="#D5D7D8"/>
<path d="M138.887 52.9115V57.7163H162.726V52.9115H138.887Z" fill="#D5D7D8"/>
<path d="M53.1772 31.2203V28.4703C53.1772 27.8523 52.6979 27.3579 52.095 27.327L50.0388 27.2189L23.5714 25.7666L16.9236 55.9244C15.6868 61.5327 13.4142 66.8473 10.2294 71.6213C7.01376 76.4262 4.74115 81.7872 3.50435 87.4263L0.0877048 103.077C-0.206034 104.452 0.597879 105.811 1.9429 106.213L6.56542 107.588C15.3931 110.215 24.8546 109.674 33.3112 106.028C41.2885 102.598 51.8786 102.49 59.9487 105.734L61.6029 106.399C61.6029 106.399 53.2081 39.007 53.2081 31.2203H53.1772Z" fill="#CF2C1F"/>
<path d="M57.8 107.588C60.0726 108.237 62.3297 106.568 62.3297 104.205C62.3297 104.205 61.3248 92.4937 60.4282 84.2127C58.3101 64.3444 53.3475 47.3188 53.1774 31.2202V28.4702C53.1774 27.8522 52.6982 27.3578 52.0952 27.3269L50.0391 27.2188L57.8 107.604V107.588Z" fill="#E34033"/>
<path d="M16.6606 42.2669L16.7225 42.5295L24.7462 38.0955C28.0546 32.9507 29.8016 28.0841 26.0603 24.1753L24.0505 25.0714C21.5151 26.1992 19.5826 28.3622 18.7323 31.0041L16.8152 36.9985C16.2741 38.7135 16.1968 40.5365 16.6297 42.2823L16.6606 42.2669Z" fill="#CFD0D1"/>
<path d="M50.1784 119.407C50.1165 118.526 50.0083 117.275 49.6837 115.591C49.4054 114.077 50.2711 112.733 51.7244 112.424C52.7756 112.207 53.8888 112.98 54.0897 114.077C54.368 115.622 54.8009 117.661 55.6048 119.484C55.6203 119.53 55.6357 119.561 55.6666 119.608C53.1931 122.914 51.3379 123.007 50.1938 119.407H50.1784Z" fill="#FFA280"/>
<path d="M50.1777 119.407C50.5024 119.994 50.8889 120.875 51.4764 120.488C52.002 120.149 51.7237 118.99 53.0224 118.851C54.0118 118.743 54.8776 119.067 55.666 119.608C56.0216 120.396 56.4081 120.967 56.7791 121.338C57.5367 122.111 57.7531 123.007 57.8768 124.011H50.7652C50.6106 123.625 50.3942 121.724 50.255 120.01C50.255 119.84 50.2241 119.623 50.2086 119.407H50.1777Z" fill="#252736"/>
<path d="M32.1517 119.871C31.9352 118.928 31.3323 117.043 31.2705 114.973L31.1932 112.254L26.2305 112.408C25.9986 113.536 27.5137 116.425 24.4062 119.268C26.7871 121.539 29.2452 122.945 32.1517 119.855V119.871Z" fill="#FFA280"/>
<path d="M32.1519 119.871C30.8378 120.535 29.1372 120.999 27.653 120.782C26.1998 120.581 25.9834 119.577 24.4065 119.284C24.3292 119.361 24.2673 119.423 24.1746 119.5C23.1697 120.365 21.9483 120.952 20.6651 121.354C18.1916 122.126 17.8205 123.023 17.8669 124.027H32.2447C32.6621 123.641 32.5075 121.74 32.1674 120.025C32.1674 119.979 32.1519 119.933 32.1364 119.871H32.1519Z" fill="#252736"/>
<path d="M24.0664 57.8247L45.8495 57.6548L46.3287 60.7293C46.4988 64.4372 45.0765 66.8628 41.1651 68.5932C37.6403 70.1536 34.8265 73.5062 34.6719 77.4149L33.0486 117.723L25.6742 117.522L24.2674 62.3824L24.0819 57.8402L24.0664 57.8247Z" fill="#19435E"/>
<path d="M55.063 117.723H47.9205L36.4492 69.4736L38.6291 57.84L42.7414 57.8554L44.1483 57.8709H45.7407L45.787 57.8245L45.818 57.8091V57.8245L46.4827 62.1659H46.4982L55.063 117.723Z" fill="#19435E"/>
<path d="M46.4835 62.1661H46.3444C45.0921 62.1661 43.9017 61.3472 43.4843 60.0804L42.7422 57.8556H44.381L45.7878 57.8247H45.8187L46.4835 62.1661Z" fill="#153650"/>
<path d="M45.8492 57.8244H24.0352V55.1207C30.7139 53.6838 38.1192 54.2246 45.6482 55.1207L45.8492 57.8244Z" fill="#252736"/>
<path d="M26.5086 23.9127C24.7617 24.9787 23.7568 26.9254 23.9268 28.9647L24.066 30.6797C24.3443 33.8623 24.437 37.0758 24.3597 40.2739L24.0196 55.1211H45.6326C46.452 53.7306 46.9622 52.1547 46.9467 50.5325L46.9158 46.8709C46.8385 40.0113 47.9516 33.2134 50.1778 26.7554C50.6262 25.4731 50.0542 24.0517 48.8637 23.4028L37.6089 17.2075L26.5086 23.9127Z" fill="#D6D7D8"/>
<g style="mix-blend-mode:multiply">
<g style="mix-blend-mode:multiply">
<path d="M32.2444 36.2878C29.5544 36.5041 26.6634 37.4001 24.4062 39.0224C24.4062 39.4395 24.4062 39.8566 24.4062 40.2738L24.3135 44.3525C29.4771 41.0463 37.2225 42.6067 42.649 44.3525C43.6539 44.6769 45.7255 45.7275 46.9314 45.743C46.9468 43.8427 47.0551 41.9578 47.2561 40.0729C44.1177 36.0406 36.8051 35.9324 32.2599 36.2878H32.2444Z" fill="#D6D7D8"/>
</g>
</g>
<g style="mix-blend-mode:multiply">
<path d="M34.4093 56.6506C32.5541 55.3837 31.4409 54.6267 31.3482 51.5831C31.3018 50.0072 31.2554 48.5704 31.209 47.2417C30.9462 39.7641 30.8071 35.6545 31.982 31.4367C32.6159 29.1656 33.559 26.6009 34.2547 24.7161C34.4556 24.1599 34.6412 23.6501 34.7958 23.2329L36.0635 23.7273C35.9089 24.1444 35.7234 24.6543 35.5224 25.2259C34.8421 27.0799 33.8991 29.6136 33.2807 31.8384C32.1676 35.8553 32.2912 39.6559 32.5541 47.2417C32.6004 48.5704 32.6468 50.0072 32.6932 51.5831C32.7705 53.916 33.358 54.3332 35.1359 55.5382L34.4093 56.6506Z" fill="#D6D7D8"/>
</g>
<path d="M46.5297 22.1201L50.3947 24.0977C52.5436 25.2101 53.7031 27.5893 53.2702 29.9686C52.3581 35.0206 50.7812 39.501 47.0244 42.5292L46.2514 41.5713C43.6387 38.3114 41.7989 36.9364 43.0357 32.9504L46.5297 22.1201Z" fill="#EDEDED"/>
<path d="M34.4397 28.3931L49.544 23.6655L41.1802 18.4126C39.0467 16.9295 36.2021 16.9758 34.0995 18.5053L24.7617 24.7625L34.4397 28.3777V28.3931Z" fill="#E34033"/>
<path d="M33.5584 25.7354L32.0742 23.6497L34.7952 21.8267L38.6138 23.8969L36.032 26.0599C35.2744 26.6933 34.1304 26.5543 33.5429 25.7354H33.5584Z" fill="#BBE2FF"/>
<path d="M30.2195 50.795L31.6882 52.649C31.8737 52.8962 32.2448 52.9116 32.4612 52.6799L34.1463 50.8877C34.3782 50.6405 34.5019 50.3315 34.5019 49.9916V36.7049C34.5019 35.7161 34.5483 34.7119 34.6411 33.7231L35.445 25.2412H34.3473L32.8013 28.6092C30.9152 32.7343 29.9258 37.2302 29.9258 41.7569V49.9762C29.9258 50.2697 30.0185 50.5633 30.2041 50.795H30.2195Z" fill="#252736"/>
<path d="M40.3612 22.0896C39.6191 23.0475 38.7688 23.7736 38.2123 24.2525C37.8413 24.5615 37.3001 24.5615 36.9291 24.2371L34.8729 22.4295L33.0487 23.8972C32.724 24.1598 32.2447 24.0362 32.0901 23.65C31.9355 23.2792 31.7809 22.9084 31.7191 22.723C31.2862 21.487 31.5954 20.112 32.4457 19.1232C32.9868 18.5052 33.5279 17.8873 33.5279 17.8718L39.7737 16.9448L40.6086 18.3816C41.2888 19.5558 41.1961 21.0235 40.3612 22.0896Z" fill="#DDF6FF"/>
<path d="M34.6102 55.1211H31.2863C30.8423 55.1211 30.4824 55.4808 30.4824 55.9245V57.0214C30.4824 57.4651 30.8423 57.8248 31.2863 57.8248H34.6102C35.0542 57.8248 35.4141 57.4651 35.4141 57.0214V55.9245C35.4141 55.4808 35.0542 55.1211 34.6102 55.1211Z" fill="#19435E"/>
<path d="M42.2159 13.2058C41.5511 15.2143 39.7269 16.6357 37.6088 16.6975C36.5421 16.7284 35.4908 16.6357 34.7024 16.4194C33.0636 15.9713 31.9969 14.4418 31.3166 12.9896C30.6364 11.4909 30.018 9.99231 29.5233 8.41644C28.6575 7.55126 27.9 6.51613 27.4826 5.4192C26.6477 3.2408 28.3792 0.92334 30.7137 0.92334H37.2223C38.4746 0.92334 39.665 1.58768 40.2216 2.71551V2.7464C40.7163 3.73519 40.6545 3.50344 41.6748 3.64249C42.4942 3.75063 43.0662 4.29137 43.4527 4.97116C44.0711 6.05264 44.1329 7.36586 43.7464 8.55549L42.2159 13.2522V13.2058Z" fill="#0E0F2D"/>
<path d="M39.974 14.0403C41.7673 13.6541 42.6176 9.68349 40.8243 9.1891C39.9894 8.95735 39.8657 9.76074 39.2628 10.4714V10.9658C38.5671 10.0697 37.454 9.54444 36.2636 9.69894L35.908 9.74528C33.6508 10.0234 32.0275 12.0627 32.2749 14.3338L32.8005 19.2468C32.8778 19.973 33.187 20.6373 33.6818 21.1781L34.8413 22.414L38.7526 19.7103C39.6648 19.0769 40.1904 18.0109 40.1286 16.8985L39.974 14.0403Z" fill="#FFA280"/>
<path d="M35.4295 5.15653L30.7451 5.09473C29.8794 5.09473 29.1373 5.72817 29.06 6.59335C28.8436 8.86445 28.8745 11.151 29.1528 13.4221L29.4774 16.1413C29.6784 17.8098 31.0698 19.0767 32.7395 19.1231C35.7232 19.2003 38.3514 17.2073 39.0781 14.3336L39.1708 13.9783L39.2636 10.4712L39.0317 10.3476C38.5524 10.1004 38.2432 9.57514 38.2896 9.0344C38.336 8.54001 38.3051 8.01472 38.1968 7.42763C37.9495 6.11441 36.7745 5.17198 35.445 5.15653H35.4295Z" fill="#FFA280"/>
<path d="M31.3945 14.8587C31.008 14.7197 30.9461 15.245 31.3171 15.4922C31.7809 15.7703 32.2757 15.9402 32.7858 15.9711C33.4352 16.0175 34.069 15.8321 34.641 15.4767C35.0121 15.245 34.9348 14.7197 34.5483 14.8433C33.5279 15.1832 32.4148 15.1832 31.3945 14.8433V14.8587Z" fill="white"/>
<path d="M20.4173 34.1094C23.7412 33.4914 27.5443 34.2794 31.5175 35.5772C33.0172 36.0715 37.7325 37.7247 39.263 38.3118C32.1205 41.1854 21.4067 43.5338 16.7224 42.545C16.2586 40.6447 16.4132 38.6362 17.1398 36.8131C17.6963 35.4227 18.9331 34.3875 20.4018 34.1094H20.4173Z" fill="#D6D7D8"/>
<path d="M34.0841 33.3832C33.7131 33.3832 33.2493 33.3678 32.7546 33.3678C31.3477 33.3678 29.9563 32.8116 29.0596 31.7301C28.5495 31.1276 27.8538 30.7259 26.8179 30.6641C24.7463 30.525 23.4477 31.9619 22.9375 33.8158L26.4469 34.2793C28.2093 34.5111 29.8945 35.16 31.3786 36.1487L32.9556 37.1993L34.0996 33.3987L34.0841 33.3832Z" fill="#FFA280"/>
<path d="M32.9561 37.1838L37.9805 40.5363C39.9903 41.8805 42.3712 42.5911 44.7984 42.5602L47.0401 42.5293L46.0506 37.1992C45.8187 35.9632 44.8911 34.9744 43.6698 34.6655C40.6242 33.893 37.424 33.4913 34.1001 33.3677L32.9561 37.1683V37.1838Z" fill="#EDEDED"/>
<path d="M34.7797 27.1567L33.4811 24.9011C33.1719 24.3603 33.2956 23.6651 33.7903 23.2634L34.285 22.8772C34.6251 22.6145 35.0889 22.63 35.4136 22.9081L36.2329 23.6342C36.6658 24.005 36.7277 24.6539 36.3721 25.1174L34.7643 27.1722L34.7797 27.1567Z" fill="#252736"/>
<path d="M41.9072 31.5911C42.5565 30.4633 43.9634 29.9534 45.1383 30.5251C45.2002 30.556 45.262 30.5869 45.3238 30.6178C47.38 31.8383 45.4166 33.9394 43.7315 34.3102C42.9121 34.4956 41.6598 34.3102 40.5312 34.0321L41.9072 31.6065V31.5911Z" fill="#FFA280"/>
<defs>
<linearGradient id="paint0_linear_2112_7044" x1="-5.21509" y1="55.3063" x2="254.481" y2="55.3063" gradientUnits="userSpaceOnUse">
<stop stop-color="#D8D9DD"/>
<stop offset="0.35" stop-color="#BCBEC0"/>
<stop offset="0.4" stop-color="#C8C9CB"/>
<stop offset="0.54" stop-color="#E2E3E4"/>
<stop offset="0.63" stop-color="#ECEDEE"/>
<stop offset="0.67" stop-color="#E0E2E3"/>
<stop offset="0.76" stop-color="#C3C5C6"/>
<stop offset="0.87" stop-color="#939798"/>
<stop offset="1" stop-color="#505658"/>
</linearGradient>
<linearGradient id="paint1_linear_2112_7044" x1="-5.21505" y1="55.3062" x2="254.481" y2="55.3062" gradientUnits="userSpaceOnUse">
<stop stop-color="#D8D9DD"/>
<stop offset="0.35" stop-color="#BCBEC0"/>
<stop offset="0.4" stop-color="#C8C9CB"/>
<stop offset="0.54" stop-color="#E2E3E4"/>
<stop offset="0.63" stop-color="#ECEDEE"/>
<stop offset="0.67" stop-color="#E0E2E3"/>
<stop offset="0.76" stop-color="#C3C5C6"/>
<stop offset="0.87" stop-color="#939798"/>
<stop offset="1" stop-color="#505658"/>
</linearGradient>
<linearGradient id="paint2_linear_2112_7044" x1="-5.21514" y1="59.1534" x2="254.481" y2="59.1534" gradientUnits="userSpaceOnUse">
<stop stop-color="#D8D9DD"/>
<stop offset="0.35" stop-color="#BCBEC0"/>
<stop offset="0.4" stop-color="#C8C9CB"/>
<stop offset="0.54" stop-color="#E2E3E4"/>
<stop offset="0.63" stop-color="#ECEDEE"/>
<stop offset="0.67" stop-color="#E0E2E3"/>
<stop offset="0.76" stop-color="#C3C5C6"/>
<stop offset="0.87" stop-color="#939798"/>
<stop offset="1" stop-color="#505658"/>
</linearGradient>
</defs>
</svg>
