<svg width="52" height="52" viewBox="0 0 52 52" fill="none" xmlns="http://www.w3.org/2000/svg">
<circle cx="26" cy="26" r="26" fill="#ABABAB"/>
<path fill-rule="evenodd" clip-rule="evenodd" d="M41.5999 16.0012C40.4529 16.5108 39.2185 16.854 37.9237 17.0089C39.2455 16.2165 40.2605 14.9623 40.7378 13.468C39.5024 14.2022 38.1307 14.7336 36.6737 15.0216C35.5059 13.7779 33.841 13 32.0013 13C28.4666 13 25.6006 15.866 25.6006 19.4008C25.6006 19.902 25.6578 20.3908 25.767 20.8598C20.4467 20.5936 15.7306 18.0447 12.5734 14.172C12.0222 15.1173 11.7071 16.2165 11.7071 17.3896C11.7071 19.6098 12.8354 21.569 14.5544 22.7171C13.5041 22.6838 12.5182 22.3958 11.6541 21.9164V21.9964C11.6541 25.0986 13.8618 27.6849 16.7882 28.2745C16.2516 28.4201 15.6859 28.4991 15.1025 28.4991C14.6896 28.4991 14.2882 28.4586 13.8972 28.3837C14.7115 30.9263 17.0763 32.7774 19.8768 32.8294C17.6867 34.5453 14.9267 35.5696 11.9276 35.5696C11.4097 35.5696 10.9001 35.5395 10.3999 35.4791C13.2327 37.2949 16.5968 38.3556 20.2116 38.3556C31.9847 38.3556 38.4229 28.6021 38.4229 20.1443C38.4229 19.8667 38.4177 19.59 38.4042 19.3165C39.6563 18.4118 40.742 17.2845 41.5999 16.0012Z" fill="white"/>
</svg>
